<svg width="32" height="32" viewBox="0 0 32 32" fill="none" xmlns="http://www.w3.org/2000/svg">
<rect width="32" height="32" fill="white"/>
<path fill-rule="evenodd" clip-rule="evenodd" d="M15.726 13.3926C15.8969 13.2218 15.8969 12.9447 15.726 12.7739C15.5552 12.603 15.2782 12.603 15.1073 12.7739L12.1906 15.6906C12.0198 15.8614 12.0198 16.1384 12.1906 16.3093L15.1073 19.2259C15.2782 19.3968 15.5552 19.3968 15.726 19.2259C15.8969 19.0551 15.8969 18.7781 15.726 18.6072L13.1187 15.9999L15.726 13.3926ZM19.226 13.3926C19.3969 13.2218 19.3969 12.9447 19.226 12.7739C19.0552 12.603 18.7782 12.603 18.6073 12.7739L15.6906 15.6906C15.5198 15.8614 15.5198 16.1384 15.6906 16.3093L18.6073 19.2259C18.7782 19.3968 19.0552 19.3968 19.226 19.2259C19.3969 19.0551 19.3969 18.7781 19.226 18.6072L16.6187 15.9999L19.226 13.3926Z" fill="#212121"/>
</svg>
