<svg width="30" height="30" viewBox="0 0 30 30" fill="none" xmlns="http://www.w3.org/2000/svg">
<path fill-rule="evenodd" clip-rule="evenodd" d="M3.9375 7.1875C3.9375 6.77329 4.27329 6.4375 4.6875 6.4375H24.6875C25.1017 6.4375 25.4375 6.77329 25.4375 7.1875C25.4375 7.60171 25.1017 7.9375 24.6875 7.9375H4.6875C4.27329 7.9375 3.9375 7.60171 3.9375 7.1875ZM3.9375 14.6875C3.9375 14.2733 4.27329 13.9375 4.6875 13.9375H24.6875C25.1017 13.9375 25.4375 14.2733 25.4375 14.6875C25.4375 15.1017 25.1017 15.4375 24.6875 15.4375H4.6875C4.27329 15.4375 3.9375 15.1017 3.9375 14.6875ZM4.6875 21.4375C4.27329 21.4375 3.9375 21.7733 3.9375 22.1875C3.9375 22.6017 4.27329 22.9375 4.6875 22.9375H24.6875C25.1017 22.9375 25.4375 22.6017 25.4375 22.1875C25.4375 21.7733 25.1017 21.4375 24.6875 21.4375H4.6875Z" fill="#212121"/>
</svg>
