<svg width="30" height="30" viewBox="0 0 30 30" fill="none" xmlns="http://www.w3.org/2000/svg">
<path fill-rule="evenodd" clip-rule="evenodd" d="M14.6891 2.5C16.3032 2.5 17.6575 3.61257 18.027 5.11271L18.0728 5.33625L18.2225 5.41805C21.0007 6.99084 22.8343 9.84348 23.1032 13.0767L23.1266 13.4375L23.1198 17.0748C23.2748 18.3553 24.0286 19.4861 25.151 20.1217C25.9512 20.5748 25.6806 21.7604 24.8165 21.8673L24.6891 21.875H19.3767V22.1875C19.3767 24.7763 17.2781 26.875 14.6892 26.875C12.1839 26.875 10.1376 24.9095 10.0082 22.4364L10.0017 22.1875V21.875H4.68906C3.72575 21.875 3.38886 20.5964 4.2271 20.1217C5.27466 19.5285 6.0012 18.5039 6.21391 17.4204L6.25156 17.1875L6.25259 13.3935C6.40936 10.0536 8.27451 7.0489 11.1556 5.41804L11.3041 5.33625L11.3069 5.31961C11.5859 3.78283 12.8865 2.60201 14.4797 2.50627L14.6891 2.5ZM11.8767 21.875V22.1875C11.8767 23.7408 13.1359 25 14.6892 25C16.1778 25 17.3963 23.8435 17.4952 22.3801L17.5017 22.1875V21.875H11.8767ZM18.4392 20H10.9392H7.08026L7.16554 19.8802C7.67436 19.117 8.00645 18.2359 8.11972 17.3002L8.12651 13.4375L8.14793 13.1229C8.38935 10.4066 10.0747 7.97428 12.5898 6.78503L12.7011 6.72291L12.8008 6.64822L12.8519 6.60041L12.8882 6.56243L12.9628 6.46705L12.9985 6.41067L13.0528 6.30242L13.093 6.18672L13.118 6.06471L13.1231 6.01922L13.1346 5.77774C13.2146 4.98984 13.88 4.375 14.689 4.375C15.552 4.375 16.2515 5.07456 16.2515 5.9375L16.2611 6.07165C16.3056 6.3798 16.5015 6.64943 16.7883 6.78503C19.4001 8.02002 21.1171 10.5956 21.2525 13.4815L21.2515 17.1875L21.2955 17.498C21.4489 18.4208 21.7933 19.2646 22.2936 19.9877L22.3015 20H18.4392Z" fill="#212121"/>
</svg>
