<svg width="30" height="30" viewBox="0 0 30 30" fill="none" xmlns="http://www.w3.org/2000/svg">
<path fill-rule="evenodd" clip-rule="evenodd" d="M11.6826 4.86273C11.4875 5.66514 10.5732 6.04406 9.86576 5.61394C7.09716 3.92839 3.92922 7.09709 5.61559 9.86525C5.81817 10.1975 5.84985 10.6062 5.70104 10.9654C5.55223 11.3245 5.24081 11.5911 4.86295 11.6826C1.71239 12.4469 1.71239 16.9281 4.86269 17.6923C5.23971 17.784 5.55074 18.0505 5.69938 18.4094C5.84802 18.7684 5.81641 19.1768 5.6143 19.5086C3.92836 22.2778 7.09706 25.4457 9.86521 23.7594C10.1975 23.5568 10.6061 23.5251 10.9653 23.6739C11.3245 23.8227 11.591 24.1342 11.6826 24.512C12.4469 27.6626 16.928 27.6626 17.6923 24.5123C17.784 24.1353 18.0504 23.8242 18.4094 23.6756C18.7684 23.527 19.1767 23.5586 19.5085 23.7607C22.2778 25.4466 25.4457 22.2779 23.7593 19.5098C23.5568 19.1775 23.5251 18.7688 23.6739 18.4096C23.8227 18.0505 24.1341 17.7839 24.512 17.6924C27.6625 16.9281 27.6625 12.4469 24.5122 11.6827C24.1352 11.591 23.8242 11.3245 23.6756 10.9656C23.5269 10.6066 23.5585 10.1982 23.7606 9.86644C25.4466 7.09719 22.2779 3.92925 19.5097 5.61562C19.1775 5.8182 18.7688 5.84989 18.4096 5.70107C18.0504 5.55226 17.7839 5.24085 17.6923 4.86273C16.928 1.71242 12.4469 1.71242 11.6826 4.86273ZM15.8701 5.3045C16.1026 6.26429 16.7796 7.05529 17.6919 7.43328C18.5283 7.77977 19.4702 7.74102 20.2708 7.33616L20.4855 7.21669C21.5361 6.57667 22.7341 7.71405 22.2231 8.77388L22.1592 8.89122C21.6459 9.73387 21.5656 10.7711 21.9432 11.6829C22.3207 12.5947 23.1108 13.2715 24.0697 13.5047C25.3099 13.8056 25.3099 15.5694 24.0702 15.8702C23.1107 16.1027 22.3197 16.7796 21.9417 17.692C21.5952 18.5283 21.6339 19.4702 22.0388 20.2709L22.1583 20.4855C22.7983 21.5361 21.6609 22.7342 20.6011 22.2231L20.4837 22.1592C19.6411 21.646 18.6039 21.5657 17.6921 21.9432C16.7803 22.3208 16.1035 23.1108 15.8703 24.0697C15.5694 25.3099 13.8055 25.3099 13.5048 24.0702C13.2723 23.1107 12.5953 22.3197 11.683 21.9417C10.8467 21.5952 9.90474 21.634 9.10409 22.0388L8.88942 22.1583C7.83883 22.7983 6.64079 21.6609 7.15182 20.6011L7.21573 20.4838C7.72899 19.6411 7.80928 18.6039 7.43173 17.6921C7.05419 16.7803 6.26415 16.1035 5.30524 15.8703C4.06504 15.5694 4.06504 13.8056 5.30474 13.5048C6.26426 13.2723 7.05526 12.5954 7.43325 11.683C7.77975 10.8467 7.74099 9.90476 7.33614 9.10411L7.21666 8.88944C6.57664 7.83886 7.71403 6.64081 8.77385 7.15185L8.8912 7.21576C10.6831 8.30525 13.0096 7.3411 13.5047 5.30526C13.793 4.11674 15.4249 4.06722 15.8251 5.15626L15.8701 5.3045ZM14.6875 10C12.0986 10 9.99997 12.0987 9.99997 14.6875C9.99997 17.2763 12.0986 19.375 14.6875 19.375C17.2763 19.375 19.375 17.2763 19.375 14.6875C19.375 12.0987 17.2763 10 14.6875 10ZM14.6875 11.875C16.2408 11.875 17.5 13.1342 17.5 14.6875C17.5 16.2408 16.2408 17.5 14.6875 17.5C13.1342 17.5 11.875 16.2408 11.875 14.6875C11.875 13.1342 13.1342 11.875 14.6875 11.875Z" fill="#212121"/>
</svg>
