<svg width="16" height="16" viewBox="0 0 16 16" fill="none" xmlns="http://www.w3.org/2000/svg">
<path fill-rule="evenodd" clip-rule="evenodd" d="M6.69226 2.19692C8.11448 1.76668 9.68273 2.05182 10.8146 2.9506C11.7411 3.68629 12.2629 4.74462 12.2697 5.8446L12.2649 6.03339H12.3622C13.881 6.03339 15.1207 7.22839 15.1923 8.72945L15.1955 8.86672C15.1955 10.4315 13.927 11.7001 12.3622 11.7001C12.0861 11.7001 11.8622 11.4762 11.8622 11.2001C11.8622 10.9239 12.0861 10.7001 12.3622 10.7001C13.3747 10.7001 14.1955 9.87925 14.1955 8.86672C14.1955 7.8917 13.4344 7.09445 12.4739 7.03674L12.3622 7.03339H11.6955C11.3752 7.03339 11.1375 6.73642 11.2077 6.42388C11.4295 5.43555 11.0474 4.41234 10.1928 3.73374C9.32038 3.04101 8.09318 2.81788 6.98182 3.15409C5.88293 3.48651 5.07407 4.31163 4.85007 5.30956C4.79718 5.54517 4.58347 5.70932 4.34219 5.69966C3.1097 5.65029 2.01924 6.43847 1.73639 7.56987C1.4552 8.69465 2.04816 9.85619 3.162 10.3417C3.41514 10.4521 3.5309 10.7467 3.42055 10.9998C3.31021 11.253 3.01555 11.3687 2.76241 11.2584C1.20634 10.5801 0.365055 8.93212 0.766251 7.32734C1.12833 5.87901 2.40851 4.84245 3.90993 4.71148L3.98421 4.70606L4.01024 4.6308C4.41474 3.53543 5.33809 2.65999 6.52833 2.24993L6.69226 2.19692ZM7.69554 7.36649C7.94867 7.36649 8.15787 7.55459 8.19098 7.79864L8.19554 7.86649V12.6592L9.34199 11.5129C9.5195 11.3354 9.79728 11.3193 9.99302 11.4645L10.0491 11.5129C10.2266 11.6904 10.2427 11.9682 10.0975 12.164L10.0491 12.22L8.0491 14.22C8.00125 14.2679 7.94612 14.304 7.88728 14.3284C7.82949 14.3524 7.76622 14.3659 7.69986 14.3665M7.19554 12.6592V7.86649C7.19554 7.59035 7.4194 7.36649 7.69554 7.36649M7.19554 12.6592L6.0491 11.5129L5.99302 11.4645C5.79728 11.3193 5.5195 11.3354 5.34199 11.5129C5.14673 11.7082 5.14673 12.0248 5.34199 12.22L7.34166 14.2197L7.34199 14.22L7.39771 14.2681" fill="#212121"/>
</svg>
