<svg width="16" height="16" viewBox="0 0 16 16" fill="none" xmlns="http://www.w3.org/2000/svg">
<path fill-rule="evenodd" clip-rule="evenodd" d="M2.53619 4.42309C2.64035 4.08164 2.95786 3.83325 3.33339 3.83325H12.6667C13.0422 3.83325 13.3598 4.08164 13.4639 4.42309L8.00005 8.06566L2.53619 4.42309ZM1.50008 4.65743C1.49998 4.66276 1.49998 4.66809 1.50005 4.67342V11.3333C1.50005 12.3458 2.32086 13.1666 3.33339 13.1666H12.6667C13.6792 13.1666 14.5001 12.3458 14.5001 11.3333V4.6734M13.5001 5.60084V11.3333C13.5001 11.7935 13.127 12.1666 12.6667 12.1666H3.33339C2.87315 12.1666 2.50005 11.7935 2.50005 11.3333V5.60084L7.7227 9.08261C7.89065 9.19458 8.10945 9.19458 8.2774 9.08261L13.5001 5.60084ZM14.5 4.65745C14.4951 3.64913 13.6762 2.83325 12.6667 2.83325H3.33339C2.32392 2.83325 1.50501 3.64912 1.50008 4.65743" fill="#212121"/>
</svg>
