<svg width="20" height="20" viewBox="0 0 20 20" fill="none" xmlns="http://www.w3.org/2000/svg">
<path fill-rule="evenodd" clip-rule="evenodd" d="M12.0792 4.65206C12.0071 3.45142 11.0105 2.5 9.79175 2.5H3.95841L3.81881 2.50418C2.61817 2.57633 1.66675 3.57289 1.66675 4.79167V14.7917L1.67093 14.9313C1.74308 16.1319 2.73964 17.0833 3.95841 17.0833H9.79175L9.93135 17.0792C11.132 17.007 12.0834 16.0104 12.0834 14.7917V13.125L12.0777 13.0402C12.0363 12.7351 11.7748 12.5 11.4584 12.5C11.1132 12.5 10.8334 12.7798 10.8334 13.125V14.7917L10.828 14.8982C10.7747 15.4234 10.3311 15.8333 9.79175 15.8333H3.95841L3.85191 15.828C3.32664 15.7746 2.91675 15.331 2.91675 14.7917V4.79167L2.92213 4.68516C2.97547 4.1599 3.41907 3.75 3.95841 3.75H9.79175L9.89825 3.75538C10.4235 3.80872 10.8334 4.25233 10.8334 4.79167V6.45833L10.8391 6.54314C10.8805 6.84821 11.142 7.08333 11.4584 7.08333C11.8036 7.08333 12.0834 6.80351 12.0834 6.45833V4.79167L12.0792 4.65206ZM15.2337 6.84973L15.1636 6.78921C14.9189 6.60766 14.5717 6.62784 14.3498 6.84973L14.2893 6.91982C14.1077 7.1645 14.1279 7.51172 14.3498 7.73361L15.7826 9.16667H5.62508L5.54027 9.17237C5.23521 9.21376 5.00008 9.47525 5.00008 9.79167C5.00008 10.1368 5.2799 10.4167 5.62508 10.4167H15.7817L14.3498 11.8497L14.2893 11.9198C14.1077 12.1645 14.1279 12.5117 14.3498 12.7336C14.5939 12.9777 14.9896 12.9777 15.2337 12.7336L17.7583 10.209C17.7866 10.1769 17.8114 10.1421 17.8326 10.1051L17.8812 9.99953C17.9562 9.78814 17.9212 9.53724 17.7337 9.34972L15.2337 6.84973Z" fill="#212121"/>
</svg>
