<svg width="16" height="16" viewBox="0 0 16 16" fill="none" xmlns="http://www.w3.org/2000/svg">
<path fill-rule="evenodd" clip-rule="evenodd" d="M12.9999 3.50022C12.9999 2.3036 12.0299 1.33355 10.8333 1.33355L10.6978 1.33492C9.52936 1.37901 8.49686 2.25763 7.84001 3.63977L7.83258 3.65489L7.7489 3.48255C7.06308 2.13963 6.00959 1.31298 4.82454 1.33363C3.63664 1.33355 2.66659 2.3036 2.66659 3.50022C2.66659 3.92983 2.79162 4.33024 3.00729 4.66704H2.49992C1.85559 4.66704 1.33325 5.18937 1.33325 5.8337V7.16704C1.33325 7.81137 1.85559 8.3337 2.49992 8.3337H2.66659V12.5004L2.66993 12.6121C2.72765 13.5726 3.5249 14.3337 4.49992 14.3337L7.83325 14.3337L11.1666 14.3337L11.2783 14.3304C12.2388 14.2726 12.9999 13.4754 12.9999 12.5004V8.3337H13.1666C13.8109 8.3337 14.3333 7.81137 14.3333 7.16704V5.8337C14.3333 5.18937 13.8109 4.66704 13.1666 4.66704H12.6592C12.8749 4.33024 12.9999 3.92983 12.9999 3.50022ZM10.831 4.66704L10.8333 4.66689C11.4776 4.66689 11.9999 4.14455 11.9999 3.50022C11.9999 2.85589 11.4776 2.33355 10.8245 2.33348C9.90967 2.31754 9.00509 3.20098 8.49945 4.66704H10.831ZM7.16703 4.66704C6.66129 3.20098 5.75581 2.31755 4.83325 2.33355C4.18892 2.33355 3.66659 2.85589 3.66659 3.50022C3.66659 4.11234 4.13799 4.61435 4.73757 4.66302L4.83325 4.66689C4.8374 4.66689 4.84154 4.66694 4.84566 4.66704H7.16703ZM3.66659 12.5004V8.3337H7.33325V13.3337H4.49992L4.41472 13.3294C3.9945 13.2867 3.66659 12.9318 3.66659 12.5004ZM11.1666 13.3337H8.33325V8.3337H11.9999V12.5004L11.9956 12.5856C11.9529 13.0058 11.5981 13.3337 11.1666 13.3337ZM13.1666 7.3337H12.4999H8.33325V5.66704H13.1666C13.2586 5.66704 13.3333 5.74166 13.3333 5.8337V7.16704C13.3333 7.25909 13.2586 7.3337 13.1666 7.3337ZM7.33325 5.66704H2.49992C2.40787 5.66704 2.33325 5.74166 2.33325 5.8337V7.16704C2.33325 7.25909 2.40787 7.3337 2.49992 7.3337H3.16659H7.33325V5.66704Z" fill="#212121"/>
</svg>
