<svg width="16" height="16" viewBox="0 0 16 16" fill="none" xmlns="http://www.w3.org/2000/svg">
<path fill-rule="evenodd" clip-rule="evenodd" d="M10.5 1.33325C10.7531 1.33325 10.9623 1.52135 10.9954 1.7654L11 1.83325V2.66659H11.8333C12.8459 2.66659 13.6667 3.4874 13.6667 4.49992V7.16658V12.4999C13.6667 13.5124 12.8459 14.3333 11.8333 14.3333H3.83333C2.82081 14.3333 2 13.5124 2 12.4999V7.16658V4.49992C2 3.4874 2.82081 2.66659 3.83333 2.66659H4.66667V1.83325C4.66667 1.55711 4.89052 1.33325 5.16667 1.33325C5.4198 1.33325 5.62899 1.52135 5.6621 1.7654L5.66667 1.83325V2.66659H10V1.83325C10 1.55711 10.2239 1.33325 10.5 1.33325ZM12.6667 4.49992V6.66658H3V4.49992C3 4.03968 3.3731 3.66659 3.83333 3.66659H4.66667V4.49992L4.67123 4.56777C4.70434 4.81182 4.91354 4.99992 5.16667 4.99992C5.44281 4.99992 5.66667 4.77606 5.66667 4.49992V3.66659H10V4.49992L10.0046 4.56777C10.0377 4.81182 10.2469 4.99992 10.5 4.99992C10.7761 4.99992 11 4.77606 11 4.49992V3.66659H11.8333C12.2936 3.66659 12.6667 4.03968 12.6667 4.49992ZM12.6667 7.66658H3V12.4999C3 12.9602 3.3731 13.3333 3.83333 13.3333H11.8333C12.2936 13.3333 12.6667 12.9602 12.6667 12.4999V7.66658ZM6.5 9.33325H5.16667C4.89052 9.33325 4.66667 9.55711 4.66667 9.83325V11.1666C4.66667 11.4427 4.89052 11.6666 5.16667 11.6666H6.5C6.77614 11.6666 7 11.4427 7 11.1666V9.83325C7 9.55711 6.77614 9.33325 6.5 9.33325ZM6 10.3333V10.6666H5.66667V10.3333H6Z" fill="#212121"/>
</svg>
