<svg width="16" height="16" viewBox="0 0 16 16" fill="none" xmlns="http://www.w3.org/2000/svg">
<path fill-rule="evenodd" clip-rule="evenodd" d="M6.23066 2.59337C6.1266 3.02133 5.63896 3.22342 5.26166 2.99402C3.78507 2.09506 2.0955 3.78504 2.9949 5.26138C3.10294 5.43859 3.11984 5.65654 3.04047 5.84811C2.96111 6.03968 2.79502 6.18182 2.59349 6.23065C0.913194 6.63828 0.913194 9.02822 2.59336 9.43583C2.79443 9.48472 2.96031 9.62684 3.03959 9.81829C3.11886 10.0097 3.102 10.2275 2.99421 10.4045C2.09504 11.8814 3.78502 13.571 5.26137 12.6716C5.43857 12.5635 5.65652 12.5466 5.84809 12.626C6.03966 12.7054 6.1818 12.8715 6.23063 13.073C6.63826 14.7533 9.02821 14.7533 9.43581 13.0731C9.48471 12.8721 9.62682 12.7062 9.81827 12.6269C10.0097 12.5476 10.2275 12.5645 10.4045 12.6723C11.8814 13.5714 13.571 11.8815 12.6716 10.4051C12.5635 10.2279 12.5466 10.01 12.626 9.8184C12.7054 9.62683 12.8715 9.48469 13.073 9.43586C14.7533 9.02822 14.7533 6.63828 13.0731 6.23068C12.872 6.18178 12.7062 6.03966 12.6269 5.84822C12.5476 5.65677 12.5645 5.43899 12.6723 5.26202C13.5714 3.78509 11.8815 2.09552 10.4051 2.99492C10.2279 3.10296 10.0099 3.11986 9.81838 3.04049C9.62681 2.96112 9.48467 2.79504 9.43581 2.59337C9.02821 0.913212 6.63826 0.913212 6.23066 2.59337ZM8.46397 2.82901C8.588 3.3409 8.94904 3.76276 9.43563 3.96436C9.88167 4.14915 10.384 4.12849 10.811 3.91256L10.9255 3.84884C11.4858 3.5075 12.1248 4.1141 11.8523 4.67934L11.8182 4.74193C11.5444 5.19134 11.5016 5.74452 11.703 6.23081C11.9043 6.71709 12.3257 7.07807 12.8371 7.20244C13.4985 7.36291 13.4985 8.30363 12.8374 8.46403C12.3256 8.58802 11.9037 8.94907 11.7022 9.43566C11.5174 9.8817 11.538 10.3841 11.7539 10.8111L11.8177 10.9256C12.159 11.4859 11.5524 12.1248 10.9872 11.8523L10.9246 11.8182C10.4752 11.5445 9.92199 11.5016 9.4357 11.703C8.94942 11.9043 8.58844 12.3257 8.46407 12.8371C8.30361 13.4986 7.36288 13.4986 7.20248 12.8374C7.07849 12.3256 6.71744 11.9038 6.23085 11.7022C5.78481 11.5174 5.28246 11.5381 4.85544 11.754L4.74095 11.8177C4.18064 12.159 3.54168 11.5524 3.81424 10.9872L3.84832 10.9246C4.12206 10.4752 4.16488 9.92201 3.96352 9.43573C3.76216 8.94945 3.34081 8.58846 2.82939 8.46409C2.16795 8.30363 2.16795 7.36291 2.82912 7.20251C3.34087 7.07851 3.76274 6.71747 3.96433 6.23088C4.14913 5.78484 4.12846 5.28248 3.91254 4.85547L3.84882 4.74098C3.50747 4.18067 4.11408 3.54171 4.67932 3.81426L4.7419 3.84835C5.6976 4.42941 6.93839 3.9152 7.20242 2.82941C7.35619 2.19554 8.22657 2.16912 8.44 2.74994L8.46397 2.82901ZM7.83323 5.33325C6.45251 5.33325 5.33323 6.45254 5.33323 7.83325C5.33323 9.21396 6.45251 10.3333 7.83323 10.3333C9.21394 10.3333 10.3332 9.21396 10.3332 7.83325C10.3332 6.45254 9.21394 5.33325 7.83323 5.33325ZM7.83323 6.33325C8.66165 6.33325 9.33323 7.00482 9.33323 7.83325C9.33323 8.66168 8.66165 9.33325 7.83323 9.33325C7.0048 9.33325 6.33323 8.66168 6.33323 7.83325C6.33323 7.00482 7.0048 6.33325 7.83323 6.33325Z" fill="#212121"/>
</svg>
