<svg width="16" height="16" viewBox="0 0 16 16" fill="none" xmlns="http://www.w3.org/2000/svg">
<path fill-rule="evenodd" clip-rule="evenodd" d="M14.1868 4.14645C14.3821 4.34171 14.3821 4.65829 14.1868 4.85355L8.85347 10.1869C8.65821 10.3821 8.34163 10.3821 8.14637 10.1869L5.83325 7.87377L2.18681 11.5202C1.99154 11.7155 1.67496 11.7155 1.4797 11.5202C1.28444 11.325 1.28444 11.0084 1.4797 10.8131L5.4797 6.81311C5.67496 6.61785 5.99154 6.61785 6.18681 6.81311L8.49992 9.12623L13.4797 4.14645C13.675 3.95118 13.9915 3.95118 14.1868 4.14645Z" fill="#212121"/>
<path fill-rule="evenodd" clip-rule="evenodd" d="M8.6665 4.5C8.6665 4.22386 8.89036 4 9.1665 4H13.8332C14.1093 4 14.3332 4.22386 14.3332 4.5V9.16667C14.3332 9.44281 14.1093 9.66667 13.8332 9.66667C13.557 9.66667 13.3332 9.44281 13.3332 9.16667V5H9.1665C8.89036 5 8.6665 4.77614 8.6665 4.5Z" fill="#212121"/>
</svg>
