<svg width="16" height="16" viewBox="0 0 16 16" fill="none" xmlns="http://www.w3.org/2000/svg">
<path fill-rule="evenodd" clip-rule="evenodd" d="M7.83325 2C6.08435 2 4.66659 3.41776 4.66659 5.16667C4.66659 6.91557 6.08435 8.33333 7.83325 8.33333C9.58215 8.33333 10.9999 6.91557 10.9999 5.16667C10.9999 3.41776 9.58215 2 7.83325 2ZM7.83325 3C9.02987 3 9.99992 3.97005 9.99992 5.16667C9.99992 6.36328 9.02987 7.33333 7.83325 7.33333C6.63663 7.33333 5.66659 6.36328 5.66659 5.16667C5.66659 3.97005 6.63663 3 7.83325 3ZM12.33 12.355C12.2542 10.6734 10.8669 9.33333 9.16659 9.33333H6.49992L6.35497 9.33659C4.67335 9.41235 3.33325 10.7997 3.33325 12.5V13.8333L3.33782 13.9012C3.37092 14.1452 3.58012 14.3333 3.83325 14.3333C4.10939 14.3333 4.33325 14.1095 4.33325 13.8333V12.5L4.33668 12.3771C4.40042 11.2376 5.34456 10.3333 6.49992 10.3333H9.16659L9.28953 10.3368C10.4289 10.4005 11.3333 11.3446 11.3333 12.5V13.8333L11.3378 13.9012C11.3709 14.1452 11.5801 14.3333 11.8333 14.3333C12.1094 14.3333 12.3333 14.1095 12.3333 13.8333V12.5L12.33 12.355Z" fill="#212121"/>
</svg>
