<svg width="414" height="138" viewBox="0 0 414 138" fill="none" xmlns="http://www.w3.org/2000/svg">
<g filter="url(#filter0_d_928_2266)">
<rect x="16.75" y="4" width="381.25" height="106" rx="12" fill="white"/>
<g clip-path="url(#clip0_928_2266)">
<path d="M43.2861 40.8438V45H42.124V35.0059H44.8652C46.0911 35.0059 46.9958 35.2406 47.5791 35.71C48.167 36.1794 48.4609 36.8857 48.4609 37.8291C48.4609 39.1507 47.791 40.0439 46.4512 40.5088L49.165 45H47.791L45.3711 40.8438H43.2861ZM43.2861 39.8457H44.8789C45.6992 39.8457 46.3008 39.6839 46.6836 39.3604C47.0664 39.0322 47.2578 38.5423 47.2578 37.8906C47.2578 37.2298 47.0618 36.7536 46.6699 36.4619C46.2826 36.1702 45.6582 36.0244 44.7969 36.0244H43.2861V39.8457ZM53.7725 45.1367C52.665 45.1367 51.79 44.7995 51.1475 44.125C50.5094 43.4505 50.1904 42.514 50.1904 41.3154C50.1904 40.1077 50.4867 39.1484 51.0791 38.4375C51.6761 37.7266 52.4759 37.3711 53.4785 37.3711C54.4173 37.3711 55.1602 37.681 55.707 38.3008C56.2539 38.916 56.5273 39.7295 56.5273 40.7412V41.459H51.3662C51.389 42.3385 51.61 43.0062 52.0293 43.4619C52.4531 43.9176 53.0479 44.1455 53.8135 44.1455C54.6201 44.1455 55.4176 43.9769 56.2061 43.6396V44.6514C55.805 44.8245 55.4245 44.9476 55.0645 45.0205C54.709 45.098 54.2783 45.1367 53.7725 45.1367ZM53.4648 38.3213C52.8633 38.3213 52.3825 38.5173 52.0225 38.9092C51.667 39.3011 51.4574 39.8434 51.3936 40.5361H55.3105C55.3105 39.8206 55.151 39.2738 54.832 38.8955C54.513 38.5127 54.0573 38.3213 53.4648 38.3213ZM60.1094 45L57.2656 37.5078H58.4824L60.0957 41.9512C60.4603 42.9902 60.6745 43.6647 60.7383 43.9746H60.793C60.8431 43.7331 61.0003 43.234 61.2646 42.4775C61.5335 41.7165 62.1328 40.0599 63.0625 37.5078H64.2793L61.4355 45H60.1094ZM68.6475 45.1367C67.54 45.1367 66.665 44.7995 66.0225 44.125C65.3844 43.4505 65.0654 42.514 65.0654 41.3154C65.0654 40.1077 65.3617 39.1484 65.9541 38.4375C66.5511 37.7266 67.3509 37.3711 68.3535 37.3711C69.2923 37.3711 70.0352 37.681 70.582 38.3008C71.1289 38.916 71.4023 39.7295 71.4023 40.7412V41.459H66.2412C66.264 42.3385 66.485 43.0062 66.9043 43.4619C67.3281 43.9176 67.9229 44.1455 68.6885 44.1455C69.4951 44.1455 70.2926 43.9769 71.0811 43.6396V44.6514C70.68 44.8245 70.2995 44.9476 69.9395 45.0205C69.584 45.098 69.1533 45.1367 68.6475 45.1367ZM68.3398 38.3213C67.7383 38.3213 67.2575 38.5173 66.8975 38.9092C66.542 39.3011 66.3324 39.8434 66.2686 40.5361H70.1855C70.1855 39.8206 70.026 39.2738 69.707 38.8955C69.388 38.5127 68.9323 38.3213 68.3398 38.3213ZM78.4707 45V40.1533C78.4707 39.5426 78.3317 39.0869 78.0537 38.7861C77.7757 38.4854 77.3405 38.335 76.748 38.335C75.9642 38.335 75.39 38.5469 75.0254 38.9707C74.6608 39.3945 74.4785 40.0941 74.4785 41.0693V45H73.3438V37.5078H74.2666L74.4512 38.5332H74.5059C74.7383 38.1641 75.0641 37.8792 75.4834 37.6787C75.9027 37.4736 76.3698 37.3711 76.8848 37.3711C77.7871 37.3711 78.4661 37.5898 78.9219 38.0273C79.3776 38.4603 79.6055 39.1553 79.6055 40.1123V45H78.4707ZM83.0098 37.5078V42.3682C83.0098 42.9788 83.1488 43.4346 83.4268 43.7354C83.7048 44.0361 84.14 44.1865 84.7324 44.1865C85.5163 44.1865 86.0882 43.9723 86.4482 43.5439C86.8128 43.1156 86.9951 42.416 86.9951 41.4453V37.5078H88.1299V45H87.1934L87.0293 43.9951H86.9678C86.7354 44.3643 86.4118 44.6468 85.9971 44.8428C85.5869 45.0387 85.1175 45.1367 84.5889 45.1367C83.6774 45.1367 82.9938 44.9202 82.5381 44.4873C82.0869 44.0544 81.8613 43.3617 81.8613 42.4092V37.5078H83.0098ZM93.708 45.1367C92.6006 45.1367 91.7256 44.7995 91.083 44.125C90.445 43.4505 90.126 42.514 90.126 41.3154C90.126 40.1077 90.4222 39.1484 91.0146 38.4375C91.6117 37.7266 92.4115 37.3711 93.4141 37.3711C94.3529 37.3711 95.0957 37.681 95.6426 38.3008C96.1895 38.916 96.4629 39.7295 96.4629 40.7412V41.459H91.3018C91.3245 42.3385 91.5456 43.0062 91.9648 43.4619C92.3887 43.9176 92.9834 44.1455 93.749 44.1455C94.5557 44.1455 95.3532 43.9769 96.1416 43.6396V44.6514C95.7406 44.8245 95.36 44.9476 95 45.0205C94.6445 45.098 94.2139 45.1367 93.708 45.1367ZM93.4004 38.3213C92.7988 38.3213 92.318 38.5173 91.958 38.9092C91.6025 39.3011 91.3929 39.8434 91.3291 40.5361H95.2461C95.2461 39.8206 95.0866 39.2738 94.7676 38.8955C94.4486 38.5127 93.9928 38.3213 93.4004 38.3213Z" fill="#52647C"/>
<path d="M55.006 73.248C55.006 74.544 54.526 75.648 53.566 76.56C52.622 77.456 51.246 78 49.438 78.192V80.88H47.47V78.216C46.286 78.136 45.166 77.92 44.11 77.568C43.054 77.216 42.214 76.768 41.59 76.224L42.67 73.8C43.262 74.28 43.982 74.688 44.83 75.024C45.678 75.344 46.558 75.544 47.47 75.624V70.824C46.334 70.552 45.382 70.256 44.614 69.936C43.862 69.6 43.23 69.12 42.718 68.496C42.206 67.856 41.95 67.016 41.95 65.976C41.95 64.68 42.422 63.576 43.366 62.664C44.31 61.752 45.678 61.208 47.47 61.032V58.32H49.438V60.984C50.334 61.032 51.206 61.184 52.054 61.44C52.918 61.696 53.67 62.032 54.31 62.448L53.326 64.872C52.11 64.168 50.814 63.736 49.438 63.576V68.424C50.59 68.696 51.542 68.992 52.294 69.312C53.062 69.632 53.702 70.112 54.214 70.752C54.742 71.376 55.006 72.208 55.006 73.248ZM45.046 65.832C45.046 66.36 45.254 66.784 45.67 67.104C46.086 67.424 46.686 67.696 47.47 67.92V63.648C46.654 63.776 46.046 64.032 45.646 64.416C45.246 64.8 45.046 65.272 45.046 65.832ZM49.438 75.576C50.286 75.448 50.91 75.2 51.31 74.832C51.726 74.464 51.934 74.008 51.934 73.464C51.934 72.92 51.718 72.488 51.286 72.168C50.854 71.832 50.238 71.552 49.438 71.328V75.576ZM62.4734 61.2V78H59.3534V63.816H55.8014V61.2H62.4734ZM77.974 75.36V78H65.59V75.912L72.262 69.576C73.014 68.856 73.518 68.232 73.774 67.704C74.046 67.16 74.182 66.624 74.182 66.096C74.182 65.312 73.918 64.712 73.39 64.296C72.862 63.88 72.086 63.672 71.062 63.672C69.35 63.672 68.038 64.256 67.126 65.424L64.942 63.744C65.598 62.864 66.478 62.184 67.582 61.704C68.702 61.208 69.95 60.96 71.326 60.96C73.15 60.96 74.606 61.392 75.694 62.256C76.782 63.12 77.326 64.296 77.326 65.784C77.326 66.696 77.134 67.552 76.75 68.352C76.366 69.152 75.63 70.064 74.542 71.088L70.054 75.36H77.974ZM85.4388 60.96C87.7428 60.96 89.5268 61.68 90.7908 63.12C92.0708 64.56 92.7108 66.624 92.7108 69.312C92.7108 71.2 92.3668 72.816 91.6788 74.16C90.9908 75.488 90.0228 76.504 88.7748 77.208C87.5428 77.896 86.1108 78.24 84.4788 78.24C83.6148 78.24 82.7988 78.152 82.0308 77.976C81.2788 77.784 80.6228 77.512 80.0628 77.16L81.2148 74.808C82.0468 75.352 83.1108 75.624 84.4068 75.624C86.0228 75.624 87.2868 75.128 88.1988 74.136C89.1108 73.144 89.5668 71.712 89.5668 69.84V69.816C89.0708 70.392 88.4388 70.832 87.6708 71.136C86.9028 71.424 86.0388 71.568 85.0788 71.568C83.9748 71.568 82.9828 71.36 82.1028 70.944C81.2228 70.512 80.5348 69.904 80.0388 69.12C79.5428 68.336 79.2948 67.432 79.2948 66.408C79.2948 65.32 79.5668 64.368 80.1108 63.552C80.6548 62.72 81.3908 62.08 82.3188 61.632C83.2468 61.184 84.2868 60.96 85.4388 60.96ZM85.6788 69.12C86.6868 69.12 87.5028 68.848 88.1268 68.304C88.7668 67.76 89.0868 67.072 89.0868 66.24C89.0868 65.424 88.7748 64.752 88.1508 64.224C87.5428 63.68 86.6948 63.408 85.6068 63.408C84.6308 63.408 83.8388 63.672 83.2308 64.2C82.6228 64.712 82.3188 65.4 82.3188 66.264C82.3188 67.144 82.6228 67.84 83.2308 68.352C83.8388 68.864 84.6548 69.12 85.6788 69.12ZM96.4364 74.184C96.9964 74.184 97.4604 74.368 97.8284 74.736C98.1964 75.104 98.3804 75.584 98.3804 76.176C98.3804 76.432 98.3404 76.704 98.2604 76.992C98.1964 77.264 98.0524 77.68 97.8284 78.24L96.6044 81.624H94.6604L95.6204 77.952C95.2684 77.808 94.9884 77.584 94.7804 77.28C94.5884 76.96 94.4924 76.592 94.4924 76.176C94.4924 75.584 94.6764 75.104 95.0444 74.736C95.4124 74.368 95.8764 74.184 96.4364 74.184ZM111.53 69.168C112.41 69.568 113.082 70.112 113.546 70.8C114.026 71.472 114.266 72.264 114.266 73.176C114.266 74.2 113.978 75.096 113.402 75.864C112.842 76.632 112.042 77.224 111.002 77.64C109.962 78.04 108.754 78.24 107.378 78.24C106.002 78.24 104.794 78.04 103.754 77.64C102.73 77.224 101.938 76.632 101.378 75.864C100.818 75.096 100.538 74.2 100.538 73.176C100.538 72.264 100.77 71.472 101.234 70.8C101.698 70.112 102.362 69.568 103.226 69.168C102.554 68.8 102.034 68.32 101.666 67.728C101.314 67.12 101.138 66.424 101.138 65.64C101.138 64.696 101.394 63.872 101.906 63.168C102.434 62.464 103.17 61.92 104.114 61.536C105.058 61.152 106.146 60.96 107.378 60.96C108.626 60.96 109.722 61.152 110.666 61.536C111.61 61.92 112.346 62.464 112.874 63.168C113.402 63.872 113.666 64.696 113.666 65.64C113.666 66.424 113.482 67.112 113.114 67.704C112.746 68.296 112.218 68.784 111.53 69.168ZM107.378 63.408C106.402 63.408 105.626 63.616 105.05 64.032C104.49 64.448 104.21 65.032 104.21 65.784C104.21 66.504 104.49 67.08 105.05 67.512C105.626 67.928 106.402 68.136 107.378 68.136C108.37 68.136 109.154 67.928 109.73 67.512C110.306 67.08 110.594 66.504 110.594 65.784C110.594 65.032 110.298 64.448 109.706 64.032C109.13 63.616 108.354 63.408 107.378 63.408ZM107.378 75.792C108.53 75.792 109.442 75.552 110.114 75.072C110.786 74.592 111.122 73.928 111.122 73.08C111.122 72.248 110.786 71.592 110.114 71.112C109.442 70.632 108.53 70.392 107.378 70.392C106.226 70.392 105.322 70.632 104.666 71.112C104.01 71.592 103.682 72.248 103.682 73.08C103.682 73.928 104.01 74.592 104.666 75.072C105.322 75.552 106.226 75.792 107.378 75.792ZM121.546 67.704C123.914 67.704 125.666 68.168 126.802 69.096C127.938 70.008 128.506 71.256 128.506 72.84C128.506 73.848 128.258 74.76 127.762 75.576C127.266 76.392 126.522 77.04 125.53 77.52C124.538 78 123.314 78.24 121.858 78.24C120.658 78.24 119.498 78.072 118.378 77.736C117.258 77.384 116.314 76.904 115.546 76.296L116.866 73.872C117.49 74.384 118.234 74.792 119.098 75.096C119.978 75.384 120.882 75.528 121.81 75.528C122.914 75.528 123.778 75.304 124.402 74.856C125.042 74.392 125.362 73.76 125.362 72.96C125.362 72.096 125.018 71.448 124.33 71.016C123.658 70.568 122.498 70.344 120.85 70.344H116.794L117.658 61.2H127.522V63.816H120.298L119.938 67.704H121.546ZM137.314 78.24C135.97 78.24 134.77 77.904 133.714 77.232C132.658 76.544 131.826 75.552 131.218 74.256C130.61 72.944 130.306 71.392 130.306 69.6C130.306 67.808 130.61 66.264 131.218 64.968C131.826 63.656 132.658 62.664 133.714 61.992C134.77 61.304 135.97 60.96 137.314 60.96C138.658 60.96 139.858 61.304 140.914 61.992C141.986 62.664 142.826 63.656 143.434 64.968C144.042 66.264 144.346 67.808 144.346 69.6C144.346 71.392 144.042 72.944 143.434 74.256C142.826 75.552 141.986 76.544 140.914 77.232C139.858 77.904 138.658 78.24 137.314 78.24ZM137.314 75.528C138.514 75.528 139.458 75.032 140.146 74.04C140.85 73.048 141.202 71.568 141.202 69.6C141.202 67.632 140.85 66.152 140.146 65.16C139.458 64.168 138.514 63.672 137.314 63.672C136.13 63.672 135.186 64.168 134.482 65.16C133.794 66.152 133.45 67.632 133.45 69.6C133.45 71.568 133.794 73.048 134.482 74.04C135.186 75.032 136.13 75.528 137.314 75.528Z" fill="#212121"/>
<rect x="297" y="41" width="77" height="32" rx="3" fill="#0D6EFD"/>
<path fill-rule="evenodd" clip-rule="evenodd" d="M328.515 58.9668C328.717 59.1693 328.717 59.4976 328.515 59.7001C328.331 59.8841 328.042 59.9009 327.839 59.7503L327.781 59.7001L324 55.9188L320.218 59.7001C320.034 59.8841 319.746 59.9009 319.543 59.7503L319.485 59.7001C319.301 59.516 319.284 59.2279 319.435 59.0249L319.485 58.9668L323.633 54.8186C323.817 54.6345 324.105 54.6178 324.308 54.7684L324.366 54.8186L328.515 58.9668Z" fill="white"/>
<path d="M338.283 54V61H336.983V55.09H335.503V54H338.283ZM341.861 56.71C342.848 56.71 343.578 56.9033 344.051 57.29C344.525 57.67 344.761 58.19 344.761 58.85C344.761 59.27 344.658 59.65 344.451 59.99C344.245 60.33 343.935 60.6 343.521 60.8C343.108 61 342.598 61.1 341.991 61.1C341.491 61.1 341.008 61.03 340.541 60.89C340.075 60.7433 339.681 60.5433 339.361 60.29L339.911 59.28C340.171 59.4933 340.481 59.6633 340.841 59.79C341.208 59.91 341.585 59.97 341.971 59.97C342.431 59.97 342.791 59.8767 343.051 59.69C343.318 59.4967 343.451 59.2333 343.451 58.9C343.451 58.54 343.308 58.27 343.021 58.09C342.741 57.9033 342.258 57.81 341.571 57.81H339.881L340.241 54H344.351V55.09H341.341L341.191 56.71H341.861ZM346.974 57.77C346.474 57.77 346.07 57.5933 345.764 57.24C345.457 56.8867 345.304 56.4233 345.304 55.85C345.304 55.2767 345.457 54.8133 345.764 54.46C346.07 54.1067 346.474 53.93 346.974 53.93C347.474 53.93 347.877 54.1067 348.184 54.46C348.497 54.8067 348.654 55.27 348.654 55.85C348.654 56.43 348.497 56.8967 348.184 57.25C347.877 57.5967 347.474 57.77 346.974 57.77ZM351.174 54H352.154L347.374 61H346.394L351.174 54ZM346.974 57.07C347.247 57.07 347.457 56.9633 347.604 56.75C347.757 56.5367 347.834 56.2367 347.834 55.85C347.834 55.4633 347.757 55.1633 347.604 54.95C347.457 54.7367 347.247 54.63 346.974 54.63C346.714 54.63 346.504 54.74 346.344 54.96C346.19 55.1733 346.114 55.47 346.114 55.85C346.114 56.23 346.19 56.53 346.344 56.75C346.504 56.9633 346.714 57.07 346.974 57.07ZM351.564 61.07C351.064 61.07 350.66 60.8933 350.354 60.54C350.047 60.1867 349.894 59.7233 349.894 59.15C349.894 58.5767 350.047 58.1133 350.354 57.76C350.66 57.4067 351.064 57.23 351.564 57.23C352.064 57.23 352.467 57.4067 352.774 57.76C353.087 58.1133 353.244 58.5767 353.244 59.15C353.244 59.7233 353.087 60.1867 352.774 60.54C352.467 60.8933 352.064 61.07 351.564 61.07ZM351.564 60.37C351.83 60.37 352.04 60.2633 352.194 60.05C352.347 59.83 352.424 59.53 352.424 59.15C352.424 58.77 352.347 58.4733 352.194 58.26C352.04 58.04 351.83 57.93 351.564 57.93C351.297 57.93 351.087 58.0367 350.934 58.25C350.78 58.4633 350.704 58.7633 350.704 59.15C350.704 59.5367 350.78 59.8367 350.934 60.05C351.087 60.2633 351.297 60.37 351.564 60.37Z" fill="white"/>
</g>
</g>
<defs>
<filter id="filter0_d_928_2266" x="0.75" y="0" width="413.25" height="138" filterUnits="userSpaceOnUse" color-interpolation-filters="sRGB">
<feFlood flood-opacity="0" result="BackgroundImageFix"/>
<feColorMatrix in="SourceAlpha" type="matrix" values="0 0 0 0 0 0 0 0 0 0 0 0 0 0 0 0 0 0 127 0" result="hardAlpha"/>
<feOffset dy="12"/>
<feGaussianBlur stdDeviation="8"/>
<feColorMatrix type="matrix" values="0 0 0 0 0.156863 0 0 0 0 0.160784 0 0 0 0 0.239216 0 0 0 0.0364 0"/>
<feBlend mode="normal" in2="BackgroundImageFix" result="effect1_dropShadow_928_2266"/>
<feBlend mode="normal" in="SourceGraphic" in2="effect1_dropShadow_928_2266" result="shape"/>
</filter>
<clipPath id="clip0_928_2266">
<rect width="333.25" height="58" fill="white" transform="translate(40.75 28)"/>
</clipPath>
</defs>
</svg>
