<svg width="414" height="138" viewBox="0 0 414 138" fill="none" xmlns="http://www.w3.org/2000/svg">
<g filter="url(#filter0_d_928_2240)">
<rect x="16.25" y="4" width="381.25" height="106" rx="12" fill="white"/>
<g clip-path="url(#clip0_928_2240)">
<g clip-path="url(#clip1_928_2240)">
<path d="M44.7002 45H43.5381V36.0381H40.373V35.0059H47.8652V36.0381H44.7002V45ZM54.332 45V40.1533C54.332 39.5426 54.193 39.0869 53.915 38.7861C53.637 38.4854 53.2018 38.335 52.6094 38.335C51.821 38.335 51.2445 38.5492 50.8799 38.9775C50.5199 39.4059 50.3398 40.1077 50.3398 41.083V45H49.2051V34.3633H50.3398V37.583C50.3398 37.9704 50.3216 38.2917 50.2852 38.5469H50.3535C50.5768 38.1868 50.8936 37.9043 51.3037 37.6992C51.7184 37.4896 52.1901 37.3848 52.7188 37.3848C53.6348 37.3848 54.3206 37.6035 54.7764 38.041C55.2367 38.474 55.4668 39.1644 55.4668 40.1123V45H54.332ZM58.9395 45H57.8047V37.5078H58.9395V45ZM57.709 35.4775C57.709 35.2178 57.7728 35.0286 57.9004 34.9102C58.028 34.7871 58.1875 34.7256 58.3789 34.7256C58.5612 34.7256 58.7184 34.7871 58.8506 34.9102C58.9827 35.0332 59.0488 35.2223 59.0488 35.4775C59.0488 35.7327 58.9827 35.9242 58.8506 36.0518C58.7184 36.1748 58.5612 36.2363 58.3789 36.2363C58.1875 36.2363 58.028 36.1748 57.9004 36.0518C57.7728 35.9242 57.709 35.7327 57.709 35.4775ZM66.1787 42.9561C66.1787 43.6533 65.9189 44.1911 65.3994 44.5693C64.8799 44.9476 64.1507 45.1367 63.2119 45.1367C62.2184 45.1367 61.4437 44.9795 60.8877 44.665V43.6123C61.2477 43.7946 61.6328 43.9382 62.043 44.043C62.4577 44.1478 62.8564 44.2002 63.2393 44.2002C63.8317 44.2002 64.2874 44.1068 64.6064 43.9199C64.9255 43.7285 65.085 43.4391 65.085 43.0518C65.085 42.7601 64.9574 42.5117 64.7021 42.3066C64.4515 42.097 63.9593 41.8509 63.2256 41.5684C62.5283 41.3086 62.0316 41.083 61.7354 40.8916C61.4437 40.6956 61.2249 40.4746 61.0791 40.2285C60.9378 39.9824 60.8672 39.6885 60.8672 39.3467C60.8672 38.736 61.1156 38.2552 61.6123 37.9043C62.109 37.5488 62.7904 37.3711 63.6562 37.3711C64.4629 37.3711 65.2513 37.5352 66.0215 37.8633L65.6182 38.7861C64.8662 38.4762 64.1849 38.3213 63.5742 38.3213C63.0365 38.3213 62.6309 38.4056 62.3574 38.5742C62.084 38.7428 61.9473 38.9753 61.9473 39.2715C61.9473 39.472 61.9974 39.6429 62.0977 39.7842C62.2025 39.9255 62.3688 40.0599 62.5967 40.1875C62.8245 40.3151 63.262 40.4997 63.9092 40.7412C64.7979 41.0648 65.3971 41.3906 65.707 41.7188C66.0215 42.0469 66.1787 42.4593 66.1787 42.9561ZM80.5615 45H79.4131L77.3965 38.3076C77.3008 38.0114 77.1937 37.6377 77.0752 37.1865C76.9567 36.7354 76.8952 36.4642 76.8906 36.373C76.7904 36.9746 76.6309 37.6331 76.4121 38.3486L74.457 45H73.3086L70.6494 35.0059H71.8799L73.459 41.1787C73.6777 42.0446 73.8372 42.8285 73.9375 43.5303C74.0605 42.6963 74.2428 41.8805 74.4844 41.083L76.2754 35.0059H77.5059L79.3857 41.1377C79.6045 41.8441 79.7891 42.6416 79.9395 43.5303C80.026 42.8831 80.1901 42.0947 80.4316 41.165L82.0039 35.0059H83.2344L80.5615 45ZM87.7939 45.1367C86.6865 45.1367 85.8115 44.7995 85.1689 44.125C84.5309 43.4505 84.2119 42.514 84.2119 41.3154C84.2119 40.1077 84.5081 39.1484 85.1006 38.4375C85.6976 37.7266 86.4974 37.3711 87.5 37.3711C88.4388 37.3711 89.1816 37.681 89.7285 38.3008C90.2754 38.916 90.5488 39.7295 90.5488 40.7412V41.459H85.3877C85.4105 42.3385 85.6315 43.0062 86.0508 43.4619C86.4746 43.9176 87.0693 44.1455 87.835 44.1455C88.6416 44.1455 89.4391 43.9769 90.2275 43.6396V44.6514C89.8265 44.8245 89.446 44.9476 89.0859 45.0205C88.7305 45.098 88.2998 45.1367 87.7939 45.1367ZM87.4863 38.3213C86.8848 38.3213 86.404 38.5173 86.0439 38.9092C85.6885 39.3011 85.4788 39.8434 85.415 40.5361H89.332C89.332 39.8206 89.1725 39.2738 88.8535 38.8955C88.5345 38.5127 88.0788 38.3213 87.4863 38.3213ZM95.6553 45.1367C94.5479 45.1367 93.6729 44.7995 93.0303 44.125C92.3923 43.4505 92.0732 42.514 92.0732 41.3154C92.0732 40.1077 92.3695 39.1484 92.9619 38.4375C93.5589 37.7266 94.3587 37.3711 95.3613 37.3711C96.3001 37.3711 97.043 37.681 97.5898 38.3008C98.1367 38.916 98.4102 39.7295 98.4102 40.7412V41.459H93.249C93.2718 42.3385 93.4928 43.0062 93.9121 43.4619C94.3359 43.9176 94.9307 44.1455 95.6963 44.1455C96.5029 44.1455 97.3005 43.9769 98.0889 43.6396V44.6514C97.6878 44.8245 97.3073 44.9476 96.9473 45.0205C96.5918 45.098 96.1611 45.1367 95.6553 45.1367ZM95.3477 38.3213C94.7461 38.3213 94.2653 38.5173 93.9053 38.9092C93.5498 39.3011 93.3402 39.8434 93.2764 40.5361H97.1934C97.1934 39.8206 97.0339 39.2738 96.7148 38.8955C96.3958 38.5127 95.9401 38.3213 95.3477 38.3213ZM101.473 41.165C101.669 40.887 101.967 40.5225 102.368 40.0713L104.788 37.5078H106.135L103.1 40.7002L106.347 45H104.973L102.327 41.459L101.473 42.1973V45H100.352V34.3633H101.473V40.0029C101.473 40.2536 101.454 40.641 101.418 41.165H101.473Z" fill="#52647C"/>
<path d="M49.418 61.2C50.874 61.2 52.138 61.44 53.21 61.92C54.298 62.4 55.13 63.088 55.706 63.984C56.282 64.88 56.57 65.944 56.57 67.176C56.57 68.392 56.282 69.456 55.706 70.368C55.13 71.264 54.298 71.952 53.21 72.432C52.138 72.912 50.874 73.152 49.418 73.152H45.626V78H42.506V61.2H49.418ZM49.274 70.512C50.634 70.512 51.666 70.224 52.37 69.648C53.074 69.072 53.426 68.248 53.426 67.176C53.426 66.104 53.074 65.28 52.37 64.704C51.666 64.128 50.634 63.84 49.274 63.84H45.626V70.512H49.274ZM62.1365 67.056C63.0005 65.712 64.5205 65.04 66.6965 65.04V67.896C66.4405 67.848 66.2085 67.824 66.0005 67.824C64.8325 67.824 63.9205 68.168 63.2645 68.856C62.6085 69.528 62.2805 70.504 62.2805 71.784V78H59.2805V65.184H62.1365V67.056ZM74.8843 78.168C73.5883 78.168 72.4203 77.888 71.3803 77.328C70.3403 76.768 69.5243 75.992 68.9323 75C68.3563 73.992 68.0683 72.856 68.0683 71.592C68.0683 70.328 68.3563 69.2 68.9323 68.208C69.5243 67.216 70.3403 66.44 71.3803 65.88C72.4203 65.32 73.5883 65.04 74.8843 65.04C76.1963 65.04 77.3723 65.32 78.4123 65.88C79.4523 66.44 80.2603 67.216 80.8363 68.208C81.4283 69.2 81.7243 70.328 81.7243 71.592C81.7243 72.856 81.4283 73.992 80.8363 75C80.2603 75.992 79.4523 76.768 78.4123 77.328C77.3723 77.888 76.1963 78.168 74.8843 78.168ZM74.8843 75.6C75.9883 75.6 76.9003 75.232 77.6203 74.496C78.3403 73.76 78.7003 72.792 78.7003 71.592C78.7003 70.392 78.3403 69.424 77.6203 68.688C76.9003 67.952 75.9883 67.584 74.8843 67.584C73.7803 67.584 72.8683 67.952 72.1483 68.688C71.4443 69.424 71.0923 70.392 71.0923 71.592C71.0923 72.792 71.4443 73.76 72.1483 74.496C72.8683 75.232 73.7803 75.6 74.8843 75.6ZM97.313 65.184V76.056C97.313 80.568 95.009 82.824 90.401 82.824C89.169 82.824 88.001 82.664 86.897 82.344C85.793 82.04 84.881 81.592 84.161 81L85.505 78.744C86.065 79.208 86.769 79.576 87.617 79.848C88.481 80.136 89.353 80.28 90.233 80.28C91.641 80.28 92.673 79.96 93.329 79.32C93.985 78.68 94.313 77.704 94.313 76.392V75.72C93.801 76.28 93.177 76.704 92.441 76.992C91.705 77.28 90.897 77.424 90.017 77.424C88.801 77.424 87.697 77.168 86.705 76.656C85.729 76.128 84.953 75.392 84.377 74.448C83.817 73.504 83.537 72.424 83.537 71.208C83.537 69.992 83.817 68.92 84.377 67.992C84.953 67.048 85.729 66.32 86.705 65.808C87.697 65.296 88.801 65.04 90.017 65.04C90.945 65.04 91.785 65.192 92.537 65.496C93.305 65.8 93.945 66.264 94.457 66.888V65.184H97.313ZM90.473 74.88C91.609 74.88 92.537 74.544 93.257 73.872C93.993 73.184 94.361 72.296 94.361 71.208C94.361 70.136 93.993 69.264 93.257 68.592C92.537 67.92 91.609 67.584 90.473 67.584C89.321 67.584 88.377 67.92 87.641 68.592C86.921 69.264 86.561 70.136 86.561 71.208C86.561 72.296 86.921 73.184 87.641 73.872C88.377 74.544 89.321 74.88 90.473 74.88ZM104.113 67.056C104.977 65.712 106.497 65.04 108.673 65.04V67.896C108.417 67.848 108.185 67.824 107.977 67.824C106.809 67.824 105.897 68.168 105.241 68.856C104.585 69.528 104.257 70.504 104.257 71.784V78H101.257V65.184H104.113V67.056ZM123.149 71.664C123.149 71.872 123.133 72.168 123.101 72.552H113.045C113.221 73.496 113.677 74.248 114.413 74.808C115.165 75.352 116.093 75.624 117.197 75.624C118.605 75.624 119.765 75.16 120.677 74.232L122.285 76.08C121.709 76.768 120.981 77.288 120.101 77.64C119.221 77.992 118.229 78.168 117.125 78.168C115.717 78.168 114.477 77.888 113.405 77.328C112.333 76.768 111.501 75.992 110.909 75C110.333 73.992 110.045 72.856 110.045 71.592C110.045 70.344 110.325 69.224 110.885 68.232C111.461 67.224 112.253 66.44 113.261 65.88C114.269 65.32 115.405 65.04 116.669 65.04C117.917 65.04 119.029 65.32 120.005 65.88C120.997 66.424 121.765 67.2 122.309 68.208C122.869 69.2 123.149 70.352 123.149 71.664ZM116.669 67.44C115.709 67.44 114.893 67.728 114.221 68.304C113.565 68.864 113.165 69.616 113.021 70.56H120.293C120.165 69.632 119.773 68.88 119.117 68.304C118.461 67.728 117.645 67.44 116.669 67.44ZM129.991 78.168C128.951 78.168 127.935 78.032 126.943 77.76C125.951 77.488 125.159 77.144 124.567 76.728L125.719 74.448C126.295 74.832 126.983 75.144 127.783 75.384C128.599 75.608 129.399 75.72 130.183 75.72C131.975 75.72 132.871 75.248 132.871 74.304C132.871 73.856 132.639 73.544 132.175 73.368C131.727 73.192 130.999 73.024 129.991 72.864C128.935 72.704 128.071 72.52 127.399 72.312C126.743 72.104 126.167 71.744 125.671 71.232C125.191 70.704 124.951 69.976 124.951 69.048C124.951 67.832 125.455 66.864 126.463 66.144C127.487 65.408 128.863 65.04 130.591 65.04C131.471 65.04 132.351 65.144 133.231 65.352C134.111 65.544 134.831 65.808 135.391 66.144L134.239 68.424C133.151 67.784 131.927 67.464 130.567 67.464C129.687 67.464 129.015 67.6 128.551 67.872C128.103 68.128 127.879 68.472 127.879 68.904C127.879 69.384 128.119 69.728 128.599 69.936C129.095 70.128 129.855 70.312 130.879 70.488C131.903 70.648 132.743 70.832 133.399 71.04C134.055 71.248 134.615 71.6 135.079 72.096C135.559 72.592 135.799 73.296 135.799 74.208C135.799 75.408 135.279 76.368 134.239 77.088C133.199 77.808 131.783 78.168 129.991 78.168ZM142.342 78.168C141.302 78.168 140.286 78.032 139.294 77.76C138.302 77.488 137.51 77.144 136.918 76.728L138.07 74.448C138.646 74.832 139.334 75.144 140.134 75.384C140.95 75.608 141.75 75.72 142.534 75.72C144.326 75.72 145.222 75.248 145.222 74.304C145.222 73.856 144.99 73.544 144.526 73.368C144.078 73.192 143.35 73.024 142.342 72.864C141.286 72.704 140.422 72.52 139.75 72.312C139.094 72.104 138.518 71.744 138.022 71.232C137.542 70.704 137.302 69.976 137.302 69.048C137.302 67.832 137.806 66.864 138.814 66.144C139.838 65.408 141.214 65.04 142.942 65.04C143.822 65.04 144.702 65.144 145.582 65.352C146.462 65.544 147.182 65.808 147.742 66.144L146.59 68.424C145.502 67.784 144.278 67.464 142.918 67.464C142.038 67.464 141.366 67.6 140.902 67.872C140.454 68.128 140.23 68.472 140.23 68.904C140.23 69.384 140.47 69.728 140.95 69.936C141.446 70.128 142.206 70.312 143.23 70.488C144.254 70.648 145.094 70.832 145.75 71.04C146.406 71.248 146.966 71.6 147.43 72.096C147.91 72.592 148.15 73.296 148.15 74.208C148.15 75.408 147.63 76.368 146.59 77.088C145.55 77.808 144.134 78.168 142.342 78.168Z" fill="#212121"/>
</g>
<path fill-rule="evenodd" clip-rule="evenodd" d="M278.045 84.5V29.5H268.5V84.5H278.045ZM325.773 34.8999V84.4999H316.227V34.8999H325.773ZM357.591 34.8999V84.4999H348.045V34.8999H357.591ZM373.5 44.1001V84.5001H363.955V44.1001H373.5ZM341.682 84.5V48.5H332.136V84.5H341.682ZM309.864 84.5001V60.1001H300.318V84.5001H309.864ZM293.955 56.1001V84.5001H284.409V56.1001H293.955Z" fill="#0D6EFD"/>
</g>
</g>
<defs>
<filter id="filter0_d_928_2240" x="0.25" y="0" width="413.25" height="138" filterUnits="userSpaceOnUse" color-interpolation-filters="sRGB">
<feFlood flood-opacity="0" result="BackgroundImageFix"/>
<feColorMatrix in="SourceAlpha" type="matrix" values="0 0 0 0 0 0 0 0 0 0 0 0 0 0 0 0 0 0 127 0" result="hardAlpha"/>
<feOffset dy="12"/>
<feGaussianBlur stdDeviation="8"/>
<feColorMatrix type="matrix" values="0 0 0 0 0.156863 0 0 0 0 0.160784 0 0 0 0 0.239216 0 0 0 0.0364 0"/>
<feBlend mode="normal" in2="BackgroundImageFix" result="effect1_dropShadow_928_2240"/>
<feBlend mode="normal" in="SourceGraphic" in2="effect1_dropShadow_928_2240" result="shape"/>
</filter>
<clipPath id="clip0_928_2240">
<rect width="333.25" height="58" fill="white" transform="translate(40.25 28)"/>
</clipPath>
<clipPath id="clip1_928_2240">
<rect width="205.25" height="58" fill="white" transform="translate(40.25 28)"/>
</clipPath>
</defs>
</svg>
