<svg width="414" height="138" viewBox="0 0 414 138" fill="none" xmlns="http://www.w3.org/2000/svg">
<g filter="url(#filter0_d_928_2253)">
<rect x="16.5" y="4" width="381.25" height="106" rx="12" fill="white"/>
<g clip-path="url(#clip0_928_2253)">
<g clip-path="url(#clip1_928_2253)">
<path d="M44.9502 45H43.7881V36.0381H40.623V35.0059H48.1152V36.0381H44.9502V45ZM54.582 45V40.1533C54.582 39.5426 54.443 39.0869 54.165 38.7861C53.887 38.4854 53.4518 38.335 52.8594 38.335C52.071 38.335 51.4945 38.5492 51.1299 38.9775C50.7699 39.4059 50.5898 40.1077 50.5898 41.083V45H49.4551V34.3633H50.5898V37.583C50.5898 37.9704 50.5716 38.2917 50.5352 38.5469H50.6035C50.8268 38.1868 51.1436 37.9043 51.5537 37.6992C51.9684 37.4896 52.4401 37.3848 52.9688 37.3848C53.8848 37.3848 54.5706 37.6035 55.0264 38.041C55.4867 38.474 55.7168 39.1644 55.7168 40.1123V45H54.582ZM59.1895 45H58.0547V37.5078H59.1895V45ZM57.959 35.4775C57.959 35.2178 58.0228 35.0286 58.1504 34.9102C58.278 34.7871 58.4375 34.7256 58.6289 34.7256C58.8112 34.7256 58.9684 34.7871 59.1006 34.9102C59.2327 35.0332 59.2988 35.2223 59.2988 35.4775C59.2988 35.7327 59.2327 35.9242 59.1006 36.0518C58.9684 36.1748 58.8112 36.2363 58.6289 36.2363C58.4375 36.2363 58.278 36.1748 58.1504 36.0518C58.0228 35.9242 57.959 35.7327 57.959 35.4775ZM66.4287 42.9561C66.4287 43.6533 66.1689 44.1911 65.6494 44.5693C65.1299 44.9476 64.4007 45.1367 63.4619 45.1367C62.4684 45.1367 61.6937 44.9795 61.1377 44.665V43.6123C61.4977 43.7946 61.8828 43.9382 62.293 44.043C62.7077 44.1478 63.1064 44.2002 63.4893 44.2002C64.0817 44.2002 64.5374 44.1068 64.8564 43.9199C65.1755 43.7285 65.335 43.4391 65.335 43.0518C65.335 42.7601 65.2074 42.5117 64.9521 42.3066C64.7015 42.097 64.2093 41.8509 63.4756 41.5684C62.7783 41.3086 62.2816 41.083 61.9854 40.8916C61.6937 40.6956 61.4749 40.4746 61.3291 40.2285C61.1878 39.9824 61.1172 39.6885 61.1172 39.3467C61.1172 38.736 61.3656 38.2552 61.8623 37.9043C62.359 37.5488 63.0404 37.3711 63.9062 37.3711C64.7129 37.3711 65.5013 37.5352 66.2715 37.8633L65.8682 38.7861C65.1162 38.4762 64.4349 38.3213 63.8242 38.3213C63.2865 38.3213 62.8809 38.4056 62.6074 38.5742C62.334 38.7428 62.1973 38.9753 62.1973 39.2715C62.1973 39.472 62.2474 39.6429 62.3477 39.7842C62.4525 39.9255 62.6188 40.0599 62.8467 40.1875C63.0745 40.3151 63.512 40.4997 64.1592 40.7412C65.0479 41.0648 65.6471 41.3906 65.957 41.7188C66.2715 42.0469 66.4287 42.4593 66.4287 42.9561ZM80.8115 45H79.6631L77.6465 38.3076C77.5508 38.0114 77.4437 37.6377 77.3252 37.1865C77.2067 36.7354 77.1452 36.4642 77.1406 36.373C77.0404 36.9746 76.8809 37.6331 76.6621 38.3486L74.707 45H73.5586L70.8994 35.0059H72.1299L73.709 41.1787C73.9277 42.0446 74.0872 42.8285 74.1875 43.5303C74.3105 42.6963 74.4928 41.8805 74.7344 41.083L76.5254 35.0059H77.7559L79.6357 41.1377C79.8545 41.8441 80.0391 42.6416 80.1895 43.5303C80.276 42.8831 80.4401 42.0947 80.6816 41.165L82.2539 35.0059H83.4844L80.8115 45ZM88.0439 45.1367C86.9365 45.1367 86.0615 44.7995 85.4189 44.125C84.7809 43.4505 84.4619 42.514 84.4619 41.3154C84.4619 40.1077 84.7581 39.1484 85.3506 38.4375C85.9476 37.7266 86.7474 37.3711 87.75 37.3711C88.6888 37.3711 89.4316 37.681 89.9785 38.3008C90.5254 38.916 90.7988 39.7295 90.7988 40.7412V41.459H85.6377C85.6605 42.3385 85.8815 43.0062 86.3008 43.4619C86.7246 43.9176 87.3193 44.1455 88.085 44.1455C88.8916 44.1455 89.6891 43.9769 90.4775 43.6396V44.6514C90.0765 44.8245 89.696 44.9476 89.3359 45.0205C88.9805 45.098 88.5498 45.1367 88.0439 45.1367ZM87.7363 38.3213C87.1348 38.3213 86.654 38.5173 86.2939 38.9092C85.9385 39.3011 85.7288 39.8434 85.665 40.5361H89.582C89.582 39.8206 89.4225 39.2738 89.1035 38.8955C88.7845 38.5127 88.3288 38.3213 87.7363 38.3213ZM95.9053 45.1367C94.7979 45.1367 93.9229 44.7995 93.2803 44.125C92.6423 43.4505 92.3232 42.514 92.3232 41.3154C92.3232 40.1077 92.6195 39.1484 93.2119 38.4375C93.8089 37.7266 94.6087 37.3711 95.6113 37.3711C96.5501 37.3711 97.293 37.681 97.8398 38.3008C98.3867 38.916 98.6602 39.7295 98.6602 40.7412V41.459H93.499C93.5218 42.3385 93.7428 43.0062 94.1621 43.4619C94.5859 43.9176 95.1807 44.1455 95.9463 44.1455C96.7529 44.1455 97.5505 43.9769 98.3389 43.6396V44.6514C97.9378 44.8245 97.5573 44.9476 97.1973 45.0205C96.8418 45.098 96.4111 45.1367 95.9053 45.1367ZM95.5977 38.3213C94.9961 38.3213 94.5153 38.5173 94.1553 38.9092C93.7998 39.3011 93.5902 39.8434 93.5264 40.5361H97.4434C97.4434 39.8206 97.2839 39.2738 96.9648 38.8955C96.6458 38.5127 96.1901 38.3213 95.5977 38.3213ZM101.723 41.165C101.919 40.887 102.217 40.5225 102.618 40.0713L105.038 37.5078H106.385L103.35 40.7002L106.597 45H105.223L102.577 41.459L101.723 42.1973V45H100.602V34.3633H101.723V40.0029C101.723 40.2536 101.704 40.641 101.668 41.165H101.723Z" fill="#52647C"/>
<path d="M49.668 61.2C51.124 61.2 52.388 61.44 53.46 61.92C54.548 62.4 55.38 63.088 55.956 63.984C56.532 64.88 56.82 65.944 56.82 67.176C56.82 68.392 56.532 69.456 55.956 70.368C55.38 71.264 54.548 71.952 53.46 72.432C52.388 72.912 51.124 73.152 49.668 73.152H45.876V78H42.756V61.2H49.668ZM49.524 70.512C50.884 70.512 51.916 70.224 52.62 69.648C53.324 69.072 53.676 68.248 53.676 67.176C53.676 66.104 53.324 65.28 52.62 64.704C51.916 64.128 50.884 63.84 49.524 63.84H45.876V70.512H49.524ZM62.3865 67.056C63.2505 65.712 64.7705 65.04 66.9465 65.04V67.896C66.6905 67.848 66.4585 67.824 66.2505 67.824C65.0825 67.824 64.1705 68.168 63.5145 68.856C62.8585 69.528 62.5305 70.504 62.5305 71.784V78H59.5305V65.184H62.3865V67.056ZM75.1343 78.168C73.8383 78.168 72.6703 77.888 71.6303 77.328C70.5903 76.768 69.7743 75.992 69.1823 75C68.6063 73.992 68.3183 72.856 68.3183 71.592C68.3183 70.328 68.6063 69.2 69.1823 68.208C69.7743 67.216 70.5903 66.44 71.6303 65.88C72.6703 65.32 73.8383 65.04 75.1343 65.04C76.4463 65.04 77.6223 65.32 78.6623 65.88C79.7023 66.44 80.5103 67.216 81.0863 68.208C81.6783 69.2 81.9743 70.328 81.9743 71.592C81.9743 72.856 81.6783 73.992 81.0863 75C80.5103 75.992 79.7023 76.768 78.6623 77.328C77.6223 77.888 76.4463 78.168 75.1343 78.168ZM75.1343 75.6C76.2383 75.6 77.1503 75.232 77.8703 74.496C78.5903 73.76 78.9503 72.792 78.9503 71.592C78.9503 70.392 78.5903 69.424 77.8703 68.688C77.1503 67.952 76.2383 67.584 75.1343 67.584C74.0303 67.584 73.1183 67.952 72.3983 68.688C71.6943 69.424 71.3423 70.392 71.3423 71.592C71.3423 72.792 71.6943 73.76 72.3983 74.496C73.1183 75.232 74.0303 75.6 75.1343 75.6ZM97.563 65.184V76.056C97.563 80.568 95.259 82.824 90.651 82.824C89.419 82.824 88.251 82.664 87.147 82.344C86.043 82.04 85.131 81.592 84.411 81L85.755 78.744C86.315 79.208 87.019 79.576 87.867 79.848C88.731 80.136 89.603 80.28 90.483 80.28C91.891 80.28 92.923 79.96 93.579 79.32C94.235 78.68 94.563 77.704 94.563 76.392V75.72C94.051 76.28 93.427 76.704 92.691 76.992C91.955 77.28 91.147 77.424 90.267 77.424C89.051 77.424 87.947 77.168 86.955 76.656C85.979 76.128 85.203 75.392 84.627 74.448C84.067 73.504 83.787 72.424 83.787 71.208C83.787 69.992 84.067 68.92 84.627 67.992C85.203 67.048 85.979 66.32 86.955 65.808C87.947 65.296 89.051 65.04 90.267 65.04C91.195 65.04 92.035 65.192 92.787 65.496C93.555 65.8 94.195 66.264 94.707 66.888V65.184H97.563ZM90.723 74.88C91.859 74.88 92.787 74.544 93.507 73.872C94.243 73.184 94.611 72.296 94.611 71.208C94.611 70.136 94.243 69.264 93.507 68.592C92.787 67.92 91.859 67.584 90.723 67.584C89.571 67.584 88.627 67.92 87.891 68.592C87.171 69.264 86.811 70.136 86.811 71.208C86.811 72.296 87.171 73.184 87.891 73.872C88.627 74.544 89.571 74.88 90.723 74.88ZM104.363 67.056C105.227 65.712 106.747 65.04 108.923 65.04V67.896C108.667 67.848 108.435 67.824 108.227 67.824C107.059 67.824 106.147 68.168 105.491 68.856C104.835 69.528 104.507 70.504 104.507 71.784V78H101.507V65.184H104.363V67.056ZM123.399 71.664C123.399 71.872 123.383 72.168 123.351 72.552H113.295C113.471 73.496 113.927 74.248 114.663 74.808C115.415 75.352 116.343 75.624 117.447 75.624C118.855 75.624 120.015 75.16 120.927 74.232L122.535 76.08C121.959 76.768 121.231 77.288 120.351 77.64C119.471 77.992 118.479 78.168 117.375 78.168C115.967 78.168 114.727 77.888 113.655 77.328C112.583 76.768 111.751 75.992 111.159 75C110.583 73.992 110.295 72.856 110.295 71.592C110.295 70.344 110.575 69.224 111.135 68.232C111.711 67.224 112.503 66.44 113.511 65.88C114.519 65.32 115.655 65.04 116.919 65.04C118.167 65.04 119.279 65.32 120.255 65.88C121.247 66.424 122.015 67.2 122.559 68.208C123.119 69.2 123.399 70.352 123.399 71.664ZM116.919 67.44C115.959 67.44 115.143 67.728 114.471 68.304C113.815 68.864 113.415 69.616 113.271 70.56H120.543C120.415 69.632 120.023 68.88 119.367 68.304C118.711 67.728 117.895 67.44 116.919 67.44ZM130.241 78.168C129.201 78.168 128.185 78.032 127.193 77.76C126.201 77.488 125.409 77.144 124.817 76.728L125.969 74.448C126.545 74.832 127.233 75.144 128.033 75.384C128.849 75.608 129.649 75.72 130.433 75.72C132.225 75.72 133.121 75.248 133.121 74.304C133.121 73.856 132.889 73.544 132.425 73.368C131.977 73.192 131.249 73.024 130.241 72.864C129.185 72.704 128.321 72.52 127.649 72.312C126.993 72.104 126.417 71.744 125.921 71.232C125.441 70.704 125.201 69.976 125.201 69.048C125.201 67.832 125.705 66.864 126.713 66.144C127.737 65.408 129.113 65.04 130.841 65.04C131.721 65.04 132.601 65.144 133.481 65.352C134.361 65.544 135.081 65.808 135.641 66.144L134.489 68.424C133.401 67.784 132.177 67.464 130.817 67.464C129.937 67.464 129.265 67.6 128.801 67.872C128.353 68.128 128.129 68.472 128.129 68.904C128.129 69.384 128.369 69.728 128.849 69.936C129.345 70.128 130.105 70.312 131.129 70.488C132.153 70.648 132.993 70.832 133.649 71.04C134.305 71.248 134.865 71.6 135.329 72.096C135.809 72.592 136.049 73.296 136.049 74.208C136.049 75.408 135.529 76.368 134.489 77.088C133.449 77.808 132.033 78.168 130.241 78.168ZM142.592 78.168C141.552 78.168 140.536 78.032 139.544 77.76C138.552 77.488 137.76 77.144 137.168 76.728L138.32 74.448C138.896 74.832 139.584 75.144 140.384 75.384C141.2 75.608 142 75.72 142.784 75.72C144.576 75.72 145.472 75.248 145.472 74.304C145.472 73.856 145.24 73.544 144.776 73.368C144.328 73.192 143.6 73.024 142.592 72.864C141.536 72.704 140.672 72.52 140 72.312C139.344 72.104 138.768 71.744 138.272 71.232C137.792 70.704 137.552 69.976 137.552 69.048C137.552 67.832 138.056 66.864 139.064 66.144C140.088 65.408 141.464 65.04 143.192 65.04C144.072 65.04 144.952 65.144 145.832 65.352C146.712 65.544 147.432 65.808 147.992 66.144L146.84 68.424C145.752 67.784 144.528 67.464 143.168 67.464C142.288 67.464 141.616 67.6 141.152 67.872C140.704 68.128 140.48 68.472 140.48 68.904C140.48 69.384 140.72 69.728 141.2 69.936C141.696 70.128 142.456 70.312 143.48 70.488C144.504 70.648 145.344 70.832 146 71.04C146.656 71.248 147.216 71.6 147.68 72.096C148.16 72.592 148.4 73.296 148.4 74.208C148.4 75.408 147.88 76.368 146.84 77.088C145.8 77.808 144.384 78.168 142.592 78.168Z" fill="#212121"/>
</g>
<path fill-rule="evenodd" clip-rule="evenodd" d="M366.25 45.7507C366.25 42.7591 363.825 40.334 360.833 40.334L360.495 40.3374C357.574 40.4477 354.993 42.6442 353.35 46.0996L353.332 46.1373L353.123 45.7065C351.408 42.3492 348.774 40.2826 345.812 40.3342C342.842 40.334 340.417 42.7591 340.417 45.7507C340.417 46.8244 340.729 47.8252 341.268 48.667H340C338.389 48.667 337.083 49.9729 337.083 51.5837V54.917C337.083 56.5279 338.389 57.8337 340 57.8337H340.417V68.2504L340.425 68.5296C340.569 70.9309 342.563 72.8337 345 72.8337H353.33L353.333 72.8337L353.337 72.8337H361.667L361.946 72.8253C364.347 72.681 366.25 70.6879 366.25 68.2504V57.8337H366.667C368.278 57.8337 369.583 56.5279 369.583 54.917V51.5837C369.583 49.9729 368.278 48.667 366.667 48.667H365.399C365.938 47.8252 366.25 46.8244 366.25 45.7507ZM360.806 51.167C360.815 51.1672 360.824 51.1673 360.833 51.1673C360.853 51.1673 360.872 51.1672 360.891 51.167H366.667C366.897 51.167 367.083 51.3536 367.083 51.5837V54.917C367.083 55.1472 366.897 55.3337 366.667 55.3337H365H354.583V51.167H360.806ZM360.876 48.667C362.467 48.6443 363.75 47.3473 363.75 45.7507C363.75 44.1398 362.444 42.834 360.812 42.8338C358.525 42.794 356.263 45.0023 354.999 48.667H360.876ZM351.668 48.667C350.403 45.0023 348.14 42.794 345.833 42.834C344.223 42.834 342.917 44.1398 342.917 45.7507C342.917 47.281 344.095 48.536 345.594 48.6577L345.826 48.667H351.668ZM345.776 51.167C345.795 51.1672 345.814 51.1673 345.833 51.1673C345.843 51.1673 345.852 51.1672 345.861 51.167H352.083V55.3337H341.667H340C339.77 55.3337 339.583 55.1472 339.583 54.917V51.5837C339.583 51.3536 339.77 51.167 340 51.167H345.776ZM342.917 68.2504V57.8337H352.083V70.3337H345L344.787 70.3229C343.737 70.2163 342.917 69.3291 342.917 68.2504ZM361.667 70.3337H354.583V57.8337H363.75V68.2504L363.739 68.4634C363.633 69.5139 362.746 70.3337 361.667 70.3337Z" fill="#212121"/>
</g>
</g>
<defs>
<filter id="filter0_d_928_2253" x="0.5" y="0" width="413.25" height="138" filterUnits="userSpaceOnUse" color-interpolation-filters="sRGB">
<feFlood flood-opacity="0" result="BackgroundImageFix"/>
<feColorMatrix in="SourceAlpha" type="matrix" values="0 0 0 0 0 0 0 0 0 0 0 0 0 0 0 0 0 0 127 0" result="hardAlpha"/>
<feOffset dy="12"/>
<feGaussianBlur stdDeviation="8"/>
<feColorMatrix type="matrix" values="0 0 0 0 0.156863 0 0 0 0 0.160784 0 0 0 0 0.239216 0 0 0 0.0364 0"/>
<feBlend mode="normal" in2="BackgroundImageFix" result="effect1_dropShadow_928_2253"/>
<feBlend mode="normal" in="SourceGraphic" in2="effect1_dropShadow_928_2253" result="shape"/>
</filter>
<clipPath id="clip0_928_2253">
<rect width="333.25" height="58" fill="white" transform="translate(40.5 28)"/>
</clipPath>
<clipPath id="clip1_928_2253">
<rect width="205.25" height="58" fill="white" transform="translate(40.5 28)"/>
</clipPath>
</defs>
</svg>
