<svg width="924" height="378" viewBox="0 0 924 378" fill="none" xmlns="http://www.w3.org/2000/svg">
<g clip-path="url(#clip0_878_100173)">
<rect width="924" height="378" rx="12" fill="#E6F0FF"/>
<g clip-path="url(#clip1_878_100173)">
<path d="M75.8 82.72C76.5733 82.9733 77.1867 83.4 77.64 84C78.0933 84.5867 78.32 85.32 78.32 86.2C78.32 87.4133 77.8533 88.3533 76.92 89.02C75.9867 89.6733 74.6267 90 72.84 90H65.88V76H72.44C74.0933 76 75.3667 76.3267 76.26 76.98C77.1533 77.62 77.6 78.5067 77.6 79.64C77.6 80.3333 77.44 80.9467 77.12 81.48C76.8 82.0133 76.36 82.4267 75.8 82.72ZM68.48 78.04V81.9H72.16C73.0667 81.9 73.76 81.74 74.24 81.42C74.7333 81.0867 74.98 80.6067 74.98 79.98C74.98 79.34 74.7333 78.86 74.24 78.54C73.76 78.2067 73.0667 78.04 72.16 78.04H68.48ZM72.68 87.96C74.6933 87.96 75.7 87.2867 75.7 85.94C75.7 84.5933 74.6933 83.92 72.68 83.92H68.48V87.96H72.68ZM90.8948 84.72C90.8948 84.8933 90.8815 85.14 90.8548 85.46H82.4748C82.6215 86.2467 83.0015 86.8733 83.6148 87.34C84.2415 87.7933 85.0148 88.02 85.9348 88.02C87.1082 88.02 88.0748 87.6333 88.8348 86.86L90.1748 88.4C89.6948 88.9733 89.0882 89.4067 88.3548 89.7C87.6215 89.9933 86.7948 90.14 85.8748 90.14C84.7015 90.14 83.6682 89.9067 82.7748 89.44C81.8815 88.9733 81.1882 88.3267 80.6948 87.5C80.2148 86.66 79.9748 85.7133 79.9748 84.66C79.9748 83.62 80.2082 82.6867 80.6748 81.86C81.1548 81.02 81.8148 80.3667 82.6548 79.9C83.4948 79.4333 84.4415 79.2 85.4948 79.2C86.5348 79.2 87.4615 79.4333 88.2748 79.9C89.1015 80.3533 89.7415 81 90.1948 81.84C90.6615 82.6667 90.8948 83.6267 90.8948 84.72ZM85.4948 81.2C84.6948 81.2 84.0148 81.44 83.4548 81.92C82.9082 82.3867 82.5748 83.0133 82.4548 83.8H88.5148C88.4082 83.0267 88.0815 82.4 87.5348 81.92C86.9882 81.44 86.3082 81.2 85.4948 81.2ZM98.1963 90.14C97.0896 90.14 96.0963 89.9067 95.2163 89.44C94.3363 88.9733 93.6496 88.3267 93.1563 87.5C92.6629 86.66 92.4163 85.7133 92.4163 84.66C92.4163 83.6067 92.6629 82.6667 93.1563 81.84C93.6496 81.0133 94.3296 80.3667 95.1963 79.9C96.0763 79.4333 97.0763 79.2 98.1963 79.2C99.2496 79.2 100.17 79.4133 100.956 79.84C101.756 80.2667 102.356 80.88 102.756 81.68L100.836 82.8C100.53 82.3067 100.143 81.94 99.6763 81.7C99.2229 81.4467 98.7229 81.32 98.1763 81.32C97.2429 81.32 96.4696 81.6267 95.8563 82.24C95.2429 82.84 94.9363 83.6467 94.9363 84.66C94.9363 85.6733 95.2363 86.4867 95.8363 87.1C96.4496 87.7 97.2296 88 98.1763 88C98.7229 88 99.2229 87.88 99.6763 87.64C100.143 87.3867 100.53 87.0133 100.836 86.52L102.756 87.64C102.343 88.44 101.736 89.06 100.936 89.5C100.15 89.9267 99.2363 90.14 98.1963 90.14ZM109.561 90.14C108.481 90.14 107.508 89.9067 106.641 89.44C105.774 88.9733 105.094 88.3267 104.601 87.5C104.121 86.66 103.881 85.7133 103.881 84.66C103.881 83.6067 104.121 82.6667 104.601 81.84C105.094 81.0133 105.774 80.3667 106.641 79.9C107.508 79.4333 108.481 79.2 109.561 79.2C110.654 79.2 111.634 79.4333 112.501 79.9C113.368 80.3667 114.041 81.0133 114.521 81.84C115.014 82.6667 115.261 83.6067 115.261 84.66C115.261 85.7133 115.014 86.66 114.521 87.5C114.041 88.3267 113.368 88.9733 112.501 89.44C111.634 89.9067 110.654 90.14 109.561 90.14ZM109.561 88C110.481 88 111.241 87.6933 111.841 87.08C112.441 86.4667 112.741 85.66 112.741 84.66C112.741 83.66 112.441 82.8533 111.841 82.24C111.241 81.6267 110.481 81.32 109.561 81.32C108.641 81.32 107.881 81.6267 107.281 82.24C106.694 82.8533 106.401 83.66 106.401 84.66C106.401 85.66 106.694 86.4667 107.281 87.08C107.881 87.6933 108.641 88 109.561 88ZM131.132 79.2C132.478 79.2 133.545 79.5933 134.332 80.38C135.118 81.1533 135.512 82.32 135.512 83.88V90H133.012V84.2C133.012 83.2667 132.805 82.5667 132.392 82.1C131.978 81.62 131.385 81.38 130.612 81.38C129.772 81.38 129.098 81.66 128.592 82.22C128.085 82.7667 127.832 83.5533 127.832 84.58V90H125.332V84.2C125.332 83.2667 125.125 82.5667 124.712 82.1C124.298 81.62 123.705 81.38 122.932 81.38C122.078 81.38 121.398 81.6533 120.892 82.2C120.398 82.7467 120.152 83.54 120.152 84.58V90H117.652V79.32H120.032V80.68C120.432 80.2 120.932 79.8333 121.532 79.58C122.132 79.3267 122.798 79.2 123.532 79.2C124.332 79.2 125.038 79.3533 125.652 79.66C126.278 79.9533 126.772 80.3933 127.132 80.98C127.572 80.42 128.138 79.9867 128.832 79.68C129.525 79.36 130.292 79.2 131.132 79.2ZM148.844 84.72C148.844 84.8933 148.831 85.14 148.804 85.46H140.424C140.571 86.2467 140.951 86.8733 141.564 87.34C142.191 87.7933 142.964 88.02 143.884 88.02C145.057 88.02 146.024 87.6333 146.784 86.86L148.124 88.4C147.644 88.9733 147.037 89.4067 146.304 89.7C145.571 89.9933 144.744 90.14 143.824 90.14C142.651 90.14 141.617 89.9067 140.724 89.44C139.831 88.9733 139.137 88.3267 138.644 87.5C138.164 86.66 137.924 85.7133 137.924 84.66C137.924 83.62 138.157 82.6867 138.624 81.86C139.104 81.02 139.764 80.3667 140.604 79.9C141.444 79.4333 142.391 79.2 143.444 79.2C144.484 79.2 145.411 79.4333 146.224 79.9C147.051 80.3533 147.691 81 148.144 81.84C148.611 82.6667 148.844 83.6267 148.844 84.72ZM143.444 81.2C142.644 81.2 141.964 81.44 141.404 81.92C140.857 82.3867 140.524 83.0133 140.404 83.8H146.464C146.357 83.0267 146.031 82.4 145.484 81.92C144.937 81.44 144.257 81.2 143.444 81.2ZM160.853 79.2C162.426 79.2 163.626 79.58 164.453 80.34C165.293 81.0867 165.713 82.22 165.713 83.74V90H163.353V88.7C163.046 89.1667 162.606 89.5267 162.033 89.78C161.473 90.02 160.793 90.14 159.993 90.14C159.193 90.14 158.493 90.0067 157.893 89.74C157.293 89.46 156.826 89.08 156.493 88.6C156.173 88.1067 156.013 87.5533 156.013 86.94C156.013 85.98 156.366 85.2133 157.073 84.64C157.793 84.0533 158.919 83.76 160.453 83.76H163.213V83.6C163.213 82.8533 162.986 82.28 162.533 81.88C162.093 81.48 161.433 81.28 160.553 81.28C159.953 81.28 159.359 81.3733 158.773 81.56C158.199 81.7467 157.713 82.0067 157.313 82.34L156.333 80.52C156.893 80.0933 157.566 79.7667 158.353 79.54C159.139 79.3133 159.973 79.2 160.853 79.2ZM160.513 88.32C161.139 88.32 161.693 88.18 162.173 87.9C162.666 87.6067 163.013 87.1933 163.213 86.66V85.42H160.633C159.193 85.42 158.473 85.8933 158.473 86.84C158.473 87.2933 158.653 87.6533 159.013 87.92C159.373 88.1867 159.873 88.32 160.513 88.32ZM180.369 79.2C181.409 79.2 182.335 79.4267 183.149 79.88C183.975 80.3333 184.622 80.9733 185.089 81.8C185.555 82.6267 185.789 83.58 185.789 84.66C185.789 85.74 185.555 86.7 185.089 87.54C184.622 88.3667 183.975 89.0067 183.149 89.46C182.335 89.9133 181.409 90.14 180.369 90.14C178.929 90.14 177.789 89.66 176.949 88.7V93.88H174.449V79.32H176.829V80.72C177.242 80.2133 177.749 79.8333 178.349 79.58C178.962 79.3267 179.635 79.2 180.369 79.2ZM180.089 88C181.009 88 181.762 87.6933 182.349 87.08C182.949 86.4667 183.249 85.66 183.249 84.66C183.249 83.66 182.949 82.8533 182.349 82.24C181.762 81.6267 181.009 81.32 180.089 81.32C179.489 81.32 178.949 81.46 178.469 81.74C177.989 82.0067 177.609 82.3933 177.329 82.9C177.049 83.4067 176.909 83.9933 176.909 84.66C176.909 85.3267 177.049 85.9133 177.329 86.42C177.609 86.9267 177.989 87.32 178.469 87.6C178.949 87.8667 179.489 88 180.089 88ZM190.54 80.88C191.26 79.76 192.526 79.2 194.34 79.2V81.58C194.126 81.54 193.933 81.52 193.76 81.52C192.786 81.52 192.026 81.8067 191.48 82.38C190.933 82.94 190.66 83.7533 190.66 84.82V90H188.16V79.32H190.54V80.88ZM201.163 90.14C200.083 90.14 199.109 89.9067 198.243 89.44C197.376 88.9733 196.696 88.3267 196.203 87.5C195.723 86.66 195.483 85.7133 195.483 84.66C195.483 83.6067 195.723 82.6667 196.203 81.84C196.696 81.0133 197.376 80.3667 198.243 79.9C199.109 79.4333 200.083 79.2 201.163 79.2C202.256 79.2 203.236 79.4333 204.103 79.9C204.969 80.3667 205.643 81.0133 206.123 81.84C206.616 82.6667 206.863 83.6067 206.863 84.66C206.863 85.7133 206.616 86.66 206.123 87.5C205.643 88.3267 204.969 88.9733 204.103 89.44C203.236 89.9067 202.256 90.14 201.163 90.14ZM201.163 88C202.083 88 202.843 87.6933 203.443 87.08C204.043 86.4667 204.343 85.66 204.343 84.66C204.343 83.66 204.043 82.8533 203.443 82.24C202.843 81.6267 202.083 81.32 201.163 81.32C200.243 81.32 199.483 81.6267 198.883 82.24C198.296 82.8533 198.003 83.66 198.003 84.66C198.003 85.66 198.296 86.4667 198.883 87.08C199.483 87.6933 200.243 88 201.163 88Z" fill="#212121"/>
<path d="M73.8 117.2V124.6H86.76V129.8H73.8V140H67.32V112H88.48V117.2H73.8ZM112.56 129.32C112.56 129.4 112.52 129.96 112.44 131H96.16C96.4533 132.333 97.1467 133.387 98.24 134.16C99.3333 134.933 100.693 135.32 102.32 135.32C103.44 135.32 104.427 135.16 105.28 134.84C106.16 134.493 106.973 133.96 107.72 133.24L111.04 136.84C109.013 139.16 106.053 140.32 102.16 140.32C99.7333 140.32 97.5867 139.853 95.72 138.92C93.8533 137.96 92.4133 136.64 91.4 134.96C90.3867 133.28 89.88 131.373 89.88 129.24C89.88 127.133 90.3733 125.24 91.36 123.56C92.3733 121.853 93.7467 120.533 95.48 119.6C97.24 118.64 99.2 118.16 101.36 118.16C103.467 118.16 105.373 118.613 107.08 119.52C108.787 120.427 110.12 121.733 111.08 123.44C112.067 125.12 112.56 127.08 112.56 129.32ZM101.4 122.88C99.9867 122.88 98.8 123.28 97.84 124.08C96.88 124.88 96.2933 125.973 96.08 127.36H106.68C106.467 126 105.88 124.92 104.92 124.12C103.96 123.293 102.787 122.88 101.4 122.88ZM137.394 129.32C137.394 129.4 137.354 129.96 137.274 131H120.994C121.288 132.333 121.981 133.387 123.074 134.16C124.168 134.933 125.528 135.32 127.154 135.32C128.274 135.32 129.261 135.16 130.114 134.84C130.994 134.493 131.808 133.96 132.554 133.24L135.874 136.84C133.848 139.16 130.888 140.32 126.994 140.32C124.568 140.32 122.421 139.853 120.554 138.92C118.688 137.96 117.248 136.64 116.234 134.96C115.221 133.28 114.714 131.373 114.714 129.24C114.714 127.133 115.208 125.24 116.194 123.56C117.208 121.853 118.581 120.533 120.314 119.6C122.074 118.64 124.034 118.16 126.194 118.16C128.301 118.16 130.208 118.613 131.914 119.52C133.621 120.427 134.954 121.733 135.914 123.44C136.901 125.12 137.394 127.08 137.394 129.32ZM126.234 122.88C124.821 122.88 123.634 123.28 122.674 124.08C121.714 124.88 121.128 125.973 120.914 127.36H131.514C131.301 126 130.714 124.92 129.754 124.12C128.794 123.293 127.621 122.88 126.234 122.88ZM141.149 110.32H147.389V140H141.149V110.32ZM152.78 118.48H159.02V140H152.78V118.48ZM155.9 115.48C154.753 115.48 153.82 115.147 153.1 114.48C152.38 113.813 152.02 112.987 152.02 112C152.02 111.013 152.38 110.187 153.1 109.52C153.82 108.853 154.753 108.52 155.9 108.52C157.047 108.52 157.98 108.84 158.7 109.48C159.42 110.12 159.78 110.92 159.78 111.88C159.78 112.92 159.42 113.787 158.7 114.48C157.98 115.147 157.047 115.48 155.9 115.48ZM177.491 118.16C180.158 118.16 182.305 118.96 183.931 120.56C185.585 122.16 186.411 124.533 186.411 127.68V140H180.171V128.64C180.171 126.933 179.798 125.667 179.051 124.84C178.305 123.987 177.225 123.56 175.811 123.56C174.238 123.56 172.985 124.053 172.051 125.04C171.118 126 170.651 127.44 170.651 129.36V140H164.411V118.48H170.371V121C171.198 120.093 172.225 119.4 173.451 118.92C174.678 118.413 176.025 118.16 177.491 118.16ZM214.102 118.48V136.4C214.102 140.347 213.075 143.28 211.022 145.2C208.969 147.12 205.969 148.08 202.022 148.08C199.942 148.08 197.969 147.827 196.102 147.32C194.235 146.813 192.689 146.08 191.462 145.12L193.942 140.64C194.849 141.387 195.995 141.973 197.382 142.4C198.769 142.853 200.155 143.08 201.542 143.08C203.702 143.08 205.289 142.587 206.302 141.6C207.342 140.64 207.862 139.173 207.862 137.2V136.28C206.235 138.067 203.969 138.96 201.062 138.96C199.089 138.96 197.275 138.533 195.622 137.68C193.995 136.8 192.702 135.573 191.742 134C190.782 132.427 190.302 130.613 190.302 128.56C190.302 126.507 190.782 124.693 191.742 123.12C192.702 121.547 193.995 120.333 195.622 119.48C197.275 118.6 199.089 118.16 201.062 118.16C204.182 118.16 206.555 119.187 208.182 121.24V118.48H214.102ZM202.302 133.84C203.955 133.84 205.302 133.36 206.342 132.4C207.409 131.413 207.942 130.133 207.942 128.56C207.942 126.987 207.409 125.72 206.342 124.76C205.302 123.773 203.955 123.28 202.302 123.28C200.649 123.28 199.289 123.773 198.222 124.76C197.155 125.72 196.622 126.987 196.622 128.56C196.622 130.133 197.155 131.413 198.222 132.4C199.289 133.36 200.649 133.84 202.302 133.84ZM230.438 110.32H236.678V140H230.438V110.32ZM252.309 140.32C250.042 140.32 248.002 139.853 246.189 138.92C244.402 137.96 243.002 136.64 241.989 134.96C240.976 133.28 240.469 131.373 240.469 129.24C240.469 127.107 240.976 125.2 241.989 123.52C243.002 121.84 244.402 120.533 246.189 119.6C248.002 118.64 250.042 118.16 252.309 118.16C254.576 118.16 256.602 118.64 258.389 119.6C260.176 120.533 261.576 121.84 262.589 123.52C263.602 125.2 264.109 127.107 264.109 129.24C264.109 131.373 263.602 133.28 262.589 134.96C261.576 136.64 260.176 137.96 258.389 138.92C256.602 139.853 254.576 140.32 252.309 140.32ZM252.309 135.2C253.909 135.2 255.216 134.667 256.229 133.6C257.269 132.507 257.789 131.053 257.789 129.24C257.789 127.427 257.269 125.987 256.229 124.92C255.216 123.827 253.909 123.28 252.309 123.28C250.709 123.28 249.389 123.827 248.349 124.92C247.309 125.987 246.789 127.427 246.789 129.24C246.789 131.053 247.309 132.507 248.349 133.6C249.389 134.667 250.709 135.2 252.309 135.2ZM275.12 140.32C273.333 140.32 271.587 140.107 269.88 139.68C268.173 139.227 266.813 138.667 265.8 138L267.88 133.52C268.84 134.133 270 134.64 271.36 135.04C272.72 135.413 274.053 135.6 275.36 135.6C278 135.6 279.32 134.947 279.32 133.64C279.32 133.027 278.96 132.587 278.24 132.32C277.52 132.053 276.413 131.827 274.92 131.64C273.16 131.373 271.707 131.067 270.56 130.72C269.413 130.373 268.413 129.76 267.56 128.88C266.733 128 266.32 126.747 266.32 125.12C266.32 123.76 266.707 122.56 267.48 121.52C268.28 120.453 269.427 119.627 270.92 119.04C272.44 118.453 274.227 118.16 276.28 118.16C277.8 118.16 279.307 118.333 280.8 118.68C282.32 119 283.573 119.453 284.56 120.04L282.48 124.48C280.587 123.413 278.52 122.88 276.28 122.88C274.947 122.88 273.947 123.067 273.28 123.44C272.613 123.813 272.28 124.293 272.28 124.88C272.28 125.547 272.64 126.013 273.36 126.28C274.08 126.547 275.227 126.8 276.8 127.04C278.56 127.333 280 127.653 281.12 128C282.24 128.32 283.213 128.92 284.04 129.8C284.867 130.68 285.28 131.907 285.28 133.48C285.28 134.813 284.88 136 284.08 137.04C283.28 138.08 282.107 138.893 280.56 139.48C279.04 140.04 277.227 140.32 275.12 140.32ZM302.61 138.96C301.997 139.413 301.237 139.76 300.33 140C299.45 140.213 298.517 140.32 297.53 140.32C294.97 140.32 292.983 139.667 291.57 138.36C290.183 137.053 289.49 135.133 289.49 132.6V123.76H286.17V118.96H289.49V113.72H295.73V118.96H301.09V123.76H295.73V132.52C295.73 133.427 295.957 134.133 296.41 134.64C296.89 135.12 297.557 135.36 298.41 135.36C299.397 135.36 300.237 135.093 300.93 134.56L302.61 138.96ZM310.966 130.28C310.966 128.893 311.273 127.747 311.886 126.84C312.526 125.933 313.446 124.933 314.646 123.84C315.526 123.04 316.166 122.373 316.566 121.84C316.993 121.28 317.206 120.653 317.206 119.96C317.206 118.973 316.806 118.2 316.006 117.64C315.233 117.053 314.193 116.76 312.886 116.76C311.633 116.76 310.513 117.027 309.526 117.56C308.566 118.067 307.753 118.787 307.086 119.72L302.246 116.88C303.366 115.173 304.873 113.853 306.766 112.92C308.686 111.987 310.953 111.52 313.566 111.52C316.633 111.52 319.086 112.173 320.926 113.48C322.793 114.787 323.726 116.6 323.726 118.92C323.726 120.013 323.539 120.973 323.166 121.8C322.819 122.627 322.379 123.333 321.846 123.92C321.339 124.48 320.673 125.133 319.846 125.88C318.859 126.76 318.139 127.507 317.686 128.12C317.233 128.707 317.006 129.427 317.006 130.28H310.966ZM314.006 140.32C312.913 140.32 311.993 139.973 311.246 139.28C310.526 138.56 310.166 137.693 310.166 136.68C310.166 135.667 310.526 134.827 311.246 134.16C311.966 133.467 312.886 133.12 314.006 133.12C315.126 133.12 316.046 133.467 316.766 134.16C317.486 134.827 317.846 135.667 317.846 136.68C317.846 137.693 317.473 138.56 316.726 139.28C316.006 139.973 315.099 140.32 314.006 140.32ZM349.649 140.32C347.355 140.32 345.289 139.853 343.449 138.92C341.635 137.96 340.209 136.64 339.169 134.96C338.155 133.28 337.649 131.373 337.649 129.24C337.649 127.107 338.155 125.2 339.169 123.52C340.209 121.84 341.635 120.533 343.449 119.6C345.289 118.64 347.355 118.16 349.649 118.16C351.915 118.16 353.889 118.64 355.569 119.6C357.275 120.533 358.515 121.88 359.289 123.64L354.449 126.24C353.329 124.267 351.715 123.28 349.609 123.28C347.982 123.28 346.635 123.813 345.569 124.88C344.502 125.947 343.969 127.4 343.969 129.24C343.969 131.08 344.502 132.533 345.569 133.6C346.635 134.667 347.982 135.2 349.609 135.2C351.742 135.2 353.355 134.213 354.449 132.24L359.289 134.88C358.515 136.587 357.275 137.92 355.569 138.88C353.889 139.84 351.915 140.32 349.649 140.32ZM375.405 118.16C378.072 118.16 380.219 118.96 381.845 120.56C383.499 122.16 384.325 124.533 384.325 127.68V140H378.085V128.64C378.085 126.933 377.712 125.667 376.965 124.84C376.219 123.987 375.139 123.56 373.725 123.56C372.152 123.56 370.899 124.053 369.965 125.04C369.032 126 368.565 127.44 368.565 129.36V140H362.325V110.32H368.565V120.72C369.392 119.893 370.392 119.267 371.565 118.84C372.739 118.387 374.019 118.16 375.405 118.16ZM398.262 118.16C401.595 118.16 404.155 118.96 405.942 120.56C407.728 122.133 408.622 124.52 408.622 127.72V140H402.782V137.32C401.608 139.32 399.422 140.32 396.222 140.32C394.568 140.32 393.128 140.04 391.902 139.48C390.702 138.92 389.782 138.147 389.142 137.16C388.502 136.173 388.182 135.053 388.182 133.8C388.182 131.8 388.928 130.227 390.422 129.08C391.942 127.933 394.275 127.36 397.422 127.36H402.382C402.382 126 401.968 124.96 401.142 124.24C400.315 123.493 399.075 123.12 397.422 123.12C396.275 123.12 395.142 123.307 394.022 123.68C392.928 124.027 391.995 124.507 391.222 125.12L388.982 120.76C390.155 119.933 391.555 119.293 393.182 118.84C394.835 118.387 396.528 118.16 398.262 118.16ZM397.782 136.12C398.848 136.12 399.795 135.88 400.622 135.4C401.448 134.893 402.035 134.16 402.382 133.2V131H398.102C395.542 131 394.262 131.84 394.262 133.52C394.262 134.32 394.568 134.96 395.182 135.44C395.822 135.893 396.688 136.12 397.782 136.12ZM427.749 138.96C427.136 139.413 426.376 139.76 425.469 140C424.589 140.213 423.656 140.32 422.669 140.32C420.109 140.32 418.122 139.667 416.709 138.36C415.322 137.053 414.629 135.133 414.629 132.6V123.76H411.309V118.96H414.629V113.72H420.869V118.96H426.229V123.76H420.869V132.52C420.869 133.427 421.096 134.133 421.549 134.64C422.029 135.12 422.696 135.36 423.549 135.36C424.536 135.36 425.376 135.093 426.069 134.56L427.749 138.96ZM101.44 166.48L93.64 188H87.64L82.8 174.64L77.8 188H71.8L64.04 166.48H69.92L75 181.04L80.28 166.48H85.56L90.68 181.04L95.92 166.48H101.44ZM103.941 166.48H110.181V188H103.941V166.48ZM107.061 163.48C105.914 163.48 104.981 163.147 104.261 162.48C103.541 161.813 103.181 160.987 103.181 160C103.181 159.013 103.541 158.187 104.261 157.52C104.981 156.853 105.914 156.52 107.061 156.52C108.208 156.52 109.141 156.84 109.861 157.48C110.581 158.12 110.941 158.92 110.941 159.88C110.941 160.92 110.581 161.787 109.861 162.48C109.141 163.147 108.208 163.48 107.061 163.48ZM129.452 186.96C128.839 187.413 128.079 187.76 127.172 188C126.292 188.213 125.359 188.32 124.372 188.32C121.812 188.32 119.826 187.667 118.412 186.36C117.026 185.053 116.332 183.133 116.332 180.6V171.76H113.012V166.96H116.332V161.72H122.572V166.96H127.932V171.76H122.572V180.52C122.572 181.427 122.799 182.133 123.252 182.64C123.732 183.12 124.399 183.36 125.252 183.36C126.239 183.36 127.079 183.093 127.772 182.56L129.452 186.96ZM145.635 166.16C148.302 166.16 150.448 166.96 152.075 168.56C153.728 170.16 154.555 172.533 154.555 175.68V188H148.315V176.64C148.315 174.933 147.942 173.667 147.195 172.84C146.448 171.987 145.368 171.56 143.955 171.56C142.382 171.56 141.128 172.053 140.195 173.04C139.262 174 138.795 175.44 138.795 177.36V188H132.555V158.32H138.795V168.72C139.622 167.893 140.622 167.267 141.795 166.84C142.968 166.387 144.248 166.16 145.635 166.16ZM177.979 188.32C176.193 188.32 174.446 188.107 172.739 187.68C171.033 187.227 169.673 186.667 168.659 186L170.739 181.52C171.699 182.133 172.859 182.64 174.219 183.04C175.579 183.413 176.913 183.6 178.219 183.6C180.859 183.6 182.179 182.947 182.179 181.64C182.179 181.027 181.819 180.587 181.099 180.32C180.379 180.053 179.273 179.827 177.779 179.64C176.019 179.373 174.566 179.067 173.419 178.72C172.273 178.373 171.273 177.76 170.419 176.88C169.593 176 169.179 174.747 169.179 173.12C169.179 171.76 169.566 170.56 170.339 169.52C171.139 168.453 172.286 167.627 173.779 167.04C175.299 166.453 177.086 166.16 179.139 166.16C180.659 166.16 182.166 166.333 183.659 166.68C185.179 167 186.433 167.453 187.419 168.04L185.339 172.48C183.446 171.413 181.379 170.88 179.139 170.88C177.806 170.88 176.806 171.067 176.139 171.44C175.473 171.813 175.139 172.293 175.139 172.88C175.139 173.547 175.499 174.013 176.219 174.28C176.939 174.547 178.086 174.8 179.659 175.04C181.419 175.333 182.859 175.653 183.979 176C185.099 176.32 186.073 176.92 186.899 177.8C187.726 178.68 188.139 179.907 188.139 181.48C188.139 182.813 187.739 184 186.939 185.04C186.139 186.08 184.966 186.893 183.419 187.48C181.899 188.04 180.086 188.32 177.979 188.32ZM213.269 166.48V188H207.349V185.44C206.523 186.373 205.536 187.093 204.389 187.6C203.243 188.08 202.003 188.32 200.669 188.32C197.843 188.32 195.603 187.507 193.949 185.88C192.296 184.253 191.469 181.84 191.469 178.64V166.48H197.709V177.72C197.709 181.187 199.163 182.92 202.069 182.92C203.563 182.92 204.763 182.44 205.669 181.48C206.576 180.493 207.029 179.04 207.029 177.12V166.48H213.269ZM231.37 166.16C233.37 166.16 235.184 166.627 236.81 167.56C238.464 168.467 239.757 169.76 240.69 171.44C241.624 173.093 242.09 175.027 242.09 177.24C242.09 179.453 241.624 181.4 240.69 183.08C239.757 184.733 238.464 186.027 236.81 186.96C235.184 187.867 233.37 188.32 231.37 188.32C228.624 188.32 226.464 187.453 224.89 185.72V195.76H218.65V166.48H224.61V168.96C226.157 167.093 228.41 166.16 231.37 166.16ZM230.29 183.2C231.89 183.2 233.197 182.667 234.21 181.6C235.25 180.507 235.77 179.053 235.77 177.24C235.77 175.427 235.25 173.987 234.21 172.92C233.197 171.827 231.89 171.28 230.29 171.28C228.69 171.28 227.37 171.827 226.33 172.92C225.317 173.987 224.81 175.427 224.81 177.24C224.81 179.053 225.317 180.507 226.33 181.6C227.37 182.667 228.69 183.2 230.29 183.2ZM258.588 166.16C260.588 166.16 262.401 166.627 264.028 167.56C265.681 168.467 266.974 169.76 267.908 171.44C268.841 173.093 269.308 175.027 269.308 177.24C269.308 179.453 268.841 181.4 267.908 183.08C266.974 184.733 265.681 186.027 264.028 186.96C262.401 187.867 260.588 188.32 258.588 188.32C255.841 188.32 253.681 187.453 252.108 185.72V195.76H245.868V166.48H251.828V168.96C253.374 167.093 255.628 166.16 258.588 166.16ZM257.508 183.2C259.108 183.2 260.414 182.667 261.428 181.6C262.468 180.507 262.988 179.053 262.988 177.24C262.988 175.427 262.468 173.987 261.428 172.92C260.414 171.827 259.108 171.28 257.508 171.28C255.908 171.28 254.588 171.827 253.548 172.92C252.534 173.987 252.028 175.427 252.028 177.24C252.028 179.053 252.534 180.507 253.548 181.6C254.588 182.667 255.908 183.2 257.508 183.2ZM283.325 188.32C281.058 188.32 279.018 187.853 277.205 186.92C275.418 185.96 274.018 184.64 273.005 182.96C271.991 181.28 271.485 179.373 271.485 177.24C271.485 175.107 271.991 173.2 273.005 171.52C274.018 169.84 275.418 168.533 277.205 167.6C279.018 166.64 281.058 166.16 283.325 166.16C285.591 166.16 287.618 166.64 289.405 167.6C291.191 168.533 292.591 169.84 293.605 171.52C294.618 173.2 295.125 175.107 295.125 177.24C295.125 179.373 294.618 181.28 293.605 182.96C292.591 184.64 291.191 185.96 289.405 186.92C287.618 187.853 285.591 188.32 283.325 188.32ZM283.325 183.2C284.925 183.2 286.231 182.667 287.245 181.6C288.285 180.507 288.805 179.053 288.805 177.24C288.805 175.427 288.285 173.987 287.245 172.92C286.231 171.827 284.925 171.28 283.325 171.28C281.725 171.28 280.405 171.827 279.365 172.92C278.325 173.987 277.805 175.427 277.805 177.24C277.805 179.053 278.325 180.507 279.365 181.6C280.405 182.667 281.725 183.2 283.325 183.2ZM304.856 169.32C305.602 168.28 306.602 167.493 307.856 166.96C309.136 166.427 310.602 166.16 312.256 166.16V171.92C311.562 171.867 311.096 171.84 310.856 171.84C309.069 171.84 307.669 172.347 306.656 173.36C305.642 174.347 305.136 175.84 305.136 177.84V188H298.896V166.48H304.856V169.32ZM330.188 186.96C329.575 187.413 328.815 187.76 327.908 188C327.028 188.213 326.095 188.32 325.108 188.32C322.548 188.32 320.561 187.667 319.148 186.36C317.761 185.053 317.068 183.133 317.068 180.6V171.76H313.748V166.96H317.068V161.72H323.308V166.96H328.668V171.76H323.308V180.52C323.308 181.427 323.535 182.133 323.988 182.64C324.468 183.12 325.135 183.36 325.988 183.36C326.975 183.36 327.815 183.093 328.508 182.56L330.188 186.96Z" fill="#212121"/>
<rect x="64" y="222" width="214" height="64" rx="32" fill="#0D6EFD"/>
<path d="M117.571 253.766H120.4V260.183C119.572 260.842 118.606 261.348 117.502 261.701C116.398 262.054 115.263 262.23 114.098 262.23C112.457 262.23 110.977 261.877 109.659 261.172C108.34 260.451 107.305 259.462 106.554 258.205C105.802 256.948 105.427 255.529 105.427 253.95C105.427 252.371 105.802 250.952 106.554 249.695C107.305 248.438 108.34 247.456 109.659 246.751C110.993 246.03 112.488 245.67 114.144 245.67C115.493 245.67 116.72 245.892 117.824 246.337C118.928 246.782 119.855 247.433 120.607 248.292L118.721 250.132C117.494 248.905 116.014 248.292 114.282 248.292C113.147 248.292 112.135 248.53 111.246 249.005C110.372 249.48 109.682 250.147 109.176 251.006C108.685 251.865 108.44 252.846 108.44 253.95C108.44 255.023 108.685 255.989 109.176 256.848C109.682 257.707 110.372 258.381 111.246 258.872C112.135 259.363 113.139 259.608 114.259 259.608C115.516 259.608 116.62 259.332 117.571 258.78V253.766ZM135.613 255.928C135.613 256.127 135.598 256.411 135.567 256.779H125.93C126.099 257.684 126.536 258.404 127.241 258.941C127.962 259.462 128.851 259.723 129.909 259.723C131.258 259.723 132.37 259.278 133.244 258.389L134.785 260.16C134.233 260.819 133.535 261.318 132.692 261.655C131.849 261.992 130.898 262.161 129.84 262.161C128.491 262.161 127.302 261.893 126.275 261.356C125.248 260.819 124.45 260.076 123.883 259.125C123.331 258.159 123.055 257.07 123.055 255.859C123.055 254.663 123.323 253.59 123.86 252.639C124.412 251.673 125.171 250.922 126.137 250.385C127.103 249.848 128.192 249.58 129.403 249.58C130.599 249.58 131.665 249.848 132.6 250.385C133.551 250.906 134.287 251.65 134.808 252.616C135.345 253.567 135.613 254.671 135.613 255.928ZM129.403 251.88C128.483 251.88 127.701 252.156 127.057 252.708C126.428 253.245 126.045 253.965 125.907 254.87H132.876C132.753 253.981 132.378 253.26 131.749 252.708C131.12 252.156 130.338 251.88 129.403 251.88ZM145.758 261.333C145.42 261.609 145.006 261.816 144.516 261.954C144.04 262.092 143.534 262.161 142.998 262.161C141.648 262.161 140.606 261.808 139.87 261.103C139.134 260.398 138.766 259.37 138.766 258.021V252.11H136.742V249.81H138.766V247.004H141.641V249.81H144.93V252.11H141.641V257.952C141.641 258.55 141.786 259.01 142.078 259.332C142.369 259.639 142.791 259.792 143.343 259.792C143.987 259.792 144.523 259.623 144.953 259.286L145.758 261.333ZM158.274 262.161C157.278 262.161 156.304 262.031 155.353 261.77C154.403 261.509 153.644 261.18 153.076 260.781L154.18 258.596C154.732 258.964 155.392 259.263 156.158 259.493C156.94 259.708 157.707 259.815 158.458 259.815C160.176 259.815 161.034 259.363 161.034 258.458C161.034 258.029 160.812 257.73 160.367 257.561C159.938 257.392 159.24 257.231 158.274 257.078C157.262 256.925 156.434 256.748 155.79 256.549C155.162 256.35 154.61 256.005 154.134 255.514C153.674 255.008 153.444 254.31 153.444 253.421C153.444 252.256 153.927 251.328 154.893 250.638C155.875 249.933 157.193 249.58 158.849 249.58C159.693 249.58 160.536 249.68 161.379 249.879C162.223 250.063 162.913 250.316 163.449 250.638L162.345 252.823C161.303 252.21 160.13 251.903 158.826 251.903C157.983 251.903 157.339 252.033 156.894 252.294C156.465 252.539 156.25 252.869 156.25 253.283C156.25 253.743 156.48 254.073 156.94 254.272C157.416 254.456 158.144 254.632 159.125 254.801C160.107 254.954 160.912 255.131 161.54 255.33C162.169 255.529 162.706 255.867 163.15 256.342C163.61 256.817 163.84 257.492 163.84 258.366C163.84 259.516 163.342 260.436 162.345 261.126C161.349 261.816 159.992 262.161 158.274 262.161ZM173.699 261.333C173.362 261.609 172.948 261.816 172.457 261.954C171.982 262.092 171.476 262.161 170.939 262.161C169.59 262.161 168.547 261.808 167.811 261.103C167.075 260.398 166.707 259.37 166.707 258.021V252.11H164.683V249.81H166.707V247.004H169.582V249.81H172.871V252.11H169.582V257.952C169.582 258.55 169.728 259.01 170.019 259.332C170.311 259.639 170.732 259.792 171.284 259.792C171.928 259.792 172.465 259.623 172.894 259.286L173.699 261.333ZM180.756 249.58C182.566 249.58 183.946 250.017 184.896 250.891C185.862 251.75 186.345 253.053 186.345 254.801V262H183.631V260.505C183.279 261.042 182.773 261.456 182.113 261.747C181.469 262.023 180.687 262.161 179.767 262.161C178.847 262.161 178.042 262.008 177.352 261.701C176.662 261.379 176.126 260.942 175.742 260.39C175.374 259.823 175.19 259.186 175.19 258.481C175.19 257.377 175.597 256.495 176.409 255.836C177.237 255.161 178.533 254.824 180.296 254.824H183.47V254.64C183.47 253.781 183.21 253.122 182.688 252.662C182.182 252.202 181.423 251.972 180.411 251.972C179.721 251.972 179.039 252.079 178.364 252.294C177.705 252.509 177.145 252.808 176.685 253.191L175.558 251.098C176.202 250.607 176.977 250.232 177.881 249.971C178.786 249.71 179.744 249.58 180.756 249.58ZM180.365 260.068C181.086 260.068 181.722 259.907 182.274 259.585C182.842 259.248 183.24 258.772 183.47 258.159V256.733H180.503C178.847 256.733 178.019 257.277 178.019 258.366C178.019 258.887 178.226 259.301 178.64 259.608C179.054 259.915 179.629 260.068 180.365 260.068ZM192.772 251.512C193.6 250.224 195.057 249.58 197.142 249.58V252.317C196.897 252.271 196.674 252.248 196.475 252.248C195.356 252.248 194.482 252.578 193.853 253.237C193.224 253.881 192.91 254.816 192.91 256.043V262H190.035V249.718H192.772V251.512ZM207.413 261.333C207.076 261.609 206.662 261.816 206.171 261.954C205.696 262.092 205.19 262.161 204.653 262.161C203.304 262.161 202.261 261.808 201.525 261.103C200.789 260.398 200.421 259.37 200.421 258.021V252.11H198.397V249.81H200.421V247.004H203.296V249.81H206.585V252.11H203.296V257.952C203.296 258.55 203.442 259.01 203.733 259.332C204.024 259.639 204.446 259.792 204.998 259.792C205.642 259.792 206.179 259.623 206.608 259.286L207.413 261.333ZM220.92 255.928C220.92 256.127 220.904 256.411 220.874 256.779H211.237C211.405 257.684 211.842 258.404 212.548 258.941C213.268 259.462 214.158 259.723 215.216 259.723C216.565 259.723 217.677 259.278 218.551 258.389L220.092 260.16C219.54 260.819 218.842 261.318 217.999 261.655C217.155 261.992 216.205 262.161 215.147 262.161C213.797 262.161 212.609 261.893 211.582 261.356C210.554 260.819 209.757 260.076 209.19 259.125C208.638 258.159 208.362 257.07 208.362 255.859C208.362 254.663 208.63 253.59 209.167 252.639C209.719 251.673 210.478 250.922 211.444 250.385C212.41 249.848 213.498 249.58 214.71 249.58C215.906 249.58 216.971 249.848 217.907 250.385C218.857 250.906 219.593 251.65 220.115 252.616C220.651 253.567 220.92 254.671 220.92 255.928ZM214.71 251.88C213.79 251.88 213.008 252.156 212.364 252.708C211.735 253.245 211.352 253.965 211.214 254.87H218.183C218.06 253.981 217.684 253.26 217.056 252.708C216.427 252.156 215.645 251.88 214.71 251.88ZM235.71 244.934V262H232.95V260.413C232.475 260.996 231.885 261.433 231.179 261.724C230.489 262.015 229.723 262.161 228.879 262.161C227.699 262.161 226.633 261.9 225.682 261.379C224.747 260.858 224.011 260.122 223.474 259.171C222.938 258.205 222.669 257.101 222.669 255.859C222.669 254.617 222.938 253.521 223.474 252.57C224.011 251.619 224.747 250.883 225.682 250.362C226.633 249.841 227.699 249.58 228.879 249.58C229.692 249.58 230.436 249.718 231.11 249.994C231.785 250.27 232.36 250.684 232.835 251.236V244.934H235.71ZM229.224 259.7C229.914 259.7 230.535 259.547 231.087 259.24C231.639 258.918 232.076 258.466 232.398 257.883C232.72 257.3 232.881 256.626 232.881 255.859C232.881 255.092 232.72 254.418 232.398 253.835C232.076 253.252 231.639 252.808 231.087 252.501C230.535 252.179 229.914 252.018 229.224 252.018C228.534 252.018 227.913 252.179 227.361 252.501C226.809 252.808 226.372 253.252 226.05 253.835C225.728 254.418 225.567 255.092 225.567 255.859C225.567 256.626 225.728 257.3 226.05 257.883C226.372 258.466 226.809 258.918 227.361 259.24C227.913 259.547 228.534 259.7 229.224 259.7Z" fill="white"/>
</g>
<path d="M677.523 174.492C696.555 178.274 716.127 178.844 735.459 177.899C744.985 177.436 754.491 176.594 763.956 175.556C766.404 175.288 768.984 175.206 771.386 174.677C773.93 174.117 774.668 172.221 775.457 169.903C775.457 169.852 775.488 169.805 775.503 169.754C754.845 172.393 733.977 172.937 713.211 171.378C703.033 170.634 692.908 169.399 682.836 167.673C677.457 166.753 670.114 165.91 666.516 161.275C666.346 163.442 666.518 165.622 667.025 167.735C668.251 172.56 673.294 173.649 677.523 174.492Z" fill="#BE1E2D"/>
<path d="M649.848 249.931C649.228 254.153 648.298 258.62 648.654 262.914C649.099 268.033 652.69 271.69 658.153 270.289C663.062 269.031 665.858 264.416 668.1 260.311C668.143 260.241 668.189 260.173 668.24 260.108C667.206 233.47 666.643 206.73 667.346 180.092C663.186 187.314 661.279 195.794 659.217 203.745C656.616 213.769 654.377 223.87 652.499 234.05C651.514 239.334 650.63 244.627 649.848 249.931Z" fill="#F7941E"/>
<path fill-rule="evenodd" clip-rule="evenodd" d="M668.298 149.782C672.552 151.233 676.765 152.557 681.034 153.681C680.115 143.735 681.114 133.285 682.061 123.377L682.061 123.376C682.103 122.931 682.146 122.488 682.188 122.045C682.291 120.964 682.392 119.871 682.493 118.77C683.299 109.987 684.153 100.679 687.08 92.4531C688.407 88.7235 690.419 84.345 693.938 82.1788C696.746 80.4468 700.188 80.7891 702.277 83.4049C704.437 86.1128 704.416 89.9497 704.319 93.2246C704.146 97.8773 703.957 102.528 703.752 107.178C709.671 105.762 716.069 105.4 722.064 105.221C728.323 105.063 734.585 105.404 740.79 106.243C741.872 99.0541 745.074 91.3343 750.834 86.828C753.387 84.8253 756.686 84.1458 759.49 86.0821C762.625 88.2484 763.263 92.213 763.141 95.7485C762.903 102.653 762.379 109.564 761.854 116.474C761.59 119.955 761.326 123.435 761.098 126.914C760.417 137.173 759.718 147.432 759 157.691L763.228 157.502C765.75 157.374 768.273 157.236 770.796 157.073C770.93 157.064 771.064 157.056 771.197 157.047C772.987 156.935 774.636 156.832 776.147 155.724C776.302 155.613 776.475 155.528 776.658 155.474C789.22 137.168 793.208 113.579 786.758 92.2539C785.135 86.8791 782.964 81.5248 779.323 77.1463C776.193 73.4013 772.399 70.1469 768.6 67.1018C760.61 60.633 751.666 55.4419 742.087 51.7133C723.959 44.8007 703.686 44.3408 686.298 53.6343C670.09 62.3197 657.871 77.9331 654.235 96.0397C650.461 114.841 655.808 135.083 668.237 149.644C668.259 149.689 668.28 149.735 668.298 149.782ZM776.607 127.2C776.234 127.849 775.361 127.379 775.473 126.72C775.612 125.911 775.77 125.122 775.927 124.341L775.927 124.34C776.412 121.925 776.881 119.591 776.688 117.013C776.688 116.787 776.855 116.596 777.079 116.566C777.302 116.536 777.513 116.677 777.572 116.895C778.22 120.196 778.358 124.175 776.607 127.2ZM773.982 86.4602C769.836 77.4835 762.206 72.1087 753.265 68.4455V68.4557C753.03 68.3587 752.897 68.7316 753.096 68.8491C754.029 69.4368 754.976 70.0101 755.923 70.5841C759.318 72.6401 762.728 74.7054 765.582 77.4733C768.46 80.3158 770.774 83.677 772.404 87.3798C774.142 91.3376 775.273 95.5351 775.759 99.8307C776.067 102.378 776.061 104.916 776.055 107.456C776.051 109.125 776.047 110.796 776.132 112.471C776.137 112.773 776.362 113.026 776.662 113.067C776.961 113.108 777.246 112.924 777.332 112.634C779.41 104.342 777.5 94.0829 773.982 86.4602Z" fill="#88E0FF"/>
<path d="M756.173 221.223C755.26 225.62 753.269 227.839 748.685 228.348C742.56 229.045 736.231 229.009 730.055 229.233C717.406 229.691 704.559 230.409 691.905 229.874C688.174 229.717 684.06 229.162 681.069 226.734C677.389 223.742 677.282 219.156 677.557 214.785C678.298 202.865 678.619 190.702 680.171 178.839C677.037 178.33 673.811 177.734 670.922 176.508C671.022 176.744 671.072 176.999 671.07 177.256C671.072 177.28 671.072 177.303 671.07 177.327C671.075 177.373 671.075 177.419 671.07 177.464C671.07 192.799 670.942 208.128 671.162 223.462C671.56 250.91 672.656 278.339 674.449 305.746C674.684 309.253 674.908 312.765 675.179 316.271C675.414 319.228 675.689 322.617 677.731 324.923C680.344 327.839 684.014 326.959 685.898 323.793C687.475 321.136 687.47 317.777 687.679 314.795C688.635 301.298 689.575 287.803 690.497 274.309C686.985 273.164 683.668 271.496 680.656 269.363C679.543 268.548 680.181 266.34 681.677 266.94C686.515 268.894 691.222 270.849 696.336 271.999C701.551 273.136 706.868 273.742 712.205 273.806C717.855 273.88 723.505 273.656 729.131 273.134C734.383 272.681 739.661 272.477 744.622 270.62C746.271 270.004 747.088 272.192 746.154 273.281C745.329 274.227 744.274 274.946 743.091 275.368C744.03 290.931 745.99 306.332 749.727 321.493C750.426 324.358 750.855 329.259 753.585 330.989C757.276 333.325 759.404 327.345 760.134 324.719C761.89 318.398 761.594 311.406 761.916 304.901C762.596 290.882 763.295 276.861 764.013 262.838C765.422 234.949 766.868 207.064 768.352 179.185C765.8 179.47 763.248 179.739 760.726 179.994C760.472 193.846 758.948 207.647 756.173 221.223Z" fill="#F7941E"/>
<path d="M766.547 161.035C761.538 161.325 756.526 161.546 751.511 161.698C741.483 162.002 731.452 162.04 721.418 161.814C703.877 161.414 684.38 160.681 668.127 153.211C667.858 154.517 667.584 155.858 667.346 157.214C667.551 157.323 667.726 157.481 667.853 157.675C670.033 160.903 673.46 162.229 677.141 163.085C681.277 164.016 685.526 164.603 689.723 165.205C699.254 166.598 708.839 167.541 718.478 168.034C737.492 168.978 756.553 168.289 775.449 165.974C775.711 165.938 775.977 165.959 776.23 166.035C776.491 163.88 776.445 161.699 776.093 159.557C773.31 161.086 769.66 160.838 766.547 161.035Z" fill="#BE1E2D"/>
<path d="M771.892 178.3L771.657 178.341C770.718 196.408 769.767 214.456 768.806 232.486L768.352 241.046C773.678 249.365 777.986 259.746 786.216 265.59C790.169 268.392 798.482 271.333 800.873 265.13C803.035 259.505 798.289 252.607 796.116 247.601C786.42 225.479 778.315 202.72 771.861 179.491C771.743 179.101 771.754 178.684 771.892 178.3Z" fill="#F7941E"/>
<path d="M694.184 127.139C694.085 127.545 694.328 127.955 694.758 128.108C695.384 128.231 696.004 127.551 695.946 127.036C695.909 126.772 695.781 126.525 695.579 126.33C694.942 126.475 694.322 126.701 694.184 127.139Z" fill="white"/>
<path fill-rule="evenodd" clip-rule="evenodd" d="M690.538 91.7569C691.503 89.4004 695.993 80.9506 698.896 85.5818C700.255 87.7571 700.018 90.8916 699.816 93.5831C699.766 94.2375 699.719 94.8657 699.697 95.4476C699.652 96.5056 699.606 97.5638 699.56 98.6223L699.56 98.6282L699.56 98.6339C699.419 101.867 699.279 105.102 699.156 108.334C699.096 109.01 699.451 109.655 700.054 109.965C700.334 110.233 700.721 110.359 701.105 110.308C703.393 110.093 705.662 109.815 707.929 109.538L707.929 109.538L707.929 109.538C712.205 109.014 716.469 108.491 720.821 108.401C727.648 108.247 734.475 108.668 741.231 109.658C741.806 109.799 742.413 109.672 742.884 109.313C743.354 108.953 743.638 108.4 743.655 107.808C743.982 104.148 744.974 100.579 746.583 97.2776C748.073 94.2514 750.211 90.4687 753.217 88.7358C758.385 85.7556 758.661 93.8221 758.482 96.7767C758.316 99.4725 758.122 102.166 757.928 104.859L757.928 104.861L757.927 104.869L757.927 104.87C757.823 106.309 757.719 107.749 757.62 109.188C757.342 113.195 757.061 117.203 756.78 121.21L756.78 121.214C755.937 133.236 755.094 145.258 754.329 157.28C752.395 157.351 750.456 157.423 748.522 157.474C739.015 157.733 729.499 157.76 719.974 157.556C711.101 157.367 702.202 156.988 693.401 155.767C690.007 155.296 686.696 154.657 683.436 153.88C683.818 149.542 683.949 145.173 684.08 140.802C684.196 136.901 684.313 133 684.609 129.119C685.293 120.173 686.318 111.243 687.813 102.4C688.421 98.7907 689.15 95.1562 690.538 91.7569ZM690.273 126.502C689.88 128.787 691.579 131.21 693.962 131.343C696.415 131.437 698.502 129.568 698.682 127.115C698.794 124.846 696.6 121.656 694.018 122.586C693.55 122.746 693.192 123.13 693.064 123.608C691.696 124.017 690.559 124.892 690.273 126.502ZM732.419 127.478C732.564 126.608 732.987 125.808 733.623 125.198C734.74 124.134 736.315 123.702 737.817 124.048C740.721 124.769 742.042 128.521 740.409 130.959C738.695 133.515 734.465 133.479 732.878 130.796C732.309 129.789 732.145 128.602 732.419 127.478ZM710.78 131.884C710.856 130.371 708.432 130.019 708.121 131.522C708.083 131.714 708.042 131.914 708 132.119C707.487 134.641 706.791 138.056 707.749 140.401C708.698 142.696 711.652 143.161 713.8 142.696C718.673 141.638 721.913 135.294 719.464 130.785C718.704 129.39 716.811 130.162 716.688 131.542C716.644 132.029 716.623 132.533 716.601 133.04C716.489 135.607 716.374 138.262 713.392 139.235C712.784 139.477 712.115 139.514 711.484 139.343C710.76 139.058 710.769 138.612 710.781 137.963C710.783 137.806 710.787 137.637 710.78 137.456C710.703 135.601 710.688 133.74 710.78 131.884Z" fill="white"/>
<path fill-rule="evenodd" clip-rule="evenodd" d="M685.394 227.468C689.01 228.618 692.995 228.519 696.832 228.423C697.644 228.403 698.449 228.383 699.242 228.375C710.245 228.269 721.239 227.985 732.224 227.524C733.688 227.463 735.161 227.42 736.638 227.377L736.638 227.377L736.638 227.377L736.639 227.377L736.639 227.377L736.639 227.377C740.587 227.262 744.561 227.147 748.447 226.673C750.283 226.453 751.555 226.135 752.678 224.592C753.588 223.342 753.815 222.202 754.107 220.731L754.155 220.491C754.692 217.815 755.177 215.133 755.611 212.443C757.318 201.811 758.29 191.074 758.519 180.308C738.764 182.246 718.859 183.189 699.067 181.508C693.559 181.036 688.077 180.34 682.62 179.421L681.235 179.196C681.198 187.073 680.564 194.982 679.931 202.87L679.931 202.87C679.602 206.973 679.273 211.07 679.03 215.155C678.696 220.701 679.522 225.597 685.394 227.468ZM710.25 211.43L710.25 211.431L710.197 211.756C710.173 211.902 710.154 212.06 710.135 212.223L710.135 212.223L710.135 212.223L710.135 212.223L710.135 212.223L710.135 212.223C710.069 212.787 709.995 213.416 709.653 213.837C709.054 214.568 707.785 214.471 706.757 214.393C706.465 214.371 706.193 214.35 705.96 214.35C704.765 214.35 703.842 214.181 703.776 212.812C703.71 211.118 703.795 209.421 704.032 207.743C704.088 207.332 704.468 207.302 704.745 207.471C704.86 207.404 704.991 207.367 705.124 207.363C706.807 207.277 708.489 207.536 710.068 208.122C710.483 208.255 710.728 208.682 710.633 209.106C710.502 209.879 710.376 210.656 710.25 211.43ZM725.526 214.95C725.893 214.944 726.213 214.701 726.316 214.35C726.66 212.92 727.096 210.024 725.793 208.916C725.304 208.492 724.6 208.512 723.969 208.53C723.845 208.534 723.724 208.537 723.608 208.537H719.849C719.582 208.541 719.333 208.672 719.18 208.89C719.026 209.108 718.987 209.387 719.074 209.639C719.037 210.078 718.916 210.549 718.793 211.028C718.475 212.26 718.145 213.545 719.198 214.468C719.813 215.022 720.577 215.022 721.352 215.022C722.326 215.018 723.302 214.997 724.278 214.976L724.282 214.975H724.282H724.282C724.697 214.966 725.112 214.957 725.526 214.95ZM730.137 198.68C730.778 193 737.317 188.617 742.774 190.452C742.882 190.488 742.964 190.578 742.99 190.688C745.624 191.936 747.426 194.457 747.754 197.352C748.518 203.098 746.113 210.024 739.261 209.424C733.937 208.968 729.532 204.067 730.137 198.68ZM702.504 192.877C702.341 193.313 702.26 193.775 702.263 194.241C701.924 197.271 701.9 200.329 702.191 203.365C702.199 203.79 702.54 204.133 702.965 204.144C710.706 204.305 718.43 204.708 726.137 205.354C726.636 205.351 727.039 204.946 727.039 204.447C727.063 202.652 727.075 200.858 727.075 199.064C727.077 198.748 727.099 198.41 727.122 198.062C727.179 197.185 727.24 196.25 726.983 195.476C726.537 194.146 725.376 194.083 724.133 194.015C723.905 194.002 723.674 193.99 723.444 193.969C721.263 193.777 719.08 193.577 716.898 193.377L716.898 193.377L716.897 193.377L716.897 193.377C712.388 192.964 707.879 192.551 703.386 192.206C702.976 192.21 702.617 192.483 702.504 192.877ZM687.512 191.903C689.677 191.252 692.251 191.816 694.405 192.339C694.797 192.452 695.068 192.808 695.072 193.215C695.055 194.098 695.085 195.036 695.115 195.994C695.185 198.183 695.258 200.474 694.78 202.442C694.303 204.39 692.692 205.4 690.713 205.21C688.974 205.041 686.502 204.211 686.215 202.247C685.825 199.567 686.538 195.855 687.297 193.159C687.09 192.994 686.989 192.729 687.034 192.468C687.079 192.206 687.262 191.99 687.512 191.903ZM686.758 209.019C686.554 208.929 686.322 208.929 686.117 209.019V209.004C683.804 210.009 684.516 214.084 684.938 216.5C684.996 216.832 685.048 217.133 685.087 217.39C685.191 217.776 685.543 218.043 685.943 218.041C688.249 217.955 690.554 217.855 692.86 217.756C693.436 217.731 694.013 217.707 694.59 217.682C695.066 217.676 695.451 217.292 695.457 216.816C695.433 214.461 695.421 212.11 695.421 209.762C695.413 209.31 695.048 208.945 694.595 208.937C694.015 208.912 693.416 208.868 692.808 208.824C690.786 208.677 688.659 208.522 686.758 209.019Z" fill="#BE1E2D"/>
<path d="M704.888 209.673C704.942 210.361 704.966 211.048 704.98 211.741C704.98 211.934 704.859 213.092 704.98 213.182C705.102 213.271 705.81 213.182 706.057 213.182C706.542 213.22 707.028 213.22 707.513 213.182C707.775 213.299 707.945 213.252 707.998 213.04C708.051 212.828 708.085 212.499 708.124 212.226C708.236 211.514 708.352 210.813 708.464 210.092C707.305 209.757 706.096 209.615 704.888 209.673Z" fill="white"/>
<path d="M737.874 128.713C738.085 128.189 737.903 127.592 737.434 127.265C737.063 127.159 736.663 127.274 736.41 127.56C736.355 127.671 736.307 127.786 736.266 127.903C736.119 128.184 736.149 128.521 736.341 128.774C736.799 129.122 737.447 129.096 737.874 128.713Z" fill="white"/>
<path d="M740.254 199.804C741.138 199.804 741.883 198.692 741.367 197.887C740.889 197.18 740.168 197.37 739.504 197.116C738.979 197.467 738.738 198.126 738.91 198.742C739.082 199.359 739.627 199.789 740.254 199.804Z" fill="white"/>
<path d="M724.481 210.591C723.119 210.513 721.725 210.591 720.364 210.591C720.394 210.869 720.394 211.149 720.364 211.426C720.292 212.092 719.912 212.949 720.176 213.599C720.507 214.411 722.133 214.075 722.877 214.058L725.318 214.002C725.445 213.319 725.478 212.622 725.418 211.93C725.329 211.056 725.379 210.647 724.481 210.591Z" fill="white"/>
<path fill-rule="evenodd" clip-rule="evenodd" d="M737.255 193.035C748.484 189.561 748.995 209.995 738.275 207.686C734.36 206.841 731.385 203.362 731.732 199.451C731.987 196.803 734.075 194.317 736.698 192.932C736.852 193.058 737.063 193.097 737.255 193.035ZM738.883 197.019C738.062 197.281 737.422 197.906 737.163 198.7H737.173C736.951 199.542 737.13 200.436 737.662 201.138C738.194 201.84 739.023 202.277 739.924 202.331C740.885 202.323 741.787 201.885 742.366 201.147C742.945 200.409 743.135 199.454 742.88 198.562C742.425 197.24 740.082 195.717 738.883 197.019Z" fill="white"/>
<path d="M725.275 203.388C725.415 201.076 725.792 197.474 724.64 196.124C723.364 194.64 719.573 194.973 717.662 194.796C713.054 194.376 708.436 193.984 703.829 193.532C703.713 193.753 703.582 193.966 703.436 194.167C703.35 194.287 703.234 194.38 703.101 194.435C703.261 197.124 703.333 199.786 703.54 202.458C710.799 202.505 718.044 202.815 725.275 203.388Z" fill="white"/>
<path d="M689.86 203.367C691.164 203.568 692.853 202.295 693.125 201.048C693.216 200.192 693.234 199.329 693.176 198.47L693.268 194.048C691.729 193.759 690.138 193.738 688.587 193.532C688.249 196.331 686.688 202.898 689.86 203.367Z" fill="white"/>
<path d="M694.123 215.668C694.123 213.798 694.136 211.926 694.162 210.053C692.213 210.065 690.266 209.934 688.337 209.661C688.192 209.768 688.018 209.832 687.836 209.846C687.489 209.867 687.142 209.836 686.805 209.756C685.654 211.039 686.221 214.082 686.557 215.933C689.077 215.82 691.599 215.731 694.123 215.668Z" fill="white"/>
<path fill-rule="evenodd" clip-rule="evenodd" d="M650.223 226.977C648.275 236.709 646.662 246.499 645.385 256.349C644.558 262.741 644.451 271.18 651.556 274.086C658.37 276.875 664.326 272.681 668.269 267.373C668.324 268.71 668.382 270.048 668.443 271.388C669.107 286.687 669.848 302.027 671.135 317.29C671.569 322.451 672.856 328.548 678.352 330.615C683.246 332.452 687.812 329.042 689.59 324.599C690.76 321.703 690.948 318.478 691.131 315.354L691.131 315.353L691.131 315.352L691.131 315.351L691.131 315.351L691.131 315.35L691.131 315.349C691.166 314.763 691.2 314.181 691.24 313.606C691.546 309.324 691.849 305.042 692.149 300.76C692.735 292.498 693.326 284.241 693.922 275.989C700.051 277.547 706.523 278.096 712.479 278.224C718.712 278.286 724.944 277.992 731.144 277.343C732.004 277.263 732.982 277.222 734.02 277.177C735.757 277.104 737.664 277.023 739.48 276.742C739.892 291.583 741.817 306.344 745.226 320.797C745.371 321.426 745.512 322.103 745.66 322.811C746.738 327.99 748.153 334.79 753.91 335.887C759.718 336.987 762.711 329.78 763.773 325.311C764.988 320.212 765.165 314.82 765.339 309.514L765.339 309.513C765.398 307.745 765.455 305.986 765.551 304.251C765.98 296.346 766.411 288.445 766.843 280.549C767.436 269.665 768.015 258.777 768.58 247.885C771.808 254.232 775.507 260.568 780.298 265.627C785.089 270.686 794.529 276.132 801.21 271.088C808.255 265.767 803.907 256.21 800.732 249.233L800.731 249.233C800.235 248.142 799.767 247.114 799.376 246.175C795.096 235.894 791.112 225.495 787.424 214.976C783.281 203.22 779.629 191.315 776.186 179.35C776.067 178.891 775.776 178.494 775.374 178.241C775.585 178.12 775.79 177.987 775.987 177.844C777.734 176.551 778.622 174.495 779.363 172.52C781.174 167.607 781.413 162.255 780.048 157.201C791.995 140.11 796.245 118.19 792.082 97.8215C789.799 86.6857 785.242 76.9546 776.758 69.244C768.815 61.9288 759.808 55.8512 750.043 51.217C731.144 42.3817 709.297 39.725 689.728 47.9699C671.957 55.4617 657.547 70.6945 651.781 89.1134C645.099 110.428 650.33 134.674 664.832 151.592C663.181 156.479 662.581 161.656 663.069 166.789C663.36 170.082 664.602 172.897 666.951 174.887C661.802 181.427 659.417 189.412 657.246 197.352C654.549 207.147 652.208 217.022 650.223 226.977ZM763.758 263.367C763.05 277.391 762.35 291.412 761.659 305.432C761.584 306.951 761.542 308.496 761.5 310.054V310.054C761.363 315.166 761.223 320.406 759.876 325.25C759.146 327.877 757.016 333.857 753.323 331.521C751.098 330.112 750.4 326.614 749.84 323.807C749.712 323.166 749.591 322.56 749.461 322.024C745.737 306.862 743.776 291.461 742.82 275.898C744.005 275.475 745.06 274.757 745.885 273.811C746.794 272.722 745.977 270.533 744.353 271.149C740.034 272.765 735.476 273.129 730.904 273.495L730.899 273.495C730.216 273.55 729.533 273.605 728.85 273.663C723.227 274.197 717.58 274.433 711.932 274.371C706.591 274.307 701.27 273.702 696.052 272.564C691.194 271.47 686.688 269.649 682.093 267.793L682.093 267.792L681.381 267.505C679.88 266.905 679.241 269.113 680.36 269.928C683.374 272.061 686.694 273.729 690.208 274.875C689.272 288.372 688.332 301.868 687.388 315.362C687.362 315.741 687.339 316.127 687.315 316.517C687.155 319.188 686.983 322.041 685.606 324.36C683.731 327.525 680.058 328.406 677.433 325.49C675.354 323.164 675.088 319.774 674.879 316.837C674.608 313.331 674.368 309.819 674.148 306.312C672.333 278.921 671.237 251.492 670.859 224.026C670.706 213.352 670.729 202.68 670.752 192.008V192.008C670.762 187.348 670.772 182.687 670.767 178.027C670.772 177.981 670.772 177.935 670.767 177.889C670.769 177.866 670.769 177.842 670.767 177.818C670.769 177.561 670.719 177.307 670.619 177.07C673.51 178.296 676.748 178.892 679.875 179.401C678.732 188.247 678.251 197.259 677.773 206.213L677.773 206.213L677.773 206.214L677.773 206.214L677.773 206.214L677.773 206.214L677.773 206.214L677.773 206.215C677.61 209.269 677.448 212.316 677.259 215.348C676.983 219.72 677.091 224.305 680.774 227.298C683.767 229.726 687.884 230.281 691.618 230.438C702.16 230.883 712.851 230.46 723.428 230.042H723.428H723.428H723.429H723.429H723.429H723.429H723.43C725.557 229.958 727.679 229.874 729.795 229.797C731.42 229.738 733.055 229.697 734.694 229.656C739.287 229.541 743.91 229.425 748.439 228.911C753.036 228.403 755.018 226.189 755.933 221.786C758.714 208.212 760.244 194.413 760.504 180.561L760.507 180.561C763.06 180.307 765.613 180.052 768.136 179.752C766.641 207.612 765.182 235.484 763.758 263.367ZM682.72 179.844L681.341 179.62C681.303 187.513 680.66 195.437 680.019 203.346L680.019 203.347L680.019 203.347L680.019 203.347L680.019 203.347L680.019 203.348L680.019 203.348C679.694 207.352 679.369 211.352 679.124 215.343C678.792 220.84 679.614 225.7 685.463 227.558C689.059 228.714 693.005 228.61 696.795 228.51C697.624 228.488 698.445 228.467 699.254 228.459C710.213 228.353 721.163 228.072 732.104 227.614C733.561 227.553 735.027 227.51 736.498 227.468L736.501 227.468H736.501C740.433 227.354 744.391 227.239 748.26 226.769C750.089 226.55 751.356 226.229 752.475 224.702C753.379 223.462 753.604 222.338 753.891 220.903C753.909 220.814 753.927 220.723 753.946 220.631C754.477 217.978 754.96 215.314 755.396 212.64C757.096 202.084 758.064 191.423 758.293 180.734C738.622 182.648 718.813 183.595 699.101 181.915C693.608 181.447 688.148 180.756 682.72 179.844ZM796.107 248.18C796.544 249.205 797.087 250.309 797.656 251.466C799.855 255.939 802.441 261.196 800.761 265.627C798.421 271.801 790.289 268.874 786.422 266.085C780.4 261.745 776.528 254.87 772.776 248.208C771.512 245.965 770.262 243.746 768.948 241.656L769.392 233.136C770.332 215.153 771.262 197.189 772.181 179.243L772.411 179.202C772.279 179.58 772.269 179.989 772.38 180.373C778.693 203.499 786.622 226.157 796.107 248.18ZM775.997 166.351C776.261 166.315 776.529 166.336 776.784 166.413C777.054 164.245 777.014 162.05 776.666 159.893C774.39 161.136 771.559 161.225 768.905 161.309C768.266 161.329 767.636 161.349 767.027 161.384C761.984 161.679 756.934 161.902 751.877 162.051C741.767 162.356 731.659 162.395 721.556 162.168C703.882 161.771 684.237 161.033 667.861 153.516C667.585 154.829 667.314 156.178 667.074 157.542C667.28 157.651 667.456 157.81 667.585 158.005C669.791 161.252 673.234 162.611 676.943 163.445C680.679 164.285 684.506 164.838 688.306 165.387C688.744 165.451 689.183 165.514 689.621 165.578C699.241 166.966 708.898 167.914 718.593 168.423C737.752 169.372 756.957 168.679 775.997 166.351ZM700.414 110.718C700.694 110.985 701.082 111.111 701.466 111.059C703.756 110.846 706.028 110.569 708.297 110.293L708.297 110.293L708.297 110.293L708.297 110.293C712.577 109.771 716.847 109.251 721.203 109.161C728.037 109.008 734.872 109.427 741.635 110.413C742.211 110.553 742.819 110.427 743.29 110.069C743.761 109.711 744.045 109.16 744.062 108.57C744.389 104.927 745.383 101.374 746.994 98.0861C748.49 95.0732 750.631 91.3069 753.634 89.5816C758.809 86.6144 759.084 94.6711 758.906 97.5874C758.739 100.272 758.545 102.954 758.35 105.635L758.35 105.637L758.35 105.637L758.35 105.637L758.35 105.638C758.246 107.073 758.142 108.509 758.042 109.945C757.812 113.248 757.58 116.551 757.349 119.854L757.344 119.921C756.458 132.556 755.573 145.192 754.748 157.827C752.812 157.898 750.871 157.969 748.935 158.02C739.4 158.285 729.873 158.312 720.355 158.101C711.473 157.913 702.564 157.536 693.753 156.32C690.356 155.852 687.041 155.216 683.777 154.442C684.16 150.123 684.291 145.772 684.422 141.42V141.42C684.539 137.537 684.656 133.653 684.952 129.789C685.636 120.882 686.663 111.975 688.16 103.186C688.768 99.5926 689.498 95.974 690.887 92.5895C691.853 90.2432 696.348 81.8303 699.254 86.4414C700.62 88.616 700.376 91.7535 700.167 94.4406C700.117 95.0803 700.07 95.6945 700.046 96.2641C700.001 97.3161 699.955 98.3684 699.909 99.4208L699.908 99.4363L699.908 99.4369L699.908 99.4375L699.908 99.438C699.768 102.657 699.628 105.877 699.505 109.095C699.446 109.77 699.806 110.413 700.414 110.718ZM685.968 54.0112C669.756 62.6633 657.532 78.2168 653.895 96.2539C650.12 114.983 655.469 135.148 667.85 149.658C667.891 149.708 667.929 149.761 667.963 149.816C672.218 151.261 676.432 152.579 680.702 153.699C679.783 143.792 680.782 133.381 681.729 123.511L681.729 123.511L681.731 123.498C681.773 123.059 681.815 122.621 681.856 122.185C681.96 121.111 682.059 120.027 682.16 118.935C682.967 110.176 683.821 100.906 686.75 92.7066C688.078 88.9912 690.091 84.6295 693.61 82.4716C696.419 80.7463 699.862 81.0872 701.951 83.6931C704.138 86.3905 704.117 90.2127 703.995 93.4751C703.824 98.1099 703.635 102.743 703.428 107.374C709.348 105.965 715.748 105.603 721.745 105.425C728.006 105.268 734.269 105.608 740.476 106.443C741.559 99.2771 744.762 91.5869 750.523 87.103C753.088 85.1079 756.377 84.431 759.181 86.36C762.323 88.5179 762.956 92.4673 762.834 95.9893C762.6 103.044 762.058 110.106 761.516 117.159C761.264 120.445 761.011 123.729 760.79 127.01C760.12 137.229 759.42 147.449 758.691 157.669L762.92 157.48C765.444 157.353 767.967 157.216 770.491 157.053C770.625 157.044 770.759 157.036 770.892 157.028C772.682 156.916 774.332 156.813 775.844 155.709C775.999 155.599 776.172 155.514 776.355 155.46C788.92 137.224 792.91 113.731 786.458 92.4826C784.834 87.103 782.663 81.7692 779.021 77.433C775.895 73.7024 772.1 70.4808 768.294 67.4271C760.302 60.983 751.355 55.8119 741.773 52.0975C723.64 45.2114 703.361 44.7534 685.968 54.0112ZM666.502 161.944C669.782 166.146 676.286 167.204 681.506 168.054C681.977 168.13 682.437 168.205 682.883 168.28C692.983 169.977 703.147 171.2 713.373 171.95C734.225 173.499 755.18 172.964 775.925 170.352C775.925 170.403 775.9 170.449 775.879 170.499C775.103 172.795 774.347 174.673 771.793 175.228C770.095 175.586 768.308 175.74 766.541 175.892L766.54 175.892C765.799 175.956 765.061 176.02 764.335 176.098C754.819 177.116 745.277 177.961 735.731 178.419C716.32 179.355 696.68 178.79 677.576 175.044C673.331 174.21 668.269 173.131 667.028 168.352C666.513 166.257 666.335 164.094 666.502 161.944ZM667.119 180.795C667.12 180.788 667.12 180.782 667.12 180.775L667.125 180.785C667.123 180.789 667.121 180.792 667.119 180.795ZM668.004 260.731C666.962 234.12 666.425 207.407 667.119 180.795C663.447 187.237 661.551 194.68 659.726 201.846C659.507 202.706 659.289 203.561 659.07 204.411C656.502 214.42 654.289 224.514 652.429 234.693C651.462 239.969 650.594 245.259 649.824 250.562C649.713 251.329 649.591 252.104 649.468 252.885C648.914 256.398 648.343 260.025 648.644 263.535C649.084 268.65 652.634 272.304 658.033 270.905C662.885 269.648 665.649 265.037 667.866 260.935C667.907 260.864 667.954 260.796 668.004 260.731Z" fill="#231F20"/>
<path d="M713.842 142.301C718.521 141.265 721.632 135.052 719.28 130.637C718.55 129.27 716.733 130.026 716.615 131.378C716.36 134.267 716.899 137.771 713.45 138.912C712.867 139.149 712.224 139.186 711.618 139.017C710.756 138.662 710.976 138.081 710.942 137.17C710.873 135.353 710.859 133.531 710.942 131.713C711.015 130.212 708.688 129.886 708.389 131.358C707.899 133.861 707.032 137.586 708.027 140.054C708.928 142.286 711.78 142.757 713.842 142.301Z" fill="#231F20"/>
<path fill-rule="evenodd" clip-rule="evenodd" d="M738.194 123.76C741.134 124.484 742.471 128.256 740.818 130.707C739.083 133.281 734.8 133.24 733.194 130.543C732.618 129.53 732.451 128.338 732.729 127.208C732.876 126.333 733.304 125.529 733.948 124.916C735.079 123.846 736.673 123.412 738.194 123.76ZM736.484 127.645C736.439 127.738 736.399 127.834 736.366 127.932C736.245 128.167 736.269 128.45 736.428 128.662C736.804 128.953 737.337 128.932 737.688 128.611C737.861 128.172 737.712 127.672 737.326 127.398C737.021 127.309 736.692 127.405 736.484 127.645Z" fill="#231F20"/>
<path fill-rule="evenodd" clip-rule="evenodd" d="M693.593 123.939C693.729 123.458 694.106 123.073 694.6 122.913C697.324 121.979 699.639 125.181 699.521 127.459C699.331 129.922 697.129 131.798 694.541 131.703C692.027 131.57 690.223 129.158 690.649 126.843C690.95 125.227 692.151 124.349 693.593 123.939ZM694.153 127.274C694.06 127.678 694.288 128.087 694.692 128.239C695.278 128.362 695.86 127.685 695.806 127.172C695.771 126.909 695.651 126.663 695.461 126.469C694.864 126.602 694.283 126.828 694.153 127.274Z" fill="#231F20"/>
<path d="M752.359 68.5097C756.605 71.2117 761.136 73.6369 764.763 77.1644C767.622 80.017 769.921 83.3901 771.54 87.1061C773.267 91.0779 774.391 95.2903 774.873 99.6011C775.381 103.836 775.031 108.046 775.244 112.286C775.249 112.589 775.473 112.843 775.77 112.884C776.068 112.925 776.35 112.741 776.436 112.45C778.501 104.144 776.603 93.833 773.108 86.1832C768.989 77.1747 761.41 71.7808 752.527 68.1046C752.293 68.0072 752.161 68.3815 752.359 68.5097Z" fill="#231F20"/>
<path d="M775.898 116.971C776.166 120.612 775.215 123.782 774.619 127.282C774.501 127.983 775.42 128.482 775.812 127.793C777.654 124.58 777.498 120.352 776.827 116.829C776.765 116.594 776.538 116.443 776.3 116.479C776.061 116.516 775.888 116.727 775.898 116.971Z" fill="#231F20"/>
<path fill-rule="evenodd" clip-rule="evenodd" d="M690.663 205.158C688.948 204.991 686.509 204.172 686.226 202.235C685.841 199.589 686.545 195.927 687.293 193.271C687.086 193.109 686.985 192.846 687.029 192.586C687.074 192.326 687.257 192.112 687.506 192.027C689.641 191.385 692.181 191.951 694.305 192.457C694.692 192.569 694.959 192.92 694.963 193.322C694.946 194.191 694.976 195.116 695.006 196.06C695.074 198.218 695.147 200.481 694.675 202.427C694.204 204.349 692.616 205.345 690.663 205.158ZM690.487 193.721C689.835 193.666 689.185 193.612 688.543 193.524C688.495 193.918 688.422 194.389 688.341 194.908C687.863 197.993 687.121 202.773 689.798 203.175C691.083 203.373 692.747 202.123 693.015 200.899C693.106 200.059 693.123 199.213 693.066 198.37L693.157 194.03C692.27 193.87 691.376 193.795 690.487 193.721Z" fill="#231F20"/>
<path fill-rule="evenodd" clip-rule="evenodd" d="M747.664 197.935C748.405 203.5 746.016 210.206 739.136 209.625C733.775 209.169 729.352 204.423 729.975 199.221C730.618 193.735 737.164 189.476 742.663 191.253C742.772 191.288 742.853 191.375 742.88 191.482C745.525 192.69 747.334 195.131 747.664 197.935ZM736.556 192.822C733.909 194.222 731.803 196.734 731.545 199.409H731.53C731.154 203.361 734.156 206.875 738.147 207.729C748.961 210.062 748.41 189.417 737.117 192.926C736.924 192.99 736.711 192.95 736.556 192.822Z" fill="#231F20"/>
<path fill-rule="evenodd" clip-rule="evenodd" d="M742.664 200.318C742.052 201.116 741.099 201.588 740.083 201.596C739.129 201.541 738.25 201.07 737.686 200.312C737.121 199.553 736.93 198.586 737.165 197.675C737.44 196.818 738.116 196.143 738.983 195.86C740.251 194.454 742.726 196.099 743.206 197.526C743.476 198.489 743.276 199.521 742.664 200.318ZM739.247 196.98C738.913 197.211 738.675 197.555 738.578 197.946C738.488 198.407 738.602 198.884 738.891 199.258C739.18 199.632 739.618 199.867 740.094 199.904C741.092 199.882 741.933 198.694 741.351 197.818C741.002 197.3 740.509 197.225 739.994 197.146C739.745 197.109 739.492 197.07 739.247 196.98Z" fill="#231F20"/>
<path fill-rule="evenodd" clip-rule="evenodd" d="M726.207 205.18C718.547 204.554 710.871 204.17 703.177 204.026C702.757 204.016 702.418 203.691 702.407 203.288C702.118 200.39 702.141 197.471 702.479 194.578C702.476 194.134 702.557 193.693 702.718 193.277C702.831 192.901 703.187 192.64 703.595 192.636C708.173 192.986 712.759 193.386 717.335 193.784C719.403 193.964 721.469 194.143 723.531 194.318C723.76 194.338 723.991 194.35 724.219 194.362C725.459 194.427 726.617 194.488 727.048 195.756C727.301 196.484 727.241 197.364 727.185 198.195C727.162 198.536 727.14 198.869 727.14 199.18C727.116 200.891 727.104 202.603 727.104 204.315C727.104 204.791 726.703 205.178 726.207 205.18ZM704.181 194.431C704.067 194.632 703.938 194.825 703.794 195.008C703.709 195.117 703.594 195.202 703.463 195.253C703.525 196.216 703.574 197.177 703.623 198.139C703.698 199.605 703.773 201.073 703.896 202.549C711.059 202.585 718.209 202.867 725.346 203.395C725.36 203.174 725.377 202.939 725.395 202.695C725.548 200.625 725.749 197.891 724.719 196.788C723.732 195.748 721.294 195.689 719.365 195.643C718.792 195.63 718.264 195.617 717.832 195.58C716.393 195.46 714.953 195.341 713.513 195.223C710.402 194.967 707.289 194.712 704.181 194.431Z" fill="#231F20"/>
<path fill-rule="evenodd" clip-rule="evenodd" d="M705.415 207.885C707.159 207.798 708.903 208.059 710.54 208.65C710.969 208.784 711.223 209.215 711.124 209.643C710.989 210.424 710.858 211.208 710.727 211.989C710.709 212.099 710.691 212.208 710.672 212.317C710.647 212.464 710.628 212.624 710.608 212.789C710.54 213.36 710.464 213.996 710.109 214.417C709.488 215.166 708.159 215.062 707.098 214.979C706.797 214.956 706.517 214.934 706.282 214.934C705.043 214.934 704.086 214.758 704.017 213.382C703.949 211.673 704.037 209.961 704.283 208.267C704.341 207.854 704.735 207.823 705.022 207.993C705.141 207.926 705.277 207.889 705.415 207.885ZM708.876 213.243C708.924 212.948 708.971 212.648 709.014 212.348C709.136 211.567 709.264 210.786 709.413 210.021C708.135 209.644 706.801 209.483 705.468 209.545C705.527 210.3 705.569 211.055 705.569 211.815C705.569 211.867 705.557 211.981 705.541 212.125C705.493 212.57 705.413 213.304 705.569 213.398C705.715 213.486 706.108 213.45 706.422 213.421C706.552 213.409 706.67 213.398 706.749 213.398C707.28 213.44 707.813 213.44 708.344 213.398C708.61 213.527 708.828 213.538 708.876 213.243Z" fill="#231F20"/>
<path fill-rule="evenodd" clip-rule="evenodd" d="M720.533 208.779H724.225C724.34 208.779 724.46 208.775 724.584 208.772C725.203 208.754 725.893 208.735 726.38 209.135C727.649 210.213 727.221 213.028 726.884 214.389C726.782 214.728 726.468 214.962 726.108 214.967C725.689 214.975 725.27 214.984 724.85 214.994C723.903 215.015 722.954 215.037 722.009 215.037C721.248 215.037 720.493 215.022 719.894 214.502C718.86 213.612 719.184 212.372 719.496 211.183C719.617 210.72 719.736 210.266 719.773 209.842C719.687 209.599 719.725 209.33 719.876 209.12C720.027 208.909 720.271 208.782 720.533 208.779ZM723.217 213.464L725.448 213.414C725.561 212.817 725.589 212.208 725.534 211.604C725.529 211.546 725.524 211.491 725.519 211.439C725.458 210.761 725.43 210.447 724.683 210.401C723.853 210.342 723.012 210.362 722.173 210.382C721.755 210.392 721.337 210.401 720.921 210.401C720.949 210.646 720.949 210.894 720.921 211.139C720.901 211.319 720.854 211.516 720.806 211.719C720.698 212.175 720.582 212.66 720.75 213.058C720.988 213.624 721.965 213.549 722.7 213.492C722.896 213.477 723.074 213.464 723.217 213.464Z" fill="#231F20"/>
<path fill-rule="evenodd" clip-rule="evenodd" d="M693.198 217.425C690.753 217.53 688.309 217.634 685.865 217.725C685.444 217.725 685.075 217.447 684.962 217.045C684.922 216.782 684.867 216.475 684.807 216.136C684.357 213.603 683.59 209.287 686.05 208.225C686.266 208.131 686.513 208.131 686.729 208.225C688.744 207.703 690.999 207.866 693.142 208.02C693.787 208.067 694.421 208.113 695.036 208.139C695.516 208.148 695.903 208.532 695.912 209.008C695.937 211.484 695.95 213.959 695.95 216.435C695.944 216.936 695.536 217.341 695.031 217.347C694.42 217.373 693.809 217.399 693.198 217.425ZM687.914 209.629C687.573 209.65 687.23 209.619 686.898 209.537L686.903 209.521C685.782 210.81 686.313 213.867 686.64 215.752C686.645 215.776 686.649 215.801 686.653 215.825C689.139 215.731 691.628 215.641 694.118 215.555C694.143 213.648 694.156 211.743 694.156 209.839C692.233 209.852 690.312 209.718 688.409 209.44C688.266 209.549 688.094 209.615 687.914 209.629Z" fill="#231F20"/>
<circle cx="603.5" cy="71.5" r="24.5" fill="#88AEFF"/>
<ellipse cx="835" cy="125.5" rx="13" ry="12.5" fill="#F27AD8"/>
<circle cx="815.5" cy="302.5" r="6.5" fill="#57C291"/>
</g>
<defs>
<clipPath id="clip0_878_100173">
<rect width="924" height="378" fill="white"/>
</clipPath>
<clipPath id="clip1_878_100173">
<rect width="447" height="218" fill="white" transform="translate(64 68)"/>
</clipPath>
</defs>
</svg>
