<svg width="520" height="420" viewBox="0 0 520 420" fill="none" xmlns="http://www.w3.org/2000/svg">
<g clip-path="url(#clip0_878_100303)">
<rect width="520" height="420" rx="6" fill="white"/>
<g clip-path="url(#clip1_878_100303)">
<path d="M349.012 377.721C349.012 378.475 348.738 379.062 348.191 379.484C347.645 379.906 346.902 380.117 345.965 380.117C344.949 380.117 344.168 379.986 343.621 379.725V378.764C343.973 378.912 344.355 379.029 344.77 379.115C345.184 379.201 345.594 379.244 346 379.244C346.664 379.244 347.164 379.119 347.5 378.869C347.836 378.615 348.004 378.264 348.004 377.814C348.004 377.518 347.943 377.275 347.822 377.088C347.705 376.896 347.506 376.721 347.225 376.561C346.947 376.4 346.523 376.219 345.953 376.016C345.156 375.73 344.586 375.393 344.242 375.002C343.902 374.611 343.732 374.102 343.732 373.473C343.732 372.812 343.98 372.287 344.477 371.896C344.973 371.506 345.629 371.311 346.445 371.311C347.297 371.311 348.08 371.467 348.795 371.779L348.484 372.646C347.777 372.35 347.09 372.201 346.422 372.201C345.895 372.201 345.482 372.314 345.186 372.541C344.889 372.768 344.74 373.082 344.74 373.484C344.74 373.781 344.795 374.025 344.904 374.217C345.014 374.404 345.197 374.578 345.455 374.738C345.717 374.895 346.115 375.068 346.65 375.26C347.549 375.58 348.166 375.924 348.502 376.291C348.842 376.658 349.012 377.135 349.012 377.721ZM356.16 376.783C356.16 377.83 355.896 378.648 355.369 379.238C354.842 379.824 354.113 380.117 353.184 380.117C352.609 380.117 352.1 379.982 351.654 379.713C351.209 379.443 350.865 379.057 350.623 378.553C350.381 378.049 350.26 377.459 350.26 376.783C350.26 375.736 350.521 374.922 351.045 374.34C351.568 373.754 352.295 373.461 353.225 373.461C354.123 373.461 354.836 373.76 355.363 374.357C355.895 374.955 356.16 375.764 356.16 376.783ZM351.268 376.783C351.268 377.604 351.432 378.229 351.76 378.658C352.088 379.088 352.57 379.303 353.207 379.303C353.844 379.303 354.326 379.09 354.654 378.664C354.986 378.234 355.152 377.607 355.152 376.783C355.152 375.967 354.986 375.348 354.654 374.926C354.326 374.5 353.84 374.287 353.195 374.287C352.559 374.287 352.078 374.496 351.754 374.914C351.43 375.332 351.268 375.955 351.268 376.783ZM360.438 380.117C359.508 380.117 358.787 379.832 358.275 379.262C357.768 378.688 357.514 377.877 357.514 376.83C357.514 375.756 357.771 374.926 358.287 374.34C358.807 373.754 359.545 373.461 360.502 373.461C360.811 373.461 361.119 373.494 361.428 373.561C361.736 373.627 361.979 373.705 362.154 373.795L361.855 374.621C361.641 374.535 361.406 374.465 361.152 374.41C360.898 374.352 360.674 374.322 360.479 374.322C359.174 374.322 358.521 375.154 358.521 376.818C358.521 377.607 358.68 378.213 358.996 378.635C359.316 379.057 359.789 379.268 360.414 379.268C360.949 379.268 361.498 379.152 362.061 378.922V379.783C361.631 380.006 361.09 380.117 360.438 380.117ZM364.562 380H363.59V373.578H364.562V380ZM363.508 371.838C363.508 371.615 363.562 371.453 363.672 371.352C363.781 371.246 363.918 371.193 364.082 371.193C364.238 371.193 364.373 371.246 364.486 371.352C364.6 371.457 364.656 371.619 364.656 371.838C364.656 372.057 364.6 372.221 364.486 372.33C364.373 372.436 364.238 372.488 364.082 372.488C363.918 372.488 363.781 372.436 363.672 372.33C363.562 372.221 363.508 372.057 363.508 371.838ZM370.574 380L370.381 379.086H370.334C370.014 379.488 369.693 379.762 369.373 379.906C369.057 380.047 368.66 380.117 368.184 380.117C367.547 380.117 367.047 379.953 366.684 379.625C366.324 379.297 366.145 378.83 366.145 378.225C366.145 376.928 367.182 376.248 369.256 376.186L370.346 376.15V375.752C370.346 375.248 370.236 374.877 370.018 374.639C369.803 374.396 369.457 374.275 368.98 374.275C368.445 374.275 367.84 374.439 367.164 374.768L366.865 374.023C367.182 373.852 367.527 373.717 367.902 373.619C368.281 373.521 368.66 373.473 369.039 373.473C369.805 373.473 370.371 373.643 370.738 373.982C371.109 374.322 371.295 374.867 371.295 375.617V380H370.574ZM368.377 379.314C368.982 379.314 369.457 379.148 369.801 378.816C370.148 378.484 370.322 378.02 370.322 377.422V376.842L369.35 376.883C368.576 376.91 368.018 377.031 367.674 377.246C367.334 377.457 367.164 377.787 367.164 378.236C367.164 378.588 367.27 378.855 367.48 379.039C367.695 379.223 367.994 379.314 368.377 379.314ZM374.277 380H373.305V370.883H374.277V380Z" fill="#807E7E"/>
<rect x="324" y="371" width="11" height="11" rx="2" fill="#0D6EFD"/>
</g>
<g clip-path="url(#clip2_878_100303)">
<path d="M250.174 376.438V380H249.178V371.434H251.527C252.578 371.434 253.354 371.635 253.854 372.037C254.357 372.439 254.609 373.045 254.609 373.854C254.609 374.986 254.035 375.752 252.887 376.15L255.213 380H254.035L251.961 376.438H250.174ZM250.174 375.582H251.539C252.242 375.582 252.758 375.443 253.086 375.166C253.414 374.885 253.578 374.465 253.578 373.906C253.578 373.34 253.41 372.932 253.074 372.682C252.742 372.432 252.207 372.307 251.469 372.307H250.174V375.582ZM259.162 380.117C258.213 380.117 257.463 379.828 256.912 379.25C256.365 378.672 256.092 377.869 256.092 376.842C256.092 375.807 256.346 374.984 256.854 374.375C257.365 373.766 258.051 373.461 258.91 373.461C259.715 373.461 260.352 373.727 260.82 374.258C261.289 374.785 261.523 375.482 261.523 376.35V376.965H257.1C257.119 377.719 257.309 378.291 257.668 378.682C258.031 379.072 258.541 379.268 259.197 379.268C259.889 379.268 260.572 379.123 261.248 378.834V379.701C260.904 379.85 260.578 379.955 260.27 380.018C259.965 380.084 259.596 380.117 259.162 380.117ZM258.898 374.275C258.383 374.275 257.971 374.443 257.662 374.779C257.357 375.115 257.178 375.58 257.123 376.174H260.48C260.48 375.561 260.344 375.092 260.07 374.768C259.797 374.439 259.406 374.275 258.898 374.275ZM270.148 374.334H268.514V380H267.541V374.334H266.393V373.895L267.541 373.543V373.186C267.541 371.607 268.23 370.818 269.609 370.818C269.949 370.818 270.348 370.887 270.805 371.023L270.553 371.803C270.178 371.682 269.857 371.621 269.592 371.621C269.225 371.621 268.953 371.744 268.777 371.99C268.602 372.232 268.514 372.623 268.514 373.162V373.578H270.148V374.334ZM266.082 374.334H264.447V380H263.475V374.334H262.326V373.895L263.475 373.543V373.186C263.475 371.607 264.164 370.818 265.543 370.818C265.883 370.818 266.281 370.887 266.738 371.023L266.486 371.803C266.111 371.682 265.791 371.621 265.525 371.621C265.158 371.621 264.887 371.744 264.711 371.99C264.535 372.232 264.447 372.623 264.447 373.162V373.578H266.082V374.334ZM274.045 380.117C273.096 380.117 272.346 379.828 271.795 379.25C271.248 378.672 270.975 377.869 270.975 376.842C270.975 375.807 271.229 374.984 271.736 374.375C272.248 373.766 272.934 373.461 273.793 373.461C274.598 373.461 275.234 373.727 275.703 374.258C276.172 374.785 276.406 375.482 276.406 376.35V376.965H271.982C272.002 377.719 272.191 378.291 272.551 378.682C272.914 379.072 273.424 379.268 274.08 379.268C274.771 379.268 275.455 379.123 276.131 378.834V379.701C275.787 379.85 275.461 379.955 275.152 380.018C274.848 380.084 274.479 380.117 274.045 380.117ZM273.781 374.275C273.266 374.275 272.854 374.443 272.545 374.779C272.24 375.115 272.061 375.58 272.006 376.174H275.363C275.363 375.561 275.227 375.092 274.953 374.768C274.68 374.439 274.289 374.275 273.781 374.275ZM281 373.461C281.285 373.461 281.541 373.484 281.768 373.531L281.633 374.434C281.367 374.375 281.133 374.346 280.93 374.346C280.41 374.346 279.965 374.557 279.594 374.979C279.227 375.4 279.043 375.926 279.043 376.555V380H278.07V373.578H278.873L278.984 374.768H279.031C279.27 374.35 279.557 374.027 279.893 373.801C280.229 373.574 280.598 373.461 281 373.461ZM286.918 380L286.725 379.086H286.678C286.357 379.488 286.037 379.762 285.717 379.906C285.4 380.047 285.004 380.117 284.527 380.117C283.891 380.117 283.391 379.953 283.027 379.625C282.668 379.297 282.488 378.83 282.488 378.225C282.488 376.928 283.525 376.248 285.6 376.186L286.689 376.15V375.752C286.689 375.248 286.58 374.877 286.361 374.639C286.146 374.396 285.801 374.275 285.324 374.275C284.789 374.275 284.184 374.439 283.508 374.768L283.209 374.023C283.525 373.852 283.871 373.717 284.246 373.619C284.625 373.521 285.004 373.473 285.383 373.473C286.148 373.473 286.715 373.643 287.082 373.982C287.453 374.322 287.639 374.867 287.639 375.617V380H286.918ZM284.721 379.314C285.326 379.314 285.801 379.148 286.145 378.816C286.492 378.484 286.666 378.02 286.666 377.422V376.842L285.693 376.883C284.92 376.91 284.361 377.031 284.018 377.246C283.678 377.457 283.508 377.787 283.508 378.236C283.508 378.588 283.613 378.855 283.824 379.039C284.039 379.223 284.338 379.314 284.721 379.314ZM290.621 380H289.648V370.883H290.621V380Z" fill="#807E7E"/>
<rect x="229" y="371" width="11" height="11" rx="2" fill="#81B4FE"/>
</g>
<g clip-path="url(#clip3_878_100303)">
<path d="M171.016 375.635C171.016 377.049 170.631 378.131 169.861 378.881C169.096 379.627 167.992 380 166.551 380H164.178V371.434H166.803C168.135 371.434 169.17 371.803 169.908 372.541C170.646 373.279 171.016 374.311 171.016 375.635ZM169.961 375.67C169.961 374.553 169.68 373.711 169.117 373.145C168.559 372.578 167.727 372.295 166.621 372.295H165.174V379.139H166.387C167.574 379.139 168.467 378.848 169.064 378.266C169.662 377.68 169.961 376.814 169.961 375.67ZM173.758 380H172.785V373.578H173.758V380ZM172.703 371.838C172.703 371.615 172.758 371.453 172.867 371.352C172.977 371.246 173.113 371.193 173.277 371.193C173.434 371.193 173.568 371.246 173.682 371.352C173.795 371.457 173.852 371.619 173.852 371.838C173.852 372.057 173.795 372.221 173.682 372.33C173.568 372.436 173.434 372.488 173.277 372.488C173.113 372.488 172.977 372.436 172.867 372.33C172.758 372.221 172.703 372.057 172.703 371.838ZM178.75 373.461C179.035 373.461 179.291 373.484 179.518 373.531L179.383 374.434C179.117 374.375 178.883 374.346 178.68 374.346C178.16 374.346 177.715 374.557 177.344 374.979C176.977 375.4 176.793 375.926 176.793 376.555V380H175.82V373.578H176.623L176.734 374.768H176.781C177.02 374.35 177.307 374.027 177.643 373.801C177.979 373.574 178.348 373.461 178.75 373.461ZM183.432 380.117C182.482 380.117 181.732 379.828 181.182 379.25C180.635 378.672 180.361 377.869 180.361 376.842C180.361 375.807 180.615 374.984 181.123 374.375C181.635 373.766 182.32 373.461 183.18 373.461C183.984 373.461 184.621 373.727 185.09 374.258C185.559 374.785 185.793 375.482 185.793 376.35V376.965H181.369C181.389 377.719 181.578 378.291 181.938 378.682C182.301 379.072 182.811 379.268 183.467 379.268C184.158 379.268 184.842 379.123 185.518 378.834V379.701C185.174 379.85 184.848 379.955 184.539 380.018C184.234 380.084 183.865 380.117 183.432 380.117ZM183.168 374.275C182.652 374.275 182.24 374.443 181.932 374.779C181.627 375.115 181.447 375.58 181.393 376.174H184.75C184.75 375.561 184.613 375.092 184.34 374.768C184.066 374.439 183.676 374.275 183.168 374.275ZM190.023 380.117C189.094 380.117 188.373 379.832 187.861 379.262C187.354 378.688 187.1 377.877 187.1 376.83C187.1 375.756 187.357 374.926 187.873 374.34C188.393 373.754 189.131 373.461 190.088 373.461C190.396 373.461 190.705 373.494 191.014 373.561C191.322 373.627 191.564 373.705 191.74 373.795L191.441 374.621C191.227 374.535 190.992 374.465 190.738 374.41C190.484 374.352 190.26 374.322 190.064 374.322C188.76 374.322 188.107 375.154 188.107 376.818C188.107 377.607 188.266 378.213 188.582 378.635C188.902 379.057 189.375 379.268 190 379.268C190.535 379.268 191.084 379.152 191.646 378.922V379.783C191.217 380.006 190.676 380.117 190.023 380.117ZM195.25 379.314C195.422 379.314 195.588 379.303 195.748 379.279C195.908 379.252 196.035 379.225 196.129 379.197V379.941C196.023 379.992 195.867 380.033 195.66 380.064C195.457 380.1 195.273 380.117 195.109 380.117C193.867 380.117 193.246 379.463 193.246 378.154V374.334H192.326V373.865L193.246 373.461L193.656 372.09H194.219V373.578H196.082V374.334H194.219V378.113C194.219 378.5 194.311 378.797 194.494 379.004C194.678 379.211 194.93 379.314 195.25 379.314Z" fill="#807E7E"/>
<rect x="144" y="371" width="11" height="11" rx="2" fill="#E6F0FF"/>
</g>
<g clip-path="url(#clip4_878_100303)">
<g clip-path="url(#clip5_878_100303)">
<rect width="520" height="65" fill="#D8D8D8" fill-opacity="0.01"/>
<path d="M27.375 32.8906H28.6719C29.5417 32.8906 30.1719 32.7292 30.5625 32.4062C30.9531 32.0833 31.1484 31.6042 31.1484 30.9688C31.1484 30.3229 30.9375 29.8594 30.5156 29.5781C30.0938 29.2969 29.4583 29.1562 28.6094 29.1562H27.375V32.8906ZM27.375 34.4375V39H25.5078V27.5781H28.7344C30.2083 27.5781 31.2995 27.8542 32.0078 28.4062C32.7161 28.9583 33.0703 29.7917 33.0703 30.9062C33.0703 32.3281 32.3307 33.3411 30.8516 33.9453L34.0781 39H31.9531L29.2188 34.4375H27.375ZM39.3203 39.1562C37.9766 39.1562 36.9245 38.7656 36.1641 37.9844C35.4089 37.1979 35.0312 36.1172 35.0312 34.7422C35.0312 33.3307 35.3828 32.2214 36.0859 31.4141C36.7891 30.6068 37.7552 30.2031 38.9844 30.2031C40.125 30.2031 41.026 30.5495 41.6875 31.2422C42.349 31.9349 42.6797 32.888 42.6797 34.1016V35.0938H36.9219C36.9479 35.9323 37.1745 36.5781 37.6016 37.0312C38.0286 37.4792 38.6302 37.7031 39.4062 37.7031C39.9167 37.7031 40.3906 37.6562 40.8281 37.5625C41.2708 37.4635 41.7448 37.3021 42.25 37.0781V38.5703C41.8021 38.7839 41.349 38.9349 40.8906 39.0234C40.4323 39.112 39.9089 39.1562 39.3203 39.1562ZM38.9844 31.5938C38.401 31.5938 37.9323 31.7786 37.5781 32.1484C37.2292 32.5182 37.0208 33.0573 36.9531 33.7656H40.875C40.8646 33.0521 40.6927 32.513 40.3594 32.1484C40.026 31.7786 39.5677 31.5938 38.9844 31.5938ZM49.1016 31.75H46.9922V39H45.1484V31.75H43.7266V30.8906L45.1484 30.3281V29.7656C45.1484 28.7448 45.388 27.9896 45.8672 27.5C46.3464 27.0052 47.0781 26.7578 48.0625 26.7578C48.7083 26.7578 49.3438 26.8646 49.9688 27.0781L49.4844 28.4688C49.0312 28.3229 48.599 28.25 48.1875 28.25C47.7708 28.25 47.4661 28.3802 47.2734 28.6406C47.0859 28.8958 46.9922 29.2812 46.9922 29.7969V30.3594H49.1016V31.75ZM54.9141 31.75H52.8047V39H50.9609V31.75H49.5391V30.8906L50.9609 30.3281V29.7656C50.9609 28.7448 51.2005 27.9896 51.6797 27.5C52.1589 27.0052 52.8906 26.7578 53.875 26.7578C54.5208 26.7578 55.1562 26.8646 55.7812 27.0781L55.2969 28.4688C54.8438 28.3229 54.4115 28.25 54 28.25C53.5833 28.25 53.2786 28.3802 53.0859 28.6406C52.8984 28.8958 52.8047 29.2812 52.8047 29.7969V30.3594H54.9141V31.75ZM60.1641 39.1562C58.8203 39.1562 57.7682 38.7656 57.0078 37.9844C56.2526 37.1979 55.875 36.1172 55.875 34.7422C55.875 33.3307 56.2266 32.2214 56.9297 31.4141C57.6328 30.6068 58.599 30.2031 59.8281 30.2031C60.9688 30.2031 61.8698 30.5495 62.5312 31.2422C63.1927 31.9349 63.5234 32.888 63.5234 34.1016V35.0938H57.7656C57.7917 35.9323 58.0182 36.5781 58.4453 37.0312C58.8724 37.4792 59.474 37.7031 60.25 37.7031C60.7604 37.7031 61.2344 37.6562 61.6719 37.5625C62.1146 37.4635 62.5885 37.3021 63.0938 37.0781V38.5703C62.6458 38.7839 62.1927 38.9349 61.7344 39.0234C61.276 39.112 60.7526 39.1562 60.1641 39.1562ZM59.8281 31.5938C59.2448 31.5938 58.776 31.7786 58.4219 32.1484C58.0729 32.5182 57.8646 33.0573 57.7969 33.7656H61.7188C61.7083 33.0521 61.5365 32.513 61.2031 32.1484C60.8698 31.7786 60.4115 31.5938 59.8281 31.5938ZM69.9922 30.2031C70.362 30.2031 70.6667 30.2292 70.9062 30.2812L70.7266 31.9922C70.4661 31.9297 70.1953 31.8984 69.9141 31.8984C69.1797 31.8984 68.5833 32.138 68.125 32.6172C67.6719 33.0964 67.4453 33.7188 67.4453 34.4844V39H65.6094V30.3594H67.0469L67.2891 31.8828H67.3828C67.6693 31.3672 68.0417 30.9583 68.5 30.6562C68.9635 30.3542 69.4609 30.2031 69.9922 30.2031ZM77.9219 39L77.5547 37.7969H77.4922C77.0755 38.3229 76.6562 38.6823 76.2344 38.875C75.8125 39.0625 75.2708 39.1562 74.6094 39.1562C73.7604 39.1562 73.0964 38.9271 72.6172 38.4688C72.1432 38.0104 71.9062 37.362 71.9062 36.5234C71.9062 35.6328 72.237 34.9609 72.8984 34.5078C73.5599 34.0547 74.5677 33.8073 75.9219 33.7656L77.4141 33.7188V33.2578C77.4141 32.7057 77.2839 32.2943 77.0234 32.0234C76.7682 31.7474 76.3698 31.6094 75.8281 31.6094C75.3854 31.6094 74.9609 31.6745 74.5547 31.8047C74.1484 31.9349 73.7578 32.0885 73.3828 32.2656L72.7891 30.9531C73.2578 30.7083 73.7708 30.5234 74.3281 30.3984C74.8854 30.2682 75.4115 30.2031 75.9062 30.2031C77.0052 30.2031 77.8333 30.4427 78.3906 30.9219C78.9531 31.401 79.2344 32.1536 79.2344 33.1797V39H77.9219ZM75.1875 37.75C75.8542 37.75 76.388 37.5651 76.7891 37.1953C77.1953 36.8203 77.3984 36.2969 77.3984 35.625V34.875L76.2891 34.9219C75.4245 34.9531 74.7943 35.099 74.3984 35.3594C74.0078 35.6146 73.8125 36.0078 73.8125 36.5391C73.8125 36.9245 73.9271 37.224 74.1562 37.4375C74.3854 37.6458 74.7292 37.75 75.1875 37.75ZM83.6328 39H81.7969V26.8438H83.6328V39ZM92.0703 36.5391C92.0703 37.3828 91.763 38.0312 91.1484 38.4844C90.5339 38.9323 89.6536 39.1562 88.5078 39.1562C87.3568 39.1562 86.4323 38.9818 85.7344 38.6328V37.0469C86.75 37.5156 87.6953 37.75 88.5703 37.75C89.7005 37.75 90.2656 37.4089 90.2656 36.7266C90.2656 36.5078 90.2031 36.3255 90.0781 36.1797C89.9531 36.0339 89.7474 35.8828 89.4609 35.7266C89.1745 35.5703 88.776 35.3932 88.2656 35.1953C87.2708 34.8099 86.5964 34.4245 86.2422 34.0391C85.8932 33.6536 85.7188 33.1536 85.7188 32.5391C85.7188 31.7995 86.0156 31.2266 86.6094 30.8203C87.2083 30.4089 88.0208 30.2031 89.0469 30.2031C90.0625 30.2031 91.0234 30.4089 91.9297 30.8203L91.3359 32.2031C90.4036 31.8177 89.6198 31.625 88.9844 31.625C88.0156 31.625 87.5312 31.901 87.5312 32.4531C87.5312 32.724 87.6562 32.9531 87.9062 33.1406C88.1615 33.3281 88.7135 33.5859 89.5625 33.9141C90.276 34.1901 90.7943 34.4427 91.1172 34.6719C91.4401 34.901 91.6797 35.1667 91.8359 35.4688C91.9922 35.7656 92.0703 36.1224 92.0703 36.5391Z" fill="#212121"/>
<rect x="407" y="16" width="89" height="32" rx="3" fill="#0D6EFD"/>
<path d="M429.591 30.1H427.271V29H433.211V30.1H430.891V36H429.591V30.1ZM435.92 36.07C435.38 36.07 434.894 35.9533 434.46 35.72C434.027 35.4867 433.687 35.1633 433.44 34.75C433.2 34.33 433.08 33.8567 433.08 33.33C433.08 32.8033 433.2 32.3333 433.44 31.92C433.687 31.5067 434.027 31.1833 434.46 30.95C434.894 30.7167 435.38 30.6 435.92 30.6C436.467 30.6 436.957 30.7167 437.39 30.95C437.824 31.1833 438.16 31.5067 438.4 31.92C438.647 32.3333 438.77 32.8033 438.77 33.33C438.77 33.8567 438.647 34.33 438.4 34.75C438.16 35.1633 437.824 35.4867 437.39 35.72C436.957 35.9533 436.467 36.07 435.92 36.07ZM435.92 35C436.38 35 436.76 34.8467 437.06 34.54C437.36 34.2333 437.51 33.83 437.51 33.33C437.51 32.83 437.36 32.4267 437.06 32.12C436.76 31.8133 436.38 31.66 435.92 31.66C435.46 31.66 435.08 31.8133 434.78 32.12C434.487 32.4267 434.34 32.83 434.34 33.33C434.34 33.83 434.487 34.2333 434.78 34.54C435.08 34.8467 435.46 35 435.92 35ZM445.196 28.58V36H443.996V35.31C443.789 35.5633 443.532 35.7533 443.226 35.88C442.926 36.0067 442.592 36.07 442.226 36.07C441.712 36.07 441.249 35.9567 440.836 35.73C440.429 35.5033 440.109 35.1833 439.876 34.77C439.642 34.35 439.526 33.87 439.526 33.33C439.526 32.79 439.642 32.3133 439.876 31.9C440.109 31.4867 440.429 31.1667 440.836 30.94C441.249 30.7133 441.712 30.6 442.226 30.6C442.579 30.6 442.902 30.66 443.196 30.78C443.489 30.9 443.739 31.08 443.946 31.32V28.58H445.196ZM442.376 35C442.676 35 442.946 34.9333 443.186 34.8C443.426 34.66 443.616 34.4633 443.756 34.21C443.896 33.9567 443.966 33.6633 443.966 33.33C443.966 32.9967 443.896 32.7033 443.756 32.45C443.616 32.1967 443.426 32.0033 443.186 31.87C442.946 31.73 442.676 31.66 442.376 31.66C442.076 31.66 441.806 31.73 441.566 31.87C441.326 32.0033 441.136 32.1967 440.996 32.45C440.856 32.7033 440.786 32.9967 440.786 33.33C440.786 33.6633 440.856 33.9567 440.996 34.21C441.136 34.4633 441.326 34.66 441.566 34.8C441.806 34.9333 442.076 35 442.376 35ZM448.871 30.6C449.657 30.6 450.257 30.79 450.671 31.17C451.091 31.5433 451.301 32.11 451.301 32.87V36H450.121V35.35C449.967 35.5833 449.747 35.7633 449.461 35.89C449.181 36.01 448.841 36.07 448.441 36.07C448.041 36.07 447.691 36.0033 447.391 35.87C447.091 35.73 446.857 35.54 446.691 35.3C446.531 35.0533 446.451 34.7767 446.451 34.47C446.451 33.99 446.627 33.6067 446.981 33.32C447.341 33.0267 447.904 32.88 448.671 32.88H450.051V32.8C450.051 32.4267 449.937 32.14 449.711 31.94C449.491 31.74 449.161 31.64 448.721 31.64C448.421 31.64 448.124 31.6867 447.831 31.78C447.544 31.8733 447.301 32.0033 447.101 32.17L446.611 31.26C446.891 31.0467 447.227 30.8833 447.621 30.77C448.014 30.6567 448.431 30.6 448.871 30.6ZM448.701 35.16C449.014 35.16 449.291 35.09 449.531 34.95C449.777 34.8033 449.951 34.5967 450.051 34.33V33.71H448.761C448.041 33.71 447.681 33.9467 447.681 34.42C447.681 34.6467 447.771 34.8267 447.951 34.96C448.131 35.0933 448.381 35.16 448.701 35.16ZM457.807 30.66L455.307 36.43C455.074 37.01 454.791 37.4167 454.457 37.65C454.124 37.89 453.721 38.01 453.247 38.01C452.981 38.01 452.717 37.9667 452.457 37.88C452.197 37.7933 451.984 37.6733 451.817 37.52L452.317 36.6C452.437 36.7133 452.577 36.8033 452.737 36.87C452.904 36.9367 453.071 36.97 453.237 36.97C453.457 36.97 453.637 36.9133 453.777 36.8C453.924 36.6867 454.057 36.4967 454.177 36.23L454.267 36.02L451.937 30.66H453.237L454.917 34.61L456.607 30.66H457.807Z" fill="white"/>
<path fill-rule="evenodd" clip-rule="evenodd" d="M464.485 30.6167C464.283 30.4142 464.283 30.0859 464.485 29.8834C464.669 29.6993 464.958 29.6826 465.161 29.8332L465.219 29.8834L469 33.6647L472.782 29.8834C472.966 29.6993 473.254 29.6826 473.457 29.8332L473.515 29.8834C473.699 30.0675 473.716 30.3556 473.565 30.5586L473.515 30.6167L469.367 34.7649C469.183 34.949 468.895 34.9657 468.692 34.8151L468.634 34.7649L464.485 30.6167Z" fill="white"/>
</g>
<rect x="24" y="64" width="472" height="1" fill="#EAEAEA"/>
</g>
<path fill-rule="evenodd" clip-rule="evenodd" d="M260.461 325C320.751 325 370 275.751 370 215.461C370 154.398 320.899 105 260.461 105C199.249 105 150 154.249 150 215.461C150 275.899 199.398 325 260.461 325ZM260.461 316.33C204.174 316.33 158.67 271.099 158.67 215.461C158.67 159.037 204.037 113.67 260.461 113.67C316.099 113.67 361.33 159.174 361.33 215.461C361.33 270.963 315.963 316.33 260.461 316.33ZM259.425 300.192C306.418 300.192 344.801 261.809 344.801 214.816C344.801 167.228 306.533 128.728 259.425 128.728C211.721 128.728 173.338 167.112 173.338 214.816C173.338 261.924 211.837 300.192 259.425 300.192ZM259.425 291.51C216.62 291.51 182.019 257.117 182.019 214.816C182.019 171.906 216.516 137.41 259.425 137.41C301.727 137.41 336.12 172.011 336.12 214.816C336.12 257.014 301.623 291.51 259.425 291.51ZM320.649 214.711C320.649 248.469 293.08 276.038 259.322 276.038C225.147 276.038 197.494 248.552 197.494 214.711C197.494 180.452 225.063 152.883 259.322 152.883C293.163 152.883 320.649 180.536 320.649 214.711ZM206.137 214.711C206.137 243.767 229.908 267.396 259.322 267.396C288.307 267.396 312.007 243.696 312.007 214.711C312.007 185.297 288.378 161.526 259.322 161.526C229.836 161.526 206.137 185.225 206.137 214.711Z" fill="#F5F5F5"/>
<path fill-rule="evenodd" clip-rule="evenodd" d="M197.494 214.711C197.494 248.552 225.147 276.038 259.322 276.038C293.08 276.038 320.649 248.469 320.649 214.711C320.649 180.536 293.163 152.883 259.322 152.883C256.935 152.883 255 154.818 255 157.204C255 159.591 256.935 161.526 259.322 161.526C288.378 161.526 312.007 185.297 312.007 214.711C312.007 243.696 288.307 267.396 259.322 267.396C229.908 267.396 206.137 243.767 206.137 214.711C206.137 212.324 204.202 210.389 201.815 210.389C199.429 210.389 197.494 212.324 197.494 214.711Z" fill="#5A9CFE"/>
<path fill-rule="evenodd" clip-rule="evenodd" d="M173.337 214.816C173.337 261.924 211.837 300.192 259.425 300.192C306.418 300.192 344.801 261.809 344.801 214.816C344.801 167.228 306.533 128.728 259.425 128.728C257.027 128.728 255.084 130.672 255.084 133.069C255.084 135.467 257.027 137.41 259.425 137.41C301.727 137.41 336.119 172.011 336.119 214.816C336.119 257.014 301.623 291.51 259.425 291.51C216.62 291.51 182.019 257.118 182.019 214.816C182.019 212.418 180.076 210.475 177.678 210.475C175.281 210.475 173.337 212.418 173.337 214.816Z" fill="#59A0FF"/>
<path fill-rule="evenodd" clip-rule="evenodd" d="M195.505 304.074C214.226 317.598 236.767 325 260.462 325C320.751 325 370 275.751 370 215.461C370 154.398 320.9 105 260.462 105C258.067 105 256.127 106.941 256.127 109.335C256.127 111.729 258.067 113.67 260.462 113.67C316.1 113.67 361.33 159.174 361.33 215.461C361.33 270.963 315.963 316.33 260.462 316.33C238.604 316.33 217.837 309.51 200.582 297.046C198.641 295.644 195.931 296.081 194.529 298.021C193.127 299.962 193.564 302.672 195.505 304.074Z" fill="#0D6EFD"/>
</g>
<defs>
<clipPath id="clip0_878_100303">
<rect width="520" height="420" fill="white"/>
</clipPath>
<clipPath id="clip1_878_100303">
<rect width="52" height="21" fill="white" transform="translate(324 365)"/>
</clipPath>
<clipPath id="clip2_878_100303">
<rect width="63" height="21" fill="white" transform="translate(229 365)"/>
</clipPath>
<clipPath id="clip3_878_100303">
<rect width="53" height="21" fill="white" transform="translate(144 365)"/>
</clipPath>
<clipPath id="clip4_878_100303">
<rect width="520" height="65" fill="white"/>
</clipPath>
<clipPath id="clip5_878_100303">
<rect width="520" height="65" fill="white"/>
</clipPath>
</defs>
</svg>
