<svg width="1597" height="24" viewBox="0 0 1597 24" fill="none" xmlns="http://www.w3.org/2000/svg">
<path d="M6.10449 9.76074C5.53483 9.76074 5.09505 9.95898 4.78516 10.3555C4.47982 10.752 4.32715 11.3011 4.32715 12.0029C4.32715 12.7686 4.4707 13.3359 4.75781 13.7051C5.04948 14.0742 5.49382 14.2588 6.09082 14.2588C6.48275 14.2588 6.96354 14.1562 7.5332 13.9512V14.7988C7.31445 14.89 7.08887 14.9674 6.85645 15.0312C6.62858 15.0951 6.35514 15.127 6.03613 15.127C5.15202 15.127 4.47298 14.8535 3.99902 14.3066C3.52507 13.7552 3.28809 12.9873 3.28809 12.0029C3.28809 11.0505 3.53874 10.2939 4.04004 9.7334C4.5459 9.17285 5.23405 8.89258 6.10449 8.89258C6.68783 8.89258 7.24837 9.0293 7.78613 9.30273L7.38965 10.1094C6.89746 9.87695 6.46908 9.76074 6.10449 9.76074ZM0.683594 12.0029C0.683594 11.0915 0.911458 10.237 1.36719 9.43945C1.82292 8.64193 2.44954 8.01302 3.24707 7.55273C4.0446 7.09245 4.90365 6.8623 5.82422 6.8623C6.73568 6.8623 7.59017 7.09017 8.3877 7.5459C9.18522 8.00163 9.81413 8.62826 10.2744 9.42578C10.7347 10.2233 10.9648 11.0824 10.9648 12.0029C10.9648 12.9007 10.7438 13.7438 10.3018 14.5322C9.8597 15.3206 9.23991 15.9518 8.44238 16.4258C7.64486 16.8997 6.77214 17.1367 5.82422 17.1367C4.88086 17.1367 4.01042 16.902 3.21289 16.4326C2.41536 15.9587 1.79329 15.3275 1.34668 14.5391C0.904622 13.7507 0.683594 12.9053 0.683594 12.0029ZM1.40137 12.0029C1.40137 12.7913 1.59961 13.5296 1.99609 14.2178C2.39258 14.9014 2.93262 15.4414 3.61621 15.8379C4.30436 16.2298 5.04036 16.4258 5.82422 16.4258C6.61719 16.4258 7.35319 16.2275 8.03223 15.8311C8.71126 15.4346 9.24902 14.8991 9.64551 14.2246C10.0465 13.5456 10.2471 12.805 10.2471 12.0029C10.2471 11.21 10.0488 10.474 9.65234 9.79492C9.25586 9.11589 8.7181 8.57812 8.03906 8.18164C7.36458 7.7806 6.6263 7.58008 5.82422 7.58008C5.03125 7.58008 4.29525 7.77832 3.61621 8.1748C2.93717 8.57129 2.39714 9.10905 1.99609 9.78809C1.59961 10.4626 1.40137 11.2008 1.40137 12.0029ZM22.5381 17H15.9688V16.0225L18.6006 13.377C19.4027 12.5658 19.9313 11.987 20.1865 11.6406C20.4417 11.2943 20.6331 10.957 20.7607 10.6289C20.8883 10.3008 20.9521 9.94759 20.9521 9.56934C20.9521 9.03613 20.7904 8.61458 20.4668 8.30469C20.1432 7.99023 19.6943 7.83301 19.1201 7.83301C18.7054 7.83301 18.3112 7.90137 17.9375 8.03809C17.5684 8.1748 17.1559 8.42318 16.7002 8.7832L16.0986 8.01074C17.0192 7.24512 18.0218 6.8623 19.1064 6.8623C20.0452 6.8623 20.7812 7.10384 21.3145 7.58691C21.8477 8.06543 22.1143 8.71029 22.1143 9.52148C22.1143 10.1549 21.9365 10.7816 21.5811 11.4014C21.2256 12.0212 20.5602 12.805 19.585 13.7529L17.3975 15.8926V15.9473H22.5381V17ZM30.6045 11.9893C30.6045 13.7165 30.3311 15.0062 29.7842 15.8584C29.2419 16.7106 28.4102 17.1367 27.2891 17.1367C26.2135 17.1367 25.3955 16.7015 24.835 15.8311C24.2744 14.9561 23.9941 13.6755 23.9941 11.9893C23.9941 10.2484 24.2653 8.95638 24.8076 8.11328C25.3499 7.27018 26.1771 6.84863 27.2891 6.84863C28.3737 6.84863 29.1963 7.28841 29.7568 8.16797C30.3219 9.04753 30.6045 10.3213 30.6045 11.9893ZM25.1426 11.9893C25.1426 13.443 25.3135 14.5026 25.6553 15.168C25.9971 15.8288 26.5417 16.1592 27.2891 16.1592C28.0456 16.1592 28.5924 15.8242 28.9297 15.1543C29.2715 14.4798 29.4424 13.4248 29.4424 11.9893C29.4424 10.5537 29.2715 9.50326 28.9297 8.83789C28.5924 8.16797 28.0456 7.83301 27.2891 7.83301C26.5417 7.83301 25.9971 8.16341 25.6553 8.82422C25.3135 9.48047 25.1426 10.5355 25.1426 11.9893ZM38.5615 17H31.9922V16.0225L34.624 13.377C35.4261 12.5658 35.9548 11.987 36.21 11.6406C36.4652 11.2943 36.6566 10.957 36.7842 10.6289C36.9118 10.3008 36.9756 9.94759 36.9756 9.56934C36.9756 9.03613 36.8138 8.61458 36.4902 8.30469C36.1667 7.99023 35.7178 7.83301 35.1436 7.83301C34.7288 7.83301 34.3346 7.90137 33.9609 8.03809C33.5918 8.1748 33.1794 8.42318 32.7236 8.7832L32.1221 8.01074C33.0426 7.24512 34.0452 6.8623 35.1299 6.8623C36.0687 6.8623 36.8047 7.10384 37.3379 7.58691C37.8711 8.06543 38.1377 8.71029 38.1377 9.52148C38.1377 10.1549 37.96 10.7816 37.6045 11.4014C37.249 12.0212 36.5837 12.805 35.6084 13.7529L33.4209 15.8926V15.9473H38.5615V17ZM44.208 17H43.1006V9.87695C43.1006 9.28451 43.1188 8.72396 43.1553 8.19531C43.0596 8.29102 42.9525 8.39128 42.834 8.49609C42.7155 8.60091 42.1732 9.04525 41.207 9.8291L40.6055 9.0498L43.251 7.00586H44.208V17ZM53.5049 17H52.3428V7.00586H57.9141V8.03809H53.5049V11.6953H57.6475V12.7275H53.5049V17ZM64.0117 17L63.7861 15.9336H63.7314C63.3577 16.403 62.984 16.722 62.6104 16.8906C62.2412 17.0547 61.7786 17.1367 61.2227 17.1367C60.4798 17.1367 59.8965 16.9453 59.4727 16.5625C59.0534 16.1797 58.8438 15.6351 58.8438 14.9287C58.8438 13.4157 60.0537 12.6227 62.4736 12.5498L63.7451 12.5088V12.0439C63.7451 11.4561 63.6175 11.0231 63.3623 10.7451C63.1117 10.4626 62.7083 10.3213 62.1523 10.3213C61.528 10.3213 60.8216 10.5127 60.0332 10.8955L59.6846 10.0273C60.0537 9.82682 60.457 9.6696 60.8945 9.55566C61.3366 9.44173 61.7786 9.38477 62.2207 9.38477C63.1139 9.38477 63.7747 9.58301 64.2031 9.97949C64.6361 10.376 64.8525 11.0117 64.8525 11.8867V17H64.0117ZM61.4482 16.2002C62.1546 16.2002 62.7083 16.0065 63.1094 15.6191C63.515 15.2318 63.7178 14.6895 63.7178 13.9922V13.3154L62.583 13.3633C61.6807 13.3952 61.029 13.5365 60.6279 13.7871C60.2314 14.0332 60.0332 14.4183 60.0332 14.9424C60.0332 15.3525 60.1562 15.6647 60.4023 15.8789C60.653 16.0931 61.0016 16.2002 61.4482 16.2002ZM70.6836 9.38477C71.668 9.38477 72.4313 9.72201 72.9736 10.3965C73.5205 11.0664 73.7939 12.0166 73.7939 13.2471C73.7939 14.4775 73.5182 15.4346 72.9668 16.1182C72.4199 16.7972 71.6589 17.1367 70.6836 17.1367C70.196 17.1367 69.7493 17.0479 69.3438 16.8701C68.9427 16.6878 68.6055 16.4098 68.332 16.0361H68.25L68.0107 17H67.1973V6.36328H68.332V8.94727C68.332 9.52604 68.3138 10.0456 68.2773 10.5059H68.332C68.8607 9.75846 69.6445 9.38477 70.6836 9.38477ZM70.5195 10.335C69.7448 10.335 69.1865 10.5583 68.8447 11.0049C68.5029 11.4469 68.332 12.1943 68.332 13.2471C68.332 14.2998 68.5075 15.054 68.8584 15.5098C69.2093 15.9609 69.7721 16.1865 70.5469 16.1865C71.2441 16.1865 71.7637 15.9336 72.1055 15.4277C72.4473 14.9173 72.6182 14.1859 72.6182 13.2334C72.6182 12.2581 72.4473 11.5312 72.1055 11.0527C71.7637 10.5742 71.235 10.335 70.5195 10.335ZM79.2012 9.37109C79.5339 9.37109 79.8324 9.39844 80.0967 9.45312L79.9395 10.5059C79.6296 10.4375 79.3561 10.4033 79.1191 10.4033C78.513 10.4033 77.9935 10.6494 77.5605 11.1416C77.1322 11.6338 76.918 12.2467 76.918 12.9805V17H75.7832V9.50781H76.7197L76.8496 10.8955H76.9043C77.1823 10.4079 77.5173 10.0319 77.9092 9.76758C78.3011 9.50326 78.7318 9.37109 79.2012 9.37109ZM83.3027 13.165L80.6982 9.50781H81.9902L83.9658 12.3789L85.9346 9.50781H87.2129L84.6084 13.165L87.3496 17H86.0645L83.9658 13.9648L81.8467 17H80.5615L83.3027 13.165ZM100.194 7.00586V13.4727C100.194 14.612 99.8503 15.5075 99.1621 16.1592C98.474 16.8109 97.5283 17.1367 96.3252 17.1367C95.1221 17.1367 94.1901 16.8086 93.5293 16.1523C92.873 15.4961 92.5449 14.5938 92.5449 13.4453V7.00586H93.707V13.5273C93.707 14.3613 93.9349 15.0016 94.3906 15.4482C94.8464 15.8949 95.5163 16.1182 96.4004 16.1182C97.2435 16.1182 97.8929 15.8949 98.3486 15.4482C98.8044 14.9971 99.0322 14.3522 99.0322 13.5137V7.00586H100.194ZM102.847 17V7.00586H104.009V17H102.847Z" fill="#212121"/>
<path d="M1155.05 14.2861C1155.05 15.1748 1154.73 15.8721 1154.09 16.3779C1153.45 16.8838 1152.56 17.1367 1151.43 17.1367C1150.3 17.1367 1149.37 16.9613 1148.65 16.6104V15.0654C1149.11 15.2796 1149.59 15.4482 1150.1 15.5713C1150.62 15.6943 1151.1 15.7559 1151.54 15.7559C1152.19 15.7559 1152.66 15.6328 1152.97 15.3867C1153.28 15.1406 1153.43 14.8102 1153.43 14.3955C1153.43 14.0218 1153.29 13.7051 1153.01 13.4453C1152.73 13.1855 1152.14 12.8779 1151.26 12.5225C1150.35 12.1533 1149.7 11.7318 1149.33 11.2578C1148.96 10.7839 1148.77 10.2142 1148.77 9.54883C1148.77 8.71484 1149.07 8.05859 1149.66 7.58008C1150.25 7.10156 1151.05 6.8623 1152.04 6.8623C1153 6.8623 1153.95 7.07194 1154.9 7.49121L1154.38 8.82422C1153.49 8.45052 1152.7 8.26367 1152 8.26367C1151.48 8.26367 1151.07 8.37988 1150.8 8.6123C1150.53 8.84017 1150.39 9.14323 1150.39 9.52148C1150.39 9.78125 1150.45 10.0046 1150.55 10.1914C1150.66 10.3737 1150.84 10.5469 1151.09 10.7109C1151.35 10.875 1151.8 11.0915 1152.45 11.3604C1153.18 11.6657 1153.72 11.9505 1154.06 12.2148C1154.4 12.4792 1154.65 12.7777 1154.81 13.1104C1154.97 13.443 1155.05 13.835 1155.05 14.2861ZM1160.12 17.1367C1158.94 17.1367 1158.02 16.7949 1157.36 16.1113C1156.7 15.4232 1156.37 14.4775 1156.37 13.2744C1156.37 12.0394 1156.67 11.0687 1157.29 10.3623C1157.9 9.65592 1158.75 9.30273 1159.82 9.30273C1160.82 9.30273 1161.61 9.60579 1162.19 10.2119C1162.77 10.818 1163.06 11.652 1163.06 12.7139V13.582H1158.02C1158.04 14.3158 1158.24 14.8809 1158.61 15.2773C1158.99 15.6693 1159.51 15.8652 1160.19 15.8652C1160.64 15.8652 1161.05 15.8242 1161.44 15.7422C1161.82 15.6556 1162.24 15.5143 1162.68 15.3184V16.624C1162.29 16.8109 1161.89 16.943 1161.49 17.0205C1161.09 17.098 1160.63 17.1367 1160.12 17.1367ZM1159.82 10.5195C1159.31 10.5195 1158.9 10.6813 1158.59 11.0049C1158.29 11.3285 1158.11 11.8001 1158.05 12.4199H1161.48C1161.47 11.7956 1161.32 11.3239 1161.03 11.0049C1160.74 10.6813 1160.33 10.5195 1159.82 10.5195ZM1168.72 9.30273C1169.04 9.30273 1169.31 9.32552 1169.52 9.37109L1169.36 10.8682C1169.13 10.8135 1168.9 10.7861 1168.65 10.7861C1168.01 10.7861 1167.49 10.9958 1167.08 11.415C1166.69 11.8343 1166.49 12.3789 1166.49 13.0488V17H1164.88V9.43945H1166.14L1166.35 10.7725H1166.43C1166.69 10.3213 1167.01 9.96354 1167.41 9.69922C1167.82 9.4349 1168.25 9.30273 1168.72 9.30273ZM1172.65 17L1169.78 9.43945H1171.47L1173.01 13.835C1173.28 14.5732 1173.43 15.1702 1173.49 15.626H1173.54C1173.58 15.2979 1173.74 14.7008 1174.02 13.835L1175.56 9.43945H1177.27L1174.38 17H1172.65ZM1180.02 17H1178.42V9.43945H1180.02V17ZM1178.32 7.43652C1178.32 7.14941 1178.4 6.92839 1178.55 6.77344C1178.71 6.61849 1178.94 6.54102 1179.23 6.54102C1179.51 6.54102 1179.73 6.61849 1179.89 6.77344C1180.05 6.92839 1180.13 7.14941 1180.13 7.43652C1180.13 7.70996 1180.05 7.92643 1179.89 8.08594C1179.73 8.24089 1179.51 8.31836 1179.23 8.31836C1178.94 8.31836 1178.71 8.24089 1178.55 8.08594C1178.4 7.92643 1178.32 7.70996 1178.32 7.43652ZM1185.38 17.1367C1184.23 17.1367 1183.36 16.804 1182.77 16.1387C1182.17 15.4688 1181.88 14.5094 1181.88 13.2607C1181.88 11.9893 1182.19 11.0117 1182.81 10.3281C1183.43 9.64453 1184.33 9.30273 1185.51 9.30273C1186.3 9.30273 1187.02 9.45085 1187.66 9.74707L1187.17 11.0391C1186.5 10.7747 1185.94 10.6426 1185.49 10.6426C1184.19 10.6426 1183.53 11.5107 1183.53 13.2471C1183.53 14.0947 1183.69 14.7327 1184.02 15.1611C1184.34 15.585 1184.82 15.7969 1185.45 15.7969C1186.17 15.7969 1186.84 15.6191 1187.48 15.2637V16.665C1187.2 16.8337 1186.89 16.9544 1186.56 17.0273C1186.24 17.1003 1185.84 17.1367 1185.38 17.1367ZM1192.56 17.1367C1191.39 17.1367 1190.47 16.7949 1189.8 16.1113C1189.14 15.4232 1188.81 14.4775 1188.81 13.2744C1188.81 12.0394 1189.12 11.0687 1189.73 10.3623C1190.35 9.65592 1191.19 9.30273 1192.27 9.30273C1193.27 9.30273 1194.05 9.60579 1194.63 10.2119C1195.21 10.818 1195.5 11.652 1195.5 12.7139V13.582H1190.46C1190.49 14.3158 1190.68 14.8809 1191.06 15.2773C1191.43 15.6693 1191.96 15.8652 1192.64 15.8652C1193.08 15.8652 1193.5 15.8242 1193.88 15.7422C1194.27 15.6556 1194.68 15.5143 1195.12 15.3184V16.624C1194.73 16.8109 1194.34 16.943 1193.94 17.0205C1193.53 17.098 1193.08 17.1367 1192.56 17.1367ZM1192.27 10.5195C1191.76 10.5195 1191.35 10.6813 1191.04 11.0049C1190.73 11.3285 1190.55 11.8001 1190.49 12.4199H1193.92C1193.91 11.7956 1193.76 11.3239 1193.47 11.0049C1193.18 10.6813 1192.78 10.5195 1192.27 10.5195ZM1202.41 14.8467C1202.41 15.585 1202.14 16.1523 1201.6 16.5488C1201.06 16.9408 1200.29 17.1367 1199.29 17.1367C1198.28 17.1367 1197.47 16.984 1196.86 16.6787V15.291C1197.75 15.7012 1198.58 15.9062 1199.34 15.9062C1200.33 15.9062 1200.83 15.6077 1200.83 15.0107C1200.83 14.8193 1200.77 14.6598 1200.66 14.5322C1200.55 14.4046 1200.37 14.2725 1200.12 14.1357C1199.87 13.999 1199.52 13.8441 1199.08 13.6709C1198.21 13.3337 1197.62 12.9964 1197.31 12.6592C1197 12.3219 1196.85 11.8844 1196.85 11.3467C1196.85 10.6995 1197.11 10.1982 1197.63 9.84277C1198.15 9.48275 1198.86 9.30273 1199.76 9.30273C1200.65 9.30273 1201.49 9.48275 1202.28 9.84277L1201.76 11.0527C1200.95 10.7155 1200.26 10.5469 1199.71 10.5469C1198.86 10.5469 1198.43 10.7884 1198.43 11.2715C1198.43 11.5085 1198.54 11.709 1198.76 11.873C1198.99 12.0371 1199.47 12.2627 1200.21 12.5498C1200.84 12.7913 1201.29 13.0124 1201.57 13.2129C1201.85 13.4134 1202.06 13.6458 1202.2 13.9102C1202.34 14.1699 1202.41 14.4821 1202.41 14.8467Z" fill="#212121"/>
<path d="M1253.97 17H1252.35V7.00586H1257.99V8.38672H1253.97V11.5107H1257.74V12.8984H1253.97V17ZM1262.93 17.1367C1261.76 17.1367 1260.84 16.7949 1260.17 16.1113C1259.51 15.4232 1259.18 14.4775 1259.18 13.2744C1259.18 12.0394 1259.49 11.0687 1260.1 10.3623C1260.72 9.65592 1261.57 9.30273 1262.64 9.30273C1263.64 9.30273 1264.43 9.60579 1265.01 10.2119C1265.58 10.818 1265.87 11.652 1265.87 12.7139V13.582H1260.84C1260.86 14.3158 1261.06 14.8809 1261.43 15.2773C1261.8 15.6693 1262.33 15.8652 1263.01 15.8652C1263.46 15.8652 1263.87 15.8242 1264.25 15.7422C1264.64 15.6556 1265.06 15.5143 1265.5 15.3184V16.624C1265.11 16.8109 1264.71 16.943 1264.31 17.0205C1263.91 17.098 1263.45 17.1367 1262.93 17.1367ZM1262.64 10.5195C1262.13 10.5195 1261.72 10.6813 1261.41 11.0049C1261.1 11.3285 1260.92 11.8001 1260.86 12.4199H1264.29C1264.29 11.7956 1264.14 11.3239 1263.84 11.0049C1263.55 10.6813 1263.15 10.5195 1262.64 10.5195ZM1272.43 17L1272.11 15.9473H1272.05C1271.69 16.4076 1271.32 16.722 1270.95 16.8906C1270.58 17.0547 1270.11 17.1367 1269.53 17.1367C1268.79 17.1367 1268.21 16.9362 1267.79 16.5352C1267.37 16.1341 1267.17 15.5667 1267.17 14.833C1267.17 14.0537 1267.46 13.4658 1268.03 13.0693C1268.61 12.6729 1269.49 12.4564 1270.68 12.4199L1271.99 12.3789V11.9756C1271.99 11.4925 1271.87 11.1325 1271.64 10.8955C1271.42 10.654 1271.07 10.5332 1270.6 10.5332C1270.21 10.5332 1269.84 10.5902 1269.48 10.7041C1269.13 10.818 1268.79 10.9525 1268.46 11.1074L1267.94 9.95898C1268.35 9.74479 1268.8 9.58301 1269.29 9.47363C1269.77 9.3597 1270.23 9.30273 1270.67 9.30273C1271.63 9.30273 1272.35 9.51237 1272.84 9.93164C1273.33 10.3509 1273.58 11.0094 1273.58 11.9072V17H1272.43ZM1270.04 15.9062C1270.62 15.9062 1271.09 15.7445 1271.44 15.4209C1271.79 15.0928 1271.97 14.6348 1271.97 14.0469V13.3906L1271 13.4316C1270.24 13.459 1269.69 13.5866 1269.35 13.8145C1269 14.0378 1268.83 14.3818 1268.83 14.8467C1268.83 15.1839 1268.93 15.446 1269.13 15.6328C1269.34 15.8151 1269.64 15.9062 1270.04 15.9062ZM1278.64 15.8379C1279.03 15.8379 1279.42 15.7764 1279.81 15.6533V16.8633C1279.63 16.9408 1279.4 17.0046 1279.12 17.0547C1278.84 17.1094 1278.55 17.1367 1278.25 17.1367C1276.73 17.1367 1275.97 16.3346 1275.97 14.7305V10.6562H1274.94V9.94531L1276.05 9.35742L1276.59 7.75781H1277.58V9.43945H1279.74V10.6562H1277.58V14.7031C1277.58 15.0905 1277.68 15.3776 1277.87 15.5645C1278.07 15.7467 1278.32 15.8379 1278.64 15.8379ZM1286.66 17L1286.44 16.0088H1286.35C1286.13 16.3597 1285.81 16.6354 1285.4 16.8359C1284.99 17.0365 1284.52 17.1367 1283.99 17.1367C1283.07 17.1367 1282.39 16.9089 1281.94 16.4531C1281.49 15.9974 1281.26 15.307 1281.26 14.3818V9.43945H1282.88V14.1016C1282.88 14.6803 1283 15.1156 1283.24 15.4072C1283.47 15.6943 1283.85 15.8379 1284.35 15.8379C1285.03 15.8379 1285.52 15.6374 1285.83 15.2363C1286.15 14.8307 1286.31 14.154 1286.31 13.2061V9.43945H1287.93V17H1286.66ZM1294.05 9.30273C1294.38 9.30273 1294.64 9.32552 1294.85 9.37109L1294.69 10.8682C1294.47 10.8135 1294.23 10.7861 1293.98 10.7861C1293.34 10.7861 1292.82 10.9958 1292.42 11.415C1292.02 11.8343 1291.82 12.3789 1291.82 13.0488V17H1290.22V9.43945H1291.47L1291.69 10.7725H1291.77C1292.02 10.3213 1292.35 9.96354 1292.75 9.69922C1293.15 9.4349 1293.59 9.30273 1294.05 9.30273ZM1299.56 17.1367C1298.39 17.1367 1297.47 16.7949 1296.8 16.1113C1296.14 15.4232 1295.81 14.4775 1295.81 13.2744C1295.81 12.0394 1296.12 11.0687 1296.73 10.3623C1297.35 9.65592 1298.19 9.30273 1299.27 9.30273C1300.27 9.30273 1301.05 9.60579 1301.63 10.2119C1302.21 10.818 1302.5 11.652 1302.5 12.7139V13.582H1297.46C1297.49 14.3158 1297.68 14.8809 1298.06 15.2773C1298.43 15.6693 1298.96 15.8652 1299.64 15.8652C1300.08 15.8652 1300.5 15.8242 1300.88 15.7422C1301.27 15.6556 1301.68 15.5143 1302.12 15.3184V16.624C1301.73 16.8109 1301.34 16.943 1300.94 17.0205C1300.53 17.098 1300.08 17.1367 1299.56 17.1367ZM1299.27 10.5195C1298.76 10.5195 1298.35 10.6813 1298.04 11.0049C1297.73 11.3285 1297.55 11.8001 1297.49 12.4199H1300.92C1300.91 11.7956 1300.76 11.3239 1300.47 11.0049C1300.18 10.6813 1299.78 10.5195 1299.27 10.5195ZM1309.41 14.8467C1309.41 15.585 1309.14 16.1523 1308.6 16.5488C1308.06 16.9408 1307.29 17.1367 1306.29 17.1367C1305.28 17.1367 1304.47 16.984 1303.86 16.6787V15.291C1304.75 15.7012 1305.58 15.9062 1306.34 15.9062C1307.33 15.9062 1307.83 15.6077 1307.83 15.0107C1307.83 14.8193 1307.77 14.6598 1307.66 14.5322C1307.55 14.4046 1307.37 14.2725 1307.12 14.1357C1306.87 13.999 1306.52 13.8441 1306.08 13.6709C1305.21 13.3337 1304.62 12.9964 1304.31 12.6592C1304 12.3219 1303.85 11.8844 1303.85 11.3467C1303.85 10.6995 1304.11 10.1982 1304.63 9.84277C1305.15 9.48275 1305.86 9.30273 1306.76 9.30273C1307.65 9.30273 1308.49 9.48275 1309.28 9.84277L1308.76 11.0527C1307.95 10.7155 1307.26 10.5469 1306.71 10.5469C1305.86 10.5469 1305.43 10.7884 1305.43 11.2715C1305.43 11.5085 1305.54 11.709 1305.76 11.873C1305.99 12.0371 1306.47 12.2627 1307.21 12.5498C1307.84 12.7913 1308.29 13.0124 1308.57 13.2129C1308.85 13.4134 1309.06 13.6458 1309.2 13.9102C1309.34 14.1699 1309.41 14.4821 1309.41 14.8467Z" fill="#212121"/>
<path d="M1365.59 17L1364.59 14.2246H1360.77L1359.79 17H1358.07L1361.81 6.96484H1363.58L1367.32 17H1365.59ZM1364.16 12.8164L1363.22 10.0957C1363.15 9.91341 1363.06 9.6263 1362.93 9.23438C1362.82 8.84245 1362.73 8.55534 1362.69 8.37305C1362.56 8.93359 1362.38 9.54655 1362.15 10.2119L1361.25 12.8164H1364.16ZM1372.33 9.30273C1373.28 9.30273 1374.01 9.64453 1374.53 10.3281C1375.06 11.0117 1375.33 11.971 1375.33 13.2061C1375.33 14.4456 1375.06 15.4118 1374.53 16.1045C1373.99 16.7926 1373.25 17.1367 1372.31 17.1367C1371.35 17.1367 1370.61 16.7926 1370.08 16.1045H1369.97L1369.67 17H1368.47V6.36328H1370.08V8.89258C1370.08 9.07943 1370.07 9.35742 1370.05 9.72656C1370.03 10.0957 1370.02 10.3304 1370.01 10.4307H1370.08C1370.59 9.67871 1371.34 9.30273 1372.33 9.30273ZM1371.92 10.6152C1371.27 10.6152 1370.8 10.8066 1370.51 11.1895C1370.23 11.5677 1370.09 12.2035 1370.08 13.0967V13.2061C1370.08 14.1266 1370.22 14.7943 1370.51 15.209C1370.81 15.6191 1371.28 15.8242 1371.94 15.8242C1372.51 15.8242 1372.94 15.5986 1373.24 15.1475C1373.53 14.6963 1373.68 14.0446 1373.68 13.1924C1373.68 11.4743 1373.09 10.6152 1371.92 10.6152ZM1383.9 13.2061C1383.9 14.4411 1383.58 15.4049 1382.95 16.0977C1382.32 16.7904 1381.43 17.1367 1380.3 17.1367C1379.6 17.1367 1378.97 16.9772 1378.43 16.6582C1377.89 16.3392 1377.47 15.8812 1377.18 15.2842C1376.89 14.6872 1376.74 13.9945 1376.74 13.2061C1376.74 11.9801 1377.06 11.0231 1377.69 10.335C1378.31 9.64681 1379.2 9.30273 1380.34 9.30273C1381.44 9.30273 1382.3 9.65592 1382.94 10.3623C1383.58 11.0641 1383.9 12.012 1383.9 13.2061ZM1378.4 13.2061C1378.4 14.9515 1379.04 15.8242 1380.33 15.8242C1381.61 15.8242 1382.25 14.9515 1382.25 13.2061C1382.25 11.4788 1381.6 10.6152 1380.32 10.6152C1379.64 10.6152 1379.15 10.8385 1378.85 11.2852C1378.55 11.7318 1378.4 12.3721 1378.4 13.2061ZM1391.08 17L1390.86 16.0088H1390.78C1390.55 16.3597 1390.23 16.6354 1389.82 16.8359C1389.41 17.0365 1388.94 17.1367 1388.41 17.1367C1387.5 17.1367 1386.81 16.9089 1386.36 16.4531C1385.91 15.9974 1385.68 15.307 1385.68 14.3818V9.43945H1387.3V14.1016C1387.3 14.6803 1387.42 15.1156 1387.66 15.4072C1387.9 15.6943 1388.27 15.8379 1388.77 15.8379C1389.45 15.8379 1389.94 15.6374 1390.26 15.2363C1390.58 14.8307 1390.74 14.154 1390.74 13.2061V9.43945H1392.35V17H1391.08ZM1397.46 15.8379C1397.85 15.8379 1398.24 15.7764 1398.63 15.6533V16.8633C1398.45 16.9408 1398.22 17.0046 1397.94 17.0547C1397.66 17.1094 1397.37 17.1367 1397.07 17.1367C1395.55 17.1367 1394.79 16.3346 1394.79 14.7305V10.6562H1393.76V9.94531L1394.86 9.35742L1395.41 7.75781H1396.4V9.43945H1398.56V10.6562H1396.4V14.7031C1396.4 15.0905 1396.5 15.3776 1396.69 15.5645C1396.89 15.7467 1397.14 15.8379 1397.46 15.8379Z" fill="#212121"/>
<path d="M1455.32 10.0273C1455.32 11.071 1454.98 11.8708 1454.29 12.4268C1453.61 12.9827 1452.64 13.2607 1451.38 13.2607H1450.34V17H1448.7V7.00586H1451.58C1452.83 7.00586 1453.76 7.26107 1454.38 7.77148C1455.01 8.2819 1455.32 9.03385 1455.32 10.0273ZM1450.34 11.8867H1451.2C1452.04 11.8867 1452.66 11.7409 1453.05 11.4492C1453.44 11.1576 1453.64 10.7018 1453.64 10.082C1453.64 9.50781 1453.46 9.07943 1453.11 8.79688C1452.76 8.51432 1452.21 8.37305 1451.47 8.37305H1450.34V11.8867ZM1460.98 9.30273C1461.3 9.30273 1461.57 9.32552 1461.78 9.37109L1461.62 10.8682C1461.39 10.8135 1461.16 10.7861 1460.91 10.7861C1460.27 10.7861 1459.75 10.9958 1459.35 11.415C1458.95 11.8343 1458.75 12.3789 1458.75 13.0488V17H1457.14V9.43945H1458.4L1458.61 10.7725H1458.7C1458.95 10.3213 1459.27 9.96354 1459.67 9.69922C1460.08 9.4349 1460.51 9.30273 1460.98 9.30273ZM1464.79 17H1463.19V9.43945H1464.79V17ZM1463.09 7.43652C1463.09 7.14941 1463.17 6.92839 1463.32 6.77344C1463.48 6.61849 1463.71 6.54102 1464 6.54102C1464.28 6.54102 1464.5 6.61849 1464.66 6.77344C1464.82 6.92839 1464.9 7.14941 1464.9 7.43652C1464.9 7.70996 1464.82 7.92643 1464.66 8.08594C1464.5 8.24089 1464.28 8.31836 1464 8.31836C1463.71 8.31836 1463.48 8.24089 1463.32 8.08594C1463.17 7.92643 1463.09 7.70996 1463.09 7.43652ZM1468.82 17L1465.95 9.43945H1467.64L1469.18 13.835C1469.45 14.5732 1469.61 15.1702 1469.66 15.626H1469.72C1469.76 15.2979 1469.92 14.7008 1470.19 13.835L1471.73 9.43945H1473.44L1470.56 17H1468.82ZM1479.32 17L1479 15.9473H1478.94C1478.58 16.4076 1478.21 16.722 1477.84 16.8906C1477.47 17.0547 1477 17.1367 1476.42 17.1367C1475.68 17.1367 1475.1 16.9362 1474.68 16.5352C1474.26 16.1341 1474.06 15.5667 1474.06 14.833C1474.06 14.0537 1474.35 13.4658 1474.92 13.0693C1475.5 12.6729 1476.39 12.4564 1477.57 12.4199L1478.88 12.3789V11.9756C1478.88 11.4925 1478.76 11.1325 1478.53 10.8955C1478.31 10.654 1477.96 10.5332 1477.49 10.5332C1477.1 10.5332 1476.73 10.5902 1476.37 10.7041C1476.02 10.818 1475.68 10.9525 1475.35 11.1074L1474.83 9.95898C1475.24 9.74479 1475.69 9.58301 1476.18 9.47363C1476.66 9.3597 1477.12 9.30273 1477.56 9.30273C1478.52 9.30273 1479.24 9.51237 1479.73 9.93164C1480.22 10.3509 1480.47 11.0094 1480.47 11.9072V17H1479.32ZM1476.93 15.9062C1477.51 15.9062 1477.98 15.7445 1478.33 15.4209C1478.68 15.0928 1478.86 14.6348 1478.86 14.0469V13.3906L1477.89 13.4316C1477.14 13.459 1476.58 13.5866 1476.24 13.8145C1475.9 14.0378 1475.72 14.3818 1475.72 14.8467C1475.72 15.1839 1475.82 15.446 1476.03 15.6328C1476.23 15.8151 1476.53 15.9062 1476.93 15.9062ZM1485.76 17.1367C1484.62 17.1367 1483.75 16.804 1483.15 16.1387C1482.56 15.4688 1482.26 14.5094 1482.26 13.2607C1482.26 11.9893 1482.57 11.0117 1483.19 10.3281C1483.81 9.64453 1484.71 9.30273 1485.89 9.30273C1486.69 9.30273 1487.4 9.45085 1488.04 9.74707L1487.56 11.0391C1486.88 10.7747 1486.32 10.6426 1485.88 10.6426C1484.57 10.6426 1483.91 11.5107 1483.91 13.2471C1483.91 14.0947 1484.08 14.7327 1484.4 15.1611C1484.73 15.585 1485.21 15.7969 1485.83 15.7969C1486.55 15.7969 1487.23 15.6191 1487.87 15.2637V16.665C1487.58 16.8337 1487.27 16.9544 1486.94 17.0273C1486.62 17.1003 1486.22 17.1367 1485.76 17.1367ZM1488.49 9.43945H1490.24L1491.78 13.7256C1492.01 14.3363 1492.17 14.9105 1492.25 15.4482H1492.3C1492.34 15.1976 1492.42 14.8945 1492.53 14.5391C1492.64 14.179 1493.22 12.4792 1494.26 9.43945H1496L1492.77 18.0049C1492.18 19.5771 1491.2 20.3633 1489.83 20.3633C1489.47 20.3633 1489.13 20.3245 1488.79 20.2471V18.9756C1489.03 19.0303 1489.31 19.0576 1489.62 19.0576C1490.39 19.0576 1490.93 18.6087 1491.25 17.7109L1491.53 17L1488.49 9.43945Z" fill="#212121"/>
<path d="M1550.18 8.26367C1549.24 8.26367 1548.5 8.59635 1547.97 9.26172C1547.43 9.92708 1547.16 10.8454 1547.16 12.0166C1547.16 13.2425 1547.42 14.1699 1547.93 14.7988C1548.45 15.4277 1549.2 15.7422 1550.18 15.7422C1550.6 15.7422 1551.01 15.7012 1551.41 15.6191C1551.81 15.5326 1552.22 15.4232 1552.65 15.291V16.6924C1551.86 16.9886 1550.98 17.1367 1549.98 17.1367C1548.52 17.1367 1547.4 16.6947 1546.61 15.8105C1545.83 14.9219 1545.44 13.6527 1545.44 12.0029C1545.44 10.9639 1545.63 10.0547 1546 9.27539C1546.39 8.49609 1546.94 7.89909 1547.66 7.48438C1548.38 7.06966 1549.22 6.8623 1550.19 6.8623C1551.22 6.8623 1552.16 7.0765 1553.02 7.50488L1552.44 8.86523C1552.1 8.70573 1551.74 8.56673 1551.36 8.44824C1550.99 8.3252 1550.6 8.26367 1550.18 8.26367ZM1561.34 13.2061C1561.34 14.4411 1561.02 15.4049 1560.39 16.0977C1559.75 16.7904 1558.87 17.1367 1557.74 17.1367C1557.03 17.1367 1556.41 16.9772 1555.87 16.6582C1555.33 16.3392 1554.91 15.8812 1554.62 15.2842C1554.33 14.6872 1554.18 13.9945 1554.18 13.2061C1554.18 11.9801 1554.49 11.0231 1555.12 10.335C1555.75 9.64681 1556.64 9.30273 1557.78 9.30273C1558.88 9.30273 1559.74 9.65592 1560.38 10.3623C1561.02 11.0641 1561.34 12.012 1561.34 13.2061ZM1555.83 13.2061C1555.83 14.9515 1556.48 15.8242 1557.77 15.8242C1559.04 15.8242 1559.68 14.9515 1559.68 13.2061C1559.68 11.4788 1559.04 10.6152 1557.75 10.6152C1557.08 10.6152 1556.59 10.8385 1556.29 11.2852C1555.98 11.7318 1555.83 12.3721 1555.83 13.2061ZM1569.84 17H1568.23V12.3516C1568.23 11.7682 1568.11 11.333 1567.87 11.0459C1567.64 10.7588 1567.27 10.6152 1566.76 10.6152C1566.08 10.6152 1565.58 10.8158 1565.27 11.2168C1564.95 11.6178 1564.8 12.29 1564.8 13.2334V17H1563.19V9.43945H1564.45L1564.67 10.4307H1564.75C1564.98 10.0706 1565.31 9.79264 1565.73 9.59668C1566.14 9.40072 1566.61 9.30273 1567.12 9.30273C1568.93 9.30273 1569.84 10.2256 1569.84 12.0713V17ZM1574.89 15.8379C1575.28 15.8379 1575.68 15.7764 1576.07 15.6533V16.8633C1575.89 16.9408 1575.66 17.0046 1575.38 17.0547C1575.1 17.1094 1574.81 17.1367 1574.51 17.1367C1572.99 17.1367 1572.23 16.3346 1572.23 14.7305V10.6562H1571.19V9.94531L1572.3 9.35742L1572.85 7.75781H1573.84V9.43945H1575.99V10.6562H1573.84V14.7031C1573.84 15.0905 1573.94 15.3776 1574.13 15.5645C1574.32 15.7467 1574.58 15.8379 1574.89 15.8379ZM1582.32 17L1582 15.9473H1581.94C1581.58 16.4076 1581.21 16.722 1580.84 16.8906C1580.47 17.0547 1580 17.1367 1579.42 17.1367C1578.68 17.1367 1578.09 16.9362 1577.67 16.5352C1577.26 16.1341 1577.05 15.5667 1577.05 14.833C1577.05 14.0537 1577.34 13.4658 1577.92 13.0693C1578.5 12.6729 1579.38 12.4564 1580.57 12.4199L1581.87 12.3789V11.9756C1581.87 11.4925 1581.76 11.1325 1581.53 10.8955C1581.31 10.654 1580.96 10.5332 1580.48 10.5332C1580.1 10.5332 1579.73 10.5902 1579.37 10.7041C1579.01 10.818 1578.67 10.9525 1578.34 11.1074L1577.83 9.95898C1578.24 9.74479 1578.68 9.58301 1579.17 9.47363C1579.66 9.3597 1580.12 9.30273 1580.55 9.30273C1581.51 9.30273 1582.24 9.51237 1582.73 9.93164C1583.22 10.3509 1583.46 11.0094 1583.46 11.9072V17H1582.32ZM1579.92 15.9062C1580.51 15.9062 1580.97 15.7445 1581.33 15.4209C1581.68 15.0928 1581.86 14.6348 1581.86 14.0469V13.3906L1580.89 13.4316C1580.13 13.459 1579.58 13.5866 1579.23 13.8145C1578.89 14.0378 1578.72 14.3818 1578.72 14.8467C1578.72 15.1839 1578.82 15.446 1579.02 15.6328C1579.22 15.8151 1579.52 15.9062 1579.92 15.9062ZM1588.76 17.1367C1587.61 17.1367 1586.74 16.804 1586.14 16.1387C1585.55 15.4688 1585.26 14.5094 1585.26 13.2607C1585.26 11.9893 1585.57 11.0117 1586.19 10.3281C1586.81 9.64453 1587.71 9.30273 1588.89 9.30273C1589.68 9.30273 1590.4 9.45085 1591.04 9.74707L1590.55 11.0391C1589.87 10.7747 1589.31 10.6426 1588.87 10.6426C1587.56 10.6426 1586.91 11.5107 1586.91 13.2471C1586.91 14.0947 1587.07 14.7327 1587.4 15.1611C1587.72 15.585 1588.2 15.7969 1588.83 15.7969C1589.55 15.7969 1590.22 15.6191 1590.86 15.2637V16.665C1590.57 16.8337 1590.27 16.9544 1589.94 17.0273C1589.61 17.1003 1589.22 17.1367 1588.76 17.1367ZM1595.46 15.8379C1595.85 15.8379 1596.24 15.7764 1596.63 15.6533V16.8633C1596.45 16.9408 1596.22 17.0046 1595.94 17.0547C1595.66 17.1094 1595.37 17.1367 1595.07 17.1367C1593.55 17.1367 1592.79 16.3346 1592.79 14.7305V10.6562H1591.76V9.94531L1592.86 9.35742L1593.41 7.75781H1594.4V9.43945H1596.56V10.6562H1594.4V14.7031C1594.4 15.0905 1594.5 15.3776 1594.69 15.5645C1594.89 15.7467 1595.14 15.8379 1595.46 15.8379Z" fill="#212121"/>
</svg>
