<svg width="1005" height="303" viewBox="0 0 1005 303" fill="none" xmlns="http://www.w3.org/2000/svg">
<path d="M445.279 297V288.434H446.275V296.098H450.054V297H445.279ZM454.08 297.117C453.13 297.117 452.38 296.828 451.83 296.25C451.283 295.672 451.009 294.869 451.009 293.842C451.009 292.807 451.263 291.984 451.771 291.375C452.283 290.766 452.968 290.461 453.828 290.461C454.632 290.461 455.269 290.727 455.738 291.258C456.207 291.785 456.441 292.482 456.441 293.35V293.965H452.017C452.037 294.719 452.226 295.291 452.585 295.682C452.949 296.072 453.458 296.268 454.115 296.268C454.806 296.268 455.49 296.123 456.166 295.834V296.701C455.822 296.85 455.496 296.955 455.187 297.018C454.882 297.084 454.513 297.117 454.08 297.117ZM453.816 291.275C453.3 291.275 452.888 291.443 452.58 291.779C452.275 292.115 452.095 292.58 452.041 293.174H455.398C455.398 292.561 455.261 292.092 454.988 291.768C454.714 291.439 454.324 291.275 453.816 291.275ZM463.361 290.578V291.193L462.171 291.334C462.281 291.471 462.378 291.65 462.464 291.873C462.55 292.092 462.593 292.34 462.593 292.617C462.593 293.246 462.378 293.748 461.949 294.123C461.519 294.498 460.929 294.686 460.179 294.686C459.988 294.686 459.808 294.67 459.64 294.639C459.226 294.857 459.019 295.133 459.019 295.465C459.019 295.641 459.091 295.771 459.236 295.857C459.38 295.939 459.628 295.98 459.98 295.98H461.117C461.812 295.98 462.345 296.127 462.716 296.42C463.091 296.713 463.279 297.139 463.279 297.697C463.279 298.408 462.994 298.949 462.423 299.32C461.853 299.695 461.021 299.883 459.927 299.883C459.087 299.883 458.439 299.727 457.982 299.414C457.529 299.102 457.302 298.66 457.302 298.09C457.302 297.699 457.427 297.361 457.677 297.076C457.927 296.791 458.279 296.598 458.732 296.496C458.568 296.422 458.429 296.307 458.316 296.15C458.207 295.994 458.152 295.812 458.152 295.605C458.152 295.371 458.214 295.166 458.339 294.99C458.464 294.814 458.662 294.645 458.931 294.48C458.599 294.344 458.328 294.111 458.117 293.783C457.91 293.455 457.806 293.08 457.806 292.658C457.806 291.955 458.017 291.414 458.439 291.035C458.861 290.652 459.458 290.461 460.232 290.461C460.568 290.461 460.871 290.5 461.14 290.578H463.361ZM458.24 298.078C458.24 298.426 458.386 298.689 458.679 298.869C458.972 299.049 459.392 299.139 459.939 299.139C460.755 299.139 461.359 299.016 461.75 298.77C462.144 298.527 462.341 298.197 462.341 297.779C462.341 297.432 462.234 297.189 462.019 297.053C461.804 296.92 461.4 296.854 460.806 296.854H459.64C459.199 296.854 458.855 296.959 458.609 297.17C458.363 297.381 458.24 297.684 458.24 298.078ZM458.767 292.635C458.767 293.084 458.894 293.424 459.148 293.654C459.402 293.885 459.755 294 460.208 294C461.158 294 461.632 293.539 461.632 292.617C461.632 291.652 461.152 291.17 460.191 291.17C459.734 291.17 459.382 291.293 459.136 291.539C458.89 291.785 458.767 292.15 458.767 292.635ZM467.392 297.117C466.443 297.117 465.693 296.828 465.142 296.25C464.595 295.672 464.322 294.869 464.322 293.842C464.322 292.807 464.576 291.984 465.083 291.375C465.595 290.766 466.281 290.461 467.14 290.461C467.945 290.461 468.582 290.727 469.05 291.258C469.519 291.785 469.753 292.482 469.753 293.35V293.965H465.33C465.349 294.719 465.539 295.291 465.898 295.682C466.261 296.072 466.771 296.268 467.427 296.268C468.119 296.268 468.802 296.123 469.478 295.834V296.701C469.134 296.85 468.808 296.955 468.5 297.018C468.195 297.084 467.826 297.117 467.392 297.117ZM467.128 291.275C466.613 291.275 466.201 291.443 465.892 291.779C465.587 292.115 465.408 292.58 465.353 293.174H468.71C468.71 292.561 468.574 292.092 468.3 291.768C468.027 291.439 467.636 291.275 467.128 291.275ZM475.812 297V292.846C475.812 292.322 475.693 291.932 475.455 291.674C475.216 291.416 474.843 291.287 474.335 291.287C473.664 291.287 473.171 291.469 472.859 291.832C472.546 292.195 472.39 292.795 472.39 293.631V297H471.417V290.578H472.208L472.367 291.457H472.414C472.613 291.141 472.892 290.896 473.251 290.725C473.611 290.549 474.011 290.461 474.453 290.461C475.226 290.461 475.808 290.648 476.199 291.023C476.589 291.395 476.785 291.99 476.785 292.811V297H475.812ZM483.16 296.139H483.107C482.658 296.791 481.986 297.117 481.091 297.117C480.251 297.117 479.597 296.83 479.128 296.256C478.664 295.682 478.431 294.865 478.431 293.807C478.431 292.748 478.666 291.926 479.134 291.34C479.603 290.754 480.255 290.461 481.091 290.461C481.962 290.461 482.63 290.777 483.095 291.41H483.171L483.13 290.947L483.107 290.496V287.883H484.08V297H483.289L483.16 296.139ZM481.214 296.303C481.878 296.303 482.359 296.123 482.656 295.764C482.957 295.4 483.107 294.816 483.107 294.012V293.807C483.107 292.896 482.955 292.248 482.65 291.861C482.349 291.471 481.867 291.275 481.203 291.275C480.632 291.275 480.195 291.498 479.89 291.943C479.589 292.385 479.439 293.01 479.439 293.818C479.439 294.639 479.589 295.258 479.89 295.676C480.191 296.094 480.632 296.303 481.214 296.303Z" fill="#3F3B3B"/>
<path fill-rule="evenodd" clip-rule="evenodd" d="M431.551 296.947C434.064 296.947 436.101 294.944 436.101 292.473C436.101 290.003 434.064 288 431.551 288C429.037 288 427 290.003 427 292.473C427 294.944 429.037 296.947 431.551 296.947Z" fill="#FFC107"/>
<path d="M529.279 297V288.434H530.275V296.098H534.054V297H529.279ZM538.08 297.117C537.13 297.117 536.38 296.828 535.83 296.25C535.283 295.672 535.009 294.869 535.009 293.842C535.009 292.807 535.263 291.984 535.771 291.375C536.283 290.766 536.968 290.461 537.828 290.461C538.632 290.461 539.269 290.727 539.738 291.258C540.207 291.785 540.441 292.482 540.441 293.35V293.965H536.017C536.037 294.719 536.226 295.291 536.585 295.682C536.949 296.072 537.458 296.268 538.115 296.268C538.806 296.268 539.49 296.123 540.166 295.834V296.701C539.822 296.85 539.496 296.955 539.187 297.018C538.882 297.084 538.513 297.117 538.08 297.117ZM537.816 291.275C537.3 291.275 536.888 291.443 536.58 291.779C536.275 292.115 536.095 292.58 536.041 293.174H539.398C539.398 292.561 539.261 292.092 538.988 291.768C538.714 291.439 538.324 291.275 537.816 291.275ZM547.361 290.578V291.193L546.171 291.334C546.281 291.471 546.378 291.65 546.464 291.873C546.55 292.092 546.593 292.34 546.593 292.617C546.593 293.246 546.378 293.748 545.949 294.123C545.519 294.498 544.929 294.686 544.179 294.686C543.988 294.686 543.808 294.67 543.64 294.639C543.226 294.857 543.019 295.133 543.019 295.465C543.019 295.641 543.091 295.771 543.236 295.857C543.38 295.939 543.628 295.98 543.98 295.98H545.117C545.812 295.98 546.345 296.127 546.716 296.42C547.091 296.713 547.279 297.139 547.279 297.697C547.279 298.408 546.994 298.949 546.423 299.32C545.853 299.695 545.021 299.883 543.927 299.883C543.087 299.883 542.439 299.727 541.982 299.414C541.529 299.102 541.302 298.66 541.302 298.09C541.302 297.699 541.427 297.361 541.677 297.076C541.927 296.791 542.279 296.598 542.732 296.496C542.568 296.422 542.429 296.307 542.316 296.15C542.207 295.994 542.152 295.812 542.152 295.605C542.152 295.371 542.214 295.166 542.339 294.99C542.464 294.814 542.662 294.645 542.931 294.48C542.599 294.344 542.328 294.111 542.117 293.783C541.91 293.455 541.806 293.08 541.806 292.658C541.806 291.955 542.017 291.414 542.439 291.035C542.861 290.652 543.458 290.461 544.232 290.461C544.568 290.461 544.871 290.5 545.14 290.578H547.361ZM542.24 298.078C542.24 298.426 542.386 298.689 542.679 298.869C542.972 299.049 543.392 299.139 543.939 299.139C544.755 299.139 545.359 299.016 545.75 298.77C546.144 298.527 546.341 298.197 546.341 297.779C546.341 297.432 546.234 297.189 546.019 297.053C545.804 296.92 545.4 296.854 544.806 296.854H543.64C543.199 296.854 542.855 296.959 542.609 297.17C542.363 297.381 542.24 297.684 542.24 298.078ZM542.767 292.635C542.767 293.084 542.894 293.424 543.148 293.654C543.402 293.885 543.755 294 544.208 294C545.158 294 545.632 293.539 545.632 292.617C545.632 291.652 545.152 291.17 544.191 291.17C543.734 291.17 543.382 291.293 543.136 291.539C542.89 291.785 542.767 292.15 542.767 292.635ZM551.392 297.117C550.443 297.117 549.693 296.828 549.142 296.25C548.595 295.672 548.322 294.869 548.322 293.842C548.322 292.807 548.576 291.984 549.083 291.375C549.595 290.766 550.281 290.461 551.14 290.461C551.945 290.461 552.582 290.727 553.05 291.258C553.519 291.785 553.753 292.482 553.753 293.35V293.965H549.33C549.349 294.719 549.539 295.291 549.898 295.682C550.261 296.072 550.771 296.268 551.427 296.268C552.119 296.268 552.802 296.123 553.478 295.834V296.701C553.134 296.85 552.808 296.955 552.5 297.018C552.195 297.084 551.826 297.117 551.392 297.117ZM551.128 291.275C550.613 291.275 550.201 291.443 549.892 291.779C549.587 292.115 549.408 292.58 549.353 293.174H552.71C552.71 292.561 552.574 292.092 552.3 291.768C552.027 291.439 551.636 291.275 551.128 291.275ZM559.812 297V292.846C559.812 292.322 559.693 291.932 559.455 291.674C559.216 291.416 558.843 291.287 558.335 291.287C557.664 291.287 557.171 291.469 556.859 291.832C556.546 292.195 556.39 292.795 556.39 293.631V297H555.417V290.578H556.208L556.367 291.457H556.414C556.613 291.141 556.892 290.896 557.251 290.725C557.611 290.549 558.011 290.461 558.453 290.461C559.226 290.461 559.808 290.648 560.199 291.023C560.589 291.395 560.785 291.99 560.785 292.811V297H559.812ZM567.16 296.139H567.107C566.658 296.791 565.986 297.117 565.091 297.117C564.251 297.117 563.597 296.83 563.128 296.256C562.664 295.682 562.431 294.865 562.431 293.807C562.431 292.748 562.666 291.926 563.134 291.34C563.603 290.754 564.255 290.461 565.091 290.461C565.962 290.461 566.63 290.777 567.095 291.41H567.171L567.13 290.947L567.107 290.496V287.883H568.08V297H567.289L567.16 296.139ZM565.214 296.303C565.878 296.303 566.359 296.123 566.656 295.764C566.957 295.4 567.107 294.816 567.107 294.012V293.807C567.107 292.896 566.955 292.248 566.65 291.861C566.349 291.471 565.867 291.275 565.203 291.275C564.632 291.275 564.195 291.498 563.89 291.943C563.589 292.385 563.439 293.01 563.439 293.818C563.439 294.639 563.589 295.258 563.89 295.676C564.191 296.094 564.632 296.303 565.214 296.303Z" fill="#3F3B3B"/>
<path fill-rule="evenodd" clip-rule="evenodd" d="M515.551 296.947C518.064 296.947 520.101 294.944 520.101 292.473C520.101 290.003 518.064 288 515.551 288C513.037 288 511 290.003 511 292.473C511 294.944 513.037 296.947 515.551 296.947Z" fill="#5A9CFE"/>
<g clip-path="url(#clip0_923_689)">
<rect x="45" y="15" width="960" height="1" fill="#EAEAEA"/>
<rect x="45" y="56" width="960" height="1" fill="#EAEAEA"/>
<rect x="45" y="97" width="960" height="1" fill="#EAEAEA"/>
<rect x="45" y="138" width="960" height="1" fill="#EAEAEA"/>
<rect x="45" y="179" width="960" height="1" fill="#EAEAEA"/>
<rect x="45" y="220" width="960" height="1" fill="#EAEAEA"/>
<rect x="46" width="220" height="1" transform="rotate(90 46 0)" fill="#EAEAEA"/>
</g>
<g clip-path="url(#clip1_923_689)">
<path d="M49.2988 246.256C48.9316 246.256 48.6426 246.203 48.4316 246.098V245.248C48.709 245.326 48.998 245.365 49.2988 245.365C49.6855 245.365 49.9785 245.248 50.1777 245.014C50.3809 244.779 50.4824 244.441 50.4824 244V235.434H51.4785V243.918C51.4785 244.66 51.291 245.234 50.916 245.641C50.541 246.051 50.002 246.256 49.2988 246.256ZM57.5605 244L57.3672 243.086H57.3203C57 243.488 56.6797 243.762 56.3594 243.906C56.043 244.047 55.6465 244.117 55.1699 244.117C54.5332 244.117 54.0332 243.953 53.6699 243.625C53.3105 243.297 53.1309 242.83 53.1309 242.225C53.1309 240.928 54.168 240.248 56.2422 240.186L57.332 240.15V239.752C57.332 239.248 57.2227 238.877 57.0039 238.639C56.7891 238.396 56.4434 238.275 55.9668 238.275C55.4316 238.275 54.8262 238.439 54.1504 238.768L53.8516 238.023C54.168 237.852 54.5137 237.717 54.8887 237.619C55.2676 237.521 55.6465 237.473 56.0254 237.473C56.791 237.473 57.3574 237.643 57.7246 237.982C58.0957 238.322 58.2812 238.867 58.2812 239.617V244H57.5605ZM55.3633 243.314C55.9688 243.314 56.4434 243.148 56.7871 242.816C57.1348 242.484 57.3086 242.02 57.3086 241.422V240.842L56.3359 240.883C55.5625 240.91 55.0039 241.031 54.6602 241.246C54.3203 241.457 54.1504 241.787 54.1504 242.236C54.1504 242.588 54.2559 242.855 54.4668 243.039C54.6816 243.223 54.9805 243.314 55.3633 243.314ZM64.6855 244V239.846C64.6855 239.322 64.5664 238.932 64.3281 238.674C64.0898 238.416 63.7168 238.287 63.209 238.287C62.5371 238.287 62.0449 238.469 61.7324 238.832C61.4199 239.195 61.2637 239.795 61.2637 240.631V244H60.291V237.578H61.082L61.2402 238.457H61.2871C61.4863 238.141 61.7656 237.896 62.125 237.725C62.4844 237.549 62.8848 237.461 63.3262 237.461C64.0996 237.461 64.6816 237.648 65.0723 238.023C65.4629 238.395 65.6582 238.99 65.6582 239.811V244H64.6855Z" fill="#807E7E"/>
<path d="M135.025 244H134.029V235.434H138.805V236.318H135.025V239.453H138.576V240.338H135.025V244ZM142.795 244.117C141.846 244.117 141.096 243.828 140.545 243.25C139.998 242.672 139.725 241.869 139.725 240.842C139.725 239.807 139.979 238.984 140.486 238.375C140.998 237.766 141.684 237.461 142.543 237.461C143.348 237.461 143.984 237.727 144.453 238.258C144.922 238.785 145.156 239.482 145.156 240.35V240.965H140.732C140.752 241.719 140.941 242.291 141.301 242.682C141.664 243.072 142.174 243.268 142.83 243.268C143.521 243.268 144.205 243.123 144.881 242.834V243.701C144.537 243.85 144.211 243.955 143.902 244.018C143.598 244.084 143.229 244.117 142.795 244.117ZM142.531 238.275C142.016 238.275 141.604 238.443 141.295 238.779C140.99 239.115 140.811 239.58 140.756 240.174H144.113C144.113 239.561 143.977 239.092 143.703 238.768C143.43 238.439 143.039 238.275 142.531 238.275ZM149.809 237.473C150.652 237.473 151.307 237.762 151.771 238.34C152.24 238.914 152.475 239.729 152.475 240.783C152.475 241.838 152.238 242.658 151.766 243.244C151.297 243.826 150.645 244.117 149.809 244.117C149.391 244.117 149.008 244.041 148.66 243.889C148.316 243.732 148.027 243.494 147.793 243.174H147.723L147.518 244H146.82V234.883H147.793V237.098C147.793 237.594 147.777 238.039 147.746 238.434H147.793C148.246 237.793 148.918 237.473 149.809 237.473ZM149.668 238.287C149.004 238.287 148.525 238.479 148.232 238.861C147.939 239.24 147.793 239.881 147.793 240.783C147.793 241.686 147.943 242.332 148.244 242.723C148.545 243.109 149.027 243.303 149.691 243.303C150.289 243.303 150.734 243.086 151.027 242.652C151.32 242.215 151.467 241.588 151.467 240.771C151.467 239.936 151.32 239.312 151.027 238.902C150.734 238.492 150.281 238.287 149.668 238.287Z" fill="#807E7E"/>
<path d="M221.76 244L218.854 236.406H218.807C218.861 237.008 218.889 237.723 218.889 238.551V244H217.969V235.434H219.469L222.182 242.5H222.229L224.965 235.434H226.453V244H225.457V238.48C225.457 237.848 225.484 237.16 225.539 236.418H225.492L222.562 244H221.76ZM232.611 244L232.418 243.086H232.371C232.051 243.488 231.73 243.762 231.41 243.906C231.094 244.047 230.697 244.117 230.221 244.117C229.584 244.117 229.084 243.953 228.721 243.625C228.361 243.297 228.182 242.83 228.182 242.225C228.182 240.928 229.219 240.248 231.293 240.186L232.383 240.15V239.752C232.383 239.248 232.273 238.877 232.055 238.639C231.84 238.396 231.494 238.275 231.018 238.275C230.482 238.275 229.877 238.439 229.201 238.768L228.902 238.023C229.219 237.852 229.564 237.717 229.939 237.619C230.318 237.521 230.697 237.473 231.076 237.473C231.842 237.473 232.408 237.643 232.775 237.982C233.146 238.322 233.332 238.867 233.332 239.617V244H232.611ZM230.414 243.314C231.02 243.314 231.494 243.148 231.838 242.816C232.186 242.484 232.359 242.02 232.359 241.422V240.842L231.387 240.883C230.613 240.91 230.055 241.031 229.711 241.246C229.371 241.457 229.201 241.787 229.201 242.236C229.201 242.588 229.307 242.855 229.518 243.039C229.732 243.223 230.031 243.314 230.414 243.314ZM238.271 237.461C238.557 237.461 238.812 237.484 239.039 237.531L238.904 238.434C238.639 238.375 238.404 238.346 238.201 238.346C237.682 238.346 237.236 238.557 236.865 238.979C236.498 239.4 236.314 239.926 236.314 240.555V244H235.342V237.578H236.145L236.256 238.768H236.303C236.541 238.35 236.828 238.027 237.164 237.801C237.5 237.574 237.869 237.461 238.271 237.461Z" fill="#807E7E"/>
<path d="M309.637 244L308.57 241.275H305.137L304.082 244H303.074L306.461 235.398H307.299L310.668 244H309.637ZM308.26 240.379L307.264 237.725C307.135 237.389 307.002 236.977 306.865 236.488C306.779 236.863 306.656 237.275 306.496 237.725L305.488 240.379H308.26ZM314.688 244.117C314.27 244.117 313.887 244.041 313.539 243.889C313.195 243.732 312.906 243.494 312.672 243.174H312.602C312.648 243.549 312.672 243.904 312.672 244.24V246.883H311.699V237.578H312.49L312.625 238.457H312.672C312.922 238.105 313.213 237.852 313.545 237.695C313.877 237.539 314.258 237.461 314.688 237.461C315.539 237.461 316.195 237.752 316.656 238.334C317.121 238.916 317.354 239.732 317.354 240.783C317.354 241.838 317.117 242.658 316.645 243.244C316.176 243.826 315.523 244.117 314.688 244.117ZM314.547 238.287C313.891 238.287 313.416 238.469 313.123 238.832C312.83 239.195 312.68 239.773 312.672 240.566V240.783C312.672 241.686 312.822 242.332 313.123 242.723C313.424 243.109 313.906 243.303 314.57 243.303C315.125 243.303 315.559 243.078 315.871 242.629C316.188 242.18 316.346 241.561 316.346 240.771C316.346 239.971 316.188 239.357 315.871 238.932C315.559 238.502 315.117 238.287 314.547 238.287ZM321.988 237.461C322.273 237.461 322.529 237.484 322.756 237.531L322.621 238.434C322.355 238.375 322.121 238.346 321.918 238.346C321.398 238.346 320.953 238.557 320.582 238.979C320.215 239.4 320.031 239.926 320.031 240.555V244H319.059V237.578H319.861L319.973 238.768H320.02C320.258 238.35 320.545 238.027 320.881 237.801C321.217 237.574 321.586 237.461 321.988 237.461Z" fill="#807E7E"/>
<path d="M391.186 244L388.279 236.406H388.232C388.287 237.008 388.314 237.723 388.314 238.551V244H387.395V235.434H388.895L391.607 242.5H391.654L394.391 235.434H395.879V244H394.883V238.48C394.883 237.848 394.91 237.16 394.965 236.418H394.918L391.988 244H391.186ZM402.037 244L401.844 243.086H401.797C401.477 243.488 401.156 243.762 400.836 243.906C400.52 244.047 400.123 244.117 399.646 244.117C399.01 244.117 398.51 243.953 398.146 243.625C397.787 243.297 397.607 242.83 397.607 242.225C397.607 240.928 398.645 240.248 400.719 240.186L401.809 240.15V239.752C401.809 239.248 401.699 238.877 401.48 238.639C401.266 238.396 400.92 238.275 400.443 238.275C399.908 238.275 399.303 238.439 398.627 238.768L398.328 238.023C398.645 237.852 398.99 237.717 399.365 237.619C399.744 237.521 400.123 237.473 400.502 237.473C401.268 237.473 401.834 237.643 402.201 237.982C402.572 238.322 402.758 238.867 402.758 239.617V244H402.037ZM399.84 243.314C400.445 243.314 400.92 243.148 401.264 242.816C401.611 242.484 401.785 242.02 401.785 241.422V240.842L400.812 240.883C400.039 240.91 399.48 241.031 399.137 241.246C398.797 241.457 398.627 241.787 398.627 242.236C398.627 242.588 398.732 242.855 398.943 243.039C399.158 243.223 399.457 243.314 399.84 243.314ZM403.748 237.578H404.791L406.197 241.24C406.506 242.076 406.697 242.68 406.771 243.051H406.818C406.869 242.852 406.975 242.512 407.135 242.031C407.299 241.547 407.83 240.062 408.729 237.578H409.771L407.012 244.891C406.738 245.613 406.418 246.125 406.051 246.426C405.688 246.73 405.24 246.883 404.709 246.883C404.412 246.883 404.119 246.85 403.83 246.783V246.004C404.045 246.051 404.285 246.074 404.551 246.074C405.219 246.074 405.695 245.699 405.98 244.949L406.338 244.035L403.748 237.578Z" fill="#807E7E"/>
<path d="M473.953 246.256C473.586 246.256 473.297 246.203 473.086 246.098V245.248C473.363 245.326 473.652 245.365 473.953 245.365C474.34 245.365 474.633 245.248 474.832 245.014C475.035 244.779 475.137 244.441 475.137 244V235.434H476.133V243.918C476.133 244.66 475.945 245.234 475.57 245.641C475.195 246.051 474.656 246.256 473.953 246.256ZM479.18 237.578V241.744C479.18 242.268 479.299 242.658 479.537 242.916C479.775 243.174 480.148 243.303 480.656 243.303C481.328 243.303 481.818 243.119 482.127 242.752C482.439 242.385 482.596 241.785 482.596 240.953V237.578H483.568V244H482.766L482.625 243.139H482.572C482.373 243.455 482.096 243.697 481.74 243.865C481.389 244.033 480.986 244.117 480.533 244.117C479.752 244.117 479.166 243.932 478.775 243.561C478.389 243.189 478.195 242.596 478.195 241.779V237.578H479.18ZM490.031 244V239.846C490.031 239.322 489.912 238.932 489.674 238.674C489.436 238.416 489.062 238.287 488.555 238.287C487.883 238.287 487.391 238.469 487.078 238.832C486.766 239.195 486.609 239.795 486.609 240.631V244H485.637V237.578H486.428L486.586 238.457H486.633C486.832 238.141 487.111 237.896 487.471 237.725C487.83 237.549 488.23 237.461 488.672 237.461C489.445 237.461 490.027 237.648 490.418 238.023C490.809 238.395 491.004 238.99 491.004 239.811V244H490.031Z" fill="#807E7E"/>
<path d="M561.121 246.256C560.754 246.256 560.465 246.203 560.254 246.098V245.248C560.531 245.326 560.82 245.365 561.121 245.365C561.508 245.365 561.801 245.248 562 245.014C562.203 244.779 562.305 244.441 562.305 244V235.434H563.301V243.918C563.301 244.66 563.113 245.234 562.738 245.641C562.363 246.051 561.824 246.256 561.121 246.256ZM566.348 237.578V241.744C566.348 242.268 566.467 242.658 566.705 242.916C566.943 243.174 567.316 243.303 567.824 243.303C568.496 243.303 568.986 243.119 569.295 242.752C569.607 242.385 569.764 241.785 569.764 240.953V237.578H570.736V244H569.934L569.793 243.139H569.74C569.541 243.455 569.264 243.697 568.908 243.865C568.557 244.033 568.154 244.117 567.701 244.117C566.92 244.117 566.334 243.932 565.943 243.561C565.557 243.189 565.363 242.596 565.363 241.779V237.578H566.348ZM573.777 244H572.805V234.883H573.777V244Z" fill="#807E7E"/>
<path d="M648.793 244L647.727 241.275H644.293L643.238 244H642.23L645.617 235.398H646.455L649.824 244H648.793ZM647.416 240.379L646.42 237.725C646.291 237.389 646.158 236.977 646.021 236.488C645.936 236.863 645.812 237.275 645.652 237.725L644.645 240.379H647.416ZM651.77 237.578V241.744C651.77 242.268 651.889 242.658 652.127 242.916C652.365 243.174 652.738 243.303 653.246 243.303C653.918 243.303 654.408 243.119 654.717 242.752C655.029 242.385 655.186 241.785 655.186 240.953V237.578H656.158V244H655.355L655.215 243.139H655.162C654.963 243.455 654.686 243.697 654.33 243.865C653.979 244.033 653.576 244.117 653.123 244.117C652.342 244.117 651.756 243.932 651.365 243.561C650.979 243.189 650.785 242.596 650.785 241.779V237.578H651.77ZM663.482 237.578V238.193L662.293 238.334C662.402 238.471 662.5 238.65 662.586 238.873C662.672 239.092 662.715 239.34 662.715 239.617C662.715 240.246 662.5 240.748 662.07 241.123C661.641 241.498 661.051 241.686 660.301 241.686C660.109 241.686 659.93 241.67 659.762 241.639C659.348 241.857 659.141 242.133 659.141 242.465C659.141 242.641 659.213 242.771 659.357 242.857C659.502 242.939 659.75 242.98 660.102 242.98H661.238C661.934 242.98 662.467 243.127 662.838 243.42C663.213 243.713 663.4 244.139 663.4 244.697C663.4 245.408 663.115 245.949 662.545 246.32C661.975 246.695 661.143 246.883 660.049 246.883C659.209 246.883 658.561 246.727 658.104 246.414C657.65 246.102 657.424 245.66 657.424 245.09C657.424 244.699 657.549 244.361 657.799 244.076C658.049 243.791 658.4 243.598 658.854 243.496C658.689 243.422 658.551 243.307 658.438 243.15C658.328 242.994 658.273 242.812 658.273 242.605C658.273 242.371 658.336 242.166 658.461 241.99C658.586 241.814 658.783 241.645 659.053 241.48C658.721 241.344 658.449 241.111 658.238 240.783C658.031 240.455 657.928 240.08 657.928 239.658C657.928 238.955 658.139 238.414 658.561 238.035C658.982 237.652 659.58 237.461 660.354 237.461C660.689 237.461 660.992 237.5 661.262 237.578H663.482ZM658.361 245.078C658.361 245.426 658.508 245.689 658.801 245.869C659.094 246.049 659.514 246.139 660.061 246.139C660.877 246.139 661.48 246.016 661.871 245.77C662.266 245.527 662.463 245.197 662.463 244.779C662.463 244.432 662.355 244.189 662.141 244.053C661.926 243.92 661.521 243.854 660.928 243.854H659.762C659.32 243.854 658.977 243.959 658.73 244.17C658.484 244.381 658.361 244.684 658.361 245.078ZM658.889 239.635C658.889 240.084 659.016 240.424 659.27 240.654C659.523 240.885 659.877 241 660.33 241C661.279 241 661.754 240.539 661.754 239.617C661.754 238.652 661.273 238.17 660.312 238.17C659.855 238.17 659.504 238.293 659.258 238.539C659.012 238.785 658.889 239.15 658.889 239.635Z" fill="#807E7E"/>
<path d="M733.67 241.721C733.67 242.475 733.396 243.062 732.85 243.484C732.303 243.906 731.561 244.117 730.623 244.117C729.607 244.117 728.826 243.986 728.279 243.725V242.764C728.631 242.912 729.014 243.029 729.428 243.115C729.842 243.201 730.252 243.244 730.658 243.244C731.322 243.244 731.822 243.119 732.158 242.869C732.494 242.615 732.662 242.264 732.662 241.814C732.662 241.518 732.602 241.275 732.48 241.088C732.363 240.896 732.164 240.721 731.883 240.561C731.605 240.4 731.182 240.219 730.611 240.016C729.814 239.73 729.244 239.393 728.9 239.002C728.561 238.611 728.391 238.102 728.391 237.473C728.391 236.812 728.639 236.287 729.135 235.896C729.631 235.506 730.287 235.311 731.104 235.311C731.955 235.311 732.738 235.467 733.453 235.779L733.143 236.646C732.436 236.35 731.748 236.201 731.08 236.201C730.553 236.201 730.141 236.314 729.844 236.541C729.547 236.768 729.398 237.082 729.398 237.484C729.398 237.781 729.453 238.025 729.562 238.217C729.672 238.404 729.855 238.578 730.113 238.738C730.375 238.895 730.773 239.068 731.309 239.26C732.207 239.58 732.824 239.924 733.16 240.291C733.5 240.658 733.67 241.135 733.67 241.721ZM737.988 244.117C737.039 244.117 736.289 243.828 735.738 243.25C735.191 242.672 734.918 241.869 734.918 240.842C734.918 239.807 735.172 238.984 735.68 238.375C736.191 237.766 736.877 237.461 737.736 237.461C738.541 237.461 739.178 237.727 739.646 238.258C740.115 238.785 740.35 239.482 740.35 240.35V240.965H735.926C735.945 241.719 736.135 242.291 736.494 242.682C736.857 243.072 737.367 243.268 738.023 243.268C738.715 243.268 739.398 243.123 740.074 242.834V243.701C739.73 243.85 739.404 243.955 739.096 244.018C738.791 244.084 738.422 244.117 737.988 244.117ZM737.725 238.275C737.209 238.275 736.797 238.443 736.488 238.779C736.184 239.115 736.004 239.58 735.949 240.174H739.307C739.307 239.561 739.17 239.092 738.896 238.768C738.623 238.439 738.232 238.275 737.725 238.275ZM745.002 244.117C744.584 244.117 744.201 244.041 743.854 243.889C743.51 243.732 743.221 243.494 742.986 243.174H742.916C742.963 243.549 742.986 243.904 742.986 244.24V246.883H742.014V237.578H742.805L742.939 238.457H742.986C743.236 238.105 743.527 237.852 743.859 237.695C744.191 237.539 744.572 237.461 745.002 237.461C745.854 237.461 746.51 237.752 746.971 238.334C747.436 238.916 747.668 239.732 747.668 240.783C747.668 241.838 747.432 242.658 746.959 243.244C746.49 243.826 745.838 244.117 745.002 244.117ZM744.861 238.287C744.205 238.287 743.73 238.469 743.438 238.832C743.145 239.195 742.994 239.773 742.986 240.566V240.783C742.986 241.686 743.137 242.332 743.438 242.723C743.738 243.109 744.221 243.303 744.885 243.303C745.439 243.303 745.873 243.078 746.186 242.629C746.502 242.18 746.66 241.561 746.66 240.771C746.66 239.971 746.502 239.357 746.186 238.932C745.873 238.502 745.432 238.287 744.861 238.287Z" fill="#807E7E"/>
<path d="M821.957 239.705C821.957 241.076 821.609 242.154 820.914 242.939C820.223 243.725 819.26 244.117 818.025 244.117C816.764 244.117 815.789 243.732 815.102 242.963C814.418 242.189 814.076 241.1 814.076 239.693C814.076 238.299 814.42 237.219 815.107 236.453C815.795 235.684 816.771 235.299 818.037 235.299C819.268 235.299 820.229 235.689 820.92 236.471C821.611 237.252 821.957 238.33 821.957 239.705ZM815.131 239.705C815.131 240.865 815.377 241.746 815.869 242.348C816.365 242.945 817.084 243.244 818.025 243.244C818.975 243.244 819.691 242.945 820.176 242.348C820.66 241.75 820.902 240.869 820.902 239.705C820.902 238.553 820.66 237.68 820.176 237.086C819.695 236.488 818.982 236.189 818.037 236.189C817.088 236.189 816.365 236.49 815.869 237.092C815.377 237.689 815.131 238.561 815.131 239.705ZM826.293 244.117C825.363 244.117 824.643 243.832 824.131 243.262C823.623 242.688 823.369 241.877 823.369 240.83C823.369 239.756 823.627 238.926 824.143 238.34C824.662 237.754 825.4 237.461 826.357 237.461C826.666 237.461 826.975 237.494 827.283 237.561C827.592 237.627 827.834 237.705 828.01 237.795L827.711 238.621C827.496 238.535 827.262 238.465 827.008 238.41C826.754 238.352 826.529 238.322 826.334 238.322C825.029 238.322 824.377 239.154 824.377 240.818C824.377 241.607 824.535 242.213 824.852 242.635C825.172 243.057 825.645 243.268 826.27 243.268C826.805 243.268 827.354 243.152 827.916 242.922V243.783C827.486 244.006 826.945 244.117 826.293 244.117ZM831.52 243.314C831.691 243.314 831.857 243.303 832.018 243.279C832.178 243.252 832.305 243.225 832.398 243.197V243.941C832.293 243.992 832.137 244.033 831.93 244.064C831.727 244.1 831.543 244.117 831.379 244.117C830.137 244.117 829.516 243.463 829.516 242.154V238.334H828.596V237.865L829.516 237.461L829.926 236.09H830.488V237.578H832.352V238.334H830.488V242.113C830.488 242.5 830.58 242.797 830.764 243.004C830.947 243.211 831.199 243.314 831.52 243.314Z" fill="#807E7E"/>
<path d="M904.713 244H903.576L898.895 236.811H898.848C898.91 237.654 898.941 238.428 898.941 239.131V244H898.021V235.434H899.146L903.816 242.594H903.863C903.855 242.488 903.838 242.15 903.811 241.58C903.783 241.006 903.773 240.596 903.781 240.35V235.434H904.713V244ZM912.465 240.783C912.465 241.83 912.201 242.648 911.674 243.238C911.146 243.824 910.418 244.117 909.488 244.117C908.914 244.117 908.404 243.982 907.959 243.713C907.514 243.443 907.17 243.057 906.928 242.553C906.686 242.049 906.564 241.459 906.564 240.783C906.564 239.736 906.826 238.922 907.35 238.34C907.873 237.754 908.6 237.461 909.529 237.461C910.428 237.461 911.141 237.76 911.668 238.357C912.199 238.955 912.465 239.764 912.465 240.783ZM907.572 240.783C907.572 241.604 907.736 242.229 908.064 242.658C908.393 243.088 908.875 243.303 909.512 243.303C910.148 243.303 910.631 243.09 910.959 242.664C911.291 242.234 911.457 241.607 911.457 240.783C911.457 239.967 911.291 239.348 910.959 238.926C910.631 238.5 910.145 238.287 909.5 238.287C908.863 238.287 908.383 238.496 908.059 238.914C907.734 239.332 907.572 239.955 907.572 240.783ZM915.582 244L913.145 237.578H914.188L915.57 241.387C915.883 242.277 916.066 242.855 916.121 243.121H916.168C916.211 242.914 916.346 242.486 916.572 241.838C916.803 241.186 917.316 239.766 918.113 237.578H919.156L916.719 244H915.582Z" fill="#807E7E"/>
<path d="M990.41 239.635C990.41 241.049 990.025 242.131 989.256 242.881C988.49 243.627 987.387 244 985.945 244H983.572V235.434H986.197C987.529 235.434 988.564 235.803 989.303 236.541C990.041 237.279 990.41 238.311 990.41 239.635ZM989.355 239.67C989.355 238.553 989.074 237.711 988.512 237.145C987.953 236.578 987.121 236.295 986.016 236.295H984.568V243.139H985.781C986.969 243.139 987.861 242.848 988.459 242.266C989.057 241.68 989.355 240.814 989.355 239.67ZM994.893 244.117C993.943 244.117 993.193 243.828 992.643 243.25C992.096 242.672 991.822 241.869 991.822 240.842C991.822 239.807 992.076 238.984 992.584 238.375C993.096 237.766 993.781 237.461 994.641 237.461C995.445 237.461 996.082 237.727 996.551 238.258C997.02 238.785 997.254 239.482 997.254 240.35V240.965H992.83C992.85 241.719 993.039 242.291 993.398 242.682C993.762 243.072 994.271 243.268 994.928 243.268C995.619 243.268 996.303 243.123 996.979 242.834V243.701C996.635 243.85 996.309 243.955 996 244.018C995.695 244.084 995.326 244.117 994.893 244.117ZM994.629 238.275C994.113 238.275 993.701 238.443 993.393 238.779C993.088 239.115 992.908 239.58 992.854 240.174H996.211C996.211 239.561 996.074 239.092 995.801 238.768C995.527 238.439 995.137 238.275 994.629 238.275ZM1001.48 244.117C1000.55 244.117 999.834 243.832 999.322 243.262C998.814 242.688 998.561 241.877 998.561 240.83C998.561 239.756 998.818 238.926 999.334 238.34C999.854 237.754 1000.59 237.461 1001.55 237.461C1001.86 237.461 1002.17 237.494 1002.47 237.561C1002.78 237.627 1003.03 237.705 1003.2 237.795L1002.9 238.621C1002.69 238.535 1002.45 238.465 1002.2 238.41C1001.95 238.352 1001.72 238.322 1001.53 238.322C1000.22 238.322 999.568 239.154 999.568 240.818C999.568 241.607 999.727 242.213 1000.04 242.635C1000.36 243.057 1000.84 243.268 1001.46 243.268C1002 243.268 1002.54 243.152 1003.11 242.922V243.783C1002.68 244.006 1002.14 244.117 1001.48 244.117Z" fill="#807E7E"/>
</g>
<g clip-path="url(#clip2_923_689)">
<path d="M26.3965 220.705C26.3965 222.186 26.1621 223.291 25.6934 224.021C25.2285 224.752 24.5156 225.117 23.5547 225.117C22.6328 225.117 21.9316 224.744 21.4512 223.998C20.9707 223.248 20.7305 222.15 20.7305 220.705C20.7305 219.213 20.9629 218.105 21.4277 217.383C21.8926 216.66 22.6016 216.299 23.5547 216.299C24.4844 216.299 25.1895 216.676 25.6699 217.43C26.1543 218.184 26.3965 219.275 26.3965 220.705ZM21.7148 220.705C21.7148 221.951 21.8613 222.859 22.1543 223.43C22.4473 223.996 22.9141 224.279 23.5547 224.279C24.2031 224.279 24.6719 223.992 24.9609 223.418C25.2539 222.84 25.4004 221.936 25.4004 220.705C25.4004 219.475 25.2539 218.574 24.9609 218.004C24.6719 217.43 24.2031 217.143 23.5547 217.143C22.9141 217.143 22.4473 217.426 22.1543 217.992C21.8613 218.555 21.7148 219.459 21.7148 220.705Z" fill="#807E7E"/>
<path d="M9.66211 178.768C10.5645 178.768 11.2734 178.992 11.7891 179.441C12.3086 179.887 12.5684 180.498 12.5684 181.275C12.5684 182.162 12.2852 182.857 11.7188 183.361C11.1562 183.865 10.3789 184.117 9.38672 184.117C8.42188 184.117 7.68555 183.963 7.17773 183.654V182.717C7.45117 182.893 7.79102 183.031 8.19727 183.133C8.60352 183.23 9.00391 183.279 9.39844 183.279C10.0859 183.279 10.6191 183.117 10.998 182.793C11.3809 182.469 11.5723 182 11.5723 181.387C11.5723 180.191 10.8398 179.594 9.375 179.594C9.00391 179.594 8.50781 179.65 7.88672 179.764L7.38281 179.441L7.70508 175.434H11.9648V176.33H8.53711L8.32031 178.902C8.76953 178.812 9.2168 178.768 9.66211 178.768ZM19.5293 179.705C19.5293 181.186 19.2949 182.291 18.8262 183.021C18.3613 183.752 17.6484 184.117 16.6875 184.117C15.7656 184.117 15.0645 183.744 14.584 182.998C14.1035 182.248 13.8633 181.15 13.8633 179.705C13.8633 178.213 14.0957 177.105 14.5605 176.383C15.0254 175.66 15.7344 175.299 16.6875 175.299C17.6172 175.299 18.3223 175.676 18.8027 176.43C19.2871 177.184 19.5293 178.275 19.5293 179.705ZM14.8477 179.705C14.8477 180.951 14.9941 181.859 15.2871 182.43C15.5801 182.996 16.0469 183.279 16.6875 183.279C17.3359 183.279 17.8047 182.992 18.0938 182.418C18.3867 181.84 18.5332 180.936 18.5332 179.705C18.5332 178.475 18.3867 177.574 18.0938 177.004C17.8047 176.43 17.3359 176.143 16.6875 176.143C16.0469 176.143 15.5801 176.426 15.2871 176.992C14.9941 177.555 14.8477 178.459 14.8477 179.705ZM26.3965 179.705C26.3965 181.186 26.1621 182.291 25.6934 183.021C25.2285 183.752 24.5156 184.117 23.5547 184.117C22.6328 184.117 21.9316 183.744 21.4512 182.998C20.9707 182.248 20.7305 181.15 20.7305 179.705C20.7305 178.213 20.9629 177.105 21.4277 176.383C21.8926 175.66 22.6016 175.299 23.5547 175.299C24.4844 175.299 25.1895 175.676 25.6699 176.43C26.1543 177.184 26.3965 178.275 26.3965 179.705ZM21.7148 179.705C21.7148 180.951 21.8613 181.859 22.1543 182.43C22.4473 182.996 22.9141 183.279 23.5547 183.279C24.2031 183.279 24.6719 182.992 24.9609 182.418C25.2539 181.84 25.4004 180.936 25.4004 179.705C25.4004 178.475 25.2539 177.574 24.9609 177.004C24.6719 176.43 24.2031 176.143 23.5547 176.143C22.9141 176.143 22.4473 176.426 22.1543 176.992C21.8613 177.555 21.7148 178.459 21.7148 179.705Z" fill="#807E7E"/>
<path d="M3.7793 143H2.83008V136.895C2.83008 136.387 2.8457 135.906 2.87695 135.453C2.79492 135.535 2.70312 135.621 2.60156 135.711C2.5 135.801 2.03516 136.182 1.20703 136.854L0.691406 136.186L2.95898 134.434H3.7793V143ZM8.50781 141.605L8.5957 141.74C8.49414 142.131 8.34766 142.584 8.15625 143.1C7.96484 143.619 7.76562 144.102 7.55859 144.547H6.82617C6.93164 144.141 7.04688 143.639 7.17188 143.041C7.30078 142.443 7.39062 141.965 7.44141 141.605H8.50781ZM15.6621 138.705C15.6621 140.186 15.4277 141.291 14.959 142.021C14.4941 142.752 13.7812 143.117 12.8203 143.117C11.8984 143.117 11.1973 142.744 10.7168 141.998C10.2363 141.248 9.99609 140.15 9.99609 138.705C9.99609 137.213 10.2285 136.105 10.6934 135.383C11.1582 134.66 11.8672 134.299 12.8203 134.299C13.75 134.299 14.4551 134.676 14.9355 135.43C15.4199 136.184 15.6621 137.275 15.6621 138.705ZM10.9805 138.705C10.9805 139.951 11.127 140.859 11.4199 141.43C11.7129 141.996 12.1797 142.279 12.8203 142.279C13.4688 142.279 13.9375 141.992 14.2266 141.418C14.5195 140.84 14.666 139.936 14.666 138.705C14.666 137.475 14.5195 136.574 14.2266 136.004C13.9375 135.43 13.4688 135.143 12.8203 135.143C12.1797 135.143 11.7129 135.426 11.4199 135.992C11.127 136.555 10.9805 137.459 10.9805 138.705ZM22.5293 138.705C22.5293 140.186 22.2949 141.291 21.8262 142.021C21.3613 142.752 20.6484 143.117 19.6875 143.117C18.7656 143.117 18.0645 142.744 17.584 141.998C17.1035 141.248 16.8633 140.15 16.8633 138.705C16.8633 137.213 17.0957 136.105 17.5605 135.383C18.0254 134.66 18.7344 134.299 19.6875 134.299C20.6172 134.299 21.3223 134.676 21.8027 135.43C22.2871 136.184 22.5293 137.275 22.5293 138.705ZM17.8477 138.705C17.8477 139.951 17.9941 140.859 18.2871 141.43C18.5801 141.996 19.0469 142.279 19.6875 142.279C20.3359 142.279 20.8047 141.992 21.0938 141.418C21.3867 140.84 21.5332 139.936 21.5332 138.705C21.5332 137.475 21.3867 136.574 21.0938 136.004C20.8047 135.43 20.3359 135.143 19.6875 135.143C19.0469 135.143 18.5801 135.426 18.2871 135.992C17.9941 136.555 17.8477 137.459 17.8477 138.705ZM29.3965 138.705C29.3965 140.186 29.1621 141.291 28.6934 142.021C28.2285 142.752 27.5156 143.117 26.5547 143.117C25.6328 143.117 24.9316 142.744 24.4512 141.998C23.9707 141.248 23.7305 140.15 23.7305 138.705C23.7305 137.213 23.9629 136.105 24.4277 135.383C24.8926 134.66 25.6016 134.299 26.5547 134.299C27.4844 134.299 28.1895 134.676 28.6699 135.43C29.1543 136.184 29.3965 137.275 29.3965 138.705ZM24.7148 138.705C24.7148 139.951 24.8613 140.859 25.1543 141.43C25.4473 141.996 25.9141 142.279 26.5547 142.279C27.2031 142.279 27.6719 141.992 27.9609 141.418C28.2539 140.84 28.4004 139.936 28.4004 138.705C28.4004 137.475 28.2539 136.574 27.9609 136.004C27.6719 135.43 27.2031 135.143 26.5547 135.143C25.9141 135.143 25.4473 135.426 25.1543 135.992C24.8613 136.555 24.7148 137.459 24.7148 138.705Z" fill="#807E7E"/>
<path d="M3.7793 102H2.83008V95.8945C2.83008 95.3867 2.8457 94.9062 2.87695 94.4531C2.79492 94.5352 2.70312 94.6211 2.60156 94.7109C2.5 94.8008 2.03516 95.1816 1.20703 95.8535L0.691406 95.1855L2.95898 93.4336H3.7793V102ZM8.50781 100.605L8.5957 100.74C8.49414 101.131 8.34766 101.584 8.15625 102.1C7.96484 102.619 7.76562 103.102 7.55859 103.547H6.82617C6.93164 103.141 7.04688 102.639 7.17188 102.041C7.30078 101.443 7.39062 100.965 7.44141 100.605H8.50781ZM12.6621 96.7676C13.5645 96.7676 14.2734 96.9922 14.7891 97.4414C15.3086 97.8867 15.5684 98.498 15.5684 99.2754C15.5684 100.162 15.2852 100.857 14.7188 101.361C14.1562 101.865 13.3789 102.117 12.3867 102.117C11.4219 102.117 10.6855 101.963 10.1777 101.654V100.717C10.4512 100.893 10.791 101.031 11.1973 101.133C11.6035 101.23 12.0039 101.279 12.3984 101.279C13.0859 101.279 13.6191 101.117 13.998 100.793C14.3809 100.469 14.5723 100 14.5723 99.3867C14.5723 98.1914 13.8398 97.5938 12.375 97.5938C12.0039 97.5938 11.5078 97.6504 10.8867 97.7637L10.3828 97.4414L10.7051 93.4336H14.9648V94.3301H11.5371L11.3203 96.9023C11.7695 96.8125 12.2168 96.7676 12.6621 96.7676ZM22.5293 97.7051C22.5293 99.1855 22.2949 100.291 21.8262 101.021C21.3613 101.752 20.6484 102.117 19.6875 102.117C18.7656 102.117 18.0645 101.744 17.584 100.998C17.1035 100.248 16.8633 99.1504 16.8633 97.7051C16.8633 96.2129 17.0957 95.1055 17.5605 94.3828C18.0254 93.6602 18.7344 93.2988 19.6875 93.2988C20.6172 93.2988 21.3223 93.6758 21.8027 94.4297C22.2871 95.1836 22.5293 96.2754 22.5293 97.7051ZM17.8477 97.7051C17.8477 98.9512 17.9941 99.8594 18.2871 100.43C18.5801 100.996 19.0469 101.279 19.6875 101.279C20.3359 101.279 20.8047 100.992 21.0938 100.418C21.3867 99.8398 21.5332 98.9355 21.5332 97.7051C21.5332 96.4746 21.3867 95.5742 21.0938 95.0039C20.8047 94.4297 20.3359 94.1426 19.6875 94.1426C19.0469 94.1426 18.5801 94.4258 18.2871 94.9922C17.9941 95.5547 17.8477 96.459 17.8477 97.7051ZM29.3965 97.7051C29.3965 99.1855 29.1621 100.291 28.6934 101.021C28.2285 101.752 27.5156 102.117 26.5547 102.117C25.6328 102.117 24.9316 101.744 24.4512 100.998C23.9707 100.248 23.7305 99.1504 23.7305 97.7051C23.7305 96.2129 23.9629 95.1055 24.4277 94.3828C24.8926 93.6602 25.6016 93.2988 26.5547 93.2988C27.4844 93.2988 28.1895 93.6758 28.6699 94.4297C29.1543 95.1836 29.3965 96.2754 29.3965 97.7051ZM24.7148 97.7051C24.7148 98.9512 24.8613 99.8594 25.1543 100.43C25.4473 100.996 25.9141 101.279 26.5547 101.279C27.2031 101.279 27.6719 100.992 27.9609 100.418C28.2539 99.8398 28.4004 98.9355 28.4004 97.7051C28.4004 96.4746 28.2539 95.5742 27.9609 95.0039C27.6719 94.4297 27.2031 94.1426 26.5547 94.1426C25.9141 94.1426 25.4473 94.4258 25.1543 94.9922C24.8613 95.5547 24.7148 96.459 24.7148 97.7051Z" fill="#807E7E"/>
<path d="M5.80664 61H0.175781V60.1621L2.43164 57.8945C3.11914 57.1992 3.57227 56.7031 3.79102 56.4062C4.00977 56.1094 4.17383 55.8203 4.2832 55.5391C4.39258 55.2578 4.44727 54.9551 4.44727 54.6309C4.44727 54.1738 4.30859 53.8125 4.03125 53.5469C3.75391 53.2773 3.36914 53.1426 2.87695 53.1426C2.52148 53.1426 2.18359 53.2012 1.86328 53.3184C1.54688 53.4355 1.19336 53.6484 0.802734 53.957L0.287109 53.2949C1.07617 52.6387 1.93555 52.3105 2.86523 52.3105C3.66992 52.3105 4.30078 52.5176 4.75781 52.9316C5.21484 53.3418 5.44336 53.8945 5.44336 54.5898C5.44336 55.1328 5.29102 55.6699 4.98633 56.2012C4.68164 56.7324 4.11133 57.4043 3.27539 58.2168L1.40039 60.0508V60.0977H5.80664V61ZM8.50781 59.6055L8.5957 59.7402C8.49414 60.1309 8.34766 60.584 8.15625 61.0996C7.96484 61.6191 7.76562 62.1016 7.55859 62.5469H6.82617C6.93164 62.1406 7.04688 61.6387 7.17188 61.041C7.30078 60.4434 7.39062 59.9648 7.44141 59.6055H8.50781ZM15.6621 56.7051C15.6621 58.1855 15.4277 59.291 14.959 60.0215C14.4941 60.752 13.7812 61.1172 12.8203 61.1172C11.8984 61.1172 11.1973 60.7441 10.7168 59.998C10.2363 59.248 9.99609 58.1504 9.99609 56.7051C9.99609 55.2129 10.2285 54.1055 10.6934 53.3828C11.1582 52.6602 11.8672 52.2988 12.8203 52.2988C13.75 52.2988 14.4551 52.6758 14.9355 53.4297C15.4199 54.1836 15.6621 55.2754 15.6621 56.7051ZM10.9805 56.7051C10.9805 57.9512 11.127 58.8594 11.4199 59.4297C11.7129 59.9961 12.1797 60.2793 12.8203 60.2793C13.4688 60.2793 13.9375 59.9922 14.2266 59.418C14.5195 58.8398 14.666 57.9355 14.666 56.7051C14.666 55.4746 14.5195 54.5742 14.2266 54.0039C13.9375 53.4297 13.4688 53.1426 12.8203 53.1426C12.1797 53.1426 11.7129 53.4258 11.4199 53.9922C11.127 54.5547 10.9805 55.459 10.9805 56.7051ZM22.5293 56.7051C22.5293 58.1855 22.2949 59.291 21.8262 60.0215C21.3613 60.752 20.6484 61.1172 19.6875 61.1172C18.7656 61.1172 18.0645 60.7441 17.584 59.998C17.1035 59.248 16.8633 58.1504 16.8633 56.7051C16.8633 55.2129 17.0957 54.1055 17.5605 53.3828C18.0254 52.6602 18.7344 52.2988 19.6875 52.2988C20.6172 52.2988 21.3223 52.6758 21.8027 53.4297C22.2871 54.1836 22.5293 55.2754 22.5293 56.7051ZM17.8477 56.7051C17.8477 57.9512 17.9941 58.8594 18.2871 59.4297C18.5801 59.9961 19.0469 60.2793 19.6875 60.2793C20.3359 60.2793 20.8047 59.9922 21.0938 59.418C21.3867 58.8398 21.5332 57.9355 21.5332 56.7051C21.5332 55.4746 21.3867 54.5742 21.0938 54.0039C20.8047 53.4297 20.3359 53.1426 19.6875 53.1426C19.0469 53.1426 18.5801 53.4258 18.2871 53.9922C17.9941 54.5547 17.8477 55.459 17.8477 56.7051ZM29.3965 56.7051C29.3965 58.1855 29.1621 59.291 28.6934 60.0215C28.2285 60.752 27.5156 61.1172 26.5547 61.1172C25.6328 61.1172 24.9316 60.7441 24.4512 59.998C23.9707 59.248 23.7305 58.1504 23.7305 56.7051C23.7305 55.2129 23.9629 54.1055 24.4277 53.3828C24.8926 52.6602 25.6016 52.2988 26.5547 52.2988C27.4844 52.2988 28.1895 52.6758 28.6699 53.4297C29.1543 54.1836 29.3965 55.2754 29.3965 56.7051ZM24.7148 56.7051C24.7148 57.9512 24.8613 58.8594 25.1543 59.4297C25.4473 59.9961 25.9141 60.2793 26.5547 60.2793C27.2031 60.2793 27.6719 59.9922 27.9609 59.418C28.2539 58.8398 28.4004 57.9355 28.4004 56.7051C28.4004 55.4746 28.2539 54.5742 27.9609 54.0039C27.6719 53.4297 27.2031 53.1426 26.5547 53.1426C25.9141 53.1426 25.4473 53.4258 25.1543 53.9922C24.8613 54.5547 24.7148 55.459 24.7148 56.7051Z" fill="#807E7E"/>
<path d="M5.80664 20H0.175781V19.1621L2.43164 16.8945C3.11914 16.1992 3.57227 15.7031 3.79102 15.4062C4.00977 15.1094 4.17383 14.8203 4.2832 14.5391C4.39258 14.2578 4.44727 13.9551 4.44727 13.6309C4.44727 13.1738 4.30859 12.8125 4.03125 12.5469C3.75391 12.2773 3.36914 12.1426 2.87695 12.1426C2.52148 12.1426 2.18359 12.2012 1.86328 12.3184C1.54688 12.4355 1.19336 12.6484 0.802734 12.957L0.287109 12.2949C1.07617 11.6387 1.93555 11.3105 2.86523 11.3105C3.66992 11.3105 4.30078 11.5176 4.75781 11.9316C5.21484 12.3418 5.44336 12.8945 5.44336 13.5898C5.44336 14.1328 5.29102 14.6699 4.98633 15.2012C4.68164 15.7324 4.11133 16.4043 3.27539 17.2168L1.40039 19.0508V19.0977H5.80664V20ZM8.50781 18.6055L8.5957 18.7402C8.49414 19.1309 8.34766 19.584 8.15625 20.0996C7.96484 20.6191 7.76562 21.1016 7.55859 21.5469H6.82617C6.93164 21.1406 7.04688 20.6387 7.17188 20.041C7.30078 19.4434 7.39062 18.9648 7.44141 18.6055H8.50781ZM12.6621 14.7676C13.5645 14.7676 14.2734 14.9922 14.7891 15.4414C15.3086 15.8867 15.5684 16.498 15.5684 17.2754C15.5684 18.1621 15.2852 18.8574 14.7188 19.3613C14.1562 19.8652 13.3789 20.1172 12.3867 20.1172C11.4219 20.1172 10.6855 19.9629 10.1777 19.6543V18.7168C10.4512 18.8926 10.791 19.0312 11.1973 19.1328C11.6035 19.2305 12.0039 19.2793 12.3984 19.2793C13.0859 19.2793 13.6191 19.1172 13.998 18.793C14.3809 18.4688 14.5723 18 14.5723 17.3867C14.5723 16.1914 13.8398 15.5938 12.375 15.5938C12.0039 15.5938 11.5078 15.6504 10.8867 15.7637L10.3828 15.4414L10.7051 11.4336H14.9648V12.3301H11.5371L11.3203 14.9023C11.7695 14.8125 12.2168 14.7676 12.6621 14.7676ZM22.5293 15.7051C22.5293 17.1855 22.2949 18.291 21.8262 19.0215C21.3613 19.752 20.6484 20.1172 19.6875 20.1172C18.7656 20.1172 18.0645 19.7441 17.584 18.998C17.1035 18.248 16.8633 17.1504 16.8633 15.7051C16.8633 14.2129 17.0957 13.1055 17.5605 12.3828C18.0254 11.6602 18.7344 11.2988 19.6875 11.2988C20.6172 11.2988 21.3223 11.6758 21.8027 12.4297C22.2871 13.1836 22.5293 14.2754 22.5293 15.7051ZM17.8477 15.7051C17.8477 16.9512 17.9941 17.8594 18.2871 18.4297C18.5801 18.9961 19.0469 19.2793 19.6875 19.2793C20.3359 19.2793 20.8047 18.9922 21.0938 18.418C21.3867 17.8398 21.5332 16.9355 21.5332 15.7051C21.5332 14.4746 21.3867 13.5742 21.0938 13.0039C20.8047 12.4297 20.3359 12.1426 19.6875 12.1426C19.0469 12.1426 18.5801 12.4258 18.2871 12.9922C17.9941 13.5547 17.8477 14.459 17.8477 15.7051ZM29.3965 15.7051C29.3965 17.1855 29.1621 18.291 28.6934 19.0215C28.2285 19.752 27.5156 20.1172 26.5547 20.1172C25.6328 20.1172 24.9316 19.7441 24.4512 18.998C23.9707 18.248 23.7305 17.1504 23.7305 15.7051C23.7305 14.2129 23.9629 13.1055 24.4277 12.3828C24.8926 11.6602 25.6016 11.2988 26.5547 11.2988C27.4844 11.2988 28.1895 11.6758 28.6699 12.4297C29.1543 13.1836 29.3965 14.2754 29.3965 15.7051ZM24.7148 15.7051C24.7148 16.9512 24.8613 17.8594 25.1543 18.4297C25.4473 18.9961 25.9141 19.2793 26.5547 19.2793C27.2031 19.2793 27.6719 18.9922 27.9609 18.418C28.2539 17.8398 28.4004 16.9355 28.4004 15.7051C28.4004 14.4746 28.2539 13.5742 27.9609 13.0039C27.6719 12.4297 27.2031 12.1426 26.5547 12.1426C25.9141 12.1426 25.4473 12.4258 25.1543 12.9922C24.8613 13.5547 24.7148 14.459 24.7148 15.7051Z" fill="#807E7E"/>
</g>
<defs>
<clipPath id="clip0_923_689">
<rect width="960" height="221" fill="white" transform="translate(45)"/>
</clipPath>
<clipPath id="clip1_923_689">
<rect width="959" height="21" fill="white" transform="translate(46 229)"/>
</clipPath>
<clipPath id="clip2_923_689">
<rect width="30" height="226" fill="white" transform="translate(0 5)"/>
</clipPath>
</defs>
</svg>
