<svg width="1003" height="385" viewBox="0 0 1003 385" fill="none" xmlns="http://www.w3.org/2000/svg">
<g clip-path="url(#clip0_878_100275)">
<rect width="1003" height="385" rx="6" fill="white"/>
<g clip-path="url(#clip1_878_100275)">
<rect width="1003" height="65" fill="#D8D8D8" fill-opacity="0.01"/>
<rect x="890" y="16" width="89" height="32" rx="3" fill="#0D6EFD"/>
<path d="M912.591 30.1H910.271V29H916.211V30.1H913.891V36H912.591V30.1ZM918.92 36.07C918.38 36.07 917.894 35.9533 917.46 35.72C917.027 35.4867 916.687 35.1633 916.44 34.75C916.2 34.33 916.08 33.8567 916.08 33.33C916.08 32.8033 916.2 32.3333 916.44 31.92C916.687 31.5067 917.027 31.1833 917.46 30.95C917.894 30.7167 918.38 30.6 918.92 30.6C919.467 30.6 919.957 30.7167 920.39 30.95C920.824 31.1833 921.16 31.5067 921.4 31.92C921.647 32.3333 921.77 32.8033 921.77 33.33C921.77 33.8567 921.647 34.33 921.4 34.75C921.16 35.1633 920.824 35.4867 920.39 35.72C919.957 35.9533 919.467 36.07 918.92 36.07ZM918.92 35C919.38 35 919.76 34.8467 920.06 34.54C920.36 34.2333 920.51 33.83 920.51 33.33C920.51 32.83 920.36 32.4267 920.06 32.12C919.76 31.8133 919.38 31.66 918.92 31.66C918.46 31.66 918.08 31.8133 917.78 32.12C917.487 32.4267 917.34 32.83 917.34 33.33C917.34 33.83 917.487 34.2333 917.78 34.54C918.08 34.8467 918.46 35 918.92 35ZM928.196 28.58V36H926.996V35.31C926.789 35.5633 926.532 35.7533 926.226 35.88C925.926 36.0067 925.592 36.07 925.226 36.07C924.712 36.07 924.249 35.9567 923.836 35.73C923.429 35.5033 923.109 35.1833 922.876 34.77C922.642 34.35 922.526 33.87 922.526 33.33C922.526 32.79 922.642 32.3133 922.876 31.9C923.109 31.4867 923.429 31.1667 923.836 30.94C924.249 30.7133 924.712 30.6 925.226 30.6C925.579 30.6 925.902 30.66 926.196 30.78C926.489 30.9 926.739 31.08 926.946 31.32V28.58H928.196ZM925.376 35C925.676 35 925.946 34.9333 926.186 34.8C926.426 34.66 926.616 34.4633 926.756 34.21C926.896 33.9567 926.966 33.6633 926.966 33.33C926.966 32.9967 926.896 32.7033 926.756 32.45C926.616 32.1967 926.426 32.0033 926.186 31.87C925.946 31.73 925.676 31.66 925.376 31.66C925.076 31.66 924.806 31.73 924.566 31.87C924.326 32.0033 924.136 32.1967 923.996 32.45C923.856 32.7033 923.786 32.9967 923.786 33.33C923.786 33.6633 923.856 33.9567 923.996 34.21C924.136 34.4633 924.326 34.66 924.566 34.8C924.806 34.9333 925.076 35 925.376 35ZM931.871 30.6C932.657 30.6 933.257 30.79 933.671 31.17C934.091 31.5433 934.301 32.11 934.301 32.87V36H933.121V35.35C932.967 35.5833 932.747 35.7633 932.461 35.89C932.181 36.01 931.841 36.07 931.441 36.07C931.041 36.07 930.691 36.0033 930.391 35.87C930.091 35.73 929.857 35.54 929.691 35.3C929.531 35.0533 929.451 34.7767 929.451 34.47C929.451 33.99 929.627 33.6067 929.981 33.32C930.341 33.0267 930.904 32.88 931.671 32.88H933.051V32.8C933.051 32.4267 932.937 32.14 932.711 31.94C932.491 31.74 932.161 31.64 931.721 31.64C931.421 31.64 931.124 31.6867 930.831 31.78C930.544 31.8733 930.301 32.0033 930.101 32.17L929.611 31.26C929.891 31.0467 930.227 30.8833 930.621 30.77C931.014 30.6567 931.431 30.6 931.871 30.6ZM931.701 35.16C932.014 35.16 932.291 35.09 932.531 34.95C932.777 34.8033 932.951 34.5967 933.051 34.33V33.71H931.761C931.041 33.71 930.681 33.9467 930.681 34.42C930.681 34.6467 930.771 34.8267 930.951 34.96C931.131 35.0933 931.381 35.16 931.701 35.16ZM940.807 30.66L938.307 36.43C938.074 37.01 937.791 37.4167 937.457 37.65C937.124 37.89 936.721 38.01 936.247 38.01C935.981 38.01 935.717 37.9667 935.457 37.88C935.197 37.7933 934.984 37.6733 934.817 37.52L935.317 36.6C935.437 36.7133 935.577 36.8033 935.737 36.87C935.904 36.9367 936.071 36.97 936.237 36.97C936.457 36.97 936.637 36.9133 936.777 36.8C936.924 36.6867 937.057 36.4967 937.177 36.23L937.267 36.02L934.937 30.66H936.237L937.917 34.61L939.607 30.66H940.807Z" fill="white"/>
<path fill-rule="evenodd" clip-rule="evenodd" d="M947.485 30.6167C947.283 30.4142 947.283 30.0859 947.485 29.8834C947.669 29.6993 947.958 29.6826 948.161 29.8332L948.219 29.8834L952 33.6647L955.782 29.8834C955.966 29.6993 956.254 29.6826 956.457 29.8332L956.515 29.8834C956.699 30.0675 956.716 30.3556 956.565 30.5586L956.515 30.6167L952.367 34.7649C952.183 34.949 951.895 34.9657 951.692 34.8151L951.634 34.7649L947.485 30.6167Z" fill="white"/>
<path d="M29.4531 39H27.5859V29.1797H24.2266V27.5781H32.8125V29.1797H29.4531V39ZM39.7812 39L39.4141 37.7969H39.3516C38.9349 38.3229 38.5156 38.6823 38.0938 38.875C37.6719 39.0625 37.1302 39.1562 36.4688 39.1562C35.6198 39.1562 34.9557 38.9271 34.4766 38.4688C34.0026 38.0104 33.7656 37.362 33.7656 36.5234C33.7656 35.6328 34.0964 34.9609 34.7578 34.5078C35.4193 34.0547 36.4271 33.8073 37.7812 33.7656L39.2734 33.7188V33.2578C39.2734 32.7057 39.1432 32.2943 38.8828 32.0234C38.6276 31.7474 38.2292 31.6094 37.6875 31.6094C37.2448 31.6094 36.8203 31.6745 36.4141 31.8047C36.0078 31.9349 35.6172 32.0885 35.2422 32.2656L34.6484 30.9531C35.1172 30.7083 35.6302 30.5234 36.1875 30.3984C36.7448 30.2682 37.2708 30.2031 37.7656 30.2031C38.8646 30.2031 39.6927 30.4427 40.25 30.9219C40.8125 31.401 41.0938 32.1536 41.0938 33.1797V39H39.7812ZM37.0469 37.75C37.7135 37.75 38.2474 37.5651 38.6484 37.1953C39.0547 36.8203 39.2578 36.2969 39.2578 35.625V34.875L38.1484 34.9219C37.2839 34.9531 36.6536 35.099 36.2578 35.3594C35.8672 35.6146 35.6719 36.0078 35.6719 36.5391C35.6719 36.9245 35.7865 37.224 36.0156 37.4375C36.2448 37.6458 36.5885 37.75 37.0469 37.75ZM49.4609 36.5391C49.4609 37.3828 49.1536 38.0312 48.5391 38.4844C47.9245 38.9323 47.0443 39.1562 45.8984 39.1562C44.7474 39.1562 43.8229 38.9818 43.125 38.6328V37.0469C44.1406 37.5156 45.0859 37.75 45.9609 37.75C47.0911 37.75 47.6562 37.4089 47.6562 36.7266C47.6562 36.5078 47.5938 36.3255 47.4688 36.1797C47.3438 36.0339 47.138 35.8828 46.8516 35.7266C46.5651 35.5703 46.1667 35.3932 45.6562 35.1953C44.6615 34.8099 43.987 34.4245 43.6328 34.0391C43.2839 33.6536 43.1094 33.1536 43.1094 32.5391C43.1094 31.7995 43.4062 31.2266 44 30.8203C44.599 30.4089 45.4115 30.2031 46.4375 30.2031C47.4531 30.2031 48.4141 30.4089 49.3203 30.8203L48.7266 32.2031C47.7943 31.8177 47.0104 31.625 46.375 31.625C45.4062 31.625 44.9219 31.901 44.9219 32.4531C44.9219 32.724 45.0469 32.9531 45.2969 33.1406C45.5521 33.3281 46.1042 33.5859 46.9531 33.9141C47.6667 34.1901 48.1849 34.4427 48.5078 34.6719C48.8307 34.901 49.0703 35.1667 49.2266 35.4688C49.3828 35.7656 49.4609 36.1224 49.4609 36.5391ZM53.2266 34.4375L54.2656 33.1406L56.875 30.3594H58.9922L55.5156 34.0703L59.2109 39H57.0547L54.2812 35.2109L53.2734 36.0391V39H51.4531V26.8438H53.2734V32.7734L53.1797 34.4375H53.2266ZM66.4141 36.5391C66.4141 37.3828 66.1068 38.0312 65.4922 38.4844C64.8776 38.9323 63.9974 39.1562 62.8516 39.1562C61.7005 39.1562 60.776 38.9818 60.0781 38.6328V37.0469C61.0938 37.5156 62.0391 37.75 62.9141 37.75C64.0443 37.75 64.6094 37.4089 64.6094 36.7266C64.6094 36.5078 64.5469 36.3255 64.4219 36.1797C64.2969 36.0339 64.0911 35.8828 63.8047 35.7266C63.5182 35.5703 63.1198 35.3932 62.6094 35.1953C61.6146 34.8099 60.9401 34.4245 60.5859 34.0391C60.237 33.6536 60.0625 33.1536 60.0625 32.5391C60.0625 31.7995 60.3594 31.2266 60.9531 30.8203C61.5521 30.4089 62.3646 30.2031 63.3906 30.2031C64.4062 30.2031 65.3672 30.4089 66.2734 30.8203L65.6797 32.2031C64.7474 31.8177 63.9635 31.625 63.3281 31.625C62.3594 31.625 61.875 31.901 61.875 32.4531C61.875 32.724 62 32.9531 62.25 33.1406C62.5052 33.3281 63.0573 33.5859 63.9062 33.9141C64.6198 34.1901 65.138 34.4427 65.4609 34.6719C65.7839 34.901 66.0234 35.1667 66.1797 35.4688C66.3359 35.7656 66.4141 36.1224 66.4141 36.5391Z" fill="#212121"/>
<rect x="24" y="64" width="955" height="1" fill="#EAEAEA"/>
</g>
<path d="M31.6562 358L30.4121 354.821H26.4062L25.1758 358H24L27.9512 347.965H28.9287L32.8594 358H31.6562ZM30.0498 353.775L28.8877 350.679C28.7373 350.287 28.5824 349.806 28.4229 349.236C28.3226 349.674 28.179 350.155 27.9922 350.679L26.8164 353.775H30.0498ZM39.1621 356.995H39.1006C38.5765 357.756 37.7926 358.137 36.749 358.137C35.7692 358.137 35.0059 357.802 34.459 357.132C33.9167 356.462 33.6455 355.509 33.6455 354.274C33.6455 353.039 33.9189 352.08 34.4658 351.396C35.0127 350.713 35.7738 350.371 36.749 350.371C37.7653 350.371 38.5446 350.74 39.0869 351.479H39.1758L39.1279 350.938L39.1006 350.412V347.363H40.2354V358H39.3125L39.1621 356.995ZM36.8926 357.187C37.6673 357.187 38.2279 356.977 38.5742 356.558C38.9251 356.134 39.1006 355.452 39.1006 354.514V354.274C39.1006 353.213 38.9229 352.456 38.5674 352.005C38.2165 351.549 37.6536 351.321 36.8789 351.321C36.2135 351.321 35.7031 351.581 35.3477 352.101C34.9967 352.616 34.8213 353.345 34.8213 354.288C34.8213 355.245 34.9967 355.967 35.3477 356.455C35.6986 356.943 36.2135 357.187 36.8926 357.187ZM47.748 356.995H47.6865C47.1624 357.756 46.3786 358.137 45.335 358.137C44.3551 358.137 43.5918 357.802 43.0449 357.132C42.5026 356.462 42.2314 355.509 42.2314 354.274C42.2314 353.039 42.5049 352.08 43.0518 351.396C43.5986 350.713 44.3597 350.371 45.335 350.371C46.3512 350.371 47.1305 350.74 47.6729 351.479H47.7617L47.7139 350.938L47.6865 350.412V347.363H48.8213V358H47.8984L47.748 356.995ZM45.4785 357.187C46.2533 357.187 46.8138 356.977 47.1602 356.558C47.5111 356.134 47.6865 355.452 47.6865 354.514V354.274C47.6865 353.213 47.5088 352.456 47.1533 352.005C46.8024 351.549 46.2396 351.321 45.4648 351.321C44.7995 351.321 44.2891 351.581 43.9336 352.101C43.5827 352.616 43.4072 353.345 43.4072 354.288C43.4072 355.245 43.5827 355.967 43.9336 356.455C44.2845 356.943 44.7995 357.187 45.4785 357.187ZM59.998 358V353.153C59.998 352.543 59.859 352.087 59.5811 351.786C59.3031 351.485 58.8678 351.335 58.2754 351.335C57.4915 351.335 56.9173 351.547 56.5527 351.971C56.1882 352.395 56.0059 353.094 56.0059 354.069V358H54.8711V350.508H55.7939L55.9785 351.533H56.0332C56.2656 351.164 56.5915 350.879 57.0107 350.679C57.43 350.474 57.8971 350.371 58.4121 350.371C59.3145 350.371 59.9935 350.59 60.4492 351.027C60.9049 351.46 61.1328 352.155 61.1328 353.112V358H59.998ZM66.6357 358.137C65.5283 358.137 64.6533 357.799 64.0107 357.125C63.3727 356.451 63.0537 355.514 63.0537 354.315C63.0537 353.108 63.3499 352.148 63.9424 351.438C64.5394 350.727 65.3392 350.371 66.3418 350.371C67.2806 350.371 68.0234 350.681 68.5703 351.301C69.1172 351.916 69.3906 352.729 69.3906 353.741V354.459H64.2295C64.2523 355.339 64.4733 356.006 64.8926 356.462C65.3164 356.918 65.9111 357.146 66.6768 357.146C67.4834 357.146 68.2809 356.977 69.0693 356.64V357.651C68.6683 357.825 68.2878 357.948 67.9277 358.021C67.5723 358.098 67.1416 358.137 66.6357 358.137ZM66.3281 351.321C65.7266 351.321 65.2458 351.517 64.8857 351.909C64.5303 352.301 64.3206 352.843 64.2568 353.536H68.1738C68.1738 352.821 68.0143 352.274 67.6953 351.896C67.3763 351.513 66.9206 351.321 66.3281 351.321ZM77.4502 358L76.0762 353.604C75.9896 353.336 75.8278 352.725 75.5908 351.772H75.5361C75.3538 352.57 75.1943 353.185 75.0576 353.618L73.6426 358H72.3301L70.2861 350.508H71.4756C71.9587 352.39 72.3255 353.823 72.5762 354.808C72.8314 355.792 72.9772 356.455 73.0137 356.797H73.0684C73.1185 356.537 73.1982 356.202 73.3076 355.792C73.4215 355.377 73.5195 355.049 73.6016 354.808L74.9756 350.508H76.2061L77.5459 354.808C77.8011 355.591 77.9743 356.25 78.0654 356.783H78.1201C78.1383 356.619 78.1862 356.366 78.2637 356.024C78.3457 355.683 78.8219 353.844 79.6924 350.508H80.8682L78.7969 358H77.4502ZM87 358H85.8652V350.508H87V358ZM85.7695 348.478C85.7695 348.218 85.8333 348.029 85.9609 347.91C86.0885 347.787 86.248 347.726 86.4395 347.726C86.6217 347.726 86.779 347.787 86.9111 347.91C87.0433 348.033 87.1094 348.222 87.1094 348.478C87.1094 348.733 87.0433 348.924 86.9111 349.052C86.779 349.175 86.6217 349.236 86.4395 349.236C86.248 349.236 86.0885 349.175 85.9609 349.052C85.8333 348.924 85.7695 348.733 85.7695 348.478ZM91.8262 357.2C92.0267 357.2 92.2204 357.187 92.4072 357.159C92.5941 357.127 92.7422 357.095 92.8516 357.063V357.932C92.7285 357.991 92.5462 358.039 92.3047 358.075C92.0677 358.116 91.8535 358.137 91.6621 358.137C90.2129 358.137 89.4883 357.373 89.4883 355.847V351.39H88.415V350.843L89.4883 350.371L89.9668 348.771H90.623V350.508H92.7969V351.39H90.623V355.799C90.623 356.25 90.7301 356.596 90.9443 356.838C91.1585 357.079 91.4525 357.2 91.8262 357.2ZM97.5205 358.137C96.4131 358.137 95.5381 357.799 94.8955 357.125C94.2575 356.451 93.9385 355.514 93.9385 354.315C93.9385 353.108 94.2347 352.148 94.8271 351.438C95.4242 350.727 96.224 350.371 97.2266 350.371C98.1654 350.371 98.9082 350.681 99.4551 351.301C100.002 351.916 100.275 352.729 100.275 353.741V354.459H95.1143C95.137 355.339 95.3581 356.006 95.7773 356.462C96.2012 356.918 96.7959 357.146 97.5615 357.146C98.3682 357.146 99.1657 356.977 99.9541 356.64V357.651C99.5531 357.825 99.1725 357.948 98.8125 358.021C98.457 358.098 98.0264 358.137 97.5205 358.137ZM97.2129 351.321C96.6113 351.321 96.1305 351.517 95.7705 351.909C95.415 352.301 95.2054 352.843 95.1416 353.536H99.0586C99.0586 352.821 98.8991 352.274 98.5801 351.896C98.2611 351.513 97.8053 351.321 97.2129 351.321ZM111.767 358V353.126C111.767 352.529 111.639 352.082 111.384 351.786C111.129 351.485 110.732 351.335 110.194 351.335C109.488 351.335 108.966 351.538 108.629 351.943C108.292 352.349 108.123 352.973 108.123 353.816V358H106.988V353.126C106.988 352.529 106.861 352.082 106.605 351.786C106.35 351.485 105.951 351.335 105.409 351.335C104.698 351.335 104.176 351.549 103.844 351.978C103.516 352.401 103.352 353.099 103.352 354.069V358H102.217V350.508H103.14L103.324 351.533H103.379C103.593 351.169 103.894 350.884 104.281 350.679C104.673 350.474 105.111 350.371 105.594 350.371C106.765 350.371 107.531 350.795 107.891 351.643H107.945C108.169 351.251 108.492 350.941 108.916 350.713C109.34 350.485 109.823 350.371 110.365 350.371C111.213 350.371 111.846 350.59 112.266 351.027C112.689 351.46 112.901 352.155 112.901 353.112V358H111.767ZM115.082 357.275C115.082 356.97 115.15 356.74 115.287 356.585C115.428 356.425 115.629 356.346 115.889 356.346C116.153 356.346 116.358 356.425 116.504 356.585C116.654 356.74 116.729 356.97 116.729 357.275C116.729 357.572 116.654 357.799 116.504 357.959C116.354 358.118 116.148 358.198 115.889 358.198C115.656 358.198 115.463 358.128 115.308 357.986C115.157 357.84 115.082 357.604 115.082 357.275ZM118.814 357.275C118.814 356.97 118.883 356.74 119.02 356.585C119.161 356.425 119.361 356.346 119.621 356.346C119.885 356.346 120.09 356.425 120.236 356.585C120.387 356.74 120.462 356.97 120.462 357.275C120.462 357.572 120.387 357.799 120.236 357.959C120.086 358.118 119.881 358.198 119.621 358.198C119.389 358.198 119.195 358.128 119.04 357.986C118.89 357.84 118.814 357.604 118.814 357.275ZM122.547 357.275C122.547 356.97 122.615 356.74 122.752 356.585C122.893 356.425 123.094 356.346 123.354 356.346C123.618 356.346 123.823 356.425 123.969 356.585C124.119 356.74 124.194 356.97 124.194 357.275C124.194 357.572 124.119 357.799 123.969 357.959C123.818 358.118 123.613 358.198 123.354 358.198C123.121 358.198 122.927 358.128 122.772 357.986C122.622 357.84 122.547 357.604 122.547 357.275Z" fill="#212121"/>
<rect x="890" y="337" width="89" height="32" rx="3" fill="#0D6EFD"/>
<path d="M921.591 351.1H919.271V350H925.211V351.1H922.891V357H921.591V351.1ZM927.92 357.07C927.38 357.07 926.894 356.953 926.46 356.72C926.027 356.487 925.687 356.163 925.44 355.75C925.2 355.33 925.08 354.857 925.08 354.33C925.08 353.803 925.2 353.333 925.44 352.92C925.687 352.507 926.027 352.183 926.46 351.95C926.894 351.717 927.38 351.6 927.92 351.6C928.467 351.6 928.957 351.717 929.39 351.95C929.824 352.183 930.16 352.507 930.4 352.92C930.647 353.333 930.77 353.803 930.77 354.33C930.77 354.857 930.647 355.33 930.4 355.75C930.16 356.163 929.824 356.487 929.39 356.72C928.957 356.953 928.467 357.07 927.92 357.07ZM927.92 356C928.38 356 928.76 355.847 929.06 355.54C929.36 355.233 929.51 354.83 929.51 354.33C929.51 353.83 929.36 353.427 929.06 353.12C928.76 352.813 928.38 352.66 927.92 352.66C927.46 352.66 927.08 352.813 926.78 353.12C926.487 353.427 926.34 353.83 926.34 354.33C926.34 354.83 926.487 355.233 926.78 355.54C927.08 355.847 927.46 356 927.92 356ZM937.196 349.58V357H935.996V356.31C935.789 356.563 935.532 356.753 935.226 356.88C934.926 357.007 934.592 357.07 934.226 357.07C933.712 357.07 933.249 356.957 932.836 356.73C932.429 356.503 932.109 356.183 931.876 355.77C931.642 355.35 931.526 354.87 931.526 354.33C931.526 353.79 931.642 353.313 931.876 352.9C932.109 352.487 932.429 352.167 932.836 351.94C933.249 351.713 933.712 351.6 934.226 351.6C934.579 351.6 934.902 351.66 935.196 351.78C935.489 351.9 935.739 352.08 935.946 352.32V349.58H937.196ZM934.376 356C934.676 356 934.946 355.933 935.186 355.8C935.426 355.66 935.616 355.463 935.756 355.21C935.896 354.957 935.966 354.663 935.966 354.33C935.966 353.997 935.896 353.703 935.756 353.45C935.616 353.197 935.426 353.003 935.186 352.87C934.946 352.73 934.676 352.66 934.376 352.66C934.076 352.66 933.806 352.73 933.566 352.87C933.326 353.003 933.136 353.197 932.996 353.45C932.856 353.703 932.786 353.997 932.786 354.33C932.786 354.663 932.856 354.957 932.996 355.21C933.136 355.463 933.326 355.66 933.566 355.8C933.806 355.933 934.076 356 934.376 356ZM940.871 351.6C941.657 351.6 942.257 351.79 942.671 352.17C943.091 352.543 943.301 353.11 943.301 353.87V357H942.121V356.35C941.967 356.583 941.747 356.763 941.461 356.89C941.181 357.01 940.841 357.07 940.441 357.07C940.041 357.07 939.691 357.003 939.391 356.87C939.091 356.73 938.857 356.54 938.691 356.3C938.531 356.053 938.451 355.777 938.451 355.47C938.451 354.99 938.627 354.607 938.981 354.32C939.341 354.027 939.904 353.88 940.671 353.88H942.051V353.8C942.051 353.427 941.937 353.14 941.711 352.94C941.491 352.74 941.161 352.64 940.721 352.64C940.421 352.64 940.124 352.687 939.831 352.78C939.544 352.873 939.301 353.003 939.101 353.17L938.611 352.26C938.891 352.047 939.227 351.883 939.621 351.77C940.014 351.657 940.431 351.6 940.871 351.6ZM940.701 356.16C941.014 356.16 941.291 356.09 941.531 355.95C941.777 355.803 941.951 355.597 942.051 355.33V354.71H940.761C940.041 354.71 939.681 354.947 939.681 355.42C939.681 355.647 939.771 355.827 939.951 355.96C940.131 356.093 940.381 356.16 940.701 356.16ZM949.807 351.66L947.307 357.43C947.074 358.01 946.791 358.417 946.457 358.65C946.124 358.89 945.721 359.01 945.247 359.01C944.981 359.01 944.717 358.967 944.457 358.88C944.197 358.793 943.984 358.673 943.817 358.52L944.317 357.6C944.437 357.713 944.577 357.803 944.737 357.87C944.904 357.937 945.071 357.97 945.237 357.97C945.457 357.97 945.637 357.913 945.777 357.8C945.924 357.687 946.057 357.497 946.177 357.23L946.267 357.02L943.937 351.66H945.237L946.917 355.61L948.607 351.66H949.807Z" fill="white"/>
<rect y="320" width="1003" height="1" fill="#EAEAEA"/>
<rect x="24" y="83" width="24" height="24" rx="2" fill="#0D6EFD"/>
<path fill-rule="evenodd" clip-rule="evenodd" d="M41.853 89.9488C42.0325 89.7608 42.2388 89.6667 42.472 89.6667C42.7052 89.6667 42.9116 89.7608 43.091 89.9488C43.2524 90.118 43.3332 90.3296 43.3332 90.5834C43.3332 90.8373 43.2524 91.0488 43.091 91.218L34.5063 100.272C34.4883 100.291 34.4704 100.309 34.4524 100.328C34.4345 100.347 34.4166 100.366 34.3986 100.385C34.2371 100.573 34.0353 100.667 33.7931 100.667C33.5509 100.667 33.3491 100.573 33.1876 100.385L28.9087 95.9283C28.7472 95.7591 28.6665 95.5475 28.6665 95.2937C28.6665 95.0398 28.7472 94.8283 28.9087 94.6591C29.0881 94.471 29.2944 94.377 29.5277 94.377C29.7609 94.377 29.9672 94.471 30.1466 94.6591L33.7797 98.4667L41.853 89.9488Z" fill="white"/>
<path d="M67.5391 101H66.2266L63.9219 93.3516C63.8125 93.013 63.6901 92.5859 63.5547 92.0703C63.4193 91.5547 63.349 91.2448 63.3438 91.1406C63.2292 91.8281 63.0469 92.5807 62.7969 93.3984L60.5625 101H59.25L56.2109 89.5781H57.6172L59.4219 96.6328C59.6719 97.6224 59.8542 98.5182 59.9688 99.3203C60.1094 98.3672 60.3177 97.4349 60.5938 96.5234L62.6406 89.5781H64.0469L66.1953 96.5859C66.4453 97.3932 66.6562 98.3047 66.8281 99.3203C66.9271 98.5807 67.1146 97.6797 67.3906 96.6172L69.1875 89.5781H70.5938L67.5391 101ZM79.5781 96.7109C79.5781 98.1068 79.2266 99.1979 78.5234 99.9844C77.8203 100.766 76.849 101.156 75.6094 101.156C74.8438 101.156 74.1641 100.977 73.5703 100.617C72.9766 100.258 72.5182 99.7422 72.1953 99.0703C71.8724 98.3984 71.7109 97.612 71.7109 96.7109C71.7109 95.3151 72.0599 94.2292 72.7578 93.4531C73.4557 92.6719 74.4245 92.2812 75.6641 92.2812C76.862 92.2812 77.8125 92.6797 78.5156 93.4766C79.224 94.2734 79.5781 95.3516 79.5781 96.7109ZM73.0547 96.7109C73.0547 97.8047 73.2734 98.638 73.7109 99.2109C74.1484 99.7839 74.7917 100.07 75.6406 100.07C76.4896 100.07 77.1328 99.7865 77.5703 99.2188C78.013 98.6458 78.2344 97.8099 78.2344 96.7109C78.2344 95.6224 78.013 94.7969 77.5703 94.2344C77.1328 93.6667 76.4844 93.3828 75.625 93.3828C74.776 93.3828 74.1354 93.6615 73.7031 94.2188C73.2708 94.776 73.0547 95.6068 73.0547 96.7109ZM85.7656 92.2812C86.1458 92.2812 86.487 92.3125 86.7891 92.375L86.6094 93.5781C86.2552 93.5 85.9427 93.4609 85.6719 93.4609C84.9792 93.4609 84.3854 93.7422 83.8906 94.3047C83.401 94.8672 83.1562 95.5677 83.1562 96.4062V101H81.8594V92.4375H82.9297L83.0781 94.0234H83.1406C83.4583 93.4661 83.8411 93.0365 84.2891 92.7344C84.737 92.4323 85.2292 92.2812 85.7656 92.2812ZM89.6719 96.6172C89.8958 96.2995 90.237 95.8828 90.6953 95.3672L93.4609 92.4375H95L91.5312 96.0859L95.2422 101H93.6719L90.6484 96.9531L89.6719 97.7969V101H88.3906V88.8438H89.6719V95.2891C89.6719 95.5755 89.651 96.0182 89.6094 96.6172H89.6719ZM108.344 96.7109C108.344 98.1068 107.992 99.1979 107.289 99.9844C106.586 100.766 105.615 101.156 104.375 101.156C103.609 101.156 102.93 100.977 102.336 100.617C101.742 100.258 101.284 99.7422 100.961 99.0703C100.638 98.3984 100.477 97.612 100.477 96.7109C100.477 95.3151 100.826 94.2292 101.523 93.4531C102.221 92.6719 103.19 92.2812 104.43 92.2812C105.628 92.2812 106.578 92.6797 107.281 93.4766C107.99 94.2734 108.344 95.3516 108.344 96.7109ZM101.82 96.7109C101.82 97.8047 102.039 98.638 102.477 99.2109C102.914 99.7839 103.557 100.07 104.406 100.07C105.255 100.07 105.898 99.7865 106.336 99.2188C106.779 98.6458 107 97.8099 107 96.7109C107 95.6224 106.779 94.7969 106.336 94.2344C105.898 93.6667 105.25 93.3828 104.391 93.3828C103.542 93.3828 102.901 93.6615 102.469 94.2188C102.036 94.776 101.82 95.6068 101.82 96.7109ZM116.484 101V95.4609C116.484 94.763 116.326 94.2422 116.008 93.8984C115.69 93.5547 115.193 93.3828 114.516 93.3828C113.62 93.3828 112.964 93.625 112.547 94.1094C112.13 94.5938 111.922 95.3932 111.922 96.5078V101H110.625V92.4375H111.68L111.891 93.6094H111.953C112.219 93.1875 112.591 92.862 113.07 92.6328C113.549 92.3984 114.083 92.2812 114.672 92.2812C115.703 92.2812 116.479 92.5312 117 93.0312C117.521 93.526 117.781 94.3203 117.781 95.4141V101H116.484ZM130.469 101V95.4609C130.469 94.763 130.31 94.2422 129.992 93.8984C129.674 93.5547 129.177 93.3828 128.5 93.3828C127.604 93.3828 126.948 93.625 126.531 94.1094C126.115 94.5938 125.906 95.3932 125.906 96.5078V101H124.609V92.4375H125.664L125.875 93.6094H125.938C126.203 93.1875 126.576 92.862 127.055 92.6328C127.534 92.3984 128.068 92.2812 128.656 92.2812C129.688 92.2812 130.464 92.5312 130.984 93.0312C131.505 93.526 131.766 94.3203 131.766 95.4141V101H130.469ZM138.055 101.156C136.789 101.156 135.789 100.771 135.055 100C134.326 99.2292 133.961 98.1589 133.961 96.7891C133.961 95.4089 134.299 94.3125 134.977 93.5C135.659 92.6875 136.573 92.2812 137.719 92.2812C138.792 92.2812 139.641 92.6354 140.266 93.3438C140.891 94.0469 141.203 94.9766 141.203 96.1328V96.9531H135.305C135.331 97.9583 135.583 98.7214 136.062 99.2422C136.547 99.763 137.227 100.023 138.102 100.023C139.023 100.023 139.935 99.8307 140.836 99.4453V100.602C140.378 100.799 139.943 100.94 139.531 101.023C139.125 101.112 138.633 101.156 138.055 101.156ZM137.703 93.3672C137.016 93.3672 136.466 93.5911 136.055 94.0391C135.648 94.487 135.409 95.1068 135.336 95.8984H139.812C139.812 95.0807 139.63 94.4557 139.266 94.0234C138.901 93.5859 138.38 93.3672 137.703 93.3672ZM150.414 101L148.844 95.9766C148.745 95.6693 148.56 94.9714 148.289 93.8828H148.227C148.018 94.7943 147.836 95.4974 147.68 95.9922L146.062 101H144.562L142.227 92.4375H143.586C144.138 94.5885 144.557 96.2266 144.844 97.3516C145.135 98.4766 145.302 99.2344 145.344 99.625H145.406C145.464 99.3281 145.555 98.9453 145.68 98.4766C145.81 98.0026 145.922 97.6276 146.016 97.3516L147.586 92.4375H148.992L150.523 97.3516C150.815 98.2474 151.013 99 151.117 99.6094H151.18C151.201 99.4219 151.255 99.1328 151.344 98.7422C151.438 98.3516 151.982 96.25 152.977 92.4375H154.32L151.953 101H150.414ZM161.312 96.6172C161.536 96.2995 161.878 95.8828 162.336 95.3672L165.102 92.4375H166.641L163.172 96.0859L166.883 101H165.312L162.289 96.9531L161.312 97.7969V101H160.031V88.8438H161.312V95.2891C161.312 95.5755 161.292 96.0182 161.25 96.6172H161.312ZM169.734 101H168.438V92.4375H169.734V101ZM168.328 90.1172C168.328 89.8203 168.401 89.6042 168.547 89.4688C168.693 89.3281 168.875 89.2578 169.094 89.2578C169.302 89.2578 169.482 89.3281 169.633 89.4688C169.784 89.6094 169.859 89.8255 169.859 90.1172C169.859 90.4089 169.784 90.6276 169.633 90.7734C169.482 90.9141 169.302 90.9844 169.094 90.9844C168.875 90.9844 168.693 90.9141 168.547 90.7734C168.401 90.6276 168.328 90.4089 168.328 90.1172ZM175.25 100.086C175.479 100.086 175.701 100.07 175.914 100.039C176.128 100.003 176.297 99.9661 176.422 99.9297V100.922C176.281 100.99 176.073 101.044 175.797 101.086C175.526 101.133 175.281 101.156 175.062 101.156C173.406 101.156 172.578 100.284 172.578 98.5391V93.4453H171.352V92.8203L172.578 92.2812L173.125 90.4531H173.875V92.4375H176.359V93.4453H173.875V98.4844C173.875 99 173.997 99.3958 174.242 99.6719C174.487 99.9479 174.823 100.086 175.25 100.086ZM187.82 98.6641C187.82 99.4609 187.523 100.076 186.93 100.508C186.336 100.94 185.503 101.156 184.43 101.156C183.294 101.156 182.409 100.977 181.773 100.617V99.4141C182.185 99.6224 182.625 99.7865 183.094 99.9062C183.568 100.026 184.023 100.086 184.461 100.086C185.138 100.086 185.659 99.9792 186.023 99.7656C186.388 99.5469 186.57 99.2161 186.57 98.7734C186.57 98.4401 186.424 98.1562 186.133 97.9219C185.846 97.6823 185.284 97.401 184.445 97.0781C183.648 96.7812 183.081 96.5234 182.742 96.3047C182.409 96.0807 182.159 95.8281 181.992 95.5469C181.831 95.2656 181.75 94.9297 181.75 94.5391C181.75 93.8411 182.034 93.2917 182.602 92.8906C183.169 92.4844 183.948 92.2812 184.938 92.2812C185.859 92.2812 186.76 92.4688 187.641 92.8438L187.18 93.8984C186.32 93.5443 185.542 93.3672 184.844 93.3672C184.229 93.3672 183.766 93.4635 183.453 93.6562C183.141 93.849 182.984 94.1146 182.984 94.4531C182.984 94.6823 183.042 94.8776 183.156 95.0391C183.276 95.2005 183.466 95.3542 183.727 95.5C183.987 95.6458 184.487 95.8568 185.227 96.1328C186.242 96.5026 186.927 96.875 187.281 97.25C187.641 97.625 187.82 98.0964 187.82 98.6641ZM192.703 100.086C192.932 100.086 193.154 100.07 193.367 100.039C193.581 100.003 193.75 99.9661 193.875 99.9297V100.922C193.734 100.99 193.526 101.044 193.25 101.086C192.979 101.133 192.734 101.156 192.516 101.156C190.859 101.156 190.031 100.284 190.031 98.5391V93.4453H188.805V92.8203L190.031 92.2812L190.578 90.4531H191.328V92.4375H193.812V93.4453H191.328V98.4844C191.328 99 191.451 99.3958 191.695 99.6719C191.94 99.9479 192.276 100.086 192.703 100.086ZM194.234 92.4375H195.625L197.5 97.3203C197.911 98.4349 198.167 99.2396 198.266 99.7344H198.328C198.396 99.4688 198.536 99.0156 198.75 98.375C198.969 97.7292 199.677 95.75 200.875 92.4375H202.266L198.586 102.188C198.221 103.151 197.794 103.833 197.305 104.234C196.82 104.641 196.224 104.844 195.516 104.844C195.12 104.844 194.729 104.799 194.344 104.711V103.672C194.63 103.734 194.951 103.766 195.305 103.766C196.195 103.766 196.831 103.266 197.211 102.266L197.688 101.047L194.234 92.4375ZM204.953 101H203.656V88.8438H204.953V101ZM211.32 101.156C210.055 101.156 209.055 100.771 208.32 100C207.591 99.2292 207.227 98.1589 207.227 96.7891C207.227 95.4089 207.565 94.3125 208.242 93.5C208.924 92.6875 209.839 92.2812 210.984 92.2812C212.057 92.2812 212.906 92.6354 213.531 93.3438C214.156 94.0469 214.469 94.9766 214.469 96.1328V96.9531H208.57C208.596 97.9583 208.849 98.7214 209.328 99.2422C209.812 99.763 210.492 100.023 211.367 100.023C212.289 100.023 213.201 99.8307 214.102 99.4453V100.602C213.643 100.799 213.208 100.94 212.797 101.023C212.391 101.112 211.898 101.156 211.32 101.156ZM210.969 93.3672C210.281 93.3672 209.732 93.5911 209.32 94.0391C208.914 94.487 208.674 95.1068 208.602 95.8984H213.078C213.078 95.0807 212.896 94.4557 212.531 94.0234C212.167 93.5859 211.646 93.3672 210.969 93.3672ZM227.852 92.4375V93.2578L226.266 93.4453C226.411 93.6276 226.542 93.8672 226.656 94.1641C226.771 94.4557 226.828 94.7865 226.828 95.1562C226.828 95.9948 226.542 96.6641 225.969 97.1641C225.396 97.6641 224.609 97.9141 223.609 97.9141C223.354 97.9141 223.115 97.8932 222.891 97.8516C222.339 98.1432 222.062 98.5104 222.062 98.9531C222.062 99.1875 222.159 99.362 222.352 99.4766C222.544 99.5859 222.875 99.6406 223.344 99.6406H224.859C225.786 99.6406 226.497 99.8359 226.992 100.227C227.492 100.617 227.742 101.185 227.742 101.93C227.742 102.878 227.362 103.599 226.602 104.094C225.841 104.594 224.732 104.844 223.273 104.844C222.154 104.844 221.289 104.635 220.68 104.219C220.076 103.802 219.773 103.214 219.773 102.453C219.773 101.932 219.94 101.482 220.273 101.102C220.607 100.721 221.076 100.464 221.68 100.328C221.461 100.229 221.276 100.076 221.125 99.8672C220.979 99.6589 220.906 99.4167 220.906 99.1406C220.906 98.8281 220.99 98.5547 221.156 98.3203C221.323 98.0859 221.586 97.8594 221.945 97.6406C221.503 97.4583 221.141 97.1484 220.859 96.7109C220.583 96.2734 220.445 95.7734 220.445 95.2109C220.445 94.2734 220.727 93.5521 221.289 93.0469C221.852 92.5365 222.648 92.2812 223.68 92.2812C224.128 92.2812 224.531 92.3333 224.891 92.4375H227.852ZM221.023 102.438C221.023 102.901 221.219 103.253 221.609 103.492C222 103.732 222.56 103.852 223.289 103.852C224.378 103.852 225.182 103.688 225.703 103.359C226.229 103.036 226.492 102.596 226.492 102.039C226.492 101.576 226.349 101.253 226.062 101.07C225.776 100.893 225.237 100.805 224.445 100.805H222.891C222.302 100.805 221.844 100.945 221.516 101.227C221.188 101.508 221.023 101.911 221.023 102.438ZM221.727 95.1797C221.727 95.7786 221.896 96.2318 222.234 96.5391C222.573 96.8464 223.044 97 223.648 97C224.914 97 225.547 96.3854 225.547 95.1562C225.547 93.8698 224.906 93.2266 223.625 93.2266C223.016 93.2266 222.547 93.3906 222.219 93.7188C221.891 94.0469 221.727 94.5339 221.727 95.1797ZM230.828 92.4375V97.9922C230.828 98.6901 230.987 99.2109 231.305 99.5547C231.622 99.8984 232.12 100.07 232.797 100.07C233.693 100.07 234.346 99.8255 234.758 99.3359C235.174 98.8464 235.383 98.0469 235.383 96.9375V92.4375H236.68V101H235.609L235.422 99.8516H235.352C235.086 100.273 234.716 100.596 234.242 100.82C233.773 101.044 233.237 101.156 232.633 101.156C231.591 101.156 230.81 100.909 230.289 100.414C229.773 99.9193 229.516 99.1276 229.516 98.0391V92.4375H230.828ZM240.734 101H239.438V92.4375H240.734V101ZM239.328 90.1172C239.328 89.8203 239.401 89.6042 239.547 89.4688C239.693 89.3281 239.875 89.2578 240.094 89.2578C240.302 89.2578 240.482 89.3281 240.633 89.4688C240.784 89.6094 240.859 89.8255 240.859 90.1172C240.859 90.4089 240.784 90.6276 240.633 90.7734C240.482 90.9141 240.302 90.9844 240.094 90.9844C239.875 90.9844 239.693 90.9141 239.547 90.7734C239.401 90.6276 239.328 90.4089 239.328 90.1172ZM249.312 99.8516H249.242C248.643 100.721 247.747 101.156 246.555 101.156C245.435 101.156 244.562 100.773 243.938 100.008C243.318 99.2422 243.008 98.1536 243.008 96.7422C243.008 95.3307 243.32 94.2344 243.945 93.4531C244.57 92.6719 245.44 92.2812 246.555 92.2812C247.716 92.2812 248.607 92.7031 249.227 93.5469H249.328L249.273 92.9297L249.242 92.3281V88.8438H250.539V101H249.484L249.312 99.8516ZM246.719 100.07C247.604 100.07 248.245 99.8307 248.641 99.3516C249.042 98.8672 249.242 98.0885 249.242 97.0156V96.7422C249.242 95.5286 249.039 94.6641 248.633 94.1484C248.232 93.6276 247.589 93.3672 246.703 93.3672C245.943 93.3672 245.359 93.6641 244.953 94.2578C244.552 94.8464 244.352 95.6797 244.352 96.7578C244.352 97.8516 244.552 98.6771 244.953 99.2344C245.354 99.7917 245.943 100.07 246.719 100.07ZM256.914 101.156C255.648 101.156 254.648 100.771 253.914 100C253.185 99.2292 252.82 98.1589 252.82 96.7891C252.82 95.4089 253.159 94.3125 253.836 93.5C254.518 92.6875 255.432 92.2812 256.578 92.2812C257.651 92.2812 258.5 92.6354 259.125 93.3438C259.75 94.0469 260.062 94.9766 260.062 96.1328V96.9531H254.164C254.19 97.9583 254.443 98.7214 254.922 99.2422C255.406 99.763 256.086 100.023 256.961 100.023C257.883 100.023 258.794 99.8307 259.695 99.4453V100.602C259.237 100.799 258.802 100.94 258.391 101.023C257.984 101.112 257.492 101.156 256.914 101.156ZM256.562 93.3672C255.875 93.3672 255.326 93.5911 254.914 94.0391C254.508 94.487 254.268 95.1068 254.195 95.8984H258.672C258.672 95.0807 258.49 94.4557 258.125 94.0234C257.76 93.5859 257.24 93.3672 256.562 93.3672ZM271.703 101L271.445 99.7812H271.383C270.956 100.318 270.529 100.682 270.102 100.875C269.68 101.062 269.151 101.156 268.516 101.156C267.667 101.156 267 100.938 266.516 100.5C266.036 100.062 265.797 99.4401 265.797 98.6328C265.797 96.9036 267.18 95.9974 269.945 95.9141L271.398 95.8672V95.3359C271.398 94.6641 271.253 94.1693 270.961 93.8516C270.674 93.5286 270.214 93.3672 269.578 93.3672C268.865 93.3672 268.057 93.5859 267.156 94.0234L266.758 93.0312C267.18 92.8021 267.641 92.6224 268.141 92.4922C268.646 92.362 269.151 92.2969 269.656 92.2969C270.677 92.2969 271.432 92.5234 271.922 92.9766C272.417 93.4297 272.664 94.1562 272.664 95.1562V101H271.703ZM268.773 100.086C269.581 100.086 270.214 99.8646 270.672 99.4219C271.135 98.9792 271.367 98.3594 271.367 97.5625V96.7891L270.07 96.8438C269.039 96.8802 268.294 97.0417 267.836 97.3281C267.383 97.6094 267.156 98.0495 267.156 98.6484C267.156 99.1172 267.297 99.474 267.578 99.7188C267.865 99.9635 268.263 100.086 268.773 100.086ZM281.203 101V95.4609C281.203 94.763 281.044 94.2422 280.727 93.8984C280.409 93.5547 279.911 93.3828 279.234 93.3828C278.339 93.3828 277.682 93.625 277.266 94.1094C276.849 94.5938 276.641 95.3932 276.641 96.5078V101H275.344V92.4375H276.398L276.609 93.6094H276.672C276.938 93.1875 277.31 92.862 277.789 92.6328C278.268 92.3984 278.802 92.2812 279.391 92.2812C280.422 92.2812 281.198 92.5312 281.719 93.0312C282.24 93.526 282.5 94.3203 282.5 95.4141V101H281.203ZM291 99.8516H290.93C290.331 100.721 289.435 101.156 288.242 101.156C287.122 101.156 286.25 100.773 285.625 100.008C285.005 99.2422 284.695 98.1536 284.695 96.7422C284.695 95.3307 285.008 94.2344 285.633 93.4531C286.258 92.6719 287.128 92.2812 288.242 92.2812C289.404 92.2812 290.294 92.7031 290.914 93.5469H291.016L290.961 92.9297L290.93 92.3281V88.8438H292.227V101H291.172L291 99.8516ZM288.406 100.07C289.292 100.07 289.932 99.8307 290.328 99.3516C290.729 98.8672 290.93 98.0885 290.93 97.0156V96.7422C290.93 95.5286 290.727 94.6641 290.32 94.1484C289.919 93.6276 289.276 93.3672 288.391 93.3672C287.63 93.3672 287.047 93.6641 286.641 94.2578C286.24 94.8464 286.039 95.6797 286.039 96.7578C286.039 97.8516 286.24 98.6771 286.641 99.2344C287.042 99.7917 287.63 100.07 288.406 100.07ZM300.438 101H299.141V92.4375H300.438V101ZM299.031 90.1172C299.031 89.8203 299.104 89.6042 299.25 89.4688C299.396 89.3281 299.578 89.2578 299.797 89.2578C300.005 89.2578 300.185 89.3281 300.336 89.4688C300.487 89.6094 300.562 89.8255 300.562 90.1172C300.562 90.4089 300.487 90.6276 300.336 90.7734C300.185 90.9141 300.005 90.9844 299.797 90.9844C299.578 90.9844 299.396 90.9141 299.25 90.7734C299.104 90.6276 299.031 90.4089 299.031 90.1172ZM309.047 101V95.4609C309.047 94.763 308.888 94.2422 308.57 93.8984C308.253 93.5547 307.755 93.3828 307.078 93.3828C306.182 93.3828 305.526 93.625 305.109 94.1094C304.693 94.5938 304.484 95.3932 304.484 96.5078V101H303.188V92.4375H304.242L304.453 93.6094H304.516C304.781 93.1875 305.154 92.862 305.633 92.6328C306.112 92.3984 306.646 92.2812 307.234 92.2812C308.266 92.2812 309.042 92.5312 309.562 93.0312C310.083 93.526 310.344 94.3203 310.344 95.4141V101H309.047ZM315.781 100.086C316.01 100.086 316.232 100.07 316.445 100.039C316.659 100.003 316.828 99.9661 316.953 99.9297V100.922C316.812 100.99 316.604 101.044 316.328 101.086C316.057 101.133 315.812 101.156 315.594 101.156C313.938 101.156 313.109 100.284 313.109 98.5391V93.4453H311.883V92.8203L313.109 92.2812L313.656 90.4531H314.406V92.4375H316.891V93.4453H314.406V98.4844C314.406 99 314.529 99.3958 314.773 99.6719C315.018 99.9479 315.354 100.086 315.781 100.086ZM322.578 92.2812C322.958 92.2812 323.299 92.3125 323.602 92.375L323.422 93.5781C323.068 93.5 322.755 93.4609 322.484 93.4609C321.792 93.4609 321.198 93.7422 320.703 94.3047C320.214 94.8672 319.969 95.5677 319.969 96.4062V101H318.672V92.4375H319.742L319.891 94.0234H319.953C320.271 93.4661 320.654 93.0365 321.102 92.7344C321.549 92.4323 322.042 92.2812 322.578 92.2812ZM332.594 96.7109C332.594 98.1068 332.242 99.1979 331.539 99.9844C330.836 100.766 329.865 101.156 328.625 101.156C327.859 101.156 327.18 100.977 326.586 100.617C325.992 100.258 325.534 99.7422 325.211 99.0703C324.888 98.3984 324.727 97.612 324.727 96.7109C324.727 95.3151 325.076 94.2292 325.773 93.4531C326.471 92.6719 327.44 92.2812 328.68 92.2812C329.878 92.2812 330.828 92.6797 331.531 93.4766C332.24 94.2734 332.594 95.3516 332.594 96.7109ZM326.07 96.7109C326.07 97.8047 326.289 98.638 326.727 99.2109C327.164 99.7839 327.807 100.07 328.656 100.07C329.505 100.07 330.148 99.7865 330.586 99.2188C331.029 98.6458 331.25 97.8099 331.25 96.7109C331.25 95.6224 331.029 94.7969 330.586 94.2344C330.148 93.6667 329.5 93.3828 328.641 93.3828C327.792 93.3828 327.151 93.6615 326.719 94.2188C326.286 94.776 326.07 95.6068 326.07 96.7109Z" fill="#212121"/>
<rect x="24" y="127" width="24" height="24" rx="2" fill="#0D6EFD"/>
<path fill-rule="evenodd" clip-rule="evenodd" d="M41.853 133.949C42.0325 133.761 42.2388 133.667 42.472 133.667C42.7052 133.667 42.9116 133.761 43.091 133.949C43.2524 134.118 43.3332 134.33 43.3332 134.583C43.3332 134.837 43.2524 135.049 43.091 135.218L34.5063 144.272C34.4883 144.291 34.4704 144.309 34.4524 144.328C34.4345 144.347 34.4166 144.366 34.3986 144.385C34.2371 144.573 34.0353 144.667 33.7931 144.667C33.5509 144.667 33.3491 144.573 33.1876 144.385L28.9087 139.928C28.7472 139.759 28.6665 139.548 28.6665 139.294C28.6665 139.04 28.7472 138.828 28.9087 138.659C29.0881 138.471 29.2944 138.377 29.5277 138.377C29.7609 138.377 29.9672 138.471 30.1466 138.659L33.7797 142.467L41.853 133.949Z" fill="white"/>
<path d="M58.8984 145H57.5703V133.578H63.9375V134.758H58.8984V138.938H63.6328V140.117H58.8984V145ZM66.9375 145H65.6406V136.438H66.9375V145ZM65.5312 134.117C65.5312 133.82 65.6042 133.604 65.75 133.469C65.8958 133.328 66.0781 133.258 66.2969 133.258C66.5052 133.258 66.6849 133.328 66.8359 133.469C66.987 133.609 67.0625 133.826 67.0625 134.117C67.0625 134.409 66.987 134.628 66.8359 134.773C66.6849 134.914 66.5052 134.984 66.2969 134.984C66.0781 134.984 65.8958 134.914 65.75 134.773C65.6042 134.628 65.5312 134.409 65.5312 134.117ZM76.6953 136.438V137.258L75.1094 137.445C75.2552 137.628 75.3854 137.867 75.5 138.164C75.6146 138.456 75.6719 138.786 75.6719 139.156C75.6719 139.995 75.3854 140.664 74.8125 141.164C74.2396 141.664 73.4531 141.914 72.4531 141.914C72.1979 141.914 71.9583 141.893 71.7344 141.852C71.1823 142.143 70.9062 142.51 70.9062 142.953C70.9062 143.188 71.0026 143.362 71.1953 143.477C71.388 143.586 71.7188 143.641 72.1875 143.641H73.7031C74.6302 143.641 75.3411 143.836 75.8359 144.227C76.3359 144.617 76.5859 145.185 76.5859 145.93C76.5859 146.878 76.2057 147.599 75.4453 148.094C74.6849 148.594 73.5755 148.844 72.1172 148.844C70.9974 148.844 70.1328 148.635 69.5234 148.219C68.9193 147.802 68.6172 147.214 68.6172 146.453C68.6172 145.932 68.7839 145.482 69.1172 145.102C69.4505 144.721 69.9193 144.464 70.5234 144.328C70.3047 144.229 70.1198 144.076 69.9688 143.867C69.8229 143.659 69.75 143.417 69.75 143.141C69.75 142.828 69.8333 142.555 70 142.32C70.1667 142.086 70.4297 141.859 70.7891 141.641C70.3464 141.458 69.9844 141.148 69.7031 140.711C69.4271 140.273 69.2891 139.773 69.2891 139.211C69.2891 138.273 69.5703 137.552 70.1328 137.047C70.6953 136.536 71.4922 136.281 72.5234 136.281C72.9714 136.281 73.375 136.333 73.7344 136.438H76.6953ZM69.8672 146.438C69.8672 146.901 70.0625 147.253 70.4531 147.492C70.8438 147.732 71.4036 147.852 72.1328 147.852C73.2214 147.852 74.026 147.688 74.5469 147.359C75.0729 147.036 75.3359 146.596 75.3359 146.039C75.3359 145.576 75.1927 145.253 74.9062 145.07C74.6198 144.893 74.0807 144.805 73.2891 144.805H71.7344C71.1458 144.805 70.6875 144.945 70.3594 145.227C70.0312 145.508 69.8672 145.911 69.8672 146.438ZM70.5703 139.18C70.5703 139.779 70.7396 140.232 71.0781 140.539C71.4167 140.846 71.888 141 72.4922 141C73.7578 141 74.3906 140.385 74.3906 139.156C74.3906 137.87 73.75 137.227 72.4688 137.227C71.8594 137.227 71.3906 137.391 71.0625 137.719C70.7344 138.047 70.5703 138.534 70.5703 139.18ZM89.3672 145V139.43C89.3672 138.747 89.2214 138.237 88.9297 137.898C88.638 137.555 88.1849 137.383 87.5703 137.383C86.763 137.383 86.1667 137.615 85.7812 138.078C85.3958 138.542 85.2031 139.255 85.2031 140.219V145H83.9062V139.43C83.9062 138.747 83.7604 138.237 83.4688 137.898C83.1771 137.555 82.7214 137.383 82.1016 137.383C81.2891 137.383 80.6927 137.628 80.3125 138.117C79.9375 138.602 79.75 139.398 79.75 140.508V145H78.4531V136.438H79.5078L79.7188 137.609H79.7812C80.026 137.193 80.3698 136.867 80.8125 136.633C81.2604 136.398 81.7604 136.281 82.3125 136.281C83.651 136.281 84.526 136.766 84.9375 137.734H85C85.2552 137.286 85.625 136.932 86.1094 136.672C86.5938 136.411 87.1458 136.281 87.7656 136.281C88.7344 136.281 89.4583 136.531 89.9375 137.031C90.4219 137.526 90.6641 138.32 90.6641 139.414V145H89.3672ZM98.6094 145L98.3516 143.781H98.2891C97.862 144.318 97.4349 144.682 97.0078 144.875C96.5859 145.062 96.0573 145.156 95.4219 145.156C94.5729 145.156 93.9062 144.938 93.4219 144.5C92.9427 144.062 92.7031 143.44 92.7031 142.633C92.7031 140.904 94.0859 139.997 96.8516 139.914L98.3047 139.867V139.336C98.3047 138.664 98.1589 138.169 97.8672 137.852C97.5807 137.529 97.1198 137.367 96.4844 137.367C95.7708 137.367 94.9635 137.586 94.0625 138.023L93.6641 137.031C94.0859 136.802 94.5469 136.622 95.0469 136.492C95.5521 136.362 96.0573 136.297 96.5625 136.297C97.5833 136.297 98.3385 136.523 98.8281 136.977C99.3229 137.43 99.5703 138.156 99.5703 139.156V145H98.6094ZM95.6797 144.086C96.487 144.086 97.1198 143.865 97.5781 143.422C98.0417 142.979 98.2734 142.359 98.2734 141.562V140.789L96.9766 140.844C95.9453 140.88 95.2005 141.042 94.7422 141.328C94.2891 141.609 94.0625 142.049 94.0625 142.648C94.0625 143.117 94.2031 143.474 94.4844 143.719C94.7708 143.964 95.1693 144.086 95.6797 144.086ZM112.234 143.852H112.164C111.565 144.721 110.669 145.156 109.477 145.156C108.357 145.156 107.484 144.773 106.859 144.008C106.24 143.242 105.93 142.154 105.93 140.742C105.93 139.331 106.242 138.234 106.867 137.453C107.492 136.672 108.362 136.281 109.477 136.281C110.638 136.281 111.529 136.703 112.148 137.547H112.25L112.195 136.93L112.164 136.328V132.844H113.461V145H112.406L112.234 143.852ZM109.641 144.07C110.526 144.07 111.167 143.831 111.562 143.352C111.964 142.867 112.164 142.089 112.164 141.016V140.742C112.164 139.529 111.961 138.664 111.555 138.148C111.154 137.628 110.51 137.367 109.625 137.367C108.865 137.367 108.281 137.664 107.875 138.258C107.474 138.846 107.273 139.68 107.273 140.758C107.273 141.852 107.474 142.677 107.875 143.234C108.276 143.792 108.865 144.07 109.641 144.07ZM119.836 145.156C118.57 145.156 117.57 144.771 116.836 144C116.107 143.229 115.742 142.159 115.742 140.789C115.742 139.409 116.081 138.312 116.758 137.5C117.44 136.688 118.354 136.281 119.5 136.281C120.573 136.281 121.422 136.635 122.047 137.344C122.672 138.047 122.984 138.977 122.984 140.133V140.953H117.086C117.112 141.958 117.365 142.721 117.844 143.242C118.328 143.763 119.008 144.023 119.883 144.023C120.805 144.023 121.716 143.831 122.617 143.445V144.602C122.159 144.799 121.724 144.94 121.312 145.023C120.906 145.112 120.414 145.156 119.836 145.156ZM119.484 137.367C118.797 137.367 118.247 137.591 117.836 138.039C117.43 138.487 117.19 139.107 117.117 139.898H121.594C121.594 139.081 121.411 138.456 121.047 138.023C120.682 137.586 120.161 137.367 119.484 137.367ZM130.727 142.664C130.727 143.461 130.43 144.076 129.836 144.508C129.242 144.94 128.409 145.156 127.336 145.156C126.201 145.156 125.315 144.977 124.68 144.617V143.414C125.091 143.622 125.531 143.786 126 143.906C126.474 144.026 126.93 144.086 127.367 144.086C128.044 144.086 128.565 143.979 128.93 143.766C129.294 143.547 129.477 143.216 129.477 142.773C129.477 142.44 129.331 142.156 129.039 141.922C128.753 141.682 128.19 141.401 127.352 141.078C126.555 140.781 125.987 140.523 125.648 140.305C125.315 140.081 125.065 139.828 124.898 139.547C124.737 139.266 124.656 138.93 124.656 138.539C124.656 137.841 124.94 137.292 125.508 136.891C126.076 136.484 126.854 136.281 127.844 136.281C128.766 136.281 129.667 136.469 130.547 136.844L130.086 137.898C129.227 137.544 128.448 137.367 127.75 137.367C127.135 137.367 126.672 137.464 126.359 137.656C126.047 137.849 125.891 138.115 125.891 138.453C125.891 138.682 125.948 138.878 126.062 139.039C126.182 139.201 126.372 139.354 126.633 139.5C126.893 139.646 127.393 139.857 128.133 140.133C129.148 140.503 129.833 140.875 130.188 141.25C130.547 141.625 130.727 142.096 130.727 142.664ZM134.141 145H132.844V136.438H134.141V145ZM132.734 134.117C132.734 133.82 132.807 133.604 132.953 133.469C133.099 133.328 133.281 133.258 133.5 133.258C133.708 133.258 133.888 133.328 134.039 133.469C134.19 133.609 134.266 133.826 134.266 134.117C134.266 134.409 134.19 134.628 134.039 134.773C133.888 134.914 133.708 134.984 133.5 134.984C133.281 134.984 133.099 134.914 132.953 134.773C132.807 134.628 132.734 134.409 132.734 134.117ZM143.898 136.438V137.258L142.312 137.445C142.458 137.628 142.589 137.867 142.703 138.164C142.818 138.456 142.875 138.786 142.875 139.156C142.875 139.995 142.589 140.664 142.016 141.164C141.443 141.664 140.656 141.914 139.656 141.914C139.401 141.914 139.161 141.893 138.938 141.852C138.385 142.143 138.109 142.51 138.109 142.953C138.109 143.188 138.206 143.362 138.398 143.477C138.591 143.586 138.922 143.641 139.391 143.641H140.906C141.833 143.641 142.544 143.836 143.039 144.227C143.539 144.617 143.789 145.185 143.789 145.93C143.789 146.878 143.409 147.599 142.648 148.094C141.888 148.594 140.779 148.844 139.32 148.844C138.201 148.844 137.336 148.635 136.727 148.219C136.122 147.802 135.82 147.214 135.82 146.453C135.82 145.932 135.987 145.482 136.32 145.102C136.654 144.721 137.122 144.464 137.727 144.328C137.508 144.229 137.323 144.076 137.172 143.867C137.026 143.659 136.953 143.417 136.953 143.141C136.953 142.828 137.036 142.555 137.203 142.32C137.37 142.086 137.633 141.859 137.992 141.641C137.549 141.458 137.188 141.148 136.906 140.711C136.63 140.273 136.492 139.773 136.492 139.211C136.492 138.273 136.773 137.552 137.336 137.047C137.898 136.536 138.695 136.281 139.727 136.281C140.174 136.281 140.578 136.333 140.938 136.438H143.898ZM137.07 146.438C137.07 146.901 137.266 147.253 137.656 147.492C138.047 147.732 138.607 147.852 139.336 147.852C140.424 147.852 141.229 147.688 141.75 147.359C142.276 147.036 142.539 146.596 142.539 146.039C142.539 145.576 142.396 145.253 142.109 145.07C141.823 144.893 141.284 144.805 140.492 144.805H138.938C138.349 144.805 137.891 144.945 137.562 145.227C137.234 145.508 137.07 145.911 137.07 146.438ZM137.773 139.18C137.773 139.779 137.943 140.232 138.281 140.539C138.62 140.846 139.091 141 139.695 141C140.961 141 141.594 140.385 141.594 139.156C141.594 137.87 140.953 137.227 139.672 137.227C139.062 137.227 138.594 137.391 138.266 137.719C137.938 138.047 137.773 138.534 137.773 139.18ZM151.516 145V139.461C151.516 138.763 151.357 138.242 151.039 137.898C150.721 137.555 150.224 137.383 149.547 137.383C148.651 137.383 147.995 137.625 147.578 138.109C147.161 138.594 146.953 139.393 146.953 140.508V145H145.656V136.438H146.711L146.922 137.609H146.984C147.25 137.188 147.622 136.862 148.102 136.633C148.581 136.398 149.115 136.281 149.703 136.281C150.734 136.281 151.51 136.531 152.031 137.031C152.552 137.526 152.812 138.32 152.812 139.414V145H151.516ZM165.164 142.664C165.164 143.461 164.867 144.076 164.273 144.508C163.68 144.94 162.846 145.156 161.773 145.156C160.638 145.156 159.753 144.977 159.117 144.617V143.414C159.529 143.622 159.969 143.786 160.438 143.906C160.911 144.026 161.367 144.086 161.805 144.086C162.482 144.086 163.003 143.979 163.367 143.766C163.732 143.547 163.914 143.216 163.914 142.773C163.914 142.44 163.768 142.156 163.477 141.922C163.19 141.682 162.628 141.401 161.789 141.078C160.992 140.781 160.424 140.523 160.086 140.305C159.753 140.081 159.503 139.828 159.336 139.547C159.174 139.266 159.094 138.93 159.094 138.539C159.094 137.841 159.378 137.292 159.945 136.891C160.513 136.484 161.292 136.281 162.281 136.281C163.203 136.281 164.104 136.469 164.984 136.844L164.523 137.898C163.664 137.544 162.885 137.367 162.188 137.367C161.573 137.367 161.109 137.464 160.797 137.656C160.484 137.849 160.328 138.115 160.328 138.453C160.328 138.682 160.385 138.878 160.5 139.039C160.62 139.201 160.81 139.354 161.07 139.5C161.331 139.646 161.831 139.857 162.57 140.133C163.586 140.503 164.271 140.875 164.625 141.25C164.984 141.625 165.164 142.096 165.164 142.664ZM165.922 136.438H167.312L169.188 141.32C169.599 142.435 169.854 143.24 169.953 143.734H170.016C170.083 143.469 170.224 143.016 170.438 142.375C170.656 141.729 171.365 139.75 172.562 136.438H173.953L170.273 146.188C169.909 147.151 169.482 147.833 168.992 148.234C168.508 148.641 167.911 148.844 167.203 148.844C166.807 148.844 166.417 148.799 166.031 148.711V147.672C166.318 147.734 166.638 147.766 166.992 147.766C167.883 147.766 168.518 147.266 168.898 146.266L169.375 145.047L165.922 136.438ZM180.867 142.664C180.867 143.461 180.57 144.076 179.977 144.508C179.383 144.94 178.549 145.156 177.477 145.156C176.341 145.156 175.456 144.977 174.82 144.617V143.414C175.232 143.622 175.672 143.786 176.141 143.906C176.615 144.026 177.07 144.086 177.508 144.086C178.185 144.086 178.706 143.979 179.07 143.766C179.435 143.547 179.617 143.216 179.617 142.773C179.617 142.44 179.471 142.156 179.18 141.922C178.893 141.682 178.331 141.401 177.492 141.078C176.695 140.781 176.128 140.523 175.789 140.305C175.456 140.081 175.206 139.828 175.039 139.547C174.878 139.266 174.797 138.93 174.797 138.539C174.797 137.841 175.081 137.292 175.648 136.891C176.216 136.484 176.995 136.281 177.984 136.281C178.906 136.281 179.807 136.469 180.688 136.844L180.227 137.898C179.367 137.544 178.589 137.367 177.891 137.367C177.276 137.367 176.812 137.464 176.5 137.656C176.188 137.849 176.031 138.115 176.031 138.453C176.031 138.682 176.089 138.878 176.203 139.039C176.323 139.201 176.513 139.354 176.773 139.5C177.034 139.646 177.534 139.857 178.273 140.133C179.289 140.503 179.974 140.875 180.328 141.25C180.688 141.625 180.867 142.096 180.867 142.664ZM185.75 144.086C185.979 144.086 186.201 144.07 186.414 144.039C186.628 144.003 186.797 143.966 186.922 143.93V144.922C186.781 144.99 186.573 145.044 186.297 145.086C186.026 145.133 185.781 145.156 185.562 145.156C183.906 145.156 183.078 144.284 183.078 142.539V137.445H181.852V136.82L183.078 136.281L183.625 134.453H184.375V136.438H186.859V137.445H184.375V142.484C184.375 143 184.497 143.396 184.742 143.672C184.987 143.948 185.323 144.086 185.75 144.086ZM192.258 145.156C190.992 145.156 189.992 144.771 189.258 144C188.529 143.229 188.164 142.159 188.164 140.789C188.164 139.409 188.503 138.312 189.18 137.5C189.862 136.688 190.776 136.281 191.922 136.281C192.995 136.281 193.844 136.635 194.469 137.344C195.094 138.047 195.406 138.977 195.406 140.133V140.953H189.508C189.534 141.958 189.786 142.721 190.266 143.242C190.75 143.763 191.43 144.023 192.305 144.023C193.227 144.023 194.138 143.831 195.039 143.445V144.602C194.581 144.799 194.146 144.94 193.734 145.023C193.328 145.112 192.836 145.156 192.258 145.156ZM191.906 137.367C191.219 137.367 190.669 137.591 190.258 138.039C189.852 138.487 189.612 139.107 189.539 139.898H194.016C194.016 139.081 193.833 138.456 193.469 138.023C193.104 137.586 192.583 137.367 191.906 137.367ZM208.539 145V139.43C208.539 138.747 208.393 138.237 208.102 137.898C207.81 137.555 207.357 137.383 206.742 137.383C205.935 137.383 205.339 137.615 204.953 138.078C204.568 138.542 204.375 139.255 204.375 140.219V145H203.078V139.43C203.078 138.747 202.932 138.237 202.641 137.898C202.349 137.555 201.893 137.383 201.273 137.383C200.461 137.383 199.865 137.628 199.484 138.117C199.109 138.602 198.922 139.398 198.922 140.508V145H197.625V136.438H198.68L198.891 137.609H198.953C199.198 137.193 199.542 136.867 199.984 136.633C200.432 136.398 200.932 136.281 201.484 136.281C202.823 136.281 203.698 136.766 204.109 137.734H204.172C204.427 137.286 204.797 136.932 205.281 136.672C205.766 136.411 206.318 136.281 206.938 136.281C207.906 136.281 208.63 136.531 209.109 137.031C209.594 137.526 209.836 138.32 209.836 139.414V145H208.539Z" fill="#212121"/>
<rect x="24" y="171" width="24" height="24" rx="2" fill="#0D6EFD"/>
<path fill-rule="evenodd" clip-rule="evenodd" d="M41.853 177.949C42.0325 177.761 42.2388 177.667 42.472 177.667C42.7052 177.667 42.9116 177.761 43.091 177.949C43.2524 178.118 43.3332 178.33 43.3332 178.583C43.3332 178.837 43.2524 179.049 43.091 179.218L34.5063 188.272C34.4883 188.291 34.4704 188.309 34.4524 188.328C34.4345 188.347 34.4166 188.366 34.3986 188.385C34.2371 188.573 34.0353 188.667 33.7931 188.667C33.5509 188.667 33.3491 188.573 33.1876 188.385L28.9087 183.928C28.7472 183.759 28.6665 183.548 28.6665 183.294C28.6665 183.04 28.7472 182.828 28.9087 182.659C29.0881 182.471 29.2944 182.377 29.5277 182.377C29.7609 182.377 29.9672 182.471 30.1466 182.659L33.7797 186.467L41.853 177.949Z" fill="white"/>
<path d="M64.0156 185.961C64.0156 186.966 63.651 187.75 62.9219 188.312C62.1927 188.875 61.2031 189.156 59.9531 189.156C58.599 189.156 57.5573 188.982 56.8281 188.633V187.352C57.2969 187.549 57.8073 187.706 58.3594 187.82C58.9115 187.935 59.4583 187.992 60 187.992C60.8854 187.992 61.5521 187.826 62 187.492C62.4479 187.154 62.6719 186.685 62.6719 186.086C62.6719 185.69 62.5911 185.367 62.4297 185.117C62.2734 184.862 62.0078 184.628 61.6328 184.414C61.263 184.201 60.6979 183.958 59.9375 183.688C58.875 183.307 58.1146 182.857 57.6562 182.336C57.2031 181.815 56.9766 181.135 56.9766 180.297C56.9766 179.417 57.3073 178.716 57.9688 178.195C58.6302 177.674 59.5052 177.414 60.5938 177.414C61.7292 177.414 62.7734 177.622 63.7266 178.039L63.3125 179.195C62.3698 178.799 61.4531 178.602 60.5625 178.602C59.8594 178.602 59.3099 178.753 58.9141 179.055C58.5182 179.357 58.3203 179.776 58.3203 180.312C58.3203 180.708 58.3932 181.034 58.5391 181.289C58.6849 181.539 58.9297 181.771 59.2734 181.984C59.6224 182.193 60.1536 182.424 60.8672 182.68C62.0651 183.107 62.888 183.565 63.3359 184.055C63.7891 184.544 64.0156 185.18 64.0156 185.961ZM72.0156 189V183.461C72.0156 182.763 71.8568 182.242 71.5391 181.898C71.2214 181.555 70.724 181.383 70.0469 181.383C69.1458 181.383 68.487 181.628 68.0703 182.117C67.6589 182.607 67.4531 183.409 67.4531 184.523V189H66.1562V176.844H67.4531V180.523C67.4531 180.966 67.4323 181.333 67.3906 181.625H67.4688C67.724 181.214 68.0859 180.891 68.5547 180.656C69.0286 180.417 69.5677 180.297 70.1719 180.297C71.2188 180.297 72.0026 180.547 72.5234 181.047C73.0495 181.542 73.3125 182.331 73.3125 183.414V189H72.0156ZM83.375 184.711C83.375 186.107 83.0234 187.198 82.3203 187.984C81.6172 188.766 80.6458 189.156 79.4062 189.156C78.6406 189.156 77.9609 188.977 77.3672 188.617C76.7734 188.258 76.3151 187.742 75.9922 187.07C75.6693 186.398 75.5078 185.612 75.5078 184.711C75.5078 183.315 75.8568 182.229 76.5547 181.453C77.2526 180.672 78.2214 180.281 79.4609 180.281C80.6589 180.281 81.6094 180.68 82.3125 181.477C83.0208 182.273 83.375 183.352 83.375 184.711ZM76.8516 184.711C76.8516 185.805 77.0703 186.638 77.5078 187.211C77.9453 187.784 78.5885 188.07 79.4375 188.07C80.2865 188.07 80.9297 187.786 81.3672 187.219C81.8099 186.646 82.0312 185.81 82.0312 184.711C82.0312 183.622 81.8099 182.797 81.3672 182.234C80.9297 181.667 80.2812 181.383 79.4219 181.383C78.5729 181.383 77.9323 181.661 77.5 182.219C77.0677 182.776 76.8516 183.607 76.8516 184.711ZM92.6484 189L91.0781 183.977C90.9792 183.669 90.7943 182.971 90.5234 181.883H90.4609C90.2526 182.794 90.0703 183.497 89.9141 183.992L88.2969 189H86.7969L84.4609 180.438H85.8203C86.3724 182.589 86.7917 184.227 87.0781 185.352C87.3698 186.477 87.5365 187.234 87.5781 187.625H87.6406C87.6979 187.328 87.7891 186.945 87.9141 186.477C88.0443 186.003 88.1562 185.628 88.25 185.352L89.8203 180.438H91.2266L92.7578 185.352C93.0495 186.247 93.2474 187 93.3516 187.609H93.4141C93.4349 187.422 93.4896 187.133 93.5781 186.742C93.6719 186.352 94.2161 184.25 95.2109 180.438H96.5547L94.1875 189H92.6484ZM101.531 189.156C100.292 189.156 99.3307 188.776 98.6484 188.016C97.9714 187.25 97.6328 186.169 97.6328 184.773C97.6328 183.341 97.9766 182.234 98.6641 181.453C99.3568 180.672 100.341 180.281 101.617 180.281C102.029 180.281 102.44 180.326 102.852 180.414C103.263 180.503 103.586 180.607 103.82 180.727L103.422 181.828C103.135 181.714 102.823 181.62 102.484 181.547C102.146 181.469 101.846 181.43 101.586 181.43C99.8464 181.43 98.9766 182.539 98.9766 184.758C98.9766 185.81 99.1875 186.617 99.6094 187.18C100.036 187.742 100.667 188.023 101.5 188.023C102.214 188.023 102.945 187.87 103.695 187.562V188.711C103.122 189.008 102.401 189.156 101.531 189.156ZM111 189L110.742 187.781H110.68C110.253 188.318 109.826 188.682 109.398 188.875C108.977 189.062 108.448 189.156 107.812 189.156C106.964 189.156 106.297 188.938 105.812 188.5C105.333 188.062 105.094 187.44 105.094 186.633C105.094 184.904 106.477 183.997 109.242 183.914L110.695 183.867V183.336C110.695 182.664 110.549 182.169 110.258 181.852C109.971 181.529 109.51 181.367 108.875 181.367C108.161 181.367 107.354 181.586 106.453 182.023L106.055 181.031C106.477 180.802 106.938 180.622 107.438 180.492C107.943 180.362 108.448 180.297 108.953 180.297C109.974 180.297 110.729 180.523 111.219 180.977C111.714 181.43 111.961 182.156 111.961 183.156V189H111ZM108.07 188.086C108.878 188.086 109.51 187.865 109.969 187.422C110.432 186.979 110.664 186.359 110.664 185.562V184.789L109.367 184.844C108.336 184.88 107.591 185.042 107.133 185.328C106.68 185.609 106.453 186.049 106.453 186.648C106.453 187.117 106.594 187.474 106.875 187.719C107.161 187.964 107.56 188.086 108.07 188.086ZM120.164 186.664C120.164 187.461 119.867 188.076 119.273 188.508C118.68 188.94 117.846 189.156 116.773 189.156C115.638 189.156 114.753 188.977 114.117 188.617V187.414C114.529 187.622 114.969 187.786 115.438 187.906C115.911 188.026 116.367 188.086 116.805 188.086C117.482 188.086 118.003 187.979 118.367 187.766C118.732 187.547 118.914 187.216 118.914 186.773C118.914 186.44 118.768 186.156 118.477 185.922C118.19 185.682 117.628 185.401 116.789 185.078C115.992 184.781 115.424 184.523 115.086 184.305C114.753 184.081 114.503 183.828 114.336 183.547C114.174 183.266 114.094 182.93 114.094 182.539C114.094 181.841 114.378 181.292 114.945 180.891C115.513 180.484 116.292 180.281 117.281 180.281C118.203 180.281 119.104 180.469 119.984 180.844L119.523 181.898C118.664 181.544 117.885 181.367 117.188 181.367C116.573 181.367 116.109 181.464 115.797 181.656C115.484 181.849 115.328 182.115 115.328 182.453C115.328 182.682 115.385 182.878 115.5 183.039C115.62 183.201 115.81 183.354 116.07 183.5C116.331 183.646 116.831 183.857 117.57 184.133C118.586 184.503 119.271 184.875 119.625 185.25C119.984 185.625 120.164 186.096 120.164 186.664ZM125.898 189.156C124.633 189.156 123.633 188.771 122.898 188C122.169 187.229 121.805 186.159 121.805 184.789C121.805 183.409 122.143 182.312 122.82 181.5C123.503 180.688 124.417 180.281 125.562 180.281C126.635 180.281 127.484 180.635 128.109 181.344C128.734 182.047 129.047 182.977 129.047 184.133V184.953H123.148C123.174 185.958 123.427 186.721 123.906 187.242C124.391 187.763 125.07 188.023 125.945 188.023C126.867 188.023 127.779 187.831 128.68 187.445V188.602C128.221 188.799 127.786 188.94 127.375 189.023C126.969 189.112 126.477 189.156 125.898 189.156ZM125.547 181.367C124.859 181.367 124.31 181.591 123.898 182.039C123.492 182.487 123.253 183.107 123.18 183.898H127.656C127.656 183.081 127.474 182.456 127.109 182.023C126.745 181.586 126.224 181.367 125.547 181.367ZM140.688 189L140.43 187.781H140.367C139.94 188.318 139.513 188.682 139.086 188.875C138.664 189.062 138.135 189.156 137.5 189.156C136.651 189.156 135.984 188.938 135.5 188.5C135.021 188.062 134.781 187.44 134.781 186.633C134.781 184.904 136.164 183.997 138.93 183.914L140.383 183.867V183.336C140.383 182.664 140.237 182.169 139.945 181.852C139.659 181.529 139.198 181.367 138.562 181.367C137.849 181.367 137.042 181.586 136.141 182.023L135.742 181.031C136.164 180.802 136.625 180.622 137.125 180.492C137.63 180.362 138.135 180.297 138.641 180.297C139.661 180.297 140.417 180.523 140.906 180.977C141.401 181.43 141.648 182.156 141.648 183.156V189H140.688ZM137.758 188.086C138.565 188.086 139.198 187.865 139.656 187.422C140.12 186.979 140.352 186.359 140.352 185.562V184.789L139.055 184.844C138.023 184.88 137.279 185.042 136.82 185.328C136.367 185.609 136.141 186.049 136.141 186.648C136.141 187.117 136.281 187.474 136.562 187.719C136.849 187.964 137.247 188.086 137.758 188.086ZM150.188 189V183.461C150.188 182.763 150.029 182.242 149.711 181.898C149.393 181.555 148.896 181.383 148.219 181.383C147.323 181.383 146.667 181.625 146.25 182.109C145.833 182.594 145.625 183.393 145.625 184.508V189H144.328V180.438H145.383L145.594 181.609H145.656C145.922 181.188 146.294 180.862 146.773 180.633C147.253 180.398 147.786 180.281 148.375 180.281C149.406 180.281 150.182 180.531 150.703 181.031C151.224 181.526 151.484 182.32 151.484 183.414V189H150.188ZM159.984 187.852H159.914C159.315 188.721 158.419 189.156 157.227 189.156C156.107 189.156 155.234 188.773 154.609 188.008C153.99 187.242 153.68 186.154 153.68 184.742C153.68 183.331 153.992 182.234 154.617 181.453C155.242 180.672 156.112 180.281 157.227 180.281C158.388 180.281 159.279 180.703 159.898 181.547H160L159.945 180.93L159.914 180.328V176.844H161.211V189H160.156L159.984 187.852ZM157.391 188.07C158.276 188.07 158.917 187.831 159.312 187.352C159.714 186.867 159.914 186.089 159.914 185.016V184.742C159.914 183.529 159.711 182.664 159.305 182.148C158.904 181.628 158.26 181.367 157.375 181.367C156.615 181.367 156.031 181.664 155.625 182.258C155.224 182.846 155.023 183.68 155.023 184.758C155.023 185.852 155.224 186.677 155.625 187.234C156.026 187.792 156.615 188.07 157.391 188.07ZM173.984 189V183.461C173.984 182.763 173.826 182.242 173.508 181.898C173.19 181.555 172.693 181.383 172.016 181.383C171.12 181.383 170.464 181.625 170.047 182.109C169.63 182.594 169.422 183.393 169.422 184.508V189H168.125V180.438H169.18L169.391 181.609H169.453C169.719 181.188 170.091 180.862 170.57 180.633C171.049 180.398 171.583 180.281 172.172 180.281C173.203 180.281 173.979 180.531 174.5 181.031C175.021 181.526 175.281 182.32 175.281 183.414V189H173.984ZM181.57 189.156C180.305 189.156 179.305 188.771 178.57 188C177.841 187.229 177.477 186.159 177.477 184.789C177.477 183.409 177.815 182.312 178.492 181.5C179.174 180.688 180.089 180.281 181.234 180.281C182.307 180.281 183.156 180.635 183.781 181.344C184.406 182.047 184.719 182.977 184.719 184.133V184.953H178.82C178.846 185.958 179.099 186.721 179.578 187.242C180.062 187.763 180.742 188.023 181.617 188.023C182.539 188.023 183.451 187.831 184.352 187.445V188.602C183.893 188.799 183.458 188.94 183.047 189.023C182.641 189.112 182.148 189.156 181.57 189.156ZM181.219 181.367C180.531 181.367 179.982 181.591 179.57 182.039C179.164 182.487 178.924 183.107 178.852 183.898H183.328C183.328 183.081 183.146 182.456 182.781 182.023C182.417 181.586 181.896 181.367 181.219 181.367ZM193.93 189L192.359 183.977C192.26 183.669 192.076 182.971 191.805 181.883H191.742C191.534 182.794 191.352 183.497 191.195 183.992L189.578 189H188.078L185.742 180.438H187.102C187.654 182.589 188.073 184.227 188.359 185.352C188.651 186.477 188.818 187.234 188.859 187.625H188.922C188.979 187.328 189.07 186.945 189.195 186.477C189.326 186.003 189.438 185.628 189.531 185.352L191.102 180.438H192.508L194.039 185.352C194.331 186.247 194.529 187 194.633 187.609H194.695C194.716 187.422 194.771 187.133 194.859 186.742C194.953 186.352 195.497 184.25 196.492 180.438H197.836L195.469 189H193.93ZM204.914 186.664C204.914 187.461 204.617 188.076 204.023 188.508C203.43 188.94 202.596 189.156 201.523 189.156C200.388 189.156 199.503 188.977 198.867 188.617V187.414C199.279 187.622 199.719 187.786 200.188 187.906C200.661 188.026 201.117 188.086 201.555 188.086C202.232 188.086 202.753 187.979 203.117 187.766C203.482 187.547 203.664 187.216 203.664 186.773C203.664 186.44 203.518 186.156 203.227 185.922C202.94 185.682 202.378 185.401 201.539 185.078C200.742 184.781 200.174 184.523 199.836 184.305C199.503 184.081 199.253 183.828 199.086 183.547C198.924 183.266 198.844 182.93 198.844 182.539C198.844 181.841 199.128 181.292 199.695 180.891C200.263 180.484 201.042 180.281 202.031 180.281C202.953 180.281 203.854 180.469 204.734 180.844L204.273 181.898C203.414 181.544 202.635 181.367 201.938 181.367C201.323 181.367 200.859 181.464 200.547 181.656C200.234 181.849 200.078 182.115 200.078 182.453C200.078 182.682 200.135 182.878 200.25 183.039C200.37 183.201 200.56 183.354 200.82 183.5C201.081 183.646 201.581 183.857 202.32 184.133C203.336 184.503 204.021 184.875 204.375 185.25C204.734 185.625 204.914 186.096 204.914 186.664ZM208.328 189H207.031V176.844H208.328V189ZM214.695 189.156C213.43 189.156 212.43 188.771 211.695 188C210.966 187.229 210.602 186.159 210.602 184.789C210.602 183.409 210.94 182.312 211.617 181.5C212.299 180.688 213.214 180.281 214.359 180.281C215.432 180.281 216.281 180.635 216.906 181.344C217.531 182.047 217.844 182.977 217.844 184.133V184.953H211.945C211.971 185.958 212.224 186.721 212.703 187.242C213.188 187.763 213.867 188.023 214.742 188.023C215.664 188.023 216.576 187.831 217.477 187.445V188.602C217.018 188.799 216.583 188.94 216.172 189.023C215.766 189.112 215.273 189.156 214.695 189.156ZM214.344 181.367C213.656 181.367 213.107 181.591 212.695 182.039C212.289 182.487 212.049 183.107 211.977 183.898H216.453C216.453 183.081 216.271 182.456 215.906 182.023C215.542 181.586 215.021 181.367 214.344 181.367ZM222.828 188.086C223.057 188.086 223.279 188.07 223.492 188.039C223.706 188.003 223.875 187.966 224 187.93V188.922C223.859 188.99 223.651 189.044 223.375 189.086C223.104 189.133 222.859 189.156 222.641 189.156C220.984 189.156 220.156 188.284 220.156 186.539V181.445H218.93V180.82L220.156 180.281L220.703 178.453H221.453V180.438H223.938V181.445H221.453V186.484C221.453 187 221.576 187.396 221.82 187.672C222.065 187.948 222.401 188.086 222.828 188.086ZM228.484 188.086C228.714 188.086 228.935 188.07 229.148 188.039C229.362 188.003 229.531 187.966 229.656 187.93V188.922C229.516 188.99 229.307 189.044 229.031 189.086C228.76 189.133 228.516 189.156 228.297 189.156C226.641 189.156 225.812 188.284 225.812 186.539V181.445H224.586V180.82L225.812 180.281L226.359 178.453H227.109V180.438H229.594V181.445H227.109V186.484C227.109 187 227.232 187.396 227.477 187.672C227.721 187.948 228.057 188.086 228.484 188.086ZM234.992 189.156C233.727 189.156 232.727 188.771 231.992 188C231.263 187.229 230.898 186.159 230.898 184.789C230.898 183.409 231.237 182.312 231.914 181.5C232.596 180.688 233.51 180.281 234.656 180.281C235.729 180.281 236.578 180.635 237.203 181.344C237.828 182.047 238.141 182.977 238.141 184.133V184.953H232.242C232.268 185.958 232.521 186.721 233 187.242C233.484 187.763 234.164 188.023 235.039 188.023C235.961 188.023 236.872 187.831 237.773 187.445V188.602C237.315 188.799 236.88 188.94 236.469 189.023C236.062 189.112 235.57 189.156 234.992 189.156ZM234.641 181.367C233.953 181.367 233.404 181.591 232.992 182.039C232.586 182.487 232.346 183.107 232.273 183.898H236.75C236.75 183.081 236.568 182.456 236.203 182.023C235.839 181.586 235.318 181.367 234.641 181.367ZM244.266 180.281C244.646 180.281 244.987 180.312 245.289 180.375L245.109 181.578C244.755 181.5 244.443 181.461 244.172 181.461C243.479 181.461 242.885 181.742 242.391 182.305C241.901 182.867 241.656 183.568 241.656 184.406V189H240.359V180.438H241.43L241.578 182.023H241.641C241.958 181.466 242.341 181.036 242.789 180.734C243.237 180.432 243.729 180.281 244.266 180.281Z" fill="#212121"/>
<path fill-rule="evenodd" clip-rule="evenodd" d="M27 215H45C46.6569 215 48 216.343 48 218V236C48 237.657 46.6569 239 45 239H27C25.3431 239 24 237.657 24 236V218C24 216.343 25.3431 215 27 215ZM27 216.5C26.1716 216.5 25.5 217.172 25.5 218V236C25.5 236.828 26.1716 237.5 27 237.5H45C45.8284 237.5 46.5 236.828 46.5 236V218C46.5 217.172 45.8284 216.5 45 216.5H27Z" fill="#605F5F"/>
<path d="M64.0156 229.961C64.0156 230.966 63.651 231.75 62.9219 232.312C62.1927 232.875 61.2031 233.156 59.9531 233.156C58.599 233.156 57.5573 232.982 56.8281 232.633V231.352C57.2969 231.549 57.8073 231.706 58.3594 231.82C58.9115 231.935 59.4583 231.992 60 231.992C60.8854 231.992 61.5521 231.826 62 231.492C62.4479 231.154 62.6719 230.685 62.6719 230.086C62.6719 229.69 62.5911 229.367 62.4297 229.117C62.2734 228.862 62.0078 228.628 61.6328 228.414C61.263 228.201 60.6979 227.958 59.9375 227.688C58.875 227.307 58.1146 226.857 57.6562 226.336C57.2031 225.815 56.9766 225.135 56.9766 224.297C56.9766 223.417 57.3073 222.716 57.9688 222.195C58.6302 221.674 59.5052 221.414 60.5938 221.414C61.7292 221.414 62.7734 221.622 63.7266 222.039L63.3125 223.195C62.3698 222.799 61.4531 222.602 60.5625 222.602C59.8594 222.602 59.3099 222.753 58.9141 223.055C58.5182 223.357 58.3203 223.776 58.3203 224.312C58.3203 224.708 58.3932 225.034 58.5391 225.289C58.6849 225.539 58.9297 225.771 59.2734 225.984C59.6224 226.193 60.1536 226.424 60.8672 226.68C62.0651 227.107 62.888 227.565 63.3359 228.055C63.7891 228.544 64.0156 229.18 64.0156 229.961ZM72.0156 233V227.461C72.0156 226.763 71.8568 226.242 71.5391 225.898C71.2214 225.555 70.724 225.383 70.0469 225.383C69.1458 225.383 68.487 225.628 68.0703 226.117C67.6589 226.607 67.4531 227.409 67.4531 228.523V233H66.1562V220.844H67.4531V224.523C67.4531 224.966 67.4323 225.333 67.3906 225.625H67.4688C67.724 225.214 68.0859 224.891 68.5547 224.656C69.0286 224.417 69.5677 224.297 70.1719 224.297C71.2188 224.297 72.0026 224.547 72.5234 225.047C73.0495 225.542 73.3125 226.331 73.3125 227.414V233H72.0156ZM83.375 228.711C83.375 230.107 83.0234 231.198 82.3203 231.984C81.6172 232.766 80.6458 233.156 79.4062 233.156C78.6406 233.156 77.9609 232.977 77.3672 232.617C76.7734 232.258 76.3151 231.742 75.9922 231.07C75.6693 230.398 75.5078 229.612 75.5078 228.711C75.5078 227.315 75.8568 226.229 76.5547 225.453C77.2526 224.672 78.2214 224.281 79.4609 224.281C80.6589 224.281 81.6094 224.68 82.3125 225.477C83.0208 226.273 83.375 227.352 83.375 228.711ZM76.8516 228.711C76.8516 229.805 77.0703 230.638 77.5078 231.211C77.9453 231.784 78.5885 232.07 79.4375 232.07C80.2865 232.07 80.9297 231.786 81.3672 231.219C81.8099 230.646 82.0312 229.81 82.0312 228.711C82.0312 227.622 81.8099 226.797 81.3672 226.234C80.9297 225.667 80.2812 225.383 79.4219 225.383C78.5729 225.383 77.9323 225.661 77.5 226.219C77.0677 226.776 76.8516 227.607 76.8516 228.711ZM92.6484 233L91.0781 227.977C90.9792 227.669 90.7943 226.971 90.5234 225.883H90.4609C90.2526 226.794 90.0703 227.497 89.9141 227.992L88.2969 233H86.7969L84.4609 224.438H85.8203C86.3724 226.589 86.7917 228.227 87.0781 229.352C87.3698 230.477 87.5365 231.234 87.5781 231.625H87.6406C87.6979 231.328 87.7891 230.945 87.9141 230.477C88.0443 230.003 88.1562 229.628 88.25 229.352L89.8203 224.438H91.2266L92.7578 229.352C93.0495 230.247 93.2474 231 93.3516 231.609H93.4141C93.4349 231.422 93.4896 231.133 93.5781 230.742C93.6719 230.352 94.2161 228.25 95.2109 224.438H96.5547L94.1875 233H92.6484ZM101.531 233.156C100.292 233.156 99.3307 232.776 98.6484 232.016C97.9714 231.25 97.6328 230.169 97.6328 228.773C97.6328 227.341 97.9766 226.234 98.6641 225.453C99.3568 224.672 100.341 224.281 101.617 224.281C102.029 224.281 102.44 224.326 102.852 224.414C103.263 224.503 103.586 224.607 103.82 224.727L103.422 225.828C103.135 225.714 102.823 225.62 102.484 225.547C102.146 225.469 101.846 225.43 101.586 225.43C99.8464 225.43 98.9766 226.539 98.9766 228.758C98.9766 229.81 99.1875 230.617 99.6094 231.18C100.036 231.742 100.667 232.023 101.5 232.023C102.214 232.023 102.945 231.87 103.695 231.562V232.711C103.122 233.008 102.401 233.156 101.531 233.156ZM111 233L110.742 231.781H110.68C110.253 232.318 109.826 232.682 109.398 232.875C108.977 233.062 108.448 233.156 107.812 233.156C106.964 233.156 106.297 232.938 105.812 232.5C105.333 232.062 105.094 231.44 105.094 230.633C105.094 228.904 106.477 227.997 109.242 227.914L110.695 227.867V227.336C110.695 226.664 110.549 226.169 110.258 225.852C109.971 225.529 109.51 225.367 108.875 225.367C108.161 225.367 107.354 225.586 106.453 226.023L106.055 225.031C106.477 224.802 106.938 224.622 107.438 224.492C107.943 224.362 108.448 224.297 108.953 224.297C109.974 224.297 110.729 224.523 111.219 224.977C111.714 225.43 111.961 226.156 111.961 227.156V233H111ZM108.07 232.086C108.878 232.086 109.51 231.865 109.969 231.422C110.432 230.979 110.664 230.359 110.664 229.562V228.789L109.367 228.844C108.336 228.88 107.591 229.042 107.133 229.328C106.68 229.609 106.453 230.049 106.453 230.648C106.453 231.117 106.594 231.474 106.875 231.719C107.161 231.964 107.56 232.086 108.07 232.086ZM120.164 230.664C120.164 231.461 119.867 232.076 119.273 232.508C118.68 232.94 117.846 233.156 116.773 233.156C115.638 233.156 114.753 232.977 114.117 232.617V231.414C114.529 231.622 114.969 231.786 115.438 231.906C115.911 232.026 116.367 232.086 116.805 232.086C117.482 232.086 118.003 231.979 118.367 231.766C118.732 231.547 118.914 231.216 118.914 230.773C118.914 230.44 118.768 230.156 118.477 229.922C118.19 229.682 117.628 229.401 116.789 229.078C115.992 228.781 115.424 228.523 115.086 228.305C114.753 228.081 114.503 227.828 114.336 227.547C114.174 227.266 114.094 226.93 114.094 226.539C114.094 225.841 114.378 225.292 114.945 224.891C115.513 224.484 116.292 224.281 117.281 224.281C118.203 224.281 119.104 224.469 119.984 224.844L119.523 225.898C118.664 225.544 117.885 225.367 117.188 225.367C116.573 225.367 116.109 225.464 115.797 225.656C115.484 225.849 115.328 226.115 115.328 226.453C115.328 226.682 115.385 226.878 115.5 227.039C115.62 227.201 115.81 227.354 116.07 227.5C116.331 227.646 116.831 227.857 117.57 228.133C118.586 228.503 119.271 228.875 119.625 229.25C119.984 229.625 120.164 230.096 120.164 230.664ZM125.898 233.156C124.633 233.156 123.633 232.771 122.898 232C122.169 231.229 121.805 230.159 121.805 228.789C121.805 227.409 122.143 226.312 122.82 225.5C123.503 224.688 124.417 224.281 125.562 224.281C126.635 224.281 127.484 224.635 128.109 225.344C128.734 226.047 129.047 226.977 129.047 228.133V228.953H123.148C123.174 229.958 123.427 230.721 123.906 231.242C124.391 231.763 125.07 232.023 125.945 232.023C126.867 232.023 127.779 231.831 128.68 231.445V232.602C128.221 232.799 127.786 232.94 127.375 233.023C126.969 233.112 126.477 233.156 125.898 233.156ZM125.547 225.367C124.859 225.367 124.31 225.591 123.898 226.039C123.492 226.487 123.253 227.107 123.18 227.898H127.656C127.656 227.081 127.474 226.456 127.109 226.023C126.745 225.586 126.224 225.367 125.547 225.367ZM140.688 233L140.43 231.781H140.367C139.94 232.318 139.513 232.682 139.086 232.875C138.664 233.062 138.135 233.156 137.5 233.156C136.651 233.156 135.984 232.938 135.5 232.5C135.021 232.062 134.781 231.44 134.781 230.633C134.781 228.904 136.164 227.997 138.93 227.914L140.383 227.867V227.336C140.383 226.664 140.237 226.169 139.945 225.852C139.659 225.529 139.198 225.367 138.562 225.367C137.849 225.367 137.042 225.586 136.141 226.023L135.742 225.031C136.164 224.802 136.625 224.622 137.125 224.492C137.63 224.362 138.135 224.297 138.641 224.297C139.661 224.297 140.417 224.523 140.906 224.977C141.401 225.43 141.648 226.156 141.648 227.156V233H140.688ZM137.758 232.086C138.565 232.086 139.198 231.865 139.656 231.422C140.12 230.979 140.352 230.359 140.352 229.562V228.789L139.055 228.844C138.023 228.88 137.279 229.042 136.82 229.328C136.367 229.609 136.141 230.049 136.141 230.648C136.141 231.117 136.281 231.474 136.562 231.719C136.849 231.964 137.247 232.086 137.758 232.086ZM150.188 233V227.461C150.188 226.763 150.029 226.242 149.711 225.898C149.393 225.555 148.896 225.383 148.219 225.383C147.323 225.383 146.667 225.625 146.25 226.109C145.833 226.594 145.625 227.393 145.625 228.508V233H144.328V224.438H145.383L145.594 225.609H145.656C145.922 225.188 146.294 224.862 146.773 224.633C147.253 224.398 147.786 224.281 148.375 224.281C149.406 224.281 150.182 224.531 150.703 225.031C151.224 225.526 151.484 226.32 151.484 227.414V233H150.188ZM159.984 231.852H159.914C159.315 232.721 158.419 233.156 157.227 233.156C156.107 233.156 155.234 232.773 154.609 232.008C153.99 231.242 153.68 230.154 153.68 228.742C153.68 227.331 153.992 226.234 154.617 225.453C155.242 224.672 156.112 224.281 157.227 224.281C158.388 224.281 159.279 224.703 159.898 225.547H160L159.945 224.93L159.914 224.328V220.844H161.211V233H160.156L159.984 231.852ZM157.391 232.07C158.276 232.07 158.917 231.831 159.312 231.352C159.714 230.867 159.914 230.089 159.914 229.016V228.742C159.914 227.529 159.711 226.664 159.305 226.148C158.904 225.628 158.26 225.367 157.375 225.367C156.615 225.367 156.031 225.664 155.625 226.258C155.224 226.846 155.023 227.68 155.023 228.758C155.023 229.852 155.224 230.677 155.625 231.234C156.026 231.792 156.615 232.07 157.391 232.07ZM173.984 233V227.461C173.984 226.763 173.826 226.242 173.508 225.898C173.19 225.555 172.693 225.383 172.016 225.383C171.12 225.383 170.464 225.625 170.047 226.109C169.63 226.594 169.422 227.393 169.422 228.508V233H168.125V224.438H169.18L169.391 225.609H169.453C169.719 225.188 170.091 224.862 170.57 224.633C171.049 224.398 171.583 224.281 172.172 224.281C173.203 224.281 173.979 224.531 174.5 225.031C175.021 225.526 175.281 226.32 175.281 227.414V233H173.984ZM181.57 233.156C180.305 233.156 179.305 232.771 178.57 232C177.841 231.229 177.477 230.159 177.477 228.789C177.477 227.409 177.815 226.312 178.492 225.5C179.174 224.688 180.089 224.281 181.234 224.281C182.307 224.281 183.156 224.635 183.781 225.344C184.406 226.047 184.719 226.977 184.719 228.133V228.953H178.82C178.846 229.958 179.099 230.721 179.578 231.242C180.062 231.763 180.742 232.023 181.617 232.023C182.539 232.023 183.451 231.831 184.352 231.445V232.602C183.893 232.799 183.458 232.94 183.047 233.023C182.641 233.112 182.148 233.156 181.57 233.156ZM181.219 225.367C180.531 225.367 179.982 225.591 179.57 226.039C179.164 226.487 178.924 227.107 178.852 227.898H183.328C183.328 227.081 183.146 226.456 182.781 226.023C182.417 225.586 181.896 225.367 181.219 225.367ZM193.93 233L192.359 227.977C192.26 227.669 192.076 226.971 191.805 225.883H191.742C191.534 226.794 191.352 227.497 191.195 227.992L189.578 233H188.078L185.742 224.438H187.102C187.654 226.589 188.073 228.227 188.359 229.352C188.651 230.477 188.818 231.234 188.859 231.625H188.922C188.979 231.328 189.07 230.945 189.195 230.477C189.326 230.003 189.438 229.628 189.531 229.352L191.102 224.438H192.508L194.039 229.352C194.331 230.247 194.529 231 194.633 231.609H194.695C194.716 231.422 194.771 231.133 194.859 230.742C194.953 230.352 195.497 228.25 196.492 224.438H197.836L195.469 233H193.93ZM204.914 230.664C204.914 231.461 204.617 232.076 204.023 232.508C203.43 232.94 202.596 233.156 201.523 233.156C200.388 233.156 199.503 232.977 198.867 232.617V231.414C199.279 231.622 199.719 231.786 200.188 231.906C200.661 232.026 201.117 232.086 201.555 232.086C202.232 232.086 202.753 231.979 203.117 231.766C203.482 231.547 203.664 231.216 203.664 230.773C203.664 230.44 203.518 230.156 203.227 229.922C202.94 229.682 202.378 229.401 201.539 229.078C200.742 228.781 200.174 228.523 199.836 228.305C199.503 228.081 199.253 227.828 199.086 227.547C198.924 227.266 198.844 226.93 198.844 226.539C198.844 225.841 199.128 225.292 199.695 224.891C200.263 224.484 201.042 224.281 202.031 224.281C202.953 224.281 203.854 224.469 204.734 224.844L204.273 225.898C203.414 225.544 202.635 225.367 201.938 225.367C201.323 225.367 200.859 225.464 200.547 225.656C200.234 225.849 200.078 226.115 200.078 226.453C200.078 226.682 200.135 226.878 200.25 227.039C200.37 227.201 200.56 227.354 200.82 227.5C201.081 227.646 201.581 227.857 202.32 228.133C203.336 228.503 204.021 228.875 204.375 229.25C204.734 229.625 204.914 230.096 204.914 230.664ZM208.328 233H207.031V220.844H208.328V233ZM214.695 233.156C213.43 233.156 212.43 232.771 211.695 232C210.966 231.229 210.602 230.159 210.602 228.789C210.602 227.409 210.94 226.312 211.617 225.5C212.299 224.688 213.214 224.281 214.359 224.281C215.432 224.281 216.281 224.635 216.906 225.344C217.531 226.047 217.844 226.977 217.844 228.133V228.953H211.945C211.971 229.958 212.224 230.721 212.703 231.242C213.188 231.763 213.867 232.023 214.742 232.023C215.664 232.023 216.576 231.831 217.477 231.445V232.602C217.018 232.799 216.583 232.94 216.172 233.023C215.766 233.112 215.273 233.156 214.695 233.156ZM214.344 225.367C213.656 225.367 213.107 225.591 212.695 226.039C212.289 226.487 212.049 227.107 211.977 227.898H216.453C216.453 227.081 216.271 226.456 215.906 226.023C215.542 225.586 215.021 225.367 214.344 225.367ZM222.828 232.086C223.057 232.086 223.279 232.07 223.492 232.039C223.706 232.003 223.875 231.966 224 231.93V232.922C223.859 232.99 223.651 233.044 223.375 233.086C223.104 233.133 222.859 233.156 222.641 233.156C220.984 233.156 220.156 232.284 220.156 230.539V225.445H218.93V224.82L220.156 224.281L220.703 222.453H221.453V224.438H223.938V225.445H221.453V230.484C221.453 231 221.576 231.396 221.82 231.672C222.065 231.948 222.401 232.086 222.828 232.086ZM228.484 232.086C228.714 232.086 228.935 232.07 229.148 232.039C229.362 232.003 229.531 231.966 229.656 231.93V232.922C229.516 232.99 229.307 233.044 229.031 233.086C228.76 233.133 228.516 233.156 228.297 233.156C226.641 233.156 225.812 232.284 225.812 230.539V225.445H224.586V224.82L225.812 224.281L226.359 222.453H227.109V224.438H229.594V225.445H227.109V230.484C227.109 231 227.232 231.396 227.477 231.672C227.721 231.948 228.057 232.086 228.484 232.086ZM234.992 233.156C233.727 233.156 232.727 232.771 231.992 232C231.263 231.229 230.898 230.159 230.898 228.789C230.898 227.409 231.237 226.312 231.914 225.5C232.596 224.688 233.51 224.281 234.656 224.281C235.729 224.281 236.578 224.635 237.203 225.344C237.828 226.047 238.141 226.977 238.141 228.133V228.953H232.242C232.268 229.958 232.521 230.721 233 231.242C233.484 231.763 234.164 232.023 235.039 232.023C235.961 232.023 236.872 231.831 237.773 231.445V232.602C237.315 232.799 236.88 232.94 236.469 233.023C236.062 233.112 235.57 233.156 234.992 233.156ZM234.641 225.367C233.953 225.367 233.404 225.591 232.992 226.039C232.586 226.487 232.346 227.107 232.273 227.898H236.75C236.75 227.081 236.568 226.456 236.203 226.023C235.839 225.586 235.318 225.367 234.641 225.367ZM244.266 224.281C244.646 224.281 244.987 224.312 245.289 224.375L245.109 225.578C244.755 225.5 244.443 225.461 244.172 225.461C243.479 225.461 242.885 225.742 242.391 226.305C241.901 226.867 241.656 227.568 241.656 228.406V233H240.359V224.438H241.43L241.578 226.023H241.641C241.958 225.466 242.341 225.036 242.789 224.734C243.237 224.432 243.729 224.281 244.266 224.281Z" fill="#212121"/>
<path fill-rule="evenodd" clip-rule="evenodd" d="M27 259H45C46.6569 259 48 260.343 48 262V280C48 281.657 46.6569 283 45 283H27C25.3431 283 24 281.657 24 280V262C24 260.343 25.3431 259 27 259ZM27 260.5C26.1716 260.5 25.5 261.172 25.5 262V280C25.5 280.828 26.1716 281.5 27 281.5H45C45.8284 281.5 46.5 280.828 46.5 280V262C46.5 261.172 45.8284 260.5 45 260.5H27Z" fill="#605F5F"/>
<path d="M66.2422 277H64.9141V271.625H58.8984V277H57.5703V265.578H58.8984V270.438H64.9141V265.578H66.2422V277ZM74.4531 277L74.1953 275.781H74.1328C73.7057 276.318 73.2786 276.682 72.8516 276.875C72.4297 277.062 71.901 277.156 71.2656 277.156C70.4167 277.156 69.75 276.938 69.2656 276.5C68.7865 276.062 68.5469 275.44 68.5469 274.633C68.5469 272.904 69.9297 271.997 72.6953 271.914L74.1484 271.867V271.336C74.1484 270.664 74.0026 270.169 73.7109 269.852C73.4245 269.529 72.9635 269.367 72.3281 269.367C71.6146 269.367 70.8073 269.586 69.9062 270.023L69.5078 269.031C69.9297 268.802 70.3906 268.622 70.8906 268.492C71.3958 268.362 71.901 268.297 72.4062 268.297C73.4271 268.297 74.1823 268.523 74.6719 268.977C75.1667 269.43 75.4141 270.156 75.4141 271.156V277H74.4531ZM71.5234 276.086C72.3307 276.086 72.9635 275.865 73.4219 275.422C73.8854 274.979 74.1172 274.359 74.1172 273.562V272.789L72.8203 272.844C71.7891 272.88 71.0443 273.042 70.5859 273.328C70.1328 273.609 69.9062 274.049 69.9062 274.648C69.9062 275.117 70.0469 275.474 70.3281 275.719C70.6146 275.964 71.013 276.086 71.5234 276.086ZM79.9688 277L76.7188 268.438H78.1094L79.9531 273.516C80.3698 274.703 80.6146 275.474 80.6875 275.828H80.75C80.8073 275.552 80.987 274.982 81.2891 274.117C81.5964 273.247 82.2812 271.354 83.3438 268.438H84.7344L81.4844 277H79.9688ZM89.7266 277.156C88.4609 277.156 87.4609 276.771 86.7266 276C85.9974 275.229 85.6328 274.159 85.6328 272.789C85.6328 271.409 85.9714 270.312 86.6484 269.5C87.3307 268.688 88.2448 268.281 89.3906 268.281C90.4635 268.281 91.3125 268.635 91.9375 269.344C92.5625 270.047 92.875 270.977 92.875 272.133V272.953H86.9766C87.0026 273.958 87.2552 274.721 87.7344 275.242C88.2188 275.763 88.8984 276.023 89.7734 276.023C90.6953 276.023 91.6068 275.831 92.5078 275.445V276.602C92.0495 276.799 91.6146 276.94 91.2031 277.023C90.7969 277.112 90.3047 277.156 89.7266 277.156ZM89.375 269.367C88.6875 269.367 88.138 269.591 87.7266 270.039C87.3203 270.487 87.0807 271.107 87.0078 271.898H91.4844C91.4844 271.081 91.3021 270.456 90.9375 270.023C90.5729 269.586 90.0521 269.367 89.375 269.367ZM104.516 277L104.258 275.781H104.195C103.768 276.318 103.341 276.682 102.914 276.875C102.492 277.062 101.964 277.156 101.328 277.156C100.479 277.156 99.8125 276.938 99.3281 276.5C98.849 276.062 98.6094 275.44 98.6094 274.633C98.6094 272.904 99.9922 271.997 102.758 271.914L104.211 271.867V271.336C104.211 270.664 104.065 270.169 103.773 269.852C103.487 269.529 103.026 269.367 102.391 269.367C101.677 269.367 100.87 269.586 99.9688 270.023L99.5703 269.031C99.9922 268.802 100.453 268.622 100.953 268.492C101.458 268.362 101.964 268.297 102.469 268.297C103.49 268.297 104.245 268.523 104.734 268.977C105.229 269.43 105.477 270.156 105.477 271.156V277H104.516ZM101.586 276.086C102.393 276.086 103.026 275.865 103.484 275.422C103.948 274.979 104.18 274.359 104.18 273.562V272.789L102.883 272.844C101.852 272.88 101.107 273.042 100.648 273.328C100.195 273.609 99.9688 274.049 99.9688 274.648C99.9688 275.117 100.109 275.474 100.391 275.719C100.677 275.964 101.076 276.086 101.586 276.086ZM116.297 268.297C117.422 268.297 118.294 268.682 118.914 269.453C119.539 270.219 119.852 271.305 119.852 272.711C119.852 274.117 119.536 275.211 118.906 275.992C118.281 276.768 117.411 277.156 116.297 277.156C115.74 277.156 115.229 277.055 114.766 276.852C114.307 276.643 113.922 276.326 113.609 275.898H113.516L113.242 277H112.312V264.844H113.609V267.797C113.609 268.458 113.589 269.052 113.547 269.578H113.609C114.214 268.724 115.109 268.297 116.297 268.297ZM116.109 269.383C115.224 269.383 114.586 269.638 114.195 270.148C113.805 270.654 113.609 271.508 113.609 272.711C113.609 273.914 113.81 274.776 114.211 275.297C114.612 275.812 115.255 276.07 116.141 276.07C116.938 276.07 117.531 275.781 117.922 275.203C118.312 274.62 118.508 273.784 118.508 272.695C118.508 271.581 118.312 270.75 117.922 270.203C117.531 269.656 116.927 269.383 116.109 269.383ZM126.031 268.281C126.411 268.281 126.753 268.312 127.055 268.375L126.875 269.578C126.521 269.5 126.208 269.461 125.938 269.461C125.245 269.461 124.651 269.742 124.156 270.305C123.667 270.867 123.422 271.568 123.422 272.406V277H122.125V268.438H123.195L123.344 270.023H123.406C123.724 269.466 124.107 269.036 124.555 268.734C125.003 268.432 125.495 268.281 126.031 268.281ZM132.273 277.156C131.008 277.156 130.008 276.771 129.273 276C128.544 275.229 128.18 274.159 128.18 272.789C128.18 271.409 128.518 270.312 129.195 269.5C129.878 268.688 130.792 268.281 131.938 268.281C133.01 268.281 133.859 268.635 134.484 269.344C135.109 270.047 135.422 270.977 135.422 272.133V272.953H129.523C129.549 273.958 129.802 274.721 130.281 275.242C130.766 275.763 131.445 276.023 132.32 276.023C133.242 276.023 134.154 275.831 135.055 275.445V276.602C134.596 276.799 134.161 276.94 133.75 277.023C133.344 277.112 132.852 277.156 132.273 277.156ZM131.922 269.367C131.234 269.367 130.685 269.591 130.273 270.039C129.867 270.487 129.628 271.107 129.555 271.898H134.031C134.031 271.081 133.849 270.456 133.484 270.023C133.12 269.586 132.599 269.367 131.922 269.367ZM142.906 277L142.648 275.781H142.586C142.159 276.318 141.732 276.682 141.305 276.875C140.883 277.062 140.354 277.156 139.719 277.156C138.87 277.156 138.203 276.938 137.719 276.5C137.24 276.062 137 275.44 137 274.633C137 272.904 138.383 271.997 141.148 271.914L142.602 271.867V271.336C142.602 270.664 142.456 270.169 142.164 269.852C141.878 269.529 141.417 269.367 140.781 269.367C140.068 269.367 139.26 269.586 138.359 270.023L137.961 269.031C138.383 268.802 138.844 268.622 139.344 268.492C139.849 268.362 140.354 268.297 140.859 268.297C141.88 268.297 142.635 268.523 143.125 268.977C143.62 269.43 143.867 270.156 143.867 271.156V277H142.906ZM139.977 276.086C140.784 276.086 141.417 275.865 141.875 275.422C142.339 274.979 142.57 274.359 142.57 273.562V272.789L141.273 272.844C140.242 272.88 139.497 273.042 139.039 273.328C138.586 273.609 138.359 274.049 138.359 274.648C138.359 275.117 138.5 275.474 138.781 275.719C139.068 275.964 139.466 276.086 139.977 276.086ZM147.828 272.617C148.052 272.299 148.393 271.883 148.852 271.367L151.617 268.438H153.156L149.688 272.086L153.398 277H151.828L148.805 272.953L147.828 273.797V277H146.547V264.844H147.828V271.289C147.828 271.576 147.807 272.018 147.766 272.617H147.828ZM156.125 273.852H155.305L154.906 265.578H156.523L156.125 273.852ZM154.766 276.172C154.766 275.464 155.078 275.109 155.703 275.109C156.005 275.109 156.237 275.201 156.398 275.383C156.565 275.565 156.648 275.828 156.648 276.172C156.648 276.505 156.565 276.766 156.398 276.953C156.232 277.135 156 277.227 155.703 277.227C155.432 277.227 155.208 277.146 155.031 276.984C154.854 276.818 154.766 276.547 154.766 276.172Z" fill="#212121"/>
</g>
<defs>
<clipPath id="clip0_878_100275">
<rect width="1003" height="385" fill="white"/>
</clipPath>
<clipPath id="clip1_878_100275">
<rect width="1003" height="65" fill="white"/>
</clipPath>
</defs>
</svg>
